<svg width="215" height="26" viewBox="0 0 215 26" fill="none" xmlns="http://www.w3.org/2000/svg">
<path d="M2.218 0.363281L7.054 23.3803L12.217 0.618282H14.69L19.962 23.3803L24.689 0.363281H26.907L21.635 25.5633H18.362L13.417 3.74628L8.69 25.5633H5.41699L0 0.363281H2.218Z" fill="white"/>
<path d="M29.2344 0.363281H44.2884V2.47228H31.4524V11.6723H42.1064V13.7813H31.4524V23.4903H44.2884V25.5633H29.2344V0.363281Z" fill="white"/>
<path d="M49.1946 0.363281H46.9766V25.5623H49.1946V0.363281Z" fill="white"/>
<path d="M62.6532 12.835H69.4892V25.016C66.8214 25.4953 64.1249 25.799 61.4172 25.925C53.8542 25.925 51.7812 21.162 51.7812 13.017C51.7812 4.872 53.7812 0 61.3812 0C64.1074 0.067486 66.8216 0.383799 69.4902 0.945L69.3812 2.981C66.7996 2.50863 64.1864 2.22919 61.5632 2.145C55.4182 2.145 54.1093 5.999 54.1093 13.017C54.1093 19.998 55.4183 23.78 61.5273 23.78C63.4523 23.7026 65.3708 23.5083 67.2722 23.198V14.908H62.6542V12.835H62.6532Z" fill="white"/>
<path d="M88.067 13.9263H74.432V25.5633H72.25V0.363281H74.432V11.8173H88.068V0.363281H90.286V25.5633H88.068L88.067 13.9263Z" fill="white"/>
<path d="M92.7188 0.363281H110.791V2.47228H102.9V25.5633H100.719V2.47228H92.7188V0.363281Z" fill="white"/>
<path d="M126.138 12.6173H133.119V25.0893C130.401 25.5559 127.656 25.8475 124.901 25.9623C117.229 25.9623 115.047 21.2713 115.047 13.0173C115.047 4.47227 117.338 0.0722656 124.792 0.0722656C127.593 0.154216 130.381 0.494997 133.119 1.09026L132.974 4.18126C130.42 3.80779 127.845 3.58906 125.265 3.52626C119.993 3.52626 118.683 6.28926 118.683 13.0533C118.683 19.7073 119.81 22.6163 125.155 22.6163C126.653 22.5718 128.146 22.4383 129.628 22.2163V15.7803H126.101V12.6173H126.138Z" fill="white"/>
<path d="M145.008 22.4727C148.39 22.4727 150.498 21.3087 150.498 17.7817V0.472656H154.026V17.7447C154.026 23.5987 150.825 25.8897 144.971 25.8897C139.262 25.8897 136.062 23.5987 136.062 17.7447V0.472656H139.554V17.7447C139.627 21.3447 141.772 22.4727 145.008 22.4727Z" fill="white"/>
<path d="M166.716 16.5428H160.389V25.5968H156.898V0.507812H166.279C171.806 0.507812 174.497 2.83481 174.497 8.36181C174.497 12.1798 173.115 14.4708 170.243 15.6338L174.643 25.6338H170.788L166.716 16.5428ZM166.28 3.81581H160.426V13.2338H166.316C169.698 13.2338 170.861 11.3068 170.861 8.43382C170.861 5.27081 169.371 3.81581 166.28 3.81581Z" fill="white"/>
<path d="M186.171 22.4727C189.516 22.4727 191.662 21.3087 191.662 17.7817V0.472656H195.189V17.7447C195.189 23.5987 191.989 25.8897 186.135 25.8897C180.426 25.8897 177.227 23.5987 177.227 17.7447V0.472656H180.718V17.7447C180.754 21.3447 182.9 22.4717 186.172 22.4717" fill="white"/>
<path d="M213.737 4.07111C213.737 4.07111 208.683 3.45311 206.574 3.45311C203.301 3.45311 201.665 4.54411 201.665 6.94411C201.665 9.63511 203.156 10.2171 207.41 11.2351C212.5 12.5801 214.537 13.9261 214.537 18.3251C214.537 23.6341 211.264 25.9251 206.21 25.9251C203.649 25.8054 201.099 25.5262 198.574 25.0891L198.938 21.8891C198.938 21.8891 203.592 22.5071 206.174 22.5071C209.41 22.5071 211.01 21.3801 211.01 18.4351C211.01 16.0351 209.737 15.2721 205.847 14.3991C200.538 13.1631 198.102 11.6721 198.102 7.01811C198.102 2.29111 201.338 0.0371094 206.574 0.0371094C209.074 0.147344 211.565 0.426651 214.028 0.873112L213.737 4.07111Z" fill="white"/>
</svg>
