<svg width="868" height="867" viewBox="0 0 868 867" fill="none" xmlns="http://www.w3.org/2000/svg">
<path d="M766.639 0H101.935C46.0728 0 0.787109 45.2857 0.787109 101.148V765.852C0.787109 821.714 46.0728 867 101.935 867H766.639C822.501 867 867.787 821.714 867.787 765.852V101.148C867.787 45.2857 822.501 0 766.639 0Z" fill="#171818"/>
<path d="M766.638 7.22485H101.935C50.0627 7.22485 8.01172 49.2758 8.01172 101.148V765.852C8.01172 817.724 50.0627 859.775 101.935 859.775H766.638C818.511 859.775 860.562 817.724 860.562 765.852V101.148C860.562 49.2758 818.511 7.22485 766.638 7.22485Z" fill="#171818" stroke="#040000" stroke-width="1.46" stroke-miterlimit="10"/>
<g opacity="0.4">
<path d="M492.834 267.642L471.054 268.251C455.415 268.684 442.959 281.491 442.959 297.136V524.535H831.662C847.622 524.535 860.561 511.596 860.561 495.635V101.148C860.561 49.2732 818.513 7.22485 766.638 7.22485H549.828C533.868 7.22485 520.929 20.1639 520.929 36.1244V238.757C520.929 254.403 508.473 267.209 492.834 267.642Z" fill="#20242D"/>
<path d="M425.614 524.535V297.136C425.614 281.491 413.158 268.684 397.519 268.251L375.739 267.642C360.101 267.209 347.644 254.403 347.644 238.757V36.1244C347.644 20.1639 334.705 7.22485 318.745 7.22485H101.935C50.0601 7.22485 8.01172 49.2732 8.01172 101.148V495.635C8.01172 511.596 20.9508 524.535 36.9112 524.535H425.614Z" fill="#20242D"/>
<path d="M442.959 541.873V830.875C442.959 846.836 455.898 859.775 471.858 859.775H766.638C818.513 859.775 860.561 817.726 860.561 765.851V570.78C860.561 554.819 847.622 541.88 831.662 541.88H442.959V541.873Z" fill="#20242D"/>
<path d="M425.614 541.873H36.9112C20.9508 541.873 8.01172 554.812 8.01172 570.773V765.845C8.01172 817.72 50.0601 859.768 101.935 859.768H396.715C412.675 859.768 425.614 846.829 425.614 830.869V541.866V541.873Z" fill="#20242D"/>
</g>
<path d="M463.187 559.212C477.553 559.212 489.198 547.566 489.198 533.201C489.198 518.835 477.553 507.19 463.187 507.19H405.388C391.022 507.19 379.377 518.835 379.377 533.201C379.377 547.566 391.022 559.212 405.388 559.212H463.187Z" fill="url(#paint0_linear_16487_233093)"/>
<path d="M405.388 556.323C392.638 556.323 382.266 545.951 382.266 533.201C382.266 520.45 392.638 510.078 405.388 510.078H463.187C475.937 510.078 486.31 520.45 486.31 533.201C486.31 545.951 475.937 556.323 463.187 556.323H405.388Z" fill="#D0D0D0"/>
<path d="M442.799 535.467C443.911 535.446 444.974 535.844 445.793 536.579C445.891 536.67 446.038 536.67 446.128 536.579L446.989 535.719C447.087 535.621 447.087 535.467 446.989 535.369C445.709 534.187 444.002 533.613 442.226 533.802C439.442 534.096 437.19 536.32 436.868 539.104C436.428 542.887 439.505 546.091 443.254 545.867C444.583 545.79 445.842 545.237 446.87 544.384C446.996 544.279 447.073 544.118 447.073 543.951V539.558C447.073 539.425 446.961 539.313 446.828 539.313H442.722C442.589 539.313 442.478 539.418 442.478 539.558V540.775C442.478 540.908 442.582 541.02 442.722 541.02H445.128C445.261 541.02 445.373 541.125 445.373 541.265V543.097C445.373 543.3 445.268 543.482 445.093 543.587C444.429 543.979 443.667 544.188 442.883 544.188C440.407 544.188 438.407 542.111 438.533 539.6C438.652 537.341 440.54 535.516 442.799 535.474V535.467Z" fill="#A3A2A2"/>
<path d="M447.695 522.891L446.527 522.556C446.401 522.521 446.275 522.591 446.233 522.716C444.911 526.675 439.4 528.151 435.357 529.235L434.693 529.41C434.602 529.438 434.518 529.354 434.539 529.263C434.854 527.997 436.092 523.262 436.42 522.108C436.455 521.982 436.385 521.856 436.267 521.814L435.105 521.437C434.98 521.395 434.84 521.465 434.798 521.597C434.784 521.632 434.777 521.667 434.763 521.709C434.742 521.786 434.637 521.807 434.588 521.737C434.35 521.416 434.063 521.136 433.728 520.905C431.49 519.338 427.937 520.527 425.81 523.563C423.684 526.598 423.775 530.347 426.02 531.914C426.202 532.04 426.433 532.172 426.727 532.298C426.824 532.34 426.838 532.48 426.748 532.536C425.349 533.424 424.118 534.467 423.076 535.649C421.754 537.159 420.46 539.873 420.74 542.272C420.894 543.573 421.516 544.713 422.46 545.405C423.251 545.986 424.139 546.231 425.041 546.231C426.531 546.231 428.048 545.566 429.202 544.643C432.203 542.244 432.658 539.404 433.091 536.663C433.126 536.425 433.993 531.669 433.993 531.669C434.035 531.48 434.175 531.326 434.357 531.277C434.805 531.151 435.287 531.018 435.791 530.886C440.232 529.697 446.289 528.074 447.856 523.206C447.898 523.08 447.821 522.94 447.688 522.905V522.891H447.695ZM431.413 536.376C430.993 539.02 430.629 541.3 428.139 543.293C426.838 544.335 424.817 545.007 423.467 544.013C422.908 543.601 422.523 542.887 422.432 542.055C422.243 540.467 423.055 538.236 424.363 536.754C425.559 535.39 427.048 534.222 428.797 533.292C429.811 532.746 430.881 532.368 432 532.005C432.091 531.977 432.182 532.054 432.161 532.144C431.923 533.34 431.455 536.152 431.42 536.376H431.413ZM432.679 529.732C432.637 529.913 432.504 530.053 432.329 530.109C431.839 530.263 430.916 530.557 430.888 530.571C428.559 531.34 427.391 530.788 426.999 530.515C425.552 529.501 425.649 526.759 427.209 524.528C428.769 522.297 431.315 521.269 432.762 522.283C433.637 522.898 433.986 524.178 433.693 525.661C433.315 527.116 432.93 528.633 432.679 529.732Z" fill="#A3A2A2"/>
<path d="M486.946 40.167H381.63C373.097 40.167 366.18 47.0842 366.18 55.6169V234.071C366.18 242.604 373.097 249.521 381.63 249.521H486.946C495.479 249.521 502.396 242.604 502.396 234.071V55.6169C502.396 47.0842 495.479 40.167 486.946 40.167Z" fill="black"/>
<path d="M443.806 147.379C445.051 147.358 446.233 147.799 447.149 148.624C447.261 148.722 447.422 148.722 447.527 148.624L448.485 147.666C448.59 147.561 448.59 147.379 448.485 147.281C447.051 145.959 445.149 145.323 443.162 145.526C440.05 145.855 437.532 148.344 437.175 151.457C436.686 155.688 440.127 159.269 444.316 159.017C445.806 158.926 447.212 158.318 448.359 157.36C448.506 157.241 448.583 157.059 448.583 156.877V151.967C448.583 151.82 448.464 151.695 448.31 151.695H443.715C443.568 151.695 443.442 151.813 443.442 151.967V153.324C443.442 153.471 443.561 153.597 443.715 153.597H446.408C446.555 153.597 446.68 153.716 446.68 153.87V155.919C446.68 156.143 446.562 156.353 446.373 156.465C445.631 156.905 444.778 157.136 443.904 157.136C441.134 157.136 438.896 154.807 439.043 152.009C439.176 149.484 441.288 147.442 443.813 147.393V147.379H443.806Z" fill="white"/>
<path d="M449.282 133.314L447.974 132.937C447.834 132.895 447.687 132.978 447.645 133.118C446.169 137.546 440.008 139.196 435.483 140.406L434.741 140.602C434.636 140.63 434.545 140.539 434.566 140.434C434.923 139.014 436.308 133.727 436.672 132.433C436.713 132.293 436.637 132.146 436.497 132.104L435.203 131.678C435.056 131.629 434.902 131.713 434.86 131.852C434.846 131.894 434.839 131.929 434.825 131.978C434.797 132.069 434.685 132.083 434.629 132.013C434.363 131.657 434.042 131.342 433.671 131.083C431.167 129.328 427.195 130.663 424.817 134.056C422.439 137.448 422.543 141.637 425.047 143.393C425.25 143.533 425.509 143.686 425.838 143.819C425.95 143.868 425.964 144.022 425.859 144.085C424.292 145.078 422.914 146.246 421.753 147.568C420.277 149.254 418.83 152.289 419.137 154.968C419.305 156.416 420.005 157.696 421.061 158.465C421.942 159.115 422.935 159.388 423.949 159.388C425.614 159.388 427.313 158.647 428.6 157.619C431.958 154.933 432.461 151.765 432.951 148.701C432.993 148.435 433.965 143.12 433.965 143.12C434.007 142.91 434.168 142.742 434.377 142.679C434.881 142.539 435.42 142.393 435.979 142.246C440.945 140.917 447.715 139.098 449.471 133.657C449.52 133.51 449.429 133.356 449.289 133.314H449.282ZM431.076 148.4C430.608 151.359 430.195 153.912 427.411 156.136C425.957 157.304 423.698 158.052 422.187 156.94C421.557 156.479 421.138 155.681 421.026 154.751C420.816 152.975 421.725 150.478 423.18 148.82C424.516 147.295 426.187 145.994 428.139 144.945C429.272 144.337 430.468 143.91 431.727 143.505C431.825 143.47 431.93 143.561 431.909 143.665C431.643 145.001 431.118 148.142 431.076 148.4ZM432.482 140.966C432.433 141.169 432.286 141.329 432.09 141.385C431.545 141.56 430.51 141.889 430.482 141.896C427.873 142.756 426.572 142.134 426.131 141.833C424.516 140.7 424.621 137.637 426.369 135.14C428.118 132.643 430.957 131.496 432.58 132.629C433.559 133.314 433.951 134.748 433.622 136.406C433.202 138.028 432.776 139.728 432.489 140.959L432.482 140.966Z" fill="white"/>
<path opacity="0.1" d="M503.431 7.2249H101.943C50.0679 7.2249 8.01953 49.2803 8.01953 101.148V765.845C8.01953 817.72 50.0679 859.768 101.943 859.768H314.451L503.431 7.2179V7.2249Z" fill="url(#paint1_linear_16487_233093)"/>
<defs>
<linearGradient id="paint0_linear_16487_233093" x1="379.377" y1="533.201" x2="489.198" y2="533.201" gradientUnits="userSpaceOnUse">
<stop stop-color="#BBBBBB"/>
<stop offset="1" stop-color="#828384"/>
</linearGradient>
<linearGradient id="paint1_linear_16487_233093" x1="325.467" y1="55.9177" x2="57.7334" y2="733.371" gradientUnits="userSpaceOnUse">
<stop stop-color="white" stop-opacity="0"/>
<stop offset="1" stop-color="white" stop-opacity="0.5"/>
</linearGradient>
</defs>
</svg>
