<svg width="24" height="23" viewBox="0 0 24 23" fill="none" xmlns="http://www.w3.org/2000/svg">
<path d="M2.88553 6.68009C3.06227 6.78641 3.23901 6.82093 3.41575 6.82093C3.73333 6.82093 4.0523 6.64419 4.26354 6.36112C4.58113 5.8309 4.97051 5.37109 5.35991 4.91128C5.7493 4.52188 5.71339 3.88674 5.32401 3.53326C4.93461 3.14386 4.29947 3.17977 3.94599 3.56916C3.45168 4.09938 2.99187 4.70002 2.60247 5.33657C2.28489 5.79638 2.42572 6.39702 2.88553 6.68009Z" fill="#302A27"/>
<path d="M8.36434 19.4055C6.95041 18.769 5.6773 17.8149 4.75916 16.5777C4.44158 16.1538 3.80504 16.0475 3.38115 16.4009C2.95725 16.7185 2.85092 17.3551 3.2044 17.779C4.33527 19.2633 5.85553 20.466 7.58689 21.2434C7.72773 21.3138 7.83405 21.3138 7.97628 21.3138C8.36568 21.3138 8.71917 21.1012 8.89591 20.7132C9.10717 20.2188 8.86004 19.6182 8.36434 19.4055Z" fill="#302A27"/>
<path d="M3.20459 13.3259C2.88701 12.1592 2.85111 10.922 2.99195 9.75504C3.06237 9.22482 2.70889 8.73051 2.14415 8.65868C1.61393 8.58826 1.11962 8.94174 1.04779 9.50647C0.83515 10.9563 0.906949 12.4048 1.29495 13.8547C1.40127 14.3145 1.82518 14.5975 2.24908 14.5975C2.3195 14.5975 2.42582 14.5975 2.49624 14.5616C3.02784 14.3863 3.34542 13.8562 3.20459 13.3259Z" fill="#302A27"/>
<path d="M8.29698 0.931809C9.51897 1.28667 8.98461 3.12036 7.76262 2.76412C6.54063 2.40788 7.07499 0.575569 8.29698 0.931809Z" fill="#302A27"/>
<path d="M11.9695 0C11.4393 0 10.9795 0.423897 10.9795 0.990036C10.9795 1.52026 11.4034 1.98007 11.9695 1.98007C16.9886 1.98007 21.0897 6.08118 21.0897 11.1003C21.0897 12.0544 20.9489 13.0085 20.6299 13.9641C20.4532 14.4943 20.7363 15.0245 21.2665 15.2013C21.3728 15.2372 21.4791 15.2372 21.5841 15.2372C22.008 15.2372 22.3974 14.99 22.5037 14.5661C22.8931 13.4352 23.0698 12.2685 23.0698 11.1017C23.0698 4.98325 18.0848 0 11.9695 0Z" fill="#302A27"/>
<path d="M18.6857 17.2485C16.9542 19.1223 14.5143 20.2172 11.9695 20.2172C11.4393 20.2172 10.9795 20.6411 10.9795 21.2072C10.9795 21.7375 11.4034 22.1973 11.9695 22.1973C15.0445 22.1973 18.0491 20.8897 20.1357 18.5921C20.4892 18.2027 20.4892 17.5676 20.0653 17.2141C19.6759 16.8247 19.0751 16.8605 18.6857 17.2485Z" fill="#302A27"/>
</svg>
