<svg width="40" height="40" viewBox="0 0 40 40" fill="none" xmlns="http://www.w3.org/2000/svg">
<path d="M22.4303 7C22.8213 7.00008 23.1766 7.22838 23.3394 7.58398L24.4791 10.0742L26.6353 11.2744L29.4664 10.9785L29.6109 10.9736C29.9444 10.9871 30.2534 11.1673 30.4283 11.459L32.859 15.5146C33.0689 15.865 33.0453 16.3085 32.7984 16.6338L31.1324 18.8271V21.1748L32.7974 23.3682C33.0446 23.6935 33.069 24.1368 32.859 24.4873L30.4283 28.543C30.2284 28.8765 29.8531 29.0639 29.4664 29.0234L26.6353 28.7256L24.4791 29.9258L23.3394 32.416C23.1766 32.7716 22.8213 32.9999 22.4303 33H17.5699C17.1788 33 16.8236 32.7716 16.6607 32.416L15.5201 29.9258L13.3638 28.7256L10.5338 29.0234C10.147 29.0639 9.77176 28.8765 9.57185 28.543L7.14216 24.4873C6.93221 24.1368 6.95654 23.6935 7.20369 23.3682L8.86873 21.1748V18.8271L7.20369 16.6338C6.95664 16.3085 6.93224 15.8651 7.14216 15.5146L9.57185 11.459L9.65486 11.3408C9.86584 11.0822 10.1955 10.9432 10.5338 10.9785L13.3638 11.2744L15.5201 10.0742L16.6607 7.58398L16.7301 7.45703C16.9124 7.17498 17.2276 7.00004 17.5699 7H22.4303ZM19.9351 16.8135C19.1395 16.8135 18.3766 17.1298 17.814 17.6924C17.2515 18.255 16.9351 19.0179 16.9351 19.8135C16.9352 20.4067 17.1114 20.9873 17.441 21.4805C17.7705 21.9733 18.239 22.358 18.7867 22.585C19.3347 22.8118 19.9384 22.8715 20.5201 22.7559C21.1019 22.6401 21.6367 22.354 22.0562 21.9346C22.4757 21.5151 22.7617 20.9802 22.8775 20.3984C22.9932 19.8168 22.9335 19.213 22.7066 18.665C22.4796 18.1173 22.095 17.6489 21.6021 17.3193C21.1089 16.9897 20.5284 16.8135 19.9351 16.8135Z" fill="#2C2827"/>
</svg>
