<svg width="26" height="26" viewBox="0 0 26 26" fill="none" xmlns="http://www.w3.org/2000/svg">
<path d="M15.431 1L16.708 3.79004L19.425 5.302L22.571 4.97302L25.002 9.02905L23.133 11.49V14.5131L25.002 16.973L22.571 21.0291L19.425 20.699L16.708 22.2111L15.431 25H10.57L9.293 22.2111L6.576 20.699L3.43001 21.0291L1 16.973L2.869 14.5131V11.49L1 9.02905L3.43001 4.97302L6.576 5.302L9.293 3.79004L10.57 1H15.431Z" fill="#2C2827" stroke="#2C2827" stroke-width="2" stroke-linecap="round" stroke-linejoin="round"/>
<path d="M12.9351 10.313C13.4295 10.313 13.9129 10.4596 14.324 10.7343C14.7351 11.009 15.0555 11.3995 15.2448 11.8563C15.434 12.3131 15.4835 12.8158 15.387 13.3007C15.2906 13.7857 15.0525 14.2312 14.7028 14.5808C14.3532 14.9304 13.9077 15.1685 13.4228 15.265C12.9378 15.3614 12.4352 15.3119 11.9784 15.1227C11.5215 14.9335 11.1311 14.6131 10.8564 14.2019C10.5817 13.7908 10.4351 13.3075 10.4351 12.813C10.4351 12.15 10.6985 11.5141 11.1673 11.0453C11.6361 10.5764 12.272 10.313 12.9351 10.313Z" fill="white" stroke="white" stroke-linecap="round"/>
</svg>
