<svg width="24" height="24" viewBox="0 0 24 24" fill="none" xmlns="http://www.w3.org/2000/svg">
<path d="M4.36035 4.35938C4.78052 3.93987 5.40059 3.87835 5.74512 4.22266L12.002 10.4795L18.2559 4.22852C18.6006 3.88431 19.2201 3.9438 19.6387 4.3623C20.0571 4.78081 20.1167 5.3995 19.7725 5.74414L13.5186 11.9961L19.7773 18.2549C20.1217 18.5994 20.0602 19.2195 19.6406 19.6396C19.2204 20.0599 18.5996 20.121 18.2549 19.7764L11.9961 13.5176L5.74121 19.7725C5.39655 20.1171 4.7781 20.0573 4.35938 19.6387C3.94073 19.2201 3.88018 18.6015 4.22461 18.2568L10.4805 12.002L4.22363 5.74512C3.87894 5.40043 3.9401 4.77962 4.36035 4.35938Z" fill="#1565C0"/>
</svg>
