<svg width="100" height="100" viewBox="0 0 100 100" fill="none" xmlns="http://www.w3.org/2000/svg">
<g id="Component 1">
<g id="Union">
<mask id="path-1-inside-1_0_170" fill="white">
<path d="M47.8886 17.032C53.5498 15.5914 59.2003 18.531 60.8427 23.822C61.0056 24.3467 61.1776 24.8149 61.8545 25.0681C68.0398 27.3806 72.4388 31.7079 75.5341 37.4782C76.7254 39.6989 77.5232 42.0565 78.0117 44.5202C78.1186 45.0597 78.2923 45.2629 78.8789 45.3874C82.4449 46.1449 84.988 48.1558 85.9248 51.7956C87.3237 57.2314 84.1337 62.0774 79.4472 63.07C78.3542 63.3016 77.8374 63.8004 77.416 64.8542C75.0624 70.7406 70.9934 75.1935 65.6953 78.5632C61.5798 81.1807 58.6678 82.6794 52.2607 83.3034C51.6468 83.3632 50.7228 83.3152 49.9531 83.3152C42.1754 83.2141 35.4861 80.4156 29.83 75.0691C27.1837 72.5674 24.9066 69.7913 23.3584 66.4597C23.3381 66.4163 23.3011 66.3799 23.2841 66.3357C22.9238 65.3962 22.7933 64.2164 22.1386 63.5866C21.5377 63.0089 20.3423 63.1008 19.4599 62.7634C16.4831 61.625 14.7392 59.3617 14.0107 56.32C13.3998 53.769 13.8431 51.3441 15.2461 49.114C16.5904 46.9771 18.6317 45.8833 21.0068 45.4011C21.6621 45.268 21.9054 44.9998 22.0088 44.4343C22.9786 39.1248 25.6862 34.7911 29.4336 31.03C32.4115 28.0412 35.8989 25.9104 39.9423 24.7458C40.7809 24.5042 41.1528 24.0776 41.4316 23.2683C42.5207 20.1077 44.6274 17.8619 47.8886 17.032ZM52.957 21.0847C50.5269 20.1445 47.9574 20.7762 46.122 22.7273C44.9716 23.9505 44.5216 25.3984 44.9658 26.988C45.424 28.6276 46.7225 29.4556 48.3173 29.8298C49.5037 30.1081 50.657 29.5574 51.1914 28.4568C51.379 28.0702 51.4985 27.6508 51.666 27.2536C51.9282 26.6317 52.4282 26.4209 53.0664 26.4792C54.1599 26.5793 54.9 27.6014 54.7705 28.7155C54.521 30.8597 52.1419 33.0453 49.9961 33.3923C46.1327 34.0168 42.9745 31.7893 41.8203 29.2663C41.3918 28.3296 41.5682 28.2142 40.3838 28.6794C36.6834 30.1329 33.5803 32.4413 30.9746 35.4187C28.3037 38.4706 26.356 41.9156 25.664 45.9802C25.4703 47.1182 25.3565 48.2705 25.1552 49.407C25.0196 50.1726 24.7091 50.3128 24.1015 49.987C21.8613 48.7858 19.5426 49.4799 18.4267 51.7614C17.4133 53.8338 17.7033 56.275 19.2207 57.9812C20.2547 59.1439 21.6131 59.7552 23.2236 59.4626C24.7686 59.1819 25.0837 59.3078 25.4922 60.8181C26.9884 66.3505 30.2635 70.6531 34.6914 74.1052C39.1113 77.5511 44.1627 79.2791 49.7773 79.2927C54.965 79.3052 59.679 77.7255 64.0224 74.9646C69.0387 71.7759 72.5148 67.3576 74.3242 61.657C74.9108 59.8088 74.6608 59.0706 77.4638 59.2907C78.8036 59.3959 79.9081 58.8616 80.7968 57.8913C82.2757 56.2767 82.4541 54.385 81.872 52.3591C81.4836 51.0074 80.5431 50.1838 79.3066 49.6062C78.2447 49.1102 77.295 49.2574 76.2968 49.8103C75.5183 50.2414 75.1923 50.0402 75.0146 49.1237C74.8316 48.1795 74.7784 47.2076 74.5634 46.2722C72.8437 38.7902 68.4736 33.312 61.9199 29.5036C61.3496 29.1723 61.2786 29.2305 61.1064 29.8962C60.8068 31.0547 60.5903 32.2488 60.1552 33.3552C59.0693 36.1166 57.1234 38.0003 54.2109 38.7614C53.7542 38.8808 53.269 38.8928 52.7968 38.9519C51.9019 39.0638 51.0882 38.8236 50.7558 37.9616C50.4401 37.1424 50.4727 36.2152 51.0849 35.4929C51.333 35.2003 51.7883 34.9232 52.1513 34.9206C53.3649 34.9128 54.2691 34.3392 55.0507 33.5173C56.6212 31.8659 57.2498 29.839 57.292 27.5964C57.292 27.4029 57.2948 27.2087 57.291 27.0154C57.2396 24.4219 55.527 22.079 52.957 21.0847ZM58.041 62.7126C58.594 62.2146 59.2256 62.1333 59.917 62.4118C60.9064 62.8107 61.2762 63.6966 60.7334 64.6042C59.7713 66.2125 58.4084 67.426 56.7802 68.321C54.7739 69.4238 52.6342 70.0571 50.8291 70.0202C46.4839 69.9855 43.2265 68.5591 40.4863 65.8933C40.2114 65.6258 39.9577 65.3258 39.7422 65.0085C39.1945 64.2021 39.2507 63.5875 39.8916 62.9304C40.4647 62.3429 41.2584 62.2506 41.9814 62.7146C42.2219 62.8689 42.4288 63.0786 42.6435 63.2712C45.3411 65.6901 48.4878 66.7373 52.0683 66.2068C53.9505 65.9278 55.608 65.042 57.0175 63.7361C57.371 63.4086 57.6832 63.0348 58.041 62.7126ZM39.415 46.3396C41.2684 46.3903 42.6294 47.9447 42.5595 49.9304C42.4923 51.8358 41.0597 53.208 39.2343 53.1726C37.4902 53.1386 36.1569 51.3799 36.2109 49.6013C36.2654 47.8084 37.7621 46.2943 39.415 46.3396ZM60.5996 46.4167C62.4604 46.4252 63.7835 47.8023 63.789 49.7751C63.7943 51.7049 62.4073 53.1929 60.6259 53.1687C58.8485 53.1445 57.5272 51.6654 57.5341 49.7077C57.4225 48.0223 58.7429 46.4083 60.5996 46.4167Z"/>
</mask>
<path d="M47.8886 17.032C53.5498 15.5914 59.2003 18.531 60.8427 23.822C61.0056 24.3467 61.1776 24.8149 61.8545 25.0681C68.0398 27.3806 72.4388 31.7079 75.5341 37.4782C76.7254 39.6989 77.5232 42.0565 78.0117 44.5202C78.1186 45.0597 78.2923 45.2629 78.8789 45.3874C82.4449 46.1449 84.988 48.1558 85.9248 51.7956C87.3237 57.2314 84.1337 62.0774 79.4472 63.07C78.3542 63.3016 77.8374 63.8004 77.416 64.8542C75.0624 70.7406 70.9934 75.1935 65.6953 78.5632C61.5798 81.1807 58.6678 82.6794 52.2607 83.3034C51.6468 83.3632 50.7228 83.3152 49.9531 83.3152C42.1754 83.2141 35.4861 80.4156 29.83 75.0691C27.1837 72.5674 24.9066 69.7913 23.3584 66.4597C23.3381 66.4163 23.3011 66.3799 23.2841 66.3357C22.9238 65.3962 22.7933 64.2164 22.1386 63.5866C21.5377 63.0089 20.3423 63.1008 19.4599 62.7634C16.4831 61.625 14.7392 59.3617 14.0107 56.32C13.3998 53.769 13.8431 51.3441 15.2461 49.114C16.5904 46.9771 18.6317 45.8833 21.0068 45.4011C21.6621 45.268 21.9054 44.9998 22.0088 44.4343C22.9786 39.1248 25.6862 34.7911 29.4336 31.03C32.4115 28.0412 35.8989 25.9104 39.9423 24.7458C40.7809 24.5042 41.1528 24.0776 41.4316 23.2683C42.5207 20.1077 44.6274 17.8619 47.8886 17.032ZM52.957 21.0847C50.5269 20.1445 47.9574 20.7762 46.122 22.7273C44.9716 23.9505 44.5216 25.3984 44.9658 26.988C45.424 28.6276 46.7225 29.4556 48.3173 29.8298C49.5037 30.1081 50.657 29.5574 51.1914 28.4568C51.379 28.0702 51.4985 27.6508 51.666 27.2536C51.9282 26.6317 52.4282 26.4209 53.0664 26.4792C54.1599 26.5793 54.9 27.6014 54.7705 28.7155C54.521 30.8597 52.1419 33.0453 49.9961 33.3923C46.1327 34.0168 42.9745 31.7893 41.8203 29.2663C41.3918 28.3296 41.5682 28.2142 40.3838 28.6794C36.6834 30.1329 33.5803 32.4413 30.9746 35.4187C28.3037 38.4706 26.356 41.9156 25.664 45.9802C25.4703 47.1182 25.3565 48.2705 25.1552 49.407C25.0196 50.1726 24.7091 50.3128 24.1015 49.987C21.8613 48.7858 19.5426 49.4799 18.4267 51.7614C17.4133 53.8338 17.7033 56.275 19.2207 57.9812C20.2547 59.1439 21.6131 59.7552 23.2236 59.4626C24.7686 59.1819 25.0837 59.3078 25.4922 60.8181C26.9884 66.3505 30.2635 70.6531 34.6914 74.1052C39.1113 77.5511 44.1627 79.2791 49.7773 79.2927C54.965 79.3052 59.679 77.7255 64.0224 74.9646C69.0387 71.7759 72.5148 67.3576 74.3242 61.657C74.9108 59.8088 74.6608 59.0706 77.4638 59.2907C78.8036 59.3959 79.9081 58.8616 80.7968 57.8913C82.2757 56.2767 82.4541 54.385 81.872 52.3591C81.4836 51.0074 80.5431 50.1838 79.3066 49.6062C78.2447 49.1102 77.295 49.2574 76.2968 49.8103C75.5183 50.2414 75.1923 50.0402 75.0146 49.1237C74.8316 48.1795 74.7784 47.2076 74.5634 46.2722C72.8437 38.7902 68.4736 33.312 61.9199 29.5036C61.3496 29.1723 61.2786 29.2305 61.1064 29.8962C60.8068 31.0547 60.5903 32.2488 60.1552 33.3552C59.0693 36.1166 57.1234 38.0003 54.2109 38.7614C53.7542 38.8808 53.269 38.8928 52.7968 38.9519C51.9019 39.0638 51.0882 38.8236 50.7558 37.9616C50.4401 37.1424 50.4727 36.2152 51.0849 35.4929C51.333 35.2003 51.7883 34.9232 52.1513 34.9206C53.3649 34.9128 54.2691 34.3392 55.0507 33.5173C56.6212 31.8659 57.2498 29.839 57.292 27.5964C57.292 27.4029 57.2948 27.2087 57.291 27.0154C57.2396 24.4219 55.527 22.079 52.957 21.0847ZM58.041 62.7126C58.594 62.2146 59.2256 62.1333 59.917 62.4118C60.9064 62.8107 61.2762 63.6966 60.7334 64.6042C59.7713 66.2125 58.4084 67.426 56.7802 68.321C54.7739 69.4238 52.6342 70.0571 50.8291 70.0202C46.4839 69.9855 43.2265 68.5591 40.4863 65.8933C40.2114 65.6258 39.9577 65.3258 39.7422 65.0085C39.1945 64.2021 39.2507 63.5875 39.8916 62.9304C40.4647 62.3429 41.2584 62.2506 41.9814 62.7146C42.2219 62.8689 42.4288 63.0786 42.6435 63.2712C45.3411 65.6901 48.4878 66.7373 52.0683 66.2068C53.9505 65.9278 55.608 65.042 57.0175 63.7361C57.371 63.4086 57.6832 63.0348 58.041 62.7126ZM39.415 46.3396C41.2684 46.3903 42.6294 47.9447 42.5595 49.9304C42.4923 51.8358 41.0597 53.208 39.2343 53.1726C37.4902 53.1386 36.1569 51.3799 36.2109 49.6013C36.2654 47.8084 37.7621 46.2943 39.415 46.3396ZM60.5996 46.4167C62.4604 46.4252 63.7835 47.8023 63.789 49.7751C63.7943 51.7049 62.4073 53.1929 60.6259 53.1687C58.8485 53.1445 57.5272 51.6654 57.5341 49.7077C57.4225 48.0223 58.7429 46.4083 60.5996 46.4167Z" fill="#8841A4"/>
<path d="M47.8886 17.032L47.8229 16.7735L47.8229 16.7735L47.8886 17.032ZM60.8427 23.822L60.588 23.9011L60.588 23.9011L60.8427 23.822ZM61.8545 25.0681L61.761 25.3179L61.7611 25.3179L61.8545 25.0681ZM75.5341 37.4782L75.7692 37.3522V37.3522L75.5341 37.4782ZM78.0117 44.5202L78.2733 44.4684H78.2733L78.0117 44.5202ZM78.8789 45.3874L78.9343 45.1265L78.9343 45.1265L78.8789 45.3874ZM85.9248 51.7956L86.1831 51.7291V51.7291L85.9248 51.7956ZM79.4472 63.07L79.392 62.8091H79.392L79.4472 63.07ZM77.416 64.8542L77.1683 64.7552L77.1683 64.7552L77.416 64.8542ZM65.6953 78.5632L65.8384 78.7883V78.7883L65.6953 78.5632ZM52.2607 83.3034L52.2866 83.5689H52.2866L52.2607 83.3034ZM49.9531 83.3152L49.9496 83.5819H49.9531V83.3152ZM29.83 75.0691L29.6468 75.2629H29.6468L29.83 75.0691ZM23.3584 66.4597L23.6002 66.3473L23.6 66.3468L23.3584 66.4597ZM23.2841 66.3357L23.0351 66.4312L23.0351 66.4312L23.2841 66.3357ZM22.1386 63.5866L22.3235 63.3944L22.3235 63.3944L22.1386 63.5866ZM19.4599 62.7634L19.3647 63.0125L19.3647 63.0125L19.4599 62.7634ZM14.0107 56.32L13.7513 56.3822H13.7513L14.0107 56.32ZM15.2461 49.114L15.0203 48.972L15.0203 48.972L15.2461 49.114ZM21.0068 45.4011L21.0599 45.6625H21.0599L21.0068 45.4011ZM22.0088 44.4343L22.2711 44.4823L22.2711 44.4822L22.0088 44.4343ZM29.4336 31.03L29.2446 30.8417L29.2446 30.8417L29.4336 31.03ZM39.9423 24.7458L40.0162 25.0021L40.0162 25.0021L39.9423 24.7458ZM41.4316 23.2683L41.1794 23.1814V23.1814L41.4316 23.2683ZM52.957 21.0847L53.0532 20.8359L53.0532 20.8359L52.957 21.0847ZM46.122 22.7273L45.9278 22.5445L45.9277 22.5445L46.122 22.7273ZM44.9658 26.988L44.7089 27.0598V27.0598L44.9658 26.988ZM48.3173 29.8298L48.2564 30.0895L48.2564 30.0895L48.3173 29.8298ZM51.1914 28.4568L51.4313 28.5732V28.5732L51.1914 28.4568ZM51.666 27.2536L51.4202 27.15L51.4202 27.15L51.666 27.2536ZM53.0664 26.4792L53.0907 26.2136L53.0906 26.2136L53.0664 26.4792ZM54.7705 28.7155L55.0354 28.7464L55.0354 28.7463L54.7705 28.7155ZM49.9961 33.3923L50.0386 33.6556L50.0386 33.6556L49.9961 33.3923ZM41.8203 29.2663L41.5777 29.3773L41.5777 29.3773L41.8203 29.2663ZM40.3838 28.6794L40.2862 28.4312L40.2862 28.4312L40.3838 28.6794ZM30.9746 35.4187L30.7739 35.243V35.243L30.9746 35.4187ZM25.664 45.9802L25.4011 45.9354L25.4011 45.9354L25.664 45.9802ZM25.1552 49.407L25.4179 49.4535V49.4535L25.1552 49.407ZM24.1015 49.987L24.2276 49.752L24.2276 49.752L24.1015 49.987ZM18.4267 51.7614L18.1871 51.6443L18.1871 51.6443L18.4267 51.7614ZM19.2207 57.9812L19.0214 58.1584L19.0214 58.1584L19.2207 57.9812ZM23.2236 59.4626L23.2713 59.725H23.2713L23.2236 59.4626ZM25.4922 60.8181L25.7496 60.7485H25.7496L25.4922 60.8181ZM34.6914 74.1052L34.5274 74.3155L34.5274 74.3155L34.6914 74.1052ZM49.7773 79.2927L49.7767 79.5594V79.5594L49.7773 79.2927ZM64.0224 74.9646L64.1655 75.1897H64.1655L64.0224 74.9646ZM74.3242 61.657L74.5784 61.7376V61.7376L74.3242 61.657ZM77.4638 59.2907L77.4429 59.5566L77.443 59.5566L77.4638 59.2907ZM80.7968 57.8913L80.9935 58.0715L80.9935 58.0715L80.7968 57.8913ZM81.872 52.3591L82.1284 52.2855L82.1284 52.2854L81.872 52.3591ZM79.3066 49.6062L79.4195 49.3645L79.4195 49.3645L79.3066 49.6062ZM76.2968 49.8103L76.4261 50.0436L76.4261 50.0436L76.2968 49.8103ZM75.0146 49.1237L74.7528 49.1745V49.1745L75.0146 49.1237ZM74.5634 46.2722L74.8234 46.2124V46.2124L74.5634 46.2722ZM61.9199 29.5036L62.0539 29.273V29.273L61.9199 29.5036ZM61.1064 29.8962L60.8482 29.8294V29.8294L61.1064 29.8962ZM60.1552 33.3552L60.4035 33.4528L60.4035 33.4528L60.1552 33.3552ZM54.2109 38.7614L54.2783 39.0195L54.2783 39.0195L54.2109 38.7614ZM52.7968 38.9519L52.8299 39.2165L52.8299 39.2165L52.7968 38.9519ZM50.7558 37.9616L50.507 38.0576L50.507 38.0576L50.7558 37.9616ZM51.0849 35.4929L50.8815 35.3204L50.8815 35.3204L51.0849 35.4929ZM52.1513 34.9206L52.1496 34.6539L52.1494 34.6539L52.1513 34.9206ZM55.0507 33.5173L55.244 33.7011V33.7011L55.0507 33.5173ZM57.292 27.5964L57.5587 27.6014V27.5964H57.292ZM57.291 27.0154L57.0243 27.0206V27.0206L57.291 27.0154ZM58.041 62.7126L57.8625 62.5144L57.8625 62.5144L58.041 62.7126ZM59.917 62.4118L60.0167 62.1645L60.0166 62.1644L59.917 62.4118ZM60.7334 64.6042L60.9623 64.7411L60.9623 64.7411L60.7334 64.6042ZM56.7802 68.321L56.9087 68.5547L56.9087 68.5547L56.7802 68.321ZM50.8291 70.0202L50.8345 69.7536L50.8312 69.7535L50.8291 70.0202ZM40.4863 65.8933L40.3003 66.0844L40.3003 66.0845L40.4863 65.8933ZM39.7422 65.0085L39.5215 65.1584L39.5215 65.1584L39.7422 65.0085ZM39.8916 62.9304L39.7006 62.7441L39.7006 62.7442L39.8916 62.9304ZM41.9814 62.7146L41.8374 62.939H41.8374L41.9814 62.7146ZM42.6435 63.2712L42.4654 63.4698L42.4655 63.4698L42.6435 63.2712ZM52.0683 66.2068L52.1074 66.4706H52.1074L52.0683 66.2068ZM57.0175 63.7361L56.8363 63.5404V63.5404L57.0175 63.7361ZM39.415 46.3396L39.4223 46.073H39.4223L39.415 46.3396ZM42.5595 49.9304L42.8261 49.9398L42.8261 49.9398L42.5595 49.9304ZM39.2343 53.1726L39.2291 53.4392H39.2292L39.2343 53.1726ZM36.2109 49.6013L35.9443 49.5932L35.9443 49.5932L36.2109 49.6013ZM60.5996 46.4167L60.6008 46.15H60.6008L60.5996 46.4167ZM63.789 49.7751L64.0557 49.7744V49.7744L63.789 49.7751ZM60.6259 53.1687L60.6223 53.4354H60.6223L60.6259 53.1687ZM57.5341 49.7077L57.8009 49.7087L57.8009 49.6994L57.8003 49.6901L57.5341 49.7077ZM47.8886 17.032L47.9544 17.2904C53.4917 15.8814 58.9917 18.7587 60.588 23.9011L60.8427 23.822L61.0975 23.7429C59.4089 18.3032 53.6078 15.3014 47.8229 16.7735L47.8886 17.032ZM60.8427 23.822L60.588 23.9011C60.669 24.1619 60.7626 24.4467 60.9364 24.6984C61.1165 24.9593 61.3736 25.173 61.761 25.3179L61.8545 25.0681L61.9479 24.8183C61.6585 24.71 61.4911 24.5629 61.3753 24.3953C61.2532 24.2185 61.1794 24.0068 61.0975 23.7429L60.8427 23.822ZM61.8545 25.0681L61.7611 25.3179C67.8759 27.604 72.229 31.8811 75.2991 37.6043L75.5341 37.4782L75.7692 37.3522C72.6486 31.5348 68.2037 27.1571 61.9479 24.8183L61.8545 25.0681ZM75.5341 37.4782L75.2991 37.6043C76.4764 39.7991 77.2661 42.1312 77.7501 44.5721L78.0117 44.5202L78.2733 44.4684C77.7803 41.9819 76.9743 39.5988 75.7692 37.3522L75.5341 37.4782ZM78.0117 44.5202L77.7501 44.5721C77.8063 44.8559 77.8889 45.1048 78.0742 45.2954C78.2598 45.4862 78.5128 45.5824 78.8235 45.6483L78.8789 45.3874L78.9343 45.1265C78.6584 45.0679 78.5313 45.0003 78.4567 44.9235C78.3818 44.8465 78.324 44.7241 78.2733 44.4684L78.0117 44.5202ZM78.8789 45.3874L78.8235 45.6483C80.5726 46.0198 82.055 46.6954 83.2118 47.7111C84.3668 48.7252 85.2103 50.0896 85.6665 51.8621L85.9248 51.7956L86.1831 51.7291C85.7025 49.8618 84.806 48.4009 83.5637 47.3102C82.3233 46.2211 80.7512 45.5124 78.9343 45.1265L78.8789 45.3874ZM85.9248 51.7956L85.6665 51.8621C87.0295 57.1583 83.9225 61.8495 79.392 62.8091L79.4472 63.07L79.5025 63.331C84.345 62.3053 87.6179 57.3045 86.1831 51.7291L85.9248 51.7956ZM79.4472 63.07L79.392 62.8091C78.815 62.9313 78.365 63.1296 78.0018 63.4551C77.6407 63.7786 77.3869 64.2086 77.1683 64.7552L77.416 64.8542L77.6636 64.9533C77.8665 64.446 78.0818 64.0996 78.3577 63.8524C78.6315 63.6071 78.9864 63.4403 79.5025 63.331L79.4472 63.07ZM77.416 64.8542L77.1683 64.7552C74.8386 70.5818 70.8107 74.9936 65.5521 78.3381L65.6953 78.5632L65.8384 78.7883C71.1761 75.3934 75.2862 70.8993 77.6636 64.9532L77.416 64.8542ZM65.6953 78.5632L65.5521 78.3381C63.4979 79.6446 61.7595 80.6617 59.7422 81.4317C57.7265 82.201 55.4211 82.7276 52.2349 83.038L52.2607 83.3034L52.2866 83.5689C55.5075 83.2552 57.8616 82.7204 59.9325 81.93C62.0018 81.1402 63.7771 80.0992 65.8384 78.7883L65.6953 78.5632ZM52.2607 83.3034L52.2349 83.038C51.6377 83.0961 50.7485 83.0484 49.9531 83.0484V83.3152V83.5819C50.697 83.5819 51.6559 83.6303 52.2866 83.5689L52.2607 83.3034ZM49.9531 83.3152L49.9566 83.0485C42.248 82.9483 35.6222 80.1773 30.0133 74.8752L29.83 75.0691L29.6468 75.2629C35.35 80.6539 42.1029 83.4798 49.9496 83.5818L49.9531 83.3152ZM29.83 75.0691L30.0133 74.8752C27.3826 72.3885 25.1299 69.6389 23.6002 66.3473L23.3584 66.4597L23.1165 66.5721C24.6833 69.9436 26.9847 72.7464 29.6468 75.2629L29.83 75.0691ZM23.3584 66.4597L23.6 66.3468C23.588 66.3212 23.5751 66.2997 23.5648 66.2837C23.5551 66.2687 23.5444 66.2535 23.5392 66.2461C23.5243 66.2245 23.5287 66.2285 23.5332 66.2401L23.2841 66.3357L23.0351 66.4312C23.0566 66.4871 23.088 66.5314 23.1008 66.5499C23.1197 66.5772 23.1183 66.5761 23.1167 66.5725L23.3584 66.4597ZM23.2841 66.3357L23.5332 66.2402C23.4474 66.0165 23.3743 65.7758 23.3014 65.5242C23.2295 65.2759 23.157 65.0136 23.0754 64.7626C22.9136 64.2642 22.701 63.7575 22.3235 63.3944L22.1386 63.5866L21.9537 63.7789C22.2309 64.0455 22.411 64.4436 22.5681 64.9274C22.6461 65.1675 22.7146 65.4156 22.789 65.6725C22.8624 65.926 22.9407 66.1851 23.0351 66.4312L23.2841 66.3357ZM22.1386 63.5866L22.3235 63.3944C21.9598 63.0448 21.4363 62.9138 20.9543 62.8228C20.4428 62.7263 19.9667 62.6716 19.5552 62.5143L19.4599 62.7634L19.3647 63.0125C19.8355 63.1926 20.3983 63.2607 20.8554 63.347C21.3419 63.4388 21.7165 63.5508 21.9538 63.7789L22.1386 63.5866ZM19.4599 62.7634L19.5552 62.5143C16.6714 61.4115 14.9809 59.2259 14.2701 56.2579L14.0107 56.32L13.7513 56.3822C14.4974 59.4974 16.2947 61.8386 19.3647 63.0125L19.4599 62.7634ZM14.0107 56.32L14.2701 56.2579C13.6767 53.7802 14.1052 51.4285 15.4718 49.256L15.2461 49.114L15.0203 48.972C13.5811 51.2598 13.1228 53.7579 13.7513 56.3822L14.0107 56.32ZM15.2461 49.114L15.4718 49.256C16.7671 47.197 18.7351 46.1345 21.0599 45.6625L21.0068 45.4011L20.9537 45.1397C18.5284 45.6321 16.4136 46.7572 15.0203 48.972L15.2461 49.114ZM21.0068 45.4011L21.0599 45.6625C21.4117 45.591 21.6945 45.4756 21.9026 45.2692C22.1125 45.061 22.2145 44.792 22.2711 44.4823L22.0088 44.4343L21.7464 44.3863C21.6996 44.6421 21.6283 44.79 21.5269 44.8905C21.4237 44.9929 21.2571 45.0781 20.9537 45.1397L21.0068 45.4011ZM22.0088 44.4343L22.2711 44.4822C23.229 39.2386 25.903 34.9514 29.6225 31.2182L29.4336 31.03L29.2446 30.8417C25.4694 34.6308 22.7283 39.011 21.7464 44.3864L22.0088 44.4343ZM29.4336 31.03L29.6225 31.2183C32.5704 28.2596 36.0188 26.1534 40.0162 25.0021L39.9423 24.7458L39.8685 24.4895C35.7789 25.6674 32.2525 27.8228 29.2446 30.8417L29.4336 31.03ZM39.9423 24.7458L40.0162 25.0021C40.4667 24.8723 40.8143 24.686 41.0876 24.4064C41.3587 24.129 41.5377 23.779 41.6838 23.3552L41.4316 23.2683L41.1794 23.1814C41.0466 23.5668 40.9004 23.8348 40.7061 24.0335C40.5141 24.2299 40.2566 24.3777 39.8685 24.4895L39.9423 24.7458ZM41.4316 23.2683L41.6838 23.3552C42.7485 20.2651 44.7941 18.0947 47.9544 17.2904L47.8886 17.032L47.8229 16.7735C44.4607 17.6291 42.2928 19.9503 41.1794 23.1814L41.4316 23.2683ZM52.957 21.0847L53.0532 20.8359C50.5164 19.8545 47.8334 20.5187 45.9278 22.5445L46.122 22.7273L46.3163 22.91C48.0814 21.0336 50.5374 20.4345 52.8608 21.3334L52.957 21.0847ZM46.122 22.7273L45.9277 22.5445C44.7229 23.8256 44.236 25.3676 44.7089 27.0598L44.9658 26.988L45.2227 26.9162C44.8071 25.4292 45.2203 24.0753 46.3163 22.91L46.122 22.7273ZM44.9658 26.988L44.7089 27.0598C45.2031 28.8282 46.6087 29.7028 48.2564 30.0895L48.3173 29.8298L48.3783 29.5701C46.8363 29.2083 45.6449 28.427 45.2227 26.9162L44.9658 26.988ZM48.3173 29.8298L48.2564 30.0895C49.5648 30.3964 50.8428 29.7855 51.4313 28.5732L51.1914 28.4568L50.9514 28.3403C50.4713 29.3293 49.4425 29.8198 48.3783 29.5701L48.3173 29.8298ZM51.1914 28.4568L51.4313 28.5732C51.5314 28.367 51.6121 28.1547 51.6867 27.9509C51.7627 27.7435 51.8313 27.5482 51.9118 27.3572L51.666 27.2536L51.4202 27.15C51.3333 27.3563 51.2584 27.5693 51.1858 27.7675C51.1119 27.9693 51.039 28.16 50.9514 28.3403L51.1914 28.4568ZM51.666 27.2536L51.9117 27.3573C52.0222 27.0953 52.1732 26.9387 52.3479 26.8481C52.527 26.7553 52.7565 26.7188 53.0421 26.7448L53.0664 26.4792L53.0906 26.2136C52.738 26.1814 52.3985 26.2211 52.1024 26.3746C51.8021 26.5303 51.572 26.79 51.4202 27.15L51.666 27.2536ZM53.0664 26.4792L53.0421 26.7448C53.9673 26.8295 54.62 27.6997 54.5055 28.6847L54.7705 28.7155L55.0354 28.7463C55.1799 27.5031 54.3525 26.329 53.0907 26.2136L53.0664 26.4792ZM54.7705 28.7155L54.5055 28.6847C54.3902 29.6755 53.7759 30.7044 52.9098 31.5354C52.0447 32.3653 50.9608 32.9661 49.9535 33.129L49.9961 33.3923L50.0386 33.6556C51.1772 33.4715 52.3558 32.806 53.279 31.9203C54.2012 31.0357 54.9012 29.8997 55.0354 28.7464L54.7705 28.7155ZM49.9961 33.3923L49.9535 33.129C46.2174 33.7329 43.1709 31.5775 42.0628 29.1554L41.8203 29.2663L41.5777 29.3773C42.7781 32.0011 46.048 34.3007 50.0386 33.6556L49.9961 33.3923ZM41.8203 29.2663L42.0628 29.1554C42.0111 29.0423 41.9683 28.9413 41.9301 28.85C41.8927 28.7607 41.8575 28.6755 41.8239 28.6026C41.7624 28.4689 41.6775 28.3046 41.5154 28.2142C41.343 28.1181 41.1534 28.1409 40.9817 28.1847C40.8056 28.2296 40.5779 28.3166 40.2862 28.4312L40.3838 28.6794L40.4813 28.9277C40.7819 28.8096 40.9763 28.7366 41.1136 28.7016C41.2553 28.6654 41.2705 28.6884 41.2556 28.6801C41.251 28.6775 41.2764 28.6886 41.3393 28.8255C41.368 28.8878 41.3985 28.9617 41.4381 29.0561C41.4769 29.1487 41.5223 29.2562 41.5777 29.3773L41.8203 29.2663ZM40.3838 28.6794L40.2862 28.4312C36.5419 29.902 33.4045 32.2372 30.7739 35.243L30.9746 35.4187L31.1753 35.5943C33.7562 32.6454 36.8249 30.3639 40.4813 28.9277L40.3838 28.6794ZM30.9746 35.4187L30.7739 35.243C28.0794 38.3218 26.1033 41.8106 25.4011 45.9354L25.664 45.9802L25.927 46.025C26.6087 42.0207 28.5279 38.6193 31.1753 35.5943L30.9746 35.4187ZM25.664 45.9802L25.4011 45.9354C25.3033 46.5097 25.2258 47.087 25.1482 47.6582C25.0703 48.2311 24.9922 48.7982 24.8926 49.3604L25.1552 49.407L25.4179 49.4535C25.5196 48.8792 25.599 48.302 25.6767 47.7301C25.7547 47.1565 25.831 46.5887 25.927 46.025L25.664 45.9802ZM25.1552 49.407L24.8926 49.3604C24.8256 49.7385 24.7302 49.8444 24.6808 49.8704C24.6399 49.892 24.524 49.9109 24.2276 49.752L24.1015 49.987L23.9755 50.2221C24.2866 50.3889 24.6297 50.5006 24.9299 50.3422C25.2216 50.1881 25.3492 49.8411 25.4179 49.4535L25.1552 49.407ZM24.1015 49.987L24.2276 49.752C23.0541 49.1227 21.8408 48.9808 20.7638 49.3134C19.6858 49.6463 18.7733 50.4458 18.1871 51.6443L18.4267 51.7614L18.6663 51.8786C19.196 50.7956 20.0008 50.1073 20.9212 49.823C21.8426 49.5385 22.9087 49.6501 23.9755 50.2221L24.1015 49.987ZM18.4267 51.7614L18.1871 51.6443C17.1283 53.8093 17.4289 56.3677 19.0214 58.1584L19.2207 57.9812L19.42 57.8039C17.9778 56.1823 17.6982 53.8582 18.6663 51.8786L18.4267 51.7614ZM19.2207 57.9812L19.0214 58.1584C20.106 59.378 21.5537 60.037 23.2713 59.725L23.2236 59.4626L23.1759 59.2002C21.6725 59.4733 20.4034 58.9097 19.42 57.8039L19.2207 57.9812ZM23.2236 59.4626L23.2713 59.725C23.6564 59.6551 23.9472 59.614 24.1767 59.6103C24.4041 59.6066 24.5474 59.6405 24.6514 59.7001C24.7533 59.7585 24.8482 59.8593 24.9446 60.05C25.0429 60.2444 25.1335 60.5136 25.2347 60.8877L25.4922 60.8181L25.7496 60.7485C25.6466 60.3674 25.5446 60.0545 25.4207 59.8093C25.2948 59.5604 25.1378 59.3641 24.9167 59.2373C24.6978 59.1118 24.4471 59.0724 24.1681 59.0769C23.8913 59.0814 23.5633 59.1298 23.1759 59.2002L23.2236 59.4626ZM25.4922 60.8181L25.2347 60.8877C26.7489 66.4865 30.0633 70.8352 34.5274 74.3155L34.6914 74.1052L34.8554 73.8949C30.4636 70.4709 27.228 66.2146 25.7496 60.7485L25.4922 60.8181ZM34.6914 74.1052L34.5274 74.3155C38.9944 77.7981 44.1035 79.5457 49.7767 79.5594L49.7773 79.2927L49.778 79.026C44.222 79.0125 39.2282 77.304 34.8554 73.8948L34.6914 74.1052ZM49.7773 79.2927L49.7767 79.5594C55.0225 79.5721 59.7857 77.9737 64.1655 75.1897L64.0224 74.9646L63.8793 74.7395C59.5724 77.4772 54.9075 79.0383 49.778 79.026L49.7773 79.2927ZM64.0224 74.9646L64.1655 75.1897C69.233 71.9684 72.7495 67.4997 74.5784 61.7376L74.3242 61.657L74.07 61.5763C72.2801 67.2155 68.8443 71.5835 63.8793 74.7395L64.0224 74.9646ZM74.3242 61.657L74.5784 61.7376C74.6533 61.5018 74.7146 61.2842 74.7695 61.0872C74.8248 60.8884 74.8727 60.7143 74.9224 60.5569C75.0227 60.2392 75.1198 60.0285 75.2581 59.8799C75.3891 59.7392 75.5803 59.6303 75.9196 59.5703C76.266 59.5091 76.7491 59.5021 77.4429 59.5566L77.4638 59.2907L77.4847 59.0248C76.777 58.9693 76.2403 58.972 75.8268 59.045C75.4064 59.1193 75.0978 59.2692 74.8676 59.5165C74.6447 59.7559 74.5191 60.0626 74.4137 60.3962C74.3606 60.5645 74.3098 60.7496 74.2556 60.944C74.2009 61.1403 74.1418 61.3501 74.07 61.5763L74.3242 61.657ZM77.4638 59.2907L77.443 59.5566C78.8781 59.6693 80.0591 59.0916 80.9935 58.0715L80.7968 57.8913L80.6002 57.7112C79.757 58.6317 78.7291 59.1226 77.4847 59.0248L77.4638 59.2907ZM80.7968 57.8913L80.9935 58.0715C82.5516 56.3703 82.7285 54.3743 82.1284 52.2855L81.872 52.3591L81.6157 52.4327C82.1797 54.3958 81.9998 56.183 80.6002 57.7112L80.7968 57.8913ZM81.872 52.3591L82.1284 52.2854C81.7118 50.8359 80.6998 49.9626 79.4195 49.3645L79.3066 49.6062L79.1937 49.8478C80.3865 50.405 81.2554 51.179 81.6157 52.4328L81.872 52.3591ZM79.3066 49.6062L79.4195 49.3645C78.2617 48.8237 77.2206 48.9937 76.1676 49.577L76.2968 49.8103L76.4261 50.0436C77.3694 49.5211 78.2278 49.3966 79.1937 49.8478L79.3066 49.6062ZM76.2968 49.8103L76.1676 49.5769C75.7803 49.7915 75.6245 49.7749 75.5593 49.7389C75.5236 49.7192 75.4741 49.6737 75.4209 49.5628C75.3672 49.4512 75.3189 49.2919 75.2765 49.073L75.0146 49.1237L74.7528 49.1745C74.7992 49.4139 74.8582 49.6234 74.94 49.7938C75.0222 49.9649 75.1362 50.1146 75.3015 50.2059C75.6383 50.3918 76.0348 50.2603 76.4261 50.0436L76.2968 49.8103ZM75.0146 49.1237L75.2765 49.073C75.1869 48.6107 75.129 48.1414 75.0654 47.6598C75.0024 47.1818 74.934 46.6937 74.8234 46.2124L74.5634 46.2722L74.3035 46.3319C74.4079 46.786 74.4736 47.2516 74.5366 47.7295C74.5991 48.2038 74.6594 48.6925 74.7528 49.1745L75.0146 49.1237ZM74.5634 46.2722L74.8234 46.2124C73.0856 38.652 68.6653 33.115 62.0539 29.273L61.9199 29.5036L61.7859 29.7342C68.2818 33.5091 72.6018 38.9284 74.3035 46.3319L74.5634 46.2722ZM61.9199 29.5036L62.0539 29.273C61.9114 29.1902 61.7799 29.1194 61.663 29.0793C61.5462 29.0392 61.3929 29.0118 61.2428 29.0884C61.1011 29.1606 61.0267 29.294 60.9804 29.4034C60.9319 29.5179 60.8909 29.6645 60.8482 29.8294L61.1064 29.8962L61.3646 29.963C61.4081 29.7951 61.4405 29.6848 61.4715 29.6115C61.5048 29.5331 61.5161 29.5478 61.485 29.5637C61.4454 29.5838 61.4275 29.5624 61.4898 29.5838C61.552 29.6052 61.6432 29.6513 61.7859 29.7342L61.9199 29.5036ZM61.1064 29.8962L60.8482 29.8294C60.5418 31.014 60.3342 32.1712 59.907 33.2576L60.1552 33.3552L60.4035 33.4528C60.8463 32.3264 61.0718 31.0954 61.3646 29.963L61.1064 29.8962ZM60.1552 33.3552L59.907 33.2576C58.8493 35.9473 56.9659 37.7658 54.1435 38.5034L54.2109 38.7614L54.2783 39.0195C57.2808 38.2348 59.2893 36.2859 60.4035 33.4528L60.1552 33.3552ZM54.2109 38.7614L54.1435 38.5034C53.7085 38.6171 53.2728 38.6236 52.7637 38.6872L52.7968 38.9519L52.8299 39.2165C53.2651 39.1621 53.7999 39.1445 54.2783 39.0195L54.2109 38.7614ZM52.7968 38.9519L52.7638 38.6872C52.3461 38.7394 51.9704 38.7061 51.6709 38.577C51.3793 38.4513 51.1448 38.2292 51.0047 37.8657L50.7558 37.9616L50.507 38.0576C50.6992 38.556 51.0377 38.8849 51.4598 39.0669C51.8739 39.2454 52.3526 39.2762 52.8299 39.2165L52.7968 38.9519ZM50.7558 37.9616L51.0047 37.8657C50.7144 37.1126 50.7548 36.2949 51.2884 35.6653L51.0849 35.4929L50.8815 35.3204C50.1906 36.1356 50.1658 37.1722 50.507 38.0576L50.7558 37.9616ZM51.0849 35.4929L51.2883 35.6654C51.3896 35.546 51.5397 35.4232 51.705 35.3309C51.8731 35.2371 52.0327 35.1882 52.1532 35.1873L52.1513 34.9206L52.1494 34.6539C51.9069 34.6556 51.6574 34.7466 51.445 34.8651C51.23 34.9852 51.0284 35.1472 50.8815 35.3204L51.0849 35.4929ZM52.1513 34.9206L52.1531 35.1873C53.4642 35.1789 54.4329 34.554 55.244 33.7011L55.0507 33.5173L54.8575 33.3335C54.1054 34.1244 53.2657 34.6467 52.1496 34.6539L52.1513 34.9206ZM55.0507 33.5173L55.244 33.7011C56.8711 31.9901 57.5155 29.8934 57.5586 27.6014L57.292 27.5964L57.0253 27.5914C56.984 29.7847 56.3713 31.7417 54.8575 33.3335L55.0507 33.5173ZM57.292 27.5964H57.5587C57.5587 27.4083 57.5616 27.2069 57.5576 27.0101L57.291 27.0154L57.0243 27.0206C57.0281 27.2106 57.0252 27.3976 57.0252 27.5964H57.292ZM57.291 27.0154L57.5576 27.0101C57.5039 24.2998 55.7159 21.8661 53.0532 20.8359L52.957 21.0847L52.8608 21.3334C55.3381 22.2919 56.9752 24.544 57.0243 27.0206L57.291 27.0154ZM58.041 62.7126L58.2195 62.9108C58.4624 62.692 58.7118 62.5736 58.9673 62.5347C59.2241 62.4955 59.5062 62.5339 59.8173 62.6592L59.917 62.4118L60.0166 62.1644C59.6364 62.0112 59.257 61.9509 58.8869 62.0073C58.5154 62.0639 58.1725 62.2352 57.8625 62.5144L58.041 62.7126ZM59.917 62.4118L59.8172 62.6592C60.2605 62.8379 60.5352 63.1129 60.6509 63.4132C60.7649 63.7091 60.7411 64.0717 60.5045 64.4673L60.7334 64.6042L60.9623 64.7411C61.2685 64.2291 61.3312 63.695 61.1486 63.2213C60.9678 62.752 60.5628 62.3846 60.0167 62.1645L59.917 62.4118ZM60.7334 64.6042L60.5045 64.4673C59.5703 66.029 58.2449 67.2115 56.6518 68.0873L56.7802 68.321L56.9087 68.5547C58.5719 67.6405 59.9724 66.3959 60.9623 64.7411L60.7334 64.6042ZM56.7802 68.321L56.6518 68.0873C54.6727 69.1751 52.5794 69.7892 50.8345 69.7536L50.8291 70.0202L50.8236 70.2869C52.689 70.325 54.8751 69.6725 56.9087 68.5547L56.7802 68.321ZM50.8291 70.0202L50.8312 69.7535C46.554 69.7194 43.3626 68.3194 40.6723 65.7021L40.4863 65.8933L40.3003 66.0845C43.0903 68.7988 46.4139 70.2517 50.8269 70.2869L50.8291 70.0202ZM40.4863 65.8933L40.6723 65.7021C40.4098 65.4467 40.1678 65.1605 39.9628 64.8587L39.7422 65.0085L39.5215 65.1584C39.7476 65.4912 40.0131 65.805 40.3003 66.0844L40.4863 65.8933ZM39.7422 65.0085L39.9628 64.8587C39.7071 64.4822 39.6177 64.1871 39.6371 63.9338C39.6563 63.6822 39.7868 63.4198 40.0825 63.1166L39.8916 62.9304L39.7006 62.7442C39.3555 63.0981 39.1374 63.4716 39.1052 63.8932C39.0731 64.313 39.2295 64.7285 39.5215 65.1584L39.7422 65.0085ZM39.8916 62.9304L40.0825 63.1166C40.5649 62.6221 41.2181 62.5416 41.8374 62.939L41.9814 62.7146L42.1255 62.4901C41.2987 61.9595 40.3645 62.0637 39.7006 62.7441L39.8916 62.9304ZM41.9814 62.7146L41.8374 62.939C42.0539 63.078 42.2337 63.2619 42.4654 63.4698L42.6435 63.2712L42.8216 63.0726C42.6238 62.8953 42.3899 62.6598 42.1255 62.4901L41.9814 62.7146ZM42.6435 63.2712L42.4655 63.4698C45.2177 65.9377 48.4427 67.0136 52.1074 66.4706L52.0683 66.2068L52.0292 65.9429C48.5328 66.4609 45.4645 65.4425 42.8216 63.0726L42.6435 63.2712ZM52.0683 66.2068L52.1074 66.4706C54.0509 66.1826 55.7563 65.2682 57.1988 63.9317L57.0175 63.7361L56.8363 63.5404C55.4597 64.8158 53.8501 65.6731 52.0292 65.9429L52.0683 66.2068ZM57.0175 63.7361L57.1988 63.9317C57.3827 63.7613 57.5551 63.5796 57.7204 63.4067C57.8879 63.2315 58.049 63.0643 58.2195 62.9108L58.041 62.7126L57.8625 62.5144C57.6752 62.6831 57.5013 62.864 57.3349 63.0381C57.1663 63.2144 57.0059 63.3833 56.8363 63.5404L57.0175 63.7361ZM39.415 46.3396L39.4077 46.6062C41.0957 46.6524 42.3583 48.0655 42.293 49.921L42.5595 49.9304L42.8261 49.9398C42.9005 47.824 41.441 46.1283 39.4223 46.073L39.415 46.3396ZM42.5595 49.9304L42.293 49.921C42.2307 51.6868 40.9133 52.9384 39.2395 52.9059L39.2343 53.1726L39.2292 53.4392C41.2061 53.4776 42.7539 51.9847 42.8261 49.9398L42.5595 49.9304ZM39.2343 53.1726L39.2395 52.9059C37.6804 52.8755 36.4268 51.279 36.4775 49.6094L36.2109 49.6013L35.9443 49.5932C35.8869 51.4807 37.3 53.4016 39.2291 53.4392L39.2343 53.1726ZM36.2109 49.6013L36.4775 49.6094C36.5281 47.9446 37.9199 46.5655 39.4077 46.6062L39.415 46.3396L39.4223 46.073C37.6043 46.0232 36.0027 47.6722 35.9443 49.5932L36.2109 49.6013ZM60.5996 46.4167L60.5984 46.6834C61.4607 46.6874 62.1859 47.007 62.6969 47.5433C63.2087 48.0803 63.5197 48.8498 63.5223 49.7759L63.789 49.7751L64.0557 49.7744C64.0528 48.7277 63.6995 47.8221 63.0831 47.1753C62.466 46.5277 61.5993 46.1546 60.6008 46.15L60.5996 46.4167ZM63.789 49.7751L63.5223 49.7759C63.5273 51.5776 62.2418 52.9239 60.6296 52.902L60.6259 53.1687L60.6223 53.4354C62.5728 53.4619 64.0614 51.8322 64.0557 49.7744L63.789 49.7751ZM60.6259 53.1687L60.6296 52.902C59.0217 52.8801 57.7944 51.5445 57.8009 49.7087L57.5341 49.7077L57.2674 49.7068C57.2601 51.7862 58.6753 53.4088 60.6223 53.4354L60.6259 53.1687ZM57.5341 49.7077L57.8003 49.6901C57.698 48.1459 58.9093 46.6758 60.5984 46.6834L60.5996 46.4167L60.6008 46.15C58.5765 46.1408 57.147 47.8988 57.268 49.7254L57.5341 49.7077Z" fill="white" mask="url(#path-1-inside-1_0_170)"/>
</g>
</g>
</svg>
