<svg width="24" height="24" viewBox="0 0 24 24" fill="none" xmlns="http://www.w3.org/2000/svg">
<path d="M12 2C17.5228 2 22 6.47715 22 12C22 17.5228 17.5228 22 12 22C6.47715 22 2 17.5228 2 12C2 6.47715 6.47715 2 12 2ZM12 3.42578C7.26469 3.42578 3.42578 7.26469 3.42578 12C3.42578 16.7353 7.26469 20.5742 12 20.5742C16.7353 20.5742 20.5742 16.7353 20.5742 12C20.5742 7.26469 16.7353 3.42578 12 3.42578ZM9.11719 8C9.34113 8.00523 9.55445 8.09838 9.71094 8.25879L12.0498 10.7695L14.5576 8.42969C14.64 8.35285 14.7373 8.29238 14.8428 8.25293C14.9481 8.21358 15.0605 8.19528 15.1729 8.19922C15.2853 8.20319 15.3957 8.22968 15.498 8.27637C15.6004 8.32308 15.6928 8.38934 15.7695 8.47168C15.8463 8.5541 15.9059 8.65128 15.9453 8.75684C15.9847 8.86233 16.003 8.97436 15.999 9.08691C15.9951 9.19953 15.9696 9.31055 15.9229 9.41309C15.8762 9.51551 15.8098 9.60779 15.7275 9.68457L13.2188 12.0254L15.5566 14.5352C15.638 14.6166 15.702 14.7145 15.7451 14.8213C15.7881 14.928 15.8097 15.0422 15.8076 15.1572C15.8056 15.2724 15.7802 15.386 15.7334 15.4912C15.6866 15.5963 15.6192 15.691 15.5352 15.7695C15.451 15.8481 15.3513 15.9089 15.2432 15.9482C15.1351 15.9876 15.0201 16.005 14.9053 15.999C14.7904 15.993 14.6776 15.9635 14.5742 15.9131C14.471 15.8627 14.3791 15.7918 14.3037 15.7051L11.9648 13.1943L9.45605 15.5342C9.37433 15.614 9.27717 15.6769 9.1709 15.7188C9.06473 15.7605 8.95096 15.781 8.83691 15.7783C8.72298 15.7756 8.61084 15.7498 8.50684 15.7031C8.40267 15.6564 8.30837 15.5894 8.23047 15.5059C8.15262 15.4224 8.09216 15.324 8.05273 15.2168C8.01332 15.1095 7.99572 14.995 8.00098 14.8809C8.00623 14.7668 8.034 14.6549 8.08301 14.5518C8.1321 14.4486 8.20186 14.3563 8.28711 14.2803L10.7959 11.9395L8.45703 9.42871C8.30816 9.2614 8.23091 9.04217 8.24121 8.81836C8.25155 8.59448 8.34895 8.38336 8.5127 8.23047C8.67641 8.07767 8.89339 7.99483 9.11719 8Z" fill="#1565C0"/>
</svg>
