<svg width="24" height="24" viewBox="0 0 24 24" fill="none" xmlns="http://www.w3.org/2000/svg">
<path d="M21.9435 11.7165C21.9143 11.6474 21.2085 10.0032 19.6393 8.35562C17.5485 6.16025 14.9076 5 12.001 5C9.09431 5 6.45347 6.16025 4.36264 8.35562C2.79347 10.0032 2.0843 11.65 2.05847 11.7165C2.02056 11.806 2.00098 11.9029 2.00098 12.0009C2.00098 12.0988 2.02056 12.1957 2.05847 12.2852C2.08764 12.3544 2.79347 13.9976 4.36264 15.6453C6.45347 17.8398 9.09431 19 12.001 19C14.9076 19 17.5485 17.8398 19.6393 15.6453C21.2085 13.9976 21.9143 12.3544 21.9435 12.2852C21.9814 12.1957 22.001 12.0988 22.001 12.0009C22.001 11.9029 21.9814 11.806 21.9435 11.7165ZM12.001 17.6C9.43597 17.6 7.19514 16.6209 5.34014 14.6906C4.57901 13.8959 3.93146 12.9896 3.41764 12C3.93132 11.0103 4.57888 10.104 5.34014 9.30937C7.19514 7.37913 9.43597 6.4 12.001 6.4C14.566 6.4 16.8068 7.37913 18.6618 9.30937C19.4244 10.1038 20.0734 11.0101 20.5885 12C19.9876 13.1777 17.3701 17.6 12.001 17.6ZM12.001 7.8C11.2099 7.8 10.4365 8.04633 9.77869 8.50783C9.1209 8.96933 8.60821 9.62528 8.30546 10.3927C8.0027 11.1602 7.92349 12.0047 8.07783 12.8194C8.23217 13.6341 8.61314 14.3825 9.17255 14.9698C9.73196 15.5572 10.4447 15.9572 11.2206 16.1193C11.9965 16.2814 12.8008 16.1982 13.5317 15.8803C14.2626 15.5624 14.8873 15.0241 15.3269 14.3334C15.7664 13.6427 16.001 12.8307 16.001 12C15.9999 10.8864 15.5781 9.81883 14.8282 9.03143C14.0783 8.24403 13.0615 7.80116 12.001 7.8ZM12.001 14.8C11.4736 14.8 10.958 14.6358 10.5195 14.3281C10.0809 14.0204 9.73913 13.5831 9.5373 13.0715C9.33546 12.5599 9.28265 11.9969 9.38555 11.4537C9.48844 10.9106 9.74242 10.4117 10.1154 10.0201C10.4883 9.62851 10.9635 9.36184 11.4807 9.2538C11.998 9.14576 12.5342 9.20121 13.0215 9.41314C13.5087 9.62506 13.9252 9.98395 14.2182 10.4444C14.5112 10.9049 14.6676 11.4462 14.6676 12C14.6676 12.7426 14.3867 13.4548 13.8866 13.9799C13.3865 14.505 12.7082 14.8 12.001 14.8Z" fill="#1565C0"/>
</svg>
