<svg width="28" height="28" viewBox="0 0 28 28" fill="none" xmlns="http://www.w3.org/2000/svg">
<path d="M13.9995 0C17.7112 0.00391966 21.2704 1.47995 23.895 4.10449C26.5197 6.72915 27.9956 10.2882 27.9995 14C27.9995 16.7689 27.1785 19.476 25.6401 21.7783C24.1019 24.0803 21.9158 25.875 19.3579 26.9346C16.7999 27.9941 13.9846 28.2715 11.269 27.7314C8.55331 27.1913 6.05803 25.8573 4.1001 23.8994C2.14232 21.9416 0.809244 19.447 0.269043 16.7314C-0.271149 14.0157 0.00629465 11.2007 1.06592 8.64258C2.12554 6.08441 3.91988 3.89771 6.22217 2.35938C8.52431 0.821192 11.2308 7.6442e-05 13.9995 0ZM19.3843 9.69141C19.2429 9.69144 19.1028 9.71935 18.9722 9.77344C18.8415 9.82755 18.7226 9.90688 18.6226 10.0068L11.8462 16.7852L9.37744 14.3154C9.17547 14.1135 8.90134 13.9991 8.61572 13.999C8.32995 13.999 8.0551 14.1134 7.85303 14.3154C7.65119 14.5175 7.5376 14.7916 7.5376 15.0771C7.53766 15.3628 7.6511 15.6369 7.85303 15.8389L11.0845 19.0693C11.1845 19.1694 11.3034 19.2495 11.4341 19.3037C11.5647 19.3578 11.7048 19.3857 11.8462 19.3857C11.9876 19.3857 12.1277 19.3578 12.2583 19.3037C12.389 19.2495 12.5079 19.1695 12.6079 19.0693L20.146 11.5312C20.2461 11.4312 20.3262 11.3124 20.3804 11.1816C20.4345 11.051 20.4624 10.9109 20.4624 10.7695C20.4624 10.628 20.4345 10.4872 20.3804 10.3564C20.3262 10.2258 20.246 10.1068 20.146 10.0068C20.046 9.90699 19.9269 9.82751 19.7964 9.77344C19.6658 9.71943 19.5256 9.69141 19.3843 9.69141Z" fill="#1565C0"/>
</svg>
