<svg width="89" height="162" viewBox="0 0 89 162" fill="none" xmlns="http://www.w3.org/2000/svg">
<path d="M43.9898 104.236L36.6738 120.645H51.6558L44.1978 104.236H43.9898Z" fill="#2C2827"/>
<path d="M59.864 62.1885C59.6154 62.1341 59.3891 62.0054 59.2152 61.8196C59.0413 61.6338 58.9279 61.3996 58.8899 61.148C58.852 60.8963 58.8913 60.639 59.0028 60.4102C59.1142 60.1814 59.2925 59.9918 59.514 59.8665C65.7225 56.4599 70.6209 51.0842 73.4372 44.5866C76.2536 38.0891 76.8279 30.8391 75.0695 23.9792C73.3111 17.1193 69.32 11.0395 63.7253 6.69798C58.1305 2.35644 51.2502 0 44.1685 0C37.0868 0 30.2065 2.35644 24.6117 6.69798C19.017 11.0395 15.0259 17.1193 13.2675 23.9792C11.5091 30.8391 12.0834 38.0891 14.8998 44.5866C17.7161 51.0842 22.6145 56.4599 28.823 59.8665C29.045 59.9924 29.2234 60.183 29.3344 60.4128C29.4454 60.6427 29.4837 60.9008 29.4443 61.153C29.4049 61.4052 29.2895 61.6393 29.1137 61.8243C28.9379 62.0093 28.7098 62.1364 28.46 62.1885C20.4591 63.7348 13.2448 68.0148 8.05276 74.2954C2.86068 80.5761 0.0138893 88.4666 0 96.6155L0 161.215H88.323V96.6155C88.3158 88.465 85.4716 80.5711 80.2786 74.2891C75.0856 68.0071 67.8677 63.7287 59.864 62.1885ZM67.621 138.462H61.121C60.6491 138.486 60.1824 138.353 59.7948 138.083C59.4072 137.813 59.1208 137.421 58.981 136.969L55.322 128.915H33.022L29.38 136.971C29.2164 137.418 28.917 137.802 28.5238 138.07C28.1307 138.337 27.6635 138.475 27.188 138.464H20.715C20.4787 138.484 20.2412 138.441 20.0278 138.337C19.8143 138.234 19.6328 138.075 19.5025 137.876C19.3721 137.678 19.2979 137.448 19.2876 137.212C19.2773 136.975 19.3314 136.739 19.444 136.531L42.637 86.3305C42.7473 86.0872 42.9266 85.8816 43.1528 85.7394C43.3789 85.5972 43.6419 85.5245 43.909 85.5305H44.647C44.9165 85.5116 45.185 85.579 45.4136 85.7228C45.6423 85.8666 45.8193 86.0795 45.919 86.3305L68.879 136.531C68.9959 136.738 69.0538 136.973 69.0463 137.211C69.0388 137.448 68.9663 137.679 68.8365 137.879C68.7068 138.078 68.5249 138.238 68.3105 138.341C68.0962 138.444 67.8577 138.487 67.621 138.464" fill="#2C2827"/>
</svg>
