<svg width="100" height="100" viewBox="0 0 100 100" fill="none" xmlns="http://www.w3.org/2000/svg">
<path d="M50 1C77.062 1 99 22.938 99 50C99 77.062 77.062 99 50 99C22.938 99 1 77.062 1 50C1 22.938 22.938 1 50 1Z" fill="#2B8AEB" stroke="#2B8AEB" stroke-width="2" stroke-miterlimit="10"/>
<path d="M78.2764 28.2536L80.6719 25.7536C80.2668 25.2963 79.435 24.9435 78.8557 24.9827H70.7503C70.2189 24.9479 69.435 25.2527 69.043 25.6534L71.286 28.2536H78.2764Z" fill="#222D39"/>
<path d="M70.4063 46.6117H77.3968L78.9734 44.9654L77.5666 43.3408H70.5806L69.0039 44.9828L70.4063 46.6117Z" fill="#222D39"/>
<path d="M81.5547 28.1144L80.8404 43.0186L79.2638 44.6606L77.8613 43.036L78.5538 28.5804L80.9493 26.0804C81.3413 26.5508 81.62 27.4785 81.5504 28.1144H81.5547Z" fill="#222D39"/>
<path d="M78.9336 64.2993L76.6906 61.6991H69.7002L67.3047 64.1991C67.7141 64.6564 68.5416 65.0092 69.1209 64.97H77.2263C77.762 65.0048 78.5416 64.7 78.9336 64.2993Z" fill="#222D39"/>
<path d="M77.6749 46.9342L76.9824 61.3898L79.2255 63.99C79.6044 63.5806 79.9267 62.7356 79.9223 62.152L80.654 46.9212L79.2516 45.2922L77.6749 46.9342Z" fill="#222D39"/>
<path d="M61.7999 28.2536L64.1953 25.7536C63.7903 25.2963 62.9584 24.9435 62.3791 24.9827H54.2737C53.7424 24.9479 52.9584 25.2527 52.5664 25.6534L54.8094 28.2536H61.7999Z" fill="#222D39"/>
<path d="M53.9341 46.6117H60.9246L62.4969 44.9654L61.0944 43.3408H54.104L52.5273 44.9828L53.9341 46.6117Z" fill="#222D39"/>
<path d="M65.0781 28.1144L64.3639 43.0186L62.7872 44.6606L61.3848 43.036L62.0773 28.5804L64.4727 26.0804C64.8647 26.5508 65.1435 27.4785 65.0738 28.1144H65.0781Z" fill="#222D39"/>
<path d="M52.9445 61.3724L53.637 46.9212L52.2303 45.2922L50.6536 46.9342L49.9393 61.8384C49.874 62.4743 50.1484 63.402 50.5447 63.8724L52.9402 61.3724H52.9445Z" fill="#222D39"/>
<path d="M62.457 64.2993L60.214 61.6991H53.2236L50.8281 64.1991C51.2375 64.6564 52.0651 65.0092 52.6443 64.97H60.7497C61.2854 65.0048 62.0651 64.7 62.457 64.2993Z" fill="#222D39"/>
<path d="M20.8287 43.0184L21.5212 28.5628L19.2738 25.9626C18.8949 26.3764 18.5726 27.217 18.577 27.805L17.8496 43.0358L19.252 44.6604L20.8243 43.0184H20.8287Z" fill="#222D39"/>
<path d="M20.9376 46.6117H27.928L29.5047 44.9654L28.0979 43.3408H21.1118L19.5352 44.9828L20.9376 46.6117Z" fill="#222D39"/>
<path d="M19.9524 61.3724L20.6449 46.9212L19.2381 45.2922L17.6614 46.9342L16.9471 61.8384C16.8818 62.4743 17.1562 63.402 17.5525 63.8724L19.948 61.3724H19.9524Z" fill="#222D39"/>
<path d="M29.4649 64.2993L27.2218 61.6991H20.2314L17.8359 64.1991C18.2453 64.6564 19.0729 65.0092 19.6521 64.97H27.7575C28.2933 65.0048 29.0729 64.7 29.4649 64.2993Z" fill="#222D39"/>
<path d="M45.2745 28.2536L47.6699 25.7536C47.2649 25.2963 46.433 24.9435 45.8537 24.9827H37.7483C37.217 24.9479 36.433 25.2527 36.041 25.6534L38.284 28.2536H45.2745Z" fill="#222D39"/>
<path d="M37.4044 46.6074H44.3948L45.9715 44.9654L44.5647 43.3408H37.5786L36.002 44.9828L37.4044 46.6074Z" fill="#222D39"/>
<path d="M48.5528 28.1098L47.8385 43.014L46.2618 44.6559L44.8594 43.0314L45.5519 28.5758L47.9474 26.0758C48.3393 26.5462 48.6181 27.4739 48.5484 28.1098H48.5528Z" fill="#222D39"/>
<path d="M45.9317 64.2945L43.6886 61.6943H36.6982L34.3027 64.1943C34.7121 64.6517 35.5397 65.0044 36.1189 64.9652H44.2243C44.7601 65.0001 45.5397 64.6952 45.9317 64.2945Z" fill="#222D39"/>
<path d="M44.673 46.9342L43.9805 61.3898L46.2235 63.99C46.6024 63.5806 46.9247 62.7356 46.9204 62.152L47.6521 46.9212L46.2496 45.2922L44.673 46.9342Z" fill="#222D39"/>
<path d="M58.4388 77.7483H61.8011L62.559 76.9556L61.8839 76.176H58.5215L57.7637 76.9644L58.4388 77.7483Z" fill="#222D39"/>
<path d="M57.9695 84.8433L58.3049 77.8964L57.6298 77.1124L56.8719 77.9008L56.5279 85.0654C56.4974 85.3703 56.628 85.8145 56.8197 86.041L57.9695 84.8389V84.8433Z" fill="#222D39"/>
<path d="M50.388 77.7483H53.746L54.5038 76.9556L53.8287 76.176H50.4707L49.7129 76.9644L50.388 77.7483Z" fill="#222D39"/>
<path d="M49.9128 84.8433L50.2482 77.8964L49.5731 77.1124L48.8153 77.9008L48.4712 85.0654C48.4407 85.3703 48.5714 85.8145 48.763 86.041L49.9128 84.8389V84.8433Z" fill="#222D39"/>
<path d="M46.1109 68.9245L47.2608 67.7224C47.0648 67.5047 46.6684 67.3348 46.3853 67.3522H42.4872C42.2303 67.3348 41.8557 67.4829 41.6641 67.6745L42.7442 68.9245H46.1066H46.1109Z" fill="#222D39"/>
<path d="M42.2782 76.0194L42.6135 69.0725L41.5334 67.8225C41.3505 68.0185 41.198 68.4236 41.198 68.7067L40.8496 76.0281L41.5247 76.8077L42.2825 76.0194H42.2782Z" fill="#222D39"/>
<path d="M42.3313 77.7483H45.6894L46.4472 76.9556L45.7721 76.176H42.4141L41.6562 76.9644L42.3313 77.7483Z" fill="#222D39"/>
<path d="M41.8562 84.8433L42.1916 77.8964L41.5165 77.1124L40.7586 77.9008L40.4146 85.0654C40.3841 85.3703 40.5147 85.8145 40.7064 86.041L41.8562 84.8389V84.8433Z" fill="#222D39"/>
<path d="M46.4302 86.2461L45.3501 84.9961H41.9877L40.8379 86.1982C41.0339 86.4203 41.4302 86.5858 41.7133 86.5684H45.6114C45.8684 86.5858 46.2429 86.4377 46.4346 86.2461H46.4302Z" fill="#222D39"/>
</svg>
