<svg width="24" height="24" viewBox="0 0 24 24" fill="none" xmlns="http://www.w3.org/2000/svg">
<path d="M9.17882 16.7933C8.78109 17.2359 7.31183 18.4261 6.60669 18.9898C6.5039 19.0723 6.37625 19.1063 6.25119 19.0847C6.12614 19.0631 6.01367 18.9876 5.93798 18.8743C5.02234 17.6186 4.36502 16.1535 4.01256 14.5826C3.6601 13.0117 3.62111 11.3736 3.89834 9.78402C4.35071 7.19458 5.99189 5.09244 9.62609 4.93055C10.3028 4.89963 11.2957 4.90126 12.4393 4.9639C12.5234 4.9684 12.605 4.99728 12.676 5.0477C12.747 5.09812 12.8051 5.16833 12.8444 5.25143C12.8837 5.33453 12.903 5.42764 12.9003 5.52158C12.8976 5.61553 12.8731 5.70707 12.829 5.78718C12.0531 7.10348 11.6414 8.64578 11.6453 10.2217C11.818 13.6645 10.506 15.3143 9.17664 16.7933" fill="#1565C0"/>
<path d="M6.32578 21.001C5.98437 21.0001 5.64783 20.9106 5.34267 20.7396C5.03752 20.5687 4.77209 20.3209 4.56732 20.0158C3.50284 18.5505 2.74081 16.8411 2.33551 15.0093C1.93021 13.1775 1.89161 11.2684 2.22246 9.41804C2.49383 7.69687 3.28735 6.13245 4.4697 4.9876C5.91937 3.70979 7.71327 3.01685 9.56006 3.02131C9.86819 3.00748 10.2142 3.00098 10.5886 3.00098C11.2027 3.00098 14.37 3.38821 14.5368 3.40774C16.5655 3.53203 18.5744 3.91915 20.5231 4.56131C20.8111 4.67247 21.0752 4.84943 21.2986 5.08089C21.5219 5.31236 21.6996 5.59327 21.8204 5.9057C21.9412 6.21813 22.0023 6.55524 21.9999 6.89553C21.9976 7.23581 21.9317 7.57182 21.8066 7.88211C20.9626 9.94288 19.6866 11.7463 18.0865 13.1399C16.5931 14.3839 14.8594 15.2198 13.0245 15.5805L12.9786 15.587C12.7327 15.6162 12.4946 15.7004 12.2785 15.8346C12.0624 15.9688 11.8726 16.1502 11.7206 16.368C11.3089 16.9891 10.8643 17.5821 10.389 18.1439C9.50365 19.0046 8.57298 19.8055 7.60201 20.5421C7.22991 20.8413 6.78282 21.0019 6.32432 21.001M10.5886 3.57044C10.2244 3.57044 9.88203 3.57695 9.58118 3.58997C7.84751 3.58271 6.16243 4.22941 4.79896 5.42527C3.70691 6.48667 2.97492 7.9352 2.72581 9.52787C2.41028 11.3 2.44866 13.128 2.83824 14.8817C3.22781 16.6353 3.95897 18.2714 4.97961 19.6733C5.24221 20.068 5.63308 20.3318 6.06809 20.4079C6.5031 20.484 6.94746 20.3662 7.30553 20.0801C8.2524 19.3614 9.16064 18.5813 10.0255 17.7436C10.4842 17.197 10.9135 16.6205 11.3112 16.0173C11.5058 15.7377 11.7489 15.5048 12.0261 15.3327C12.3032 15.1606 12.6086 15.0529 12.924 15.0159C14.6801 14.6726 16.3397 13.8744 17.7696 12.6851C19.3048 11.3484 20.5292 9.61833 21.339 7.64131C21.4348 7.40352 21.4852 7.14607 21.4871 6.88533C21.4889 6.62459 21.4421 6.36627 21.3497 6.12683C21.2572 5.88739 21.1212 5.67206 20.9502 5.49455C20.7791 5.31704 20.5769 5.18124 20.3563 5.0958C18.4453 4.4717 16.4761 4.09634 14.488 3.9772H14.4836C14.4494 3.9772 11.1787 3.57044 10.5886 3.57044Z" fill="#1565C0"/>
<path d="M14.3765 5.31059C14.2909 5.30185 14.2048 5.31881 14.127 5.35972C14.0493 5.40063 13.9828 5.46399 13.9343 5.54325C13.329 6.52517 12.2851 8.48088 12.3703 10.1763C12.43 11.1371 12.3562 12.1025 12.1518 13.0382C12.1313 13.126 12.131 13.2182 12.1509 13.3062C12.1708 13.3941 12.2103 13.4751 12.2656 13.5415C12.3209 13.6079 12.3904 13.6577 12.4675 13.6862C12.5447 13.7147 12.627 13.721 12.7069 13.7045C14.2742 13.3982 15.7561 12.6885 17.0353 11.6317C18.4134 10.4284 19.5139 8.87446 20.2448 7.09952C20.2722 7.03106 20.2866 6.95698 20.2871 6.88197C20.2875 6.80696 20.274 6.73268 20.2473 6.66382C20.2207 6.59497 20.1815 6.53306 20.1323 6.48202C20.0831 6.43099 20.0249 6.39193 19.9614 6.36735C18.1418 5.77918 16.268 5.42464 14.3765 5.31059Z" fill="#1565C0"/>
</svg>
