<?xml version="1.0" encoding="UTF-8"?>
<svg id="Layer_1" data-name="Layer 1" xmlns="http://www.w3.org/2000/svg" viewBox="0 0 282.26 366.67">
  <defs>
    <style>
      .cls-1 {
        stroke: #6e6f71;
        stroke-linecap: round;
      }

      .cls-1, .cls-2, .cls-3, .cls-4 {
        fill: none;
      }

      .cls-1, .cls-3, .cls-5, .cls-4, .cls-6 {
        stroke-miterlimit: 10;
      }

      .cls-7 {
        fill: #f2cd00;
      }

      .cls-8, .cls-6 {
        fill: #fff;
      }

      .cls-9 {
        fill: #ff8300;
      }

      .cls-10 {
        fill: #76777a;
      }

      .cls-11 {
        fill: #78787a;
      }

      .cls-2 {
        stroke: #1c1c1b;
        stroke-miterlimit: 22.93;
        stroke-width: .57px;
      }

      .cls-12 {
        fill: #6e6f71;
      }

      .cls-13 {
        fill: #414142;
      }

      .cls-14 {
        fill: #c8c8c8;
      }

      .cls-3 {
        stroke-width: .5px;
      }

      .cls-3, .cls-5, .cls-6 {
        stroke: #aaa;
      }

      .cls-15 {
        fill: #b8be14;
      }

      .cls-5 {
        fill: #d3e7ef;
      }

      .cls-4 {
        stroke: #c8c8c8;
        stroke-width: 2px;
      }

      .cls-16 {
        fill: #f32735;
      }
    </style>
  </defs>
  <rect class="cls-6" x=".5" y=".5" width="281.26" height="365.67" rx="45.35" ry="45.35"/>
  <polygon class="cls-3" points="141.13 361.05 64.69 361.05 55.21 361.05 50.65 361.05 46.21 360.81 42.01 360.21 37.81 359.49 33.61 358.29 29.65 356.85 25.93 355.05 22.45 352.89 19.21 350.49 16.21 347.73 13.69 344.61 11.41 341.25 9.49 337.66 8.05 333.81 6.97 329.85 6.25 325.77 6.01 321.58 5.89 317.01 5.89 297.93 5.89 259.77 5.89 183.34 5.89 107.01 5.89 68.85 5.89 49.66 6.01 45.22 6.25 41.01 6.97 36.93 8.05 32.97 9.61 29.14 11.41 25.41 13.69 22.05 16.21 18.93 19.21 16.18 22.45 13.78 25.93 11.62 29.65 9.82 33.61 8.37 37.69 7.3 41.89 6.45 46.21 5.97 50.65 5.73 55.21 5.62 64.69 5.62 141.13 5.62 217.57 5.62 227.05 5.62 231.61 5.73 236.05 5.97 240.25 6.45 244.45 7.3 248.65 8.37 252.49 9.82 256.33 11.62 259.81 13.78 263.05 16.18 265.93 18.93 268.57 22.05 270.85 25.41 272.65 29.14 274.09 32.97 275.17 36.93 275.89 41.01 276.25 45.22 276.37 49.66 276.37 68.85 276.37 107.01 276.37 183.34 276.37 259.77 276.37 297.93 276.37 317.01 276.25 321.58 275.89 325.77 275.29 329.85 274.21 333.81 272.65 337.66 270.85 341.25 268.57 344.61 265.93 347.73 263.05 350.49 259.81 352.89 256.33 355.05 252.49 356.85 248.53 358.29 244.45 359.49 240.25 360.21 236.05 360.81 231.61 361.05 227.05 361.05 217.57 361.05 141.13 361.05"/>
  <polygon class="cls-15" points="252.13 303.81 251.89 299.85 251.17 295.89 249.97 292.05 248.29 288.33 246.25 284.85 243.73 281.73 240.85 278.85 237.73 276.45 234.25 274.29 230.65 272.73 226.81 271.53 222.85 270.81 218.77 270.57 214.81 270.81 210.85 271.53 207.01 272.73 203.29 274.29 199.81 276.45 196.69 278.85 193.81 281.73 191.41 284.85 189.25 288.33 187.69 292.05 186.49 295.89 185.77 299.85 185.53 303.81 185.77 307.77 186.49 311.73 187.69 315.57 189.25 319.29 191.41 322.77 193.81 325.89 196.69 328.77 199.81 331.17 203.29 333.33 207.01 335.01 210.85 336.09 214.81 336.93 218.77 337.17 222.85 336.93 226.81 336.09 230.65 335.01 234.25 333.33 237.73 331.17 240.85 328.77 243.73 325.89 246.25 322.77 248.29 319.29 249.97 315.57 251.17 311.73 251.89 307.77 252.13 303.81"/>
  <polygon class="cls-4" points="143.29 283.17 145.33 283.29 147.25 283.53 149.29 284.13 151.09 284.73 153.01 285.69 154.69 286.65 156.37 287.85 157.81 289.17 159.25 290.73 160.45 292.41 161.41 294.1 162.25 295.89 162.97 297.81 163.45 299.85 163.81 301.77 163.93 303.81 163.81 305.85 163.45 307.89 162.97 309.81 162.25 311.73 161.41 313.53 160.45 315.33 159.25 316.89 157.81 318.45 156.37 319.77 154.69 320.98 153.01 322.05 151.09 322.89 149.29 323.49 147.25 324.1 145.33 324.33 143.29 324.45 50.17 324.45 48.13 324.33 46.21 324.09 44.17 323.49 42.25 322.89 40.45 322.05 38.77 320.98 37.09 319.77 35.65 318.45 34.21 316.89 33.01 315.33 32.05 313.53 31.09 311.73 30.49 309.81 30.01 307.89 29.65 305.85 29.53 303.81 29.65 301.77 30.01 299.85 30.49 297.81 31.09 295.89 32.05 294.09 33.01 292.41 34.21 290.73 35.65 289.17 37.09 287.85 38.77 286.65 40.45 285.7 42.25 284.73 44.17 284.13 46.21 283.53 48.13 283.29 50.17 283.17 143.29 283.17"/>
  <line class="cls-2" x1="5.9" y1="304.69" x2="5.89" y2="304.54"/>
  <line class="cls-2" x1="5.89" y1="304.7" x2="5.89" y2="304.53"/>
  <rect class="cls-5" x="55.89" y="64.31" width="170.08" height="181.42" rx="4.89" ry="4.89"/>
  <g>
    <g>
      <polygon class="cls-13" points="201.98 186.69 215.06 186.69 217.14 183.74 215.12 180.77 201.91 180.77 199.88 183.75 201.98 186.69"/>
      <path class="cls-13" d="M202.05,158.91h12.92l3.54-4.35c-.86-.98-2-1.58-3.25-1.58h-13.49c-1.25,0-2.39,.6-3.25,1.58l3.54,4.35Z"/>
      <path class="cls-13" d="M196.97,208.6c0,1.55,.5,2.96,1.3,4.02l3.53-4.34v-21.12l-2.16-3.05-2.67,3.89v20.61Z"/>
      <path class="cls-13" d="M201.8,159.22l-3.54-4.35c-.8,1.05-1.29,2.46-1.29,4.01v20.8l2.67,3.72,2.16-3.17v-21.02Z"/>
      <path class="cls-13" d="M220.09,208.6c0,1.55-.5,2.96-1.31,4.02l-3.55-4.34v-21.12l2.17-3.05,2.68,3.89v20.61Z"/>
      <path class="cls-13" d="M214.98,208.56h-12.93l-3.54,4.35c.86,.97,1.99,1.58,3.25,1.58h13.49c1.25,0,2.4-.6,3.25-1.58l-3.53-4.34Z"/>
    </g>
    <g>
      <path class="cls-13" d="M173.34,158.91h12.92l3.54-4.35c-.86-.98-2-1.58-3.25-1.58h-13.49c-1.25,0-2.39,.6-3.25,1.58l3.54,4.35Z"/>
      <path class="cls-13" d="M191.38,208.6c0,1.55-.5,2.96-1.31,4.02l-3.55-4.34v-21.12l2.17-3.05,2.68,3.89v20.61Z"/>
      <path class="cls-13" d="M186.52,159.22l3.55-4.35c.8,1.05,1.3,2.46,1.3,4.01v20.8l-2.68,3.73-2.17-3.17v-21.02Z"/>
    </g>
  </g>
  <g>
    <g>
      <path class="cls-13" d="M202.16,76.3h12.84l3.51-4.32c-.85-.97-1.99-1.57-3.23-1.57h-13.41c-1.25,0-2.38,.6-3.23,1.57l3.51,4.32Z"/>
      <path class="cls-13" d="M197.12,125.67c0,1.54,.49,2.94,1.29,3.99l3.51-4.32v-20.99l-2.14-3.03-2.66,3.86v20.48Z"/>
      <path class="cls-13" d="M201.92,76.6l-3.51-4.32c-.79,1.05-1.29,2.45-1.29,3.98v20.67l2.65,3.7,2.15-3.15v-20.89Z"/>
      <path class="cls-13" d="M220.09,125.67c0,1.54-.5,2.94-1.3,3.99l-3.53-4.32v-20.99l2.15-3.03,2.67,3.86v20.48Z"/>
      <path class="cls-13" d="M215.26,76.6l3.53-4.32c.8,1.05,1.29,2.45,1.29,3.98v20.67l-2.67,3.7-2.16-3.15v-20.89Z"/>
      <path class="cls-13" d="M215.01,125.64h-12.85l-3.51,4.32c.85,.97,1.98,1.57,3.23,1.57h13.41c1.25,0,2.38-.6,3.23-1.57l-3.51-4.31Z"/>
    </g>
    <g>
      <polygon class="cls-13" points="173.56 103.91 186.56 103.91 188.63 100.97 186.62 98.02 173.49 98.02 171.47 100.98 173.56 103.91"/>
      <path class="cls-13" d="M173.63,76.3h12.84l3.51-4.32c-.85-.97-1.99-1.57-3.23-1.57h-13.41c-1.25,0-2.38,.6-3.23,1.57l3.51,4.32Z"/>
      <path class="cls-13" d="M168.58,125.67c0,1.54,.49,2.94,1.29,3.99l3.51-4.32v-20.99l-2.14-3.03-2.66,3.86v20.48Z"/>
      <path class="cls-13" d="M186.73,76.6l3.53-4.32c.8,1.05,1.29,2.45,1.29,3.98v20.67l-2.67,3.7-2.16-3.15v-20.89Z"/>
      <path class="cls-13" d="M186.48,125.64h-12.85l-3.51,4.32c.85,.97,1.98,1.57,3.23,1.57h13.41c1.25,0,2.38-.6,3.23-1.57l-3.51-4.31Z"/>
    </g>
    <g>
      <path class="cls-13" d="M163.02,125.67c0,1.54-.5,2.94-1.3,3.99l-3.53-4.32v-20.99l2.15-3.03,2.67,3.86v20.48Z"/>
      <path class="cls-13" d="M158.2,76.6l3.53-4.32c.8,1.05,1.29,2.45,1.29,3.98v20.67l-2.67,3.7-2.16-3.15v-20.89Z"/>
    </g>
  </g>
  <g>
    <g>
      <polygon class="cls-13" points="110.27 177.72 119.64 177.72 121.13 175.6 119.68 173.47 110.22 173.47 108.76 175.61 110.27 177.72"/>
      <path class="cls-13" d="M110.14,158.02l-2.53-3.12c-.57,.76-.93,1.76-.93,2.87v14.91l1.91,2.67,1.55-2.27v-15.07Z"/>
      <path class="cls-13" d="M123.24,193.42c0,1.11-.36,2.12-.94,2.88l-2.54-3.11v-15.14l1.55-2.19,1.92,2.79v14.77Z"/>
      <path class="cls-13" d="M119.77,158.02l2.55-3.12c.58,.76,.93,1.76,.93,2.87v14.91l-1.92,2.67-1.56-2.27v-15.07Z"/>
    </g>
    <g>
      <polygon class="cls-13" points="90.71 177.72 100.09 177.72 101.58 175.6 100.13 173.47 90.66 173.47 89.21 175.61 90.71 177.72"/>
      <path class="cls-13" d="M90.76,157.81h9.26l2.53-3.12c-.61-.7-1.43-1.13-2.33-1.13h-9.67c-.9,0-1.72,.43-2.33,1.13l2.53,3.12Z"/>
      <path class="cls-13" d="M87.12,193.42c0,1.11,.36,2.12,.93,2.88l2.53-3.11v-15.14l-1.55-2.19-1.92,2.79v14.77Z"/>
      <path class="cls-13" d="M90.58,158.02l-2.53-3.12c-.57,.76-.93,1.76-.93,2.87v14.91l1.91,2.67,1.55-2.27v-15.07Z"/>
      <path class="cls-13" d="M103.69,193.42c0,1.11-.36,2.12-.94,2.88l-2.54-3.11v-15.14l1.55-2.19,1.92,2.79v14.77Z"/>
      <path class="cls-13" d="M100.03,193.39h-9.26l-2.53,3.12c.61,.7,1.43,1.13,2.33,1.13h9.67c.9,0,1.72-.43,2.33-1.13l-2.53-3.11Z"/>
    </g>
  </g>
  <polygon class="cls-13" points="62.89 192.12 65.3 180.78 67.71 180.78 67.71 203.46 65.3 203.46 62.89 192.12"/>
  <g>
    <path class="cls-13" d="M195.89,140.69l.04,.52c.33-.4,.77-.6,1.33-.6,.59,0,1,.23,1.23,.7,.32-.47,.79-.7,1.39-.7,.5,0,.87,.15,1.12,.44,.24,.29,.37,.73,.37,1.32v2.95h-1.24v-2.95c0-.26-.05-.45-.15-.57s-.28-.18-.54-.18c-.37,0-.63,.18-.77,.53v3.17s-1.23,0-1.23,0v-2.94c0-.27-.05-.46-.16-.58-.11-.12-.28-.18-.54-.18-.35,0-.6,.15-.76,.44v3.27h-1.23v-4.62h1.16Z"/>
    <path class="cls-13" d="M203.45,140.69l.04,.52c.33-.4,.77-.6,1.33-.6,.59,0,1,.23,1.23,.7,.32-.47,.79-.7,1.39-.7,.5,0,.87,.15,1.12,.44,.24,.29,.37,.73,.37,1.32v2.95h-1.24v-2.95c0-.26-.05-.45-.15-.57s-.28-.18-.54-.18c-.37,0-.63,.18-.77,.53v3.17s-1.23,0-1.23,0v-2.94c0-.27-.05-.46-.16-.58-.11-.12-.28-.18-.54-.18-.35,0-.6,.15-.76,.44v3.27h-1.23v-4.62h1.16Z"/>
    <path class="cls-13" d="M215.01,145.31h-1.28v-2.66h-2.5v2.66h-1.28v-6.22h1.28v2.52h2.5v-2.52h1.28v6.22Z"/>
    <path class="cls-13" d="M215.86,142.96c0-.71,.17-1.28,.51-1.71,.34-.43,.79-.65,1.36-.65,.51,0,.9,.17,1.18,.52l.05-.44h1.12v4.47c0,.4-.09,.76-.28,1.05-.18,.3-.44,.53-.77,.68-.33,.16-.72,.23-1.17,.23-.34,0-.67-.07-.99-.2s-.56-.31-.73-.52l.55-.75c.31,.34,.68,.52,1.12,.52,.33,0,.58-.09,.76-.26s.27-.42,.27-.74v-.25c-.28,.32-.66,.48-1.12,.48-.55,0-1-.22-1.35-.65s-.51-1.01-.51-1.73v-.05Zm1.23,.09c0,.42,.08,.75,.25,.99,.17,.24,.4,.36,.69,.36,.38,0,.64-.14,.81-.42v-1.95c-.16-.28-.43-.42-.8-.42-.3,0-.53,.12-.7,.36-.17,.24-.25,.6-.25,1.09Z"/>
  </g>
  <g>
    <path class="cls-13" d="M70.23,230.51h-1.44l-.28,.89h-.83l1.41-4.1h.84l1.41,4.1h-.83l-.28-.89Zm-1.24-.65h1.03l-.51-1.61h-.02l-.51,1.61Z"/>
    <path class="cls-13" d="M72.79,227.29l1.05,3.02h.02l1.05-3.02h1.08v4.1h-.82v-1.22l.08-1.81h-.02s-1.1,3.04-1.1,3.04h-.55l-1.09-3.03h-.02s.08,1.8,.08,1.8v1.22h-.82v-4.1h1.07Z"/>
  </g>
  <g>
    <g>
      <polygon class="cls-13" points="94.6 226.14 101.15 226.14 102.19 224.66 101.18 223.17 94.57 223.17 93.55 224.66 94.6 226.14"/>
      <path class="cls-13" d="M94.64,212.23h6.47l1.77-2.18c-.43-.49-1-.79-1.63-.79h-6.76c-.63,0-1.2,.3-1.63,.79l1.77,2.18Z"/>
      <path class="cls-13" d="M92.1,237.1c0,.78,.25,1.48,.65,2.01l1.77-2.17v-10.57l-1.08-1.53-1.34,1.95v10.32Z"/>
      <path class="cls-13" d="M94.51,212.38l-1.77-2.18c-.4,.53-.65,1.23-.65,2.01v10.41l1.34,1.86,1.08-1.58v-10.52Z"/>
      <path class="cls-13" d="M103.67,237.1c0,.78-.25,1.48-.65,2.01l-1.78-2.17v-10.57l1.09-1.53,1.34,1.95v10.32Z"/>
      <path class="cls-13" d="M101.24,212.38l1.78-2.18c.4,.53,.65,1.23,.65,2.01v10.41l-1.34,1.87-1.09-1.59v-10.52Z"/>
      <path class="cls-13" d="M101.11,237.09h-6.47l-1.77,2.18c.43,.49,1,.79,1.62,.79h6.76c.63,0,1.2-.3,1.63-.79l-1.77-2.17Z"/>
    </g>
    <g>
      <path class="cls-13" d="M111.17,212.23h6.47l1.77-2.18c-.43-.49-1-.79-1.63-.79h-6.76c-.63,0-1.2,.3-1.63,.79l1.77,2.18Z"/>
      <path class="cls-13" d="M108.63,237.1c0,.78,.25,1.48,.65,2.01l1.77-2.17v-10.57l-1.08-1.53-1.34,1.95v10.32Z"/>
      <path class="cls-13" d="M111.05,212.38l-1.77-2.18c-.4,.53-.65,1.23-.65,2.01v10.41l1.34,1.86,1.08-1.58v-10.52Z"/>
      <path class="cls-13" d="M120.2,237.1c0,.78-.25,1.48-.65,2.01l-1.78-2.17v-10.57l1.09-1.53,1.34,1.95v10.32Z"/>
      <path class="cls-13" d="M117.77,212.38l1.78-2.18c.4,.53,.65,1.23,.65,2.01v10.41l-1.34,1.87-1.09-1.59v-10.52Z"/>
      <path class="cls-13" d="M117.64,237.09h-6.47l-1.77,2.18c.43,.49,1,.79,1.62,.79h6.76c.63,0,1.2-.3,1.63-.79l-1.77-2.17Z"/>
    </g>
    <g>
      <path class="cls-13" d="M124.23,212.23h6.47l1.77-2.18c-.43-.49-1-.79-1.63-.79h-6.76c-.63,0-1.2,.3-1.63,.79l1.77,2.18Z"/>
      <path class="cls-13" d="M121.68,237.1c0,.78,.25,1.48,.65,2.01l1.77-2.17v-10.57l-1.08-1.53-1.34,1.95v10.32Z"/>
      <path class="cls-13" d="M124.1,212.38l-1.77-2.18c-.4,.53-.65,1.23-.65,2.01v10.41l1.34,1.86,1.08-1.58v-10.52Z"/>
      <path class="cls-13" d="M133.25,237.1c0,.78-.25,1.48-.65,2.01l-1.78-2.17v-10.57l1.09-1.53,1.34,1.95v10.32Z"/>
      <path class="cls-13" d="M130.83,212.38l1.78-2.18c.4,.53,.65,1.23,.65,2.01v10.41l-1.34,1.87-1.09-1.59v-10.52Z"/>
      <path class="cls-13" d="M130.7,237.09h-6.47l-1.77,2.18c.43,.49,1,.79,1.62,.79h6.76c.63,0,1.2-.3,1.63-.79l-1.77-2.17Z"/>
    </g>
    <circle class="cls-13" cx="106.15" cy="220.6" r="1.57"/>
    <circle class="cls-13" cx="106.15" cy="228.64" r="1.57"/>
  </g>
  <path class="cls-13" d="M180.8,239.16v-7.34c0-.15-.17-.22-.28-.13l-2.75,2.4c-.07,.06-.18,.05-.24-.02l-1.06-1.22,3.72-3.24c.08-.07,.08-.19,0-.26l-3.72-3.24,1.06-1.22c.06-.07,.17-.08,.24-.02l2.75,2.4c.11,.1,.28,.02,.28-.13v-7.34c0-.15,.17-.22,.28-.13l6.47,5.64c.08,.07,.08,.19,0,.26l-4.35,3.79c-.08,.07-.08,.19,0,.26l4.35,3.79c.08,.07,.08,.19,0,.26l-6.47,5.64c-.11,.1-.28,.02-.28-.13Zm1.79-7.34v3.41c0,.15,.17,.22,.28,.13l1.96-1.7c.08-.07,.08-.19,0-.26l-1.96-1.7c-.11-.1-.28-.02-.28,.13Zm0-8.09v3.41c0,.15,.17,.22,.28,.13l1.96-1.7c.08-.07,.08-.19,0-.26l-1.96-1.7c-.11-.1-.28-.02-.28,.13Z"/>
  <g>
    <g>
      <path class="cls-13" d="M104.81,139.07v-5.27h1.71c.65,0,1.07,.03,1.27,.08,.3,.08,.56,.25,.76,.52,.2,.26,.31,.61,.31,1.03,0,.32-.06,.6-.18,.82s-.27,.39-.45,.52c-.18,.13-.36,.21-.55,.25-.25,.05-.62,.08-1.1,.08h-.69v1.99h-1.06Zm1.06-4.38v1.5h.58c.42,0,.7-.03,.84-.08s.25-.14,.33-.26c.08-.12,.12-.25,.12-.41,0-.19-.06-.35-.17-.47-.11-.12-.26-.2-.43-.23-.13-.02-.38-.04-.77-.04h-.51Z"/>
      <path class="cls-13" d="M110.1,133.79h1.06v2.86c0,.45,.01,.75,.04,.88,.05,.22,.15,.39,.33,.52,.17,.13,.41,.2,.7,.2s.53-.06,.68-.19c.15-.12,.25-.28,.28-.45s.05-.48,.05-.9v-2.92h1.06v2.77c0,.63-.03,1.08-.09,1.34-.06,.26-.16,.48-.32,.66-.16,.18-.36,.32-.62,.43-.26,.11-.6,.16-1.01,.16-.5,0-.89-.06-1.15-.17-.26-.12-.47-.27-.62-.45-.15-.19-.25-.38-.3-.58-.07-.3-.1-.75-.1-1.34v-2.81Z"/>
      <path class="cls-13" d="M115.83,139.07v-5.23h1.06v4.34h2.65v.89h-3.71Z"/>
    </g>
    <g>
      <path class="cls-13" d="M105.61,147.56v-5.27h1.59l.96,3.6,.95-3.6h1.6v5.27h-.99v-4.15l-1.05,4.15h-1.03l-1.04-4.15v4.15h-.99Z"/>
      <path class="cls-13" d="M112.1,147.56v-5.27h1.06v5.27h-1.06Z"/>
      <path class="cls-13" d="M114.57,147.56v-5.27h1.04l2.16,3.52v-3.52h.99v5.27h-1.07l-2.13-3.44v3.44h-.99Z"/>
    </g>
    <rect class="cls-13" x="104.81" y="140.66" width="14.73" height=".39" rx=".2" ry=".2"/>
  </g>
  <g>
    <polygon class="cls-13" points="84.29 85.54 83.38 87.57 85.23 87.57 84.31 85.54 84.29 85.54"/>
    <path class="cls-13" d="M86.25,80.35c-.14-.03-.17-.22-.04-.29,1.39-.77,2.28-2.34,1.99-4.1-.25-1.57-1.48-2.87-3.03-3.2-2.55-.53-4.8,1.4-4.8,3.85,0,1.49,.83,2.78,2.04,3.45,.13,.07,.1,.26-.04,.29-2,.39-3.52,2.14-3.52,4.25v7.98h10.91v-7.98c0-2.12-1.51-3.86-3.52-4.25m.96,9.42h-.8c-.14,0-.2-.06-.27-.18l-.45-1h-2.76l-.45,1c-.04,.09-.12,.18-.27,.18h-.8c-.14,0-.21-.12-.16-.24l2.87-6.2c.03-.06,.07-.1,.16-.1h.09c.09,0,.13,.05,.16,.1l2.84,6.2c.06,.12-.02,.24-.16,.24"/>
  </g>
  <g>
    <path class="cls-8" d="M205.9,298.22c0-.29-.09-.51-.29-.67-.19-.16-.54-.33-1.03-.5-1.04-.33-1.81-.68-2.31-1.05-.5-.37-.75-.92-.75-1.62s.3-1.25,.9-1.67c.6-.43,1.36-.64,2.28-.64s1.66,.23,2.24,.7c.58,.47,.86,1.07,.85,1.81v.03h-1.86c0-.33-.11-.59-.33-.8-.22-.21-.53-.31-.92-.31s-.69,.09-.9,.25c-.22,.17-.33,.38-.33,.63s.11,.43,.33,.58c.22,.15,.63,.33,1.24,.55,.94,.28,1.64,.62,2.11,1.03,.47,.41,.71,.97,.71,1.68s-.28,1.29-.85,1.7c-.56,.41-1.31,.61-2.24,.61s-1.74-.23-2.42-.7c-.68-.47-1.01-1.15-.99-2.03v-.03h1.87c0,.48,.13,.82,.38,1.02,.26,.2,.65,.31,1.17,.31,.4,0,.69-.08,.88-.24,.19-.16,.29-.37,.29-.62"/>
    <polygon class="cls-8" points="214.88 293.64 212.71 293.64 212.71 300.4 210.79 300.4 210.79 293.64 208.64 293.64 208.64 292.17 214.88 292.17 214.88 293.64"/>
    <path class="cls-8" d="M219.7,298.8h-2.59l-.46,1.6h-1.92l2.66-8.23h2.05l2.66,8.23h-1.92l-.47-1.6Zm-2.17-1.47h1.75l-.86-2.94h-.03l-.85,2.94Z"/>
    <path class="cls-8" d="M224.88,297.24v3.15h-1.92v-8.23h3.17c.95,0,1.71,.22,2.27,.66,.56,.44,.84,1.04,.84,1.81,0,.43-.11,.79-.34,1.1-.22,.31-.56,.55-.99,.75,.5,.14,.87,.38,1.09,.72,.22,.33,.33,.75,.33,1.25v.52c0,.22,.03,.46,.1,.74,.06,.27,.18,.47,.33,.59v.11h-1.97c-.15-.12-.25-.32-.3-.62-.05-.3-.07-.57-.07-.82v-.5c0-.39-.1-.69-.31-.9-.21-.21-.51-.31-.91-.31h-1.32Zm0-1.47h1.26c.38,0,.68-.09,.88-.26,.2-.18,.31-.43,.31-.76s-.1-.61-.32-.81c-.21-.21-.5-.31-.88-.31h-1.25v2.14Z"/>
    <polygon class="cls-8" points="236.35 293.64 234.18 293.64 234.18 300.4 232.27 300.4 232.27 293.64 230.11 293.64 230.11 292.17 236.35 292.17 236.35 293.64"/>
    <path class="cls-8" d="M208.94,313.4c0-.29-.1-.51-.29-.67-.19-.16-.54-.33-1.03-.5-1.04-.33-1.81-.68-2.31-1.05-.5-.38-.75-.92-.75-1.62s.3-1.25,.9-1.67c.6-.43,1.36-.64,2.28-.64s1.66,.23,2.24,.7c.58,.47,.86,1.07,.85,1.81v.03h-1.87c0-.33-.11-.59-.33-.8-.22-.21-.53-.31-.92-.31s-.69,.08-.9,.25c-.22,.17-.33,.38-.33,.63s.11,.43,.33,.58c.22,.15,.63,.33,1.24,.55,.94,.28,1.64,.62,2.11,1.03,.47,.41,.71,.97,.71,1.68s-.28,1.29-.85,1.7c-.56,.41-1.31,.61-2.24,.61s-1.74-.23-2.42-.7c-.68-.47-1.01-1.15-.99-2.03v-.03h1.87c0,.47,.13,.81,.38,1.02,.26,.2,.64,.3,1.16,.3,.4,0,.69-.08,.88-.24,.19-.16,.29-.36,.29-.62"/>
    <polygon class="cls-8" points="217.74 308.82 215.56 308.82 215.56 315.58 213.65 315.58 213.65 308.82 211.5 308.82 211.5 307.35 217.74 307.35 217.74 308.82"/>
    <path class="cls-8" d="M225.27,312.21c0,1.01-.32,1.85-.96,2.51-.64,.66-1.48,.99-2.52,.99s-1.89-.33-2.54-.99c-.65-.66-.97-1.49-.97-2.51v-1.48c0-1.01,.32-1.85,.97-2.51,.65-.66,1.49-.99,2.53-.99s1.87,.33,2.52,.99c.65,.66,.97,1.49,.97,2.51v1.48Zm-1.9-1.49c0-.59-.14-1.07-.42-1.45-.28-.38-.67-.56-1.17-.56s-.91,.19-1.18,.56c-.27,.38-.41,.86-.41,1.45v1.49c0,.6,.14,1.08,.42,1.46,.28,.38,.67,.57,1.19,.57s.89-.19,1.16-.57,.41-.86,.41-1.46v-1.49Z"/>
    <path class="cls-8" d="M228.41,312.76v2.82h-1.92v-8.23h3.34c.98,0,1.75,.25,2.32,.75,.57,.5,.86,1.15,.86,1.96s-.29,1.46-.86,1.96c-.57,.5-1.35,.74-2.32,.74h-1.43Zm0-1.47h1.43c.41,0,.73-.11,.95-.34,.22-.23,.33-.52,.33-.88s-.11-.66-.33-.9c-.22-.23-.53-.35-.95-.35h-1.43v2.47Z"/>
    <rect class="cls-8" x="203.02" y="303.4" width="31.05" height=".91"/>
  </g>
  <g>
    <polygon class="cls-10" points="109.43 309.51 109.43 298.17 112.86 298.17 114.91 305.9 116.95 298.17 120.38 298.17 120.38 309.51 118.25 309.51 118.25 300.58 116.01 309.51 113.8 309.51 111.56 300.58 111.56 309.51 109.43 309.51"/>
    <polygon class="cls-10" points="123.46 309.51 123.46 298.17 131.87 298.17 131.87 300.09 125.75 300.09 125.75 302.6 131.44 302.6 131.44 304.51 125.75 304.51 125.75 307.6 132.09 307.6 132.09 309.51 123.46 309.51"/>
    <polygon class="cls-10" points="134.81 309.51 134.81 298.17 138.23 298.17 140.29 305.9 142.32 298.17 145.76 298.17 145.76 309.51 143.63 309.51 143.63 300.58 141.38 309.51 139.17 309.51 136.93 300.58 136.93 309.51 134.81 309.51"/>
  </g>
  <line class="cls-1" x1="96.67" y1="287.23" x2="96.67" y2="320.44"/>
  <path class="cls-10" d="M131.17,330.39h-7.16c-.92,0-1.38,1.11-.73,1.76l3.36,3.36c.53,.53,1.38,.53,1.9,0l3.36-3.36c.65-.65,.19-1.76-.73-1.76Z"/>
  <path class="cls-10" d="M62.27,335.9h7.16c.92,0,1.38-1.11,.73-1.76l-3.36-3.36c-.53-.53-1.38-.53-1.9,0l-3.36,3.36c-.65,.65-.19,1.76,.73,1.76Z"/>
  <g>
    <path class="cls-14" d="M147.12,36.96c.79-.01,1.53,.26,2.11,.78,.07,.06,.17,.06,.24,0l.6-.6c.07-.07,.07-.18,0-.24-.9-.83-2.1-1.23-3.35-1.1-1.96,.21-3.54,1.77-3.77,3.73-.31,2.66,1.86,4.92,4.49,4.76,.94-.06,1.82-.44,2.54-1.04h0c.09-.08,.14-.19,.14-.31v-3.09c0-.09-.08-.17-.17-.17h-2.89c-.09,0-.17,.08-.17,.17v.85c0,.09,.08,.17,.17,.17h1.69c.09,0,.17,.08,.17,.17v1.29c0,.14-.07,.27-.2,.34-.47,.28-1.01,.42-1.55,.42-1.74,0-3.15-1.46-3.06-3.23,.08-1.59,1.41-2.87,3-2.9Z"/>
    <path class="cls-14" d="M150.57,28.1l-.82-.24c-.09-.03-.18,.03-.21,.11-.93,2.79-4.81,3.82-7.66,4.59l-.47,.13c-.06,.02-.12-.04-.11-.11,.22-.89,1.09-4.22,1.33-5.04,.02-.09-.02-.18-.11-.21l-.82-.27c-.09-.03-.19,.02-.22,.11,0,.02-.02,.05-.02,.08-.02,.06-.09,.07-.12,.02-.17-.23-.37-.42-.6-.59-1.58-1.1-4.08-.26-5.57,1.87-1.5,2.14-1.43,4.77,.15,5.88,.13,.09,.29,.18,.5,.27,.07,.03,.08,.13,.01,.17-.99,.63-1.85,1.36-2.58,2.19-.93,1.06-1.84,2.97-1.65,4.66,.11,.91,.55,1.72,1.21,2.2,.55,.41,1.18,.58,1.82,.58,1.05,0,2.12-.47,2.93-1.12,2.11-1.69,2.43-3.69,2.74-5.61,.03-.17,.64-3.51,.64-3.51,.03-.13,.13-.24,.26-.28,.32-.09,.66-.18,1.01-.27,3.13-.84,7.39-1.98,8.49-5.4,.03-.09-.02-.19-.12-.21Zm-11.46,9.49c-.3,1.86-.55,3.47-2.3,4.87-.92,.73-2.34,1.21-3.29,.51-.4-.29-.66-.79-.73-1.38-.13-1.12,.44-2.69,1.36-3.73,.84-.96,1.89-1.78,3.12-2.44,.71-.38,1.47-.65,2.26-.91,.06-.02,.13,.03,.11,.1-.17,.84-.5,2.82-.52,2.98Zm.89-4.68c-.03,.13-.12,.23-.25,.27-.34,.11-.99,.32-1.01,.32-1.64,.54-2.46,.15-2.74-.04-1.02-.71-.95-2.64,.15-4.21,1.1-1.57,2.89-2.29,3.91-1.58,.62,.43,.86,1.33,.65,2.38-.27,1.02-.53,2.09-.71,2.87Z"/>
  </g>
  <g>
    <path class="cls-16" d="M48.53,77.94h1.7v22.68h-3.69v-20.69c0-1.1,.89-1.98,1.98-1.98Z"/>
    <rect class="cls-9" x="46.54" y="103.65" width="3.69" height="22.68"/>
    <rect class="cls-7" x="46.54" y="129.36" width="3.69" height="22.68"/>
    <path class="cls-15" d="M46.54,155.09h3.69v48.37h-1.7c-1.1,0-1.98-.89-1.98-1.98v-46.38h0Z"/>
  </g>
  <g>
    <path class="cls-10" d="M240.19,103.37c0-.36-.12-.64-.36-.84-.24-.2-.67-.41-1.29-.63-1.29-.41-2.25-.84-2.87-1.31-.62-.47-.93-1.14-.93-2.02s.37-1.55,1.11-2.08c.74-.53,1.69-.79,2.83-.79s2.06,.29,2.79,.87c.72,.58,1.07,1.33,1.05,2.25v.04h-2.32c0-.41-.14-.74-.42-.99-.28-.26-.66-.38-1.14-.38s-.85,.11-1.12,.32c-.27,.21-.41,.47-.41,.78s.14,.54,.41,.72c.27,.18,.79,.41,1.54,.68,1.16,.35,2.04,.77,2.62,1.28,.59,.51,.88,1.2,.88,2.09s-.35,1.6-1.05,2.11c-.7,.51-1.63,.76-2.79,.76s-2.17-.29-3.01-.87c-.85-.58-1.26-1.42-1.24-2.52v-.04h2.33c0,.59,.16,1.01,.48,1.26,.32,.25,.8,.38,1.45,.38,.49,0,.86-.1,1.1-.29,.24-.2,.36-.45,.36-.77"/>
    <polygon class="cls-10" points="247.62 100.32 247.66 100.32 249.7 95.85 252.28 95.85 248.8 102.48 248.8 106.08 246.43 106.08 246.43 102.36 243.02 95.85 245.59 95.85 247.62 100.32"/>
    <path class="cls-10" d="M258.37,103.37c0-.36-.12-.64-.36-.84-.24-.2-.67-.41-1.29-.63-1.29-.41-2.25-.84-2.87-1.31-.62-.47-.93-1.14-.93-2.02s.37-1.55,1.11-2.08c.74-.53,1.69-.79,2.83-.79s2.06,.29,2.79,.87c.72,.58,1.07,1.33,1.05,2.25v.04h-2.32c0-.41-.14-.74-.42-.99-.28-.26-.66-.38-1.14-.38s-.85,.11-1.12,.32c-.27,.21-.41,.47-.41,.78s.14,.54,.41,.72c.27,.18,.79,.41,1.54,.68,1.16,.35,2.04,.77,2.62,1.28,.59,.51,.88,1.2,.88,2.09s-.35,1.6-1.05,2.11c-.7,.51-1.63,.76-2.79,.76s-2.17-.29-3.01-.87c-.85-.58-1.26-1.42-1.24-2.52v-.04h2.33c0,.59,.16,1.01,.48,1.26,.32,.25,.8,.38,1.45,.38,.49,0,.86-.1,1.1-.29,.24-.2,.36-.45,.36-.77"/>
  </g>
  <g>
    <path class="cls-10" d="M234.48,188.99v-10.53h3.8c1.24,0,2.28,.4,3.11,1.21,.83,.81,1.25,1.84,1.25,3.1v1.89c0,1.27-.42,2.3-1.25,3.11-.83,.8-1.87,1.21-3.11,1.21h-3.8Zm2.45-8.65v6.77h1.19c.65,0,1.16-.22,1.52-.67,.37-.45,.55-1.03,.55-1.77v-1.91c0-.73-.18-1.31-.55-1.76-.37-.44-.87-.67-1.52-.67h-1.19Z"/>
    <rect class="cls-10" x="244.32" y="178.47" width="2.44" height="10.53"/>
    <path class="cls-10" d="M254.44,186.95h-3.32l-.59,2.05h-2.46l3.4-10.53h2.62l3.41,10.53h-2.46l-.6-2.05Zm-2.78-1.88h2.23l-1.1-3.77h-.04l-1.09,3.77Z"/>
  </g>
  <g>
    <polygon class="cls-12" points="55.93 306.33 55.15 308.06 56.74 308.06 55.95 306.33 55.93 306.33"/>
    <path class="cls-12" d="M57.6,301.89c-.12-.02-.15-.19-.04-.25,1.19-.65,1.94-2,1.7-3.5-.21-1.34-1.26-2.45-2.59-2.73-2.18-.46-4.1,1.19-4.1,3.29,0,1.27,.71,2.37,1.75,2.94,.11,.06,.08,.22-.04,.25-1.71,.33-3,1.82-3,3.63v6.82h9.32v-6.82c0-1.81-1.29-3.3-3-3.63m.82,8.05h-.68c-.12,0-.17-.05-.23-.16l-.39-.85h-2.35l-.39,.85c-.03,.08-.1,.16-.23,.16h-.68c-.12,0-.18-.1-.13-.2l2.45-5.3s.06-.09,.13-.09h.08c.08,0,.11,.04,.14,.09l2.42,5.3c.05,.1-.02,.2-.13,.2"/>
    <polygon class="cls-12" points="64.38 310.23 64.18 310.97 65.31 311.28 65.59 310.23 68.94 297.72 69.17 296.88 68.03 296.58 67.73 297.72 64.38 310.23"/>
    <g>
      <path class="cls-12" d="M76.01,307.57h-.86v1.4h.95c.39,0,.71-.31,.71-.72s-.39-.68-.8-.68Z"/>
      <path class="cls-12" d="M77.4,301.89c-.12-.02-.14-.19-.04-.24,1.19-.65,1.94-2,1.7-3.5-.22-1.34-1.26-2.45-2.59-2.73-.25-.05-.49-.08-.73-.08-1.86,0-3.37,1.51-3.37,3.37,0,1.27,.71,2.37,1.75,2.95,.11,.06,.08,.22-.04,.24-1.71,.33-3,1.83-3,3.63v6.82h9.32v-6.82c0-1.81-1.29-3.3-3-3.63Zm-1.21,8.01h-1.9c-.09,0-.15-.07-.15-.15v-5.21c0-.08,.06-.15,.15-.15h1.8c.94,0,1.66,.63,1.66,1.46,0,.61-.49,1.08-.86,1.25,.42,.13,1.02,.56,1.02,1.28,0,.88-.76,1.52-1.72,1.52Z"/>
      <path class="cls-12" d="M76.68,306c0-.39-.28-.67-.68-.67h-.84v1.38h.84c.4,0,.68-.32,.68-.71Z"/>
    </g>
  </g>
  <g>
    <path class="cls-11" d="M211.87,344.36l1-.1c.03,.28,.16,.54,.36,.73,.21,.16,.47,.24,.73,.23,.26,.02,.53-.06,.74-.21,.15-.11,.24-.29,.25-.48,0-.11-.04-.22-.11-.3-.1-.1-.22-.18-.36-.22l-.81-.22c-.41-.08-.8-.25-1.14-.5-.29-.25-.46-.61-.46-1,0-.26,.08-.51,.22-.72,.15-.23,.37-.41,.63-.51,.32-.12,.66-.18,1-.17,.51-.04,1.01,.11,1.42,.41,.32,.28,.5,.68,.5,1.1h-1c-.02-.21-.12-.41-.28-.56-.19-.13-.41-.19-.64-.17-.24-.01-.48,.05-.69,.18-.1,.07-.16,.19-.16,.31,0,.12,.06,.23,.15,.3,.29,.17,.6,.29,.93,.34,.38,.08,.74,.2,1.09,.36,.23,.12,.42,.29,.55,.51,.29,.5,.29,1.11,0,1.61-.16,.25-.4,.45-.68,.56-.35,.13-.72,.19-1.09,.18-.52,.03-1.04-.12-1.46-.44-.36-.33-.58-.79-.61-1.28"/>
    <polygon class="cls-11" points="217.15 345.99 217.15 340.98 220.87 340.98 220.87 341.82 218.16 341.82 218.16 342.93 220.68 342.93 220.68 343.78 218.16 343.78 218.16 345.14 220.96 345.14 220.96 345.99 217.15 345.99"/>
    <polygon class="cls-11" points="223.3 345.99 223.3 341.82 221.82 341.82 221.82 340.98 225.8 340.98 225.8 341.82 224.31 341.82 224.31 345.99 223.3 345.99"/>
  </g>
</svg>
