<svg width="100" height="100" viewBox="0 0 100 100" fill="none" xmlns="http://www.w3.org/2000/svg">
<path d="M50 1C77.062 1 99 22.938 99 50C99 77.062 77.062 99 50 99C22.938 99 1 77.062 1 50C1 22.938 22.938 1 50 1Z" fill="#1565C0" stroke="#1565C0" stroke-width="2" stroke-miterlimit="10"/>
<path d="M70.2975 43.0184L70.99 28.5628L68.7426 25.9626C68.3637 26.3764 68.0414 27.217 68.0457 27.805L67.3184 43.0358L68.7208 44.6604L70.2931 43.0184H70.2975Z" fill="white"/>
<path d="M70.4063 46.6117H77.3968L78.9734 44.9654L77.5666 43.3408H70.5806L69.0039 44.9828L70.4063 46.6117Z" fill="white"/>
<path d="M81.5547 28.1143L80.8404 43.0185L79.2638 44.6605L77.8613 43.0359L78.5538 28.5803L80.9493 26.0803C81.3413 26.5507 81.62 27.4784 81.5504 28.1143H81.5547Z" fill="white"/>
<path d="M77.6749 46.934L76.9824 61.3896L79.2255 63.9897C79.6044 63.5803 79.9267 62.7354 79.9223 62.1517L80.654 46.9209L79.2516 45.292L77.6749 46.934Z" fill="white"/>
<path d="M61.7999 28.2534L64.1953 25.7534C63.7903 25.2961 62.9584 24.9433 62.3791 24.9825H54.2737C53.7424 24.9476 52.9584 25.2525 52.5664 25.6532L54.8094 28.2534H61.7999Z" fill="white"/>
<path d="M53.8248 43.0184L54.5173 28.5628L52.2699 25.9626C51.891 26.3764 51.5687 27.217 51.5731 27.805L50.8457 43.0358L52.2481 44.6604L53.8204 43.0184H53.8248Z" fill="white"/>
<path d="M53.9341 46.6117H60.9246L62.4969 44.9654L61.0944 43.3408H54.104L52.5273 44.9828L53.9341 46.6117Z" fill="white"/>
<path d="M52.9445 61.3721L53.637 46.9209L52.2303 45.292L50.6536 46.934L49.9393 61.8382C49.874 62.474 50.1484 63.4017 50.5447 63.8721L52.9402 61.3721H52.9445Z" fill="white"/>
<path d="M62.457 64.2991L60.214 61.699H53.2236L50.8281 64.199C51.2375 64.6563 52.0651 65.0091 52.6443 64.9699H60.7497C61.2854 65.0047 62.0651 64.6998 62.457 64.2991Z" fill="white"/>
<path d="M61.2023 46.934L60.5098 61.3896L62.7528 63.9897C63.1317 63.5803 63.454 62.7354 63.4497 62.1517L64.1814 46.9209L62.7789 45.292L61.2023 46.934Z" fill="white"/>
<path d="M20.8287 43.0184L21.5212 28.5628L19.2738 25.9626C18.8949 26.3764 18.5726 27.217 18.577 27.805L17.8496 43.0358L19.252 44.6604L20.8243 43.0184H20.8287Z" fill="white"/>
<path d="M20.9376 46.6117H27.928L29.5047 44.9654L28.0979 43.3408H21.1118L19.5352 44.9828L20.9376 46.6117Z" fill="white"/>
<path d="M19.9524 61.3721L20.6449 46.9209L19.2381 45.292L17.6614 46.934L16.9471 61.8382C16.8818 62.474 17.1562 63.4017 17.5525 63.8721L19.948 61.3721H19.9524Z" fill="white"/>
<path d="M29.4649 64.2991L27.2218 61.699H20.2314L17.8359 64.199C18.2453 64.6563 19.0729 65.0091 19.6521 64.9699H27.7575C28.2933 65.0047 29.0729 64.6998 29.4649 64.2991Z" fill="white"/>
<path d="M48.5528 28.1097L47.8385 43.0138L46.2618 44.6558L44.8594 43.0313L45.5519 28.5757L47.9474 26.0757C48.3393 26.5461 48.6181 27.4738 48.5484 28.1097H48.5528Z" fill="white"/>
<path d="M44.673 46.934L43.9805 61.3896L46.2235 63.9897C46.6024 63.5803 46.9247 62.7354 46.9204 62.1517L47.6521 46.9209L46.2496 45.292L44.673 46.934Z" fill="white"/>
<path d="M58.4388 77.7483H61.8011L62.559 76.9556L61.8839 76.176H58.5215L57.7637 76.9644L58.4388 77.7483Z" fill="white"/>
<path d="M57.9695 84.8433L58.3049 77.8964L57.6298 77.1124L56.8719 77.9008L56.5279 85.0654C56.4974 85.3703 56.628 85.8145 56.8197 86.041L57.9695 84.8389V84.8433Z" fill="white"/>
<path d="M50.388 77.7483H53.746L54.5038 76.9556L53.8287 76.176H50.4707L49.7129 76.9644L50.388 77.7483Z" fill="white"/>
<path d="M49.9128 84.8433L50.2482 77.8964L49.5731 77.1124L48.8153 77.9008L48.4712 85.0654C48.4407 85.3703 48.5714 85.8145 48.763 86.041L49.9128 84.8389V84.8433Z" fill="white"/>
<path d="M46.1109 68.9245L47.2608 67.7224C47.0648 67.5047 46.6684 67.3348 46.3853 67.3522H42.4872C42.2303 67.3348 41.8557 67.4829 41.6641 67.6745L42.7442 68.9245H46.1066H46.1109Z" fill="white"/>
<path d="M42.2782 76.0194L42.6135 69.0725L41.5334 67.8225C41.3505 68.0185 41.198 68.4236 41.198 68.7067L40.8496 76.0281L41.5247 76.8077L42.2825 76.0194H42.2782Z" fill="white"/>
<path d="M42.3313 77.7483H45.6894L46.4472 76.9556L45.7721 76.176H42.4141L41.6562 76.9644L42.3313 77.7483Z" fill="white"/>
<path d="M41.8562 84.8433L42.1916 77.8964L41.5165 77.1124L40.7586 77.9008L40.4146 85.0654C40.3841 85.3703 40.5147 85.8145 40.7064 86.041L41.8562 84.8389V84.8433Z" fill="white"/>
<path d="M46.4302 86.2461L45.3501 84.9961H41.9877L40.8379 86.1982C41.0339 86.4203 41.4302 86.5858 41.7133 86.5684H45.6114C45.8684 86.5858 46.2429 86.4377 46.4346 86.2461H46.4302Z" fill="white"/>
</svg>
