<svg width="24" height="24" viewBox="0 0 24 24" fill="none" xmlns="http://www.w3.org/2000/svg">
<path d="M20.3359 22H3.66399C2.74685 22 2 21.2531 2 20.3368V3.66575C2 2.74865 2.74685 2.00184 3.66399 2.00184H9.49973C9.95987 2.00184 10.3333 2.37524 10.3333 2.83536C10.3333 3.29548 9.95987 3.66889 9.49973 3.66889H3.66399L3.66633 20.3378L20.336 20.3346L20.3329 14.5016C20.3329 14.0407 20.7055 13.6681 21.1664 13.6681C21.6274 13.6681 22 14.0407 22 14.5016V20.3378C22 21.2542 21.2532 22.001 20.3368 22.001L20.3359 22ZM10.3331 14.5006C10.1198 14.5006 9.90655 14.4186 9.74406 14.2561C9.41829 13.9304 9.41829 13.4039 9.74406 13.0781L20.5772 2.24549C20.8155 2.00646 21.1733 1.93614 21.4857 2.06504C21.7975 2.19394 21.9998 2.4986 21.9998 2.83529V9.50109C21.9998 9.96121 21.6271 10.3346 21.1662 10.3346C20.7053 10.3346 20.3327 9.96121 20.3327 9.50109V4.84691L10.9221 14.2571C10.7596 14.4195 10.5464 14.5006 10.3331 14.5006ZM21.1654 3.66803H14.4993C14.0384 3.66803 13.6657 3.29462 13.6657 2.8345C13.6657 2.37438 14.0384 2.00098 14.4993 2.00098H21.1654C21.6263 2.00098 21.999 2.37438 21.999 2.8345C21.999 3.29462 21.6263 3.66803 21.1654 3.66803Z" fill="#1565C0"/>
</svg>
