<svg width="32" height="32" viewBox="0 0 32 32" fill="none" xmlns="http://www.w3.org/2000/svg">
<path d="M3.76899 3.42434C4.32868 2.85739 5.23662 2.85744 5.79634 3.42434L16.0024 13.7632L26.1948 3.43118C26.7543 2.86395 27.6617 2.86395 28.2211 3.43118C28.7801 3.99838 28.7803 4.9178 28.2211 5.48489L18.0297 15.8159L28.5815 26.5054C29.1411 27.0723 29.141 27.9912 28.5815 28.5581C28.0218 29.1251 27.1139 29.1251 26.5541 28.5581L16.0034 17.8706L5.44477 28.5757C4.88529 29.1429 3.97789 29.1429 3.41841 28.5757C2.85922 28.0085 2.85923 27.0892 3.41841 26.522L13.976 15.8179L3.76899 5.47805C3.20937 4.91114 3.20947 3.99132 3.76899 3.42434Z" fill="#1565C0"/>
</svg>
