<svg width="24" height="24" viewBox="0 0 24 24" fill="none" xmlns="http://www.w3.org/2000/svg">
<path fill-rule="evenodd" clip-rule="evenodd" d="M2 6.16375C2 3.86471 3.86374 2.00098 6.16278 2.00098H17.8372C20.1363 2.00098 22 3.86472 22 6.16375V17.8382C22 20.1373 20.1363 22.001 17.8372 22.001H6.16278C3.86374 22.001 2 20.1373 2 17.8382V6.16375ZM6.16278 3.32186C4.59324 3.32186 3.32088 4.59421 3.32088 6.16375V17.8382C3.32088 19.4078 4.59323 20.6801 6.16278 20.6801H17.8372C19.4068 20.6801 20.6791 19.4078 20.6791 17.8382V6.16375C20.6791 4.59421 19.4068 3.32186 17.8372 3.32186H6.16278Z" fill="#1565C0"/>
<path d="M14.1791 8.24838C14.1793 8.41417 14.1467 8.57835 14.0834 8.73156C14.02 8.88475 13.9271 9.02398 13.8099 9.14125C13.6927 9.25852 13.5536 9.35155 13.4004 9.41503C13.2473 9.4785 13.0831 9.51117 12.9173 9.51117H10.461C10.2952 9.51129 10.1309 9.47871 9.97763 9.4153C9.82437 9.35188 9.6851 9.25887 9.56782 9.14158C9.45054 9.02431 9.35753 8.88504 9.2941 8.73178C9.23069 8.57852 9.19811 8.41425 9.19824 8.24838V5.79208C9.19812 5.62629 9.23066 5.46211 9.29402 5.30891C9.35737 5.1557 9.4503 5.01649 9.56748 4.89922C9.68467 4.78194 9.82381 4.68891 9.97697 4.62544C10.1301 4.56197 10.2943 4.5293 10.4601 4.5293H12.9164C13.0822 4.52917 13.2465 4.56174 13.3997 4.62516C13.553 4.68858 13.6923 4.7816 13.8096 4.89887C13.9269 5.01616 14.0199 5.15541 14.0833 5.30868C14.1467 5.46195 14.1793 5.62621 14.1791 5.79208V8.24838Z" fill="#1565C0"/>
</svg>
