<svg width="70" height="28" viewBox="0 0 70 28" fill="none" xmlns="http://www.w3.org/2000/svg">
<path d="M53.4248 22.1053C53.4248 20.0706 51.7753 18.4211 49.7405 18.4211L20.2669 18.4211C18.2321 18.4211 16.5826 20.0705 16.5826 22.1053L16.5826 23.9474L53.4248 23.9474L53.4248 22.1053ZM57.109 25.7895L57.1 25.9784C57.0117 26.845 56.3223 27.5344 55.4557 27.6227L55.2669 27.6317L14.7405 27.6317L14.5517 27.6227C13.6851 27.5344 12.9957 26.845 12.9074 25.9784L12.8984 25.7895L12.8984 22.1053C12.8984 18.0358 16.1974 14.7368 20.2669 14.7368L49.7405 14.7368C53.81 14.7368 57.109 18.0358 57.109 22.1053L57.109 25.7895Z" fill="#8841A4"/>
<path d="M42.3657 18.4229C43.3831 18.4229 44.2079 19.2476 44.2079 20.265C44.2079 21.2823 43.3831 22.1071 42.3657 22.1071H29.471C28.4536 22.1071 27.6289 21.2823 27.6289 20.265C27.6289 19.2476 28.4536 18.4229 29.471 18.4229H42.3657Z" fill="#8841A4"/>
<path d="M3.704 3.68424C3.89027 5.74967 5.62329 7.36848 7.7372 7.36848H23.6541L20.2578 4.80139C19.2985 4.07662 18.1284 3.68435 16.9261 3.68424H3.704ZM53.5326 3.68424C52.1218 3.68441 50.7643 4.22484 49.7386 5.19356L47.4342 7.36848H62.2628C64.3767 7.36848 66.1097 5.74967 66.296 3.68424H53.5326ZM70 3.31546C70 7.58843 66.5357 11.0527 62.2628 11.0527H7.7372C3.46426 11.0527 0 7.58843 0 3.31546C0.000194368 1.48447 1.48446 0.000194451 3.31543 0H16.9261C18.9299 0.000112648 20.8788 0.653976 22.4776 1.86191L28.2882 6.25134C29.2475 6.97612 30.4175 7.36848 31.6198 7.36848H39.8715C41.2826 7.36848 42.6414 6.82803 43.6672 5.85917L47.2093 2.51493C48.9189 0.9003 51.1811 0.00016785 53.5326 0H66.6846C68.5155 0.000192199 69.9998 1.48447 70 3.31546Z" fill="#8841A4"/>
</svg>
