<svg width="234" height="78" viewBox="0 0 234 78" fill="none" xmlns="http://www.w3.org/2000/svg">
<g clip-path="url(#clip0_5033_9044)">
<path d="M19.6966 75.9431H2.24093C1.00252 75.9431 0 74.9431 0 73.7078V4.17842C0 2.94313 1.00252 1.94313 2.24093 1.94313H19.6966C20.935 1.94313 21.9375 2.94313 21.9375 4.17842V11.2372C23.9425 7.82548 26.7142 5.1196 30.1935 3.06078C33.6729 1.00195 37.9188 0.00195313 42.8135 0.00195313C47.7082 0.00195313 52.308 1.1196 56.0232 3.35489C59.7384 5.59019 62.569 8.76666 64.5741 12.8843C66.874 9.00195 70.0585 5.88431 74.1865 3.53136C78.3145 1.17842 83.0323 0.00195312 88.4577 0.00195312C96.9496 0.00195312 103.554 2.64901 108.154 7.94313C112.754 13.2372 115.054 20.4137 115.054 29.5314V73.7667C115.054 75.0019 114.051 76.0019 112.813 76.0019H95.3574C94.1189 76.0019 93.1164 75.0019 93.1164 73.7667V34.649C93.1164 30.0608 92.1139 26.4725 90.0499 23.8843C87.9859 21.2961 85.0963 20.002 81.2631 20.002C77.4299 20.002 74.4224 21.4137 72.1225 24.2961C69.8226 27.1196 68.6431 31.0608 68.5252 36.0608V73.8255C68.5252 75.0608 67.5227 76.0608 66.2843 76.0608H48.8286C47.5902 76.0608 46.5877 75.0608 46.5877 73.8255V35.0019C46.5877 30.2372 45.5852 26.5314 43.5801 23.9431C41.5751 21.3549 38.6855 20.0608 34.8523 20.0608C31.0192 20.0608 27.8347 21.5314 25.4758 24.4725C23.1169 27.4137 21.9375 31.4137 21.9375 36.5314V73.8843C21.9375 75.1196 20.935 76.1196 19.6966 76.1196V75.9431Z" fill="white"/>
<path d="M191.258 57.4135C192.496 57.9429 193.027 59.4135 192.379 60.59C189.371 65.6488 185.302 69.6488 180.171 72.7076C174.333 76.1782 167.316 77.9429 159.236 77.9429C153.457 77.9429 148.15 77.0017 143.314 75.1194C138.537 73.237 134.35 70.5311 130.93 67.1194C127.451 63.6488 124.797 59.5311 122.792 54.7664C120.846 50.0017 119.843 44.7076 119.843 39.0605C119.843 33.4135 120.846 28.2958 122.792 23.5311C124.738 18.7664 127.451 14.6488 130.93 11.1782C134.409 7.70761 138.419 4.9429 143.078 3.00172C147.737 1.06055 152.808 0.0605469 158.293 0.0605469C163.777 0.0605469 169.026 1.06055 173.684 3.00172C178.343 4.9429 182.294 7.64878 185.597 11.1782C188.899 14.6488 191.494 18.8253 193.322 23.7076C195.15 28.5311 196.094 33.8841 196.094 39.6488C196.094 40.9429 196.094 42.0605 196.035 42.9429C195.976 44.1194 194.973 45.0017 193.794 45.0017H141.25C141.427 47.1782 142.076 49.1782 143.078 51.0017C144.081 52.8253 145.378 54.3547 147.029 55.7076C148.68 57.0605 150.509 58.1194 152.573 58.8252C154.637 59.59 156.819 59.9429 159.118 59.9429C163.246 59.9429 166.49 59.1194 168.908 57.5311C170.854 56.237 172.623 54.5311 174.097 52.4135C174.687 51.59 175.748 51.237 176.751 51.6488L191.199 57.4135H191.258ZM174.687 30.7664C174.156 26.7664 172.446 23.4723 169.439 20.9429C166.431 18.4135 162.657 17.1194 158.175 17.1194C155.993 17.1194 153.929 17.4723 152.042 18.237C150.155 19.0017 148.445 20.0017 146.911 21.2958C145.437 22.59 144.199 24.0605 143.255 25.6488C142.312 27.237 141.722 28.9429 141.545 30.7664H174.746H174.687Z" fill="white"/>
<path d="M210.732 77.8842C218.06 77.8842 224 71.9585 224 64.6489C224 57.3392 218.06 51.4136 210.732 51.4136C203.403 51.4136 197.463 57.3392 197.463 64.6489C197.463 71.9585 203.403 77.8842 210.732 77.8842Z" fill="#65CEC8"/>
</g>
<defs>
<clipPath id="clip0_5033_9044">
<rect width="234" height="78" fill="white" transform="translate(0 0.00195312)"/>
</clipPath>
</defs>
</svg>
