<svg width="24" height="24" viewBox="0 0 24 24" fill="none" xmlns="http://www.w3.org/2000/svg">
<path d="M5.82764 4.22408C5.76909 4.15814 5.69803 4.10446 5.61857 4.06616C5.53911 4.02786 5.45284 4.0057 5.36474 4.00096C5.27665 3.99623 5.18849 4.00901 5.10538 4.03857C5.02227 4.06813 4.94585 4.11388 4.88056 4.17317C4.81527 4.23246 4.76241 4.30411 4.72504 4.38396C4.68767 4.46381 4.66653 4.55029 4.66284 4.63837C4.65916 4.72644 4.67301 4.81438 4.70359 4.89707C4.73416 4.97976 4.78086 5.05556 4.84097 5.12009L6.44431 6.88295C3.41764 8.73908 2.11597 11.6003 2.05847 11.7302C2.02056 11.8154 2.00098 11.9076 2.00098 12.0008C2.00098 12.0941 2.02056 12.1863 2.05847 12.2715C2.08764 12.3373 2.79347 13.9011 4.36264 15.4691C6.45347 17.5576 9.09431 18.6617 12.001 18.6617C13.4948 18.6702 14.9736 18.3629 16.3401 17.7599L18.1735 19.7759C18.232 19.8419 18.3031 19.8955 18.3825 19.9338C18.462 19.9721 18.5483 19.9943 18.6364 19.999C18.7245 20.0038 18.8126 19.991 18.8957 19.9614C18.9789 19.9319 19.0553 19.8861 19.1206 19.8268C19.1858 19.7675 19.2387 19.6959 19.2761 19.616C19.3135 19.5362 19.3346 19.4497 19.3383 19.3616C19.342 19.2736 19.3281 19.1856 19.2975 19.1029C19.267 19.0202 19.2203 18.9444 19.1601 18.8799L5.82764 4.22408ZM9.77181 10.5394L13.2443 14.3574C12.7214 14.6323 12.1219 14.7259 11.54 14.6234C10.9581 14.521 10.4267 14.2283 10.0293 13.7913C9.63192 13.3544 9.391 12.798 9.34439 12.2094C9.29778 11.6208 9.44812 11.0334 9.77181 10.5394ZM12.001 17.3294C9.43597 17.3294 7.19514 16.3976 5.34014 14.5606C4.57873 13.8045 3.93115 12.942 3.41764 12C3.80847 11.268 5.05597 9.21956 7.36347 7.88804L8.86347 9.53266C8.28275 10.2759 7.98367 11.2003 8.01908 12.1425C8.0545 13.0848 8.42213 13.9842 9.057 14.6818C9.69187 15.3794 10.5531 15.8302 11.4885 15.9546C12.4238 16.079 13.3731 15.869 14.1685 15.3617L15.396 16.7107C14.3126 17.126 13.1613 17.3358 12.001 17.3294ZM12.501 9.38277C12.3273 9.34964 12.1738 9.24891 12.0744 9.10274C11.975 8.95657 11.9378 8.77693 11.971 8.60334C12.0041 8.42976 12.1049 8.27644 12.2512 8.17712C12.3975 8.0778 12.5773 8.04061 12.751 8.07374C13.6006 8.23834 14.3743 8.673 14.9566 9.31289C15.5388 9.95278 15.8984 10.7636 15.9818 11.6244C15.9983 11.8004 15.9441 11.9756 15.8313 12.1116C15.7185 12.2476 15.5562 12.3333 15.3801 12.3497C15.3593 12.351 15.3385 12.351 15.3176 12.3497C15.151 12.3505 14.9902 12.2888 14.8668 12.1769C14.7434 12.065 14.6664 11.911 14.651 11.7452C14.5949 11.1726 14.3553 10.6334 13.9679 10.2078C13.5806 9.78214 13.0661 9.4928 12.501 9.38277ZM21.941 12.2715C21.906 12.3497 21.0618 14.2175 19.161 15.9188C19.096 15.9788 19.0198 16.0252 18.9367 16.0555C18.8536 16.0857 18.7653 16.0991 18.677 16.095C18.5886 16.0908 18.502 16.0691 18.4221 16.0311C18.3423 15.9932 18.2708 15.9397 18.2118 15.8738C18.1528 15.808 18.1075 15.7311 18.0786 15.6476C18.0496 15.5641 18.0376 15.4756 18.0432 15.3874C18.0488 15.2992 18.0718 15.213 18.1111 15.1338C18.1504 15.0547 18.205 14.9841 18.2718 14.9262C19.2044 14.089 19.9877 13.0995 20.5885 12C20.0738 11.0572 19.4248 10.1941 18.6618 9.43773C16.8068 7.60242 14.566 6.67061 12.001 6.67061C11.4605 6.66995 10.9209 6.71367 10.3876 6.80134C10.3009 6.81667 10.212 6.81467 10.1261 6.79547C10.0401 6.77627 9.95884 6.74024 9.88691 6.68946C9.81498 6.63869 9.75382 6.57418 9.70699 6.49965C9.66015 6.42513 9.62855 6.34207 9.61402 6.25527C9.59948 6.16848 9.60231 6.07966 9.62232 5.99396C9.64233 5.90826 9.67914 5.82737 9.73062 5.75597C9.78209 5.68456 9.84722 5.62406 9.92223 5.57795C9.99724 5.53183 10.0807 5.50103 10.1676 5.48732C10.7736 5.38733 11.3868 5.33748 12.001 5.33826C14.9076 5.33826 17.5485 6.44244 19.6393 8.53173C21.2085 10.0997 21.9143 11.6644 21.9435 11.7302C21.9814 11.8154 22.001 11.9076 22.001 12.0008C22.001 12.0941 21.9814 12.1863 21.9435 12.2715H21.941Z" fill="#1565C0"/>
</svg>
