<svg width="100" height="100" viewBox="0 0 100 100" fill="none" xmlns="http://www.w3.org/2000/svg">
<g clip-path="url(#clip0_7104_108969)">
<rect width="100" height="100" rx="5" fill="#00A9B9"/>
<path d="M54.9375 13.2472C54.9375 14.5449 54.5526 15.8134 53.8315 16.8924C53.1104 17.9713 52.0855 18.8123 50.8864 19.3089C49.6872 19.8055 48.3677 19.9354 47.0947 19.6823C45.8217 19.4291 44.6524 18.8042 43.7346 17.8866C42.8168 16.969 42.1918 15.7999 41.9386 14.5272C41.6854 13.2545 41.8153 11.9352 42.312 10.7363C42.8087 9.53745 43.6499 8.51274 44.7291 7.79179C45.8083 7.07084 47.0771 6.68604 48.375 6.68604C50.1155 6.68604 51.7847 7.3773 53.0154 8.60775C54.2461 9.83821 54.9375 11.5071 54.9375 13.2472ZM48.375 24.9948C47.0201 24.9948 45.6957 25.3969 44.5696 26.1501C43.4435 26.9034 42.5663 27.9738 42.0493 29.2259C41.5322 30.478 41.3985 31.8554 41.6651 33.1835C41.9317 34.5117 42.5867 35.7308 43.5469 36.6865C44.5071 37.6421 45.7295 38.2913 47.0591 38.5518C48.3887 38.8123 49.7657 38.6723 51.0157 38.1496C52.2657 37.6269 53.3324 36.7451 54.0806 35.6158C54.8288 34.4864 55.2249 33.1605 55.2188 31.8059C55.2105 29.9966 54.4858 28.2642 53.2033 26.9878C51.9207 25.7114 50.1847 24.9948 48.375 24.9948ZM48.375 43.3035C46.972 43.3035 45.6005 43.7195 44.4339 44.4988C43.2674 45.2781 42.3581 46.3858 41.8212 47.6817C41.2843 48.9777 41.1438 50.4037 41.4176 51.7795C41.6913 53.1552 42.3669 54.419 43.359 55.4108C44.351 56.4027 45.615 57.0782 46.9911 57.3518C48.3671 57.6255 49.7935 57.4851 51.0897 56.9482C52.3859 56.4114 53.4938 55.5024 54.2732 54.3361C55.0527 53.1698 55.4688 51.7985 55.4688 50.3958C55.4729 49.4633 55.2922 48.5392 54.9372 47.6768C54.5822 46.8145 54.0598 46.031 53.4003 45.3716C52.7407 44.7122 51.9571 44.1899 51.0945 43.835C50.232 43.48 49.3077 43.2994 48.375 43.3035ZM48.375 62.0497C47.029 62.0559 45.7149 62.4606 44.5987 63.2127C43.4825 63.9649 42.6142 65.0308 42.1034 66.2759C41.5926 67.521 41.4621 68.8895 41.7285 70.2086C41.9949 71.5278 42.6461 72.7385 43.6001 73.6879C44.5541 74.6373 45.768 75.2829 47.0887 75.5432C48.4093 75.8035 49.7775 75.6668 51.0205 75.1504C52.2635 74.634 53.3256 73.761 54.0728 72.6416C54.82 71.5222 55.2187 70.2066 55.2188 68.8608C55.2188 67.9637 55.0415 67.0755 54.6972 66.2471C54.3529 65.4186 53.8483 64.6664 53.2124 64.0335C52.5765 63.4006 51.8218 62.8996 50.9916 62.5592C50.1615 62.2187 49.2723 62.0456 48.375 62.0497ZM48.375 80.7958C47.0771 80.7958 45.8083 81.1806 44.7291 81.9016C43.6499 82.6225 42.8087 83.6472 42.312 84.8461C41.8153 86.045 41.6854 87.3643 41.9386 88.637C42.1918 89.9097 42.8168 91.0788 43.7346 91.9964C44.6524 92.914 45.8217 93.5389 47.0947 93.7921C48.3677 94.0452 49.6872 93.9153 50.8864 93.4187C52.0855 92.9221 53.1104 92.0811 53.8315 91.0022C54.5526 89.9232 54.9375 88.6547 54.9375 87.357C54.9375 85.6169 54.2461 83.948 53.0154 82.7176C51.7847 81.4871 50.1155 80.7958 48.375 80.7958ZM66.4688 24.12C64.9395 24.1138 63.4428 24.5619 62.1687 25.4075C60.8946 26.2531 59.9004 27.458 59.3124 28.8694C58.7243 30.2808 58.5688 31.8351 58.8656 33.335C59.1624 34.8349 59.8982 36.2128 60.9796 37.2939C62.0609 38.3751 63.4392 39.1107 64.9394 39.4075C66.4396 39.7042 67.9941 39.5488 69.4058 38.9608C70.8175 38.3729 72.0227 37.3789 72.8684 36.105C73.7142 34.8312 74.1624 33.3348 74.1562 31.8059C74.148 29.77 73.3355 27.8198 71.8955 26.3802C70.4556 24.9406 68.5051 24.1282 66.4688 24.12ZM66.4688 42.4287C64.8927 42.4287 63.352 42.896 62.0416 43.7714C60.7311 44.6468 59.7097 45.8911 59.1066 47.3469C58.5034 48.8027 58.3456 50.4047 58.6531 51.9501C58.9606 53.4956 59.7195 54.9152 60.834 56.0294C61.9484 57.1436 63.3683 57.9024 64.9141 58.2099C66.4599 58.5173 68.0622 58.3595 69.5183 57.7565C70.9744 57.1535 72.2189 56.1323 73.0945 54.8221C73.9701 53.5119 74.4375 51.9716 74.4375 50.3958C74.4375 48.2828 73.5979 46.2563 72.1035 44.7622C70.6091 43.2681 68.5822 42.4287 66.4688 42.4287ZM66.4688 61.1749C64.9483 61.1749 63.462 61.6256 62.1978 62.4702C60.9336 63.3147 59.9483 64.5151 59.3664 65.9195C58.7846 67.3239 58.6323 68.8693 58.929 70.3602C59.2256 71.8512 59.9578 73.2207 61.0329 74.2955C62.108 75.3704 63.4778 76.1025 64.969 76.399C66.4602 76.6956 68.0059 76.5434 69.4106 75.9617C70.8153 75.3799 72.016 74.3948 72.8607 73.1309C73.7054 71.8669 74.1562 70.3809 74.1562 68.8608C74.148 66.8249 73.3355 64.8747 71.8955 63.4351C70.4556 61.9955 68.5051 61.1831 66.4688 61.1749ZM85 41.5539C83.247 41.5353 81.528 42.038 80.0614 42.9982C78.5948 43.9584 77.4467 45.3328 76.7629 46.9467C76.0791 48.5606 75.8906 50.3413 76.2212 52.0626C76.5517 53.7839 77.3865 55.3682 78.6195 56.6141C79.8525 57.8601 81.4281 58.7115 83.1461 59.0604C84.8642 59.4092 86.6471 59.2397 88.2686 58.5733C89.8901 57.9069 91.2768 56.7738 92.2528 55.3177C93.2288 53.8617 93.7499 52.1486 93.75 50.3958C93.7583 48.0645 92.8421 45.8248 91.202 44.1675C89.562 42.5102 87.3318 41.5704 85 41.5539ZM30.0938 25.9321C28.9106 25.9259 27.7523 26.2714 26.766 26.9248C25.7797 27.5781 25.0098 28.5098 24.5542 29.6015C24.0985 30.6932 23.9777 31.8956 24.207 33.0561C24.4363 34.2166 25.0054 35.2828 25.842 36.1192C26.6787 36.9557 27.7451 37.5246 28.9058 37.7539C30.0665 37.9832 31.2692 37.8624 32.3611 37.4068C33.453 36.9513 34.3849 36.1816 35.0384 35.1955C35.6918 34.2093 36.0374 33.0513 36.0313 31.8684C36.0313 30.294 35.4057 28.7841 34.2922 27.6708C33.1787 26.5575 31.6685 25.9321 30.0938 25.9321ZM30.0938 44.2408C28.8576 44.2408 27.6492 44.6073 26.6214 45.2939C25.5936 45.9805 24.7926 46.9565 24.3195 48.0983C23.8465 49.2401 23.7227 50.4965 23.9638 51.7086C24.205 52.9207 24.8003 54.0342 25.6743 54.9081C26.5484 55.782 27.6621 56.3771 28.8744 56.6182C30.0868 56.8593 31.3435 56.7356 32.4855 56.2626C33.6276 55.7897 34.6037 54.9888 35.2904 53.9612C35.9772 52.9336 36.3438 51.7254 36.3438 50.4895C36.3438 48.8323 35.6853 47.2429 34.5132 46.071C33.3411 44.8992 31.7514 44.2408 30.0938 44.2408ZM30.0938 62.987C28.9194 62.987 27.7715 63.3351 26.7951 63.9874C25.8186 64.6397 25.0576 65.5668 24.6082 66.6516C24.1588 67.7363 24.0412 68.9299 24.2703 70.0814C24.4994 71.2329 25.0649 72.2907 25.8953 73.1209C26.7257 73.9511 27.7836 74.5164 28.9354 74.7455C30.0872 74.9745 31.281 74.857 32.3659 74.4077C33.4509 73.9584 34.3782 73.1975 35.0306 72.2213C35.683 71.2451 36.0313 70.0974 36.0313 68.9233C36.0313 67.3489 35.4057 65.839 34.2922 64.7257C33.1787 63.6124 31.6685 62.987 30.0938 62.987ZM11.7813 45.0532C10.7231 45.047 9.68683 45.355 8.80396 45.9383C7.92108 46.5216 7.2313 47.3539 6.82205 48.3295C6.4128 49.3052 6.3025 50.3804 6.50515 51.4188C6.7078 52.4573 7.21426 53.4122 7.96034 54.1625C8.70641 54.9128 9.65851 55.4247 10.6959 55.6334C11.7334 55.8421 12.8094 55.7381 13.7877 55.3347C14.7659 54.9313 15.6024 54.2465 16.191 53.3673C16.7795 52.488 17.0937 51.4538 17.0938 50.3958C17.0979 49.6957 16.9635 49.0017 16.6984 48.3536C16.4332 47.7056 16.0426 47.1164 15.5488 46.6199C15.0551 46.1233 14.4681 45.7293 13.8215 45.4604C13.1749 45.1916 12.4815 45.0532 11.7813 45.0532Z" fill="white"/>
</g>
<defs>
<clipPath id="clip0_7104_108969">
<rect width="100" height="100" fill="white"/>
</clipPath>
</defs>
</svg>
