<svg width="32" height="32" viewBox="0 0 32 32" fill="none" xmlns="http://www.w3.org/2000/svg">
<g clip-path="url(#clip0_7104_108461)">
<path d="M11.1641 0.5H20.8359C24.0513 0.5 25.5693 0.504756 27.2217 1.00879C28.8504 1.59671 30.1623 2.84592 30.834 4.43262L30.96 4.75586C31.4946 6.40174 31.5 7.94964 31.5 11.1641V20.8359C31.5 24.0515 31.4943 25.5692 30.9902 27.2217C30.3629 28.9593 28.9816 30.3364 27.2422 30.96C25.561 31.4945 24.0455 31.5 20.8359 31.5H11.1641C7.94924 31.5 6.43129 31.495 4.7793 30.9912C3.00922 30.3303 1.66816 28.9892 1.00781 27.2188C0.505032 25.6038 0.5 24.0884 0.5 20.8359V11.1641C0.5 7.95075 0.50378 6.43234 1.00684 4.78125C1.67109 3.03533 3.02096 1.66286 4.78809 1.04102L4.78711 1.04004C6.39816 0.504472 7.90854 0.5 11.1641 0.5Z" fill="white" stroke="#E8E8E8"/>
<path d="M26.9178 9.59992C26.9178 7.18214 25.0689 5.33325 22.9356 5.33325C21.4422 5.33325 20.2334 5.83103 19.4867 6.93325C18.74 5.83103 17.5311 5.33325 16.2867 5.33325C13.8689 5.33325 12.02 7.18214 12.02 9.59992C12.02 9.49325 12.02 9.52881 12.02 9.59992C12.02 13.191 15.4689 16.8177 19.4867 18.3821C22.6156 17.351 26.9178 13.191 26.9178 9.59992C26.9178 9.52881 26.9178 9.49325 26.9178 9.59992Z" fill="url(#paint0_linear_7104_108461)"/>
</g>
<defs>
<linearGradient id="paint0_linear_7104_108461" x1="19.4618" y1="5.34228" x2="19.4618" y2="18.4046" gradientUnits="userSpaceOnUse">
<stop stop-color="#FF61AD"/>
<stop offset="1" stop-color="#FF2719"/>
</linearGradient>
<clipPath id="clip0_7104_108461">
<rect width="32" height="32" fill="white"/>
</clipPath>
</defs>
</svg>
