<svg width="60" height="60" viewBox="0 0 60 60" fill="none" xmlns="http://www.w3.org/2000/svg">
<path d="M33.5079 17.4225H36.5256L32.0742 11V32.2999L33.5079 30.2327V17.4225Z" fill="white"/>
<path d="M30.0748 47.0149C40.6424 47.0149 49.9614 47.793 55.4996 48.966L34.7689 19.2344V28.4326L36.2836 26.2608L48.8977 44.3553C43.6948 43.7746 37.1623 43.4262 30.0632 43.4262C29.5545 43.4262 29.0573 43.4262 28.5601 43.4262L22.756 35.0874L13.9805 47.6653C18.6631 47.2472 24.1666 47.0033 30.0632 47.0033" fill="white"/>
<path d="M12.4662 47.8167L22.7564 32.8579L27.1731 39.3269L30.8035 34.1122V19.2812L25.5775 26.8071L22.7564 22.7887L4.5 49.0013C6.62741 48.5367 9.33291 48.1419 12.4662 47.8167Z" fill="white"/>
</svg>
