<svg width="100" height="100" viewBox="0 0 100 100" fill="none" xmlns="http://www.w3.org/2000/svg">
<g clip-path="url(#clip0_13318_298420)">
<path d="M50 1C77.062 1 99 22.938 99 50C99 77.062 77.062 99 50 99C22.938 99 1 77.062 1 50C1 22.938 22.938 1 50 1Z" stroke="#2B8AEB" stroke-width="2"/>
<g opacity="0.03">
<path d="M48.916 27.5366H49.7069L50.3316 25.2747H49.1629L48.916 27.5366Z" fill="#2B8AEB"/>
</g>
<path d="M78.2772 28.257L80.6752 25.7583C80.2671 25.2999 79.441 24.9472 78.8566 24.9875H70.7508C70.2168 24.9523 69.4359 25.2596 69.043 25.6575L71.2898 28.257H78.2823H78.2772Z" fill="#2B8AEB"/>
<path d="M70.2976 43.0177L70.9929 28.5643L68.746 25.9648C68.3631 26.3779 68.0458 27.2193 68.0508 27.8036L67.3203 43.0329L68.7259 44.6601L70.2976 43.0177Z" fill="#2B8AEB"/>
<path d="M70.4075 46.6096H77.3999L78.9717 44.9673L77.5662 43.3401H70.5788L69.002 44.9824L70.4075 46.6096Z" fill="#2B8AEB"/>
<path d="M81.5571 28.1109L80.8417 43.0127L79.2649 44.655L77.8594 43.0278L78.5546 28.5744L80.9526 26.0757C81.3455 26.5492 81.6226 27.4712 81.5571 28.1109Z" fill="#2B8AEB"/>
<path d="M69.4203 61.3704L70.1155 46.917L68.71 45.2898L67.1332 46.9321L66.4178 61.8339C66.3523 62.4686 66.6294 63.3956 67.0223 63.8691L69.4203 61.3704Z" fill="#2B8AEB"/>
<path d="M61.7987 28.257L64.1967 25.7583C63.7886 25.2999 62.9624 24.9472 62.3781 24.9875H54.2723C53.7383 24.9523 52.9574 25.2596 52.5645 25.6575L54.8113 28.257H61.8038H61.7987Z" fill="#2B8AEB"/>
<path d="M53.825 43.0177L54.5202 28.5643L52.2733 25.9648C51.8905 26.3779 51.5731 27.2193 51.5781 27.8036L50.8477 43.0329L52.2532 44.6601L53.825 43.0177Z" fill="#2B8AEB"/>
<path d="M53.9348 46.6096H60.9222L62.4991 44.9673L61.0935 43.3401H54.1061L52.5293 44.9824L53.9348 46.6096Z" fill="#2B8AEB"/>
<path d="M52.9477 61.3704L53.6429 46.917L52.2373 45.2898L50.6605 46.9321L49.9451 61.8339C49.8797 62.4686 50.1567 63.3956 50.5497 63.8691L52.9477 61.3704Z" fill="#2B8AEB"/>
<path d="M62.4595 64.2972L60.2127 61.6978H53.2203L50.8223 64.1965C51.2303 64.6549 52.0565 65.0076 52.6409 64.9673H60.7467C61.2807 65.0025 62.0616 64.6952 62.4545 64.2972H62.4595Z" fill="#2B8AEB"/>
<path d="M28.8065 28.257L31.2045 25.7583C30.7964 25.2999 29.9703 24.9472 29.3859 24.9875H21.2801C20.7461 24.9523 19.9652 25.2596 19.5723 25.6575L21.8191 28.257H28.8116H28.8065Z" fill="#2B8AEB"/>
<path d="M20.8308 43.0177L21.5261 28.5643L19.2792 25.9648C18.8963 26.3779 18.579 27.2193 18.584 27.8036L17.8535 43.0329L19.2591 44.6601L20.8308 43.0177Z" fill="#2B8AEB"/>
<path d="M20.9368 46.6096H27.9292L29.501 44.9673L28.1005 43.3401H21.1081L19.5312 44.9824L20.9368 46.6096Z" fill="#2B8AEB"/>
<path d="M29.4654 64.2972L27.2186 61.6978H20.2261L17.8281 64.1965C18.2362 64.6549 19.0624 65.0076 19.6468 64.9673H27.7526C28.2866 65.0025 29.0674 64.6952 29.4604 64.2972H29.4654Z" fill="#2B8AEB"/>
<path d="M28.2058 46.932L27.5156 61.3854L29.7625 63.9849C30.1453 63.5769 30.4627 62.7305 30.4577 62.1461L31.1882 46.9119L29.7826 45.2847L28.2058 46.927V46.932Z" fill="#2B8AEB"/>
<path d="M37.2996 43.0177L37.9948 28.5643L35.748 25.9648C35.3651 26.3779 35.0477 27.2193 35.0527 27.8036L34.3223 43.0329L35.7278 44.6601L37.2996 43.0177Z" fill="#2B8AEB"/>
<path d="M37.4055 46.6096H44.398L45.9698 44.9673L44.5693 43.3401H37.5768L36 44.9824L37.4055 46.6096Z" fill="#2B8AEB"/>
<path d="M36.4184 61.3704L37.1136 46.917L35.708 45.2898L34.1312 46.9321L33.4158 61.8339C33.3504 62.4686 33.6274 63.3956 34.0204 63.8691L36.4184 61.3704Z" fill="#2B8AEB"/>
<path d="M45.9342 64.2972L43.6873 61.6978H36.6949L34.2969 64.1965C34.7049 64.6549 35.5311 65.0076 36.1155 64.9673H44.2213C44.7553 65.0025 45.5362 64.6952 45.9291 64.2972H45.9342Z" fill="#2B8AEB"/>
<path d="M46.6753 16.0202L46.8718 12.3023L46.237 11.6323C46.1312 11.7381 46.0405 11.9547 46.0405 12.1059L45.834 16.0202L46.232 16.4384L46.6753 16.0152V16.0202Z" fill="#2B8AEB"/>
<path d="M49.8592 12.1914L49.6577 16.0252L49.2144 16.4483L48.8164 16.0302L49.0129 12.3123L49.6879 11.6675C49.7988 11.7884 49.8794 12.0252 49.8592 12.1914Z" fill="#2B8AEB"/>
<path d="M46.4276 20.7405L46.624 17.0226L46.2261 16.6045L45.7827 17.0277L45.5812 20.8614C45.5611 21.0277 45.6417 21.2644 45.7525 21.3853L46.4276 20.7405Z" fill="#2B8AEB"/>
<path d="M49.1186 21.4962L48.4839 20.8262H46.509L45.834 21.471C45.9499 21.5869 46.1816 21.6776 46.3478 21.6675H48.64C48.7912 21.6776 49.0128 21.597 49.1237 21.4962H49.1186Z" fill="#2B8AEB"/>
<path d="M48.7609 17.0278L48.5645 20.7456L49.1992 21.4157C49.305 21.3099 49.3957 21.0932 49.3957 20.9421L49.6022 17.0278L49.2042 16.6096L48.7609 17.0328V17.0278Z" fill="#2B8AEB"/>
<path opacity="0.03" d="M53.5111 12.2267L54.1862 11.5818C54.0703 11.466 53.8386 11.3753 53.6723 11.3854H51.3801C51.229 11.3753 51.0073 11.4559 50.8965 11.5567L51.5312 12.2267H53.5061H53.5111Z" fill="#2B8AEB"/>
<path opacity="0.03" d="M51.2554 16.0202L51.4518 12.3023L50.8171 11.6323C50.7113 11.7381 50.6206 11.9547 50.6206 12.1059L50.4141 16.0202L50.812 16.4384L51.2554 16.0152V16.0202Z" fill="#2B8AEB"/>
<path opacity="0.03" d="M51.2855 16.947H53.2603L53.7087 16.5238L53.3107 16.1057H51.3359L50.8926 16.5289L51.2855 16.947Z" fill="#2B8AEB"/>
<path d="M54.4393 12.1914L54.2378 16.0252L53.7945 16.4483L53.3965 16.0302L53.593 12.3123L54.268 11.6675C54.3789 11.7884 54.4595 12.0252 54.4393 12.1914Z" fill="#2B8AEB"/>
<path opacity="0.03" d="M51.0076 20.7405L51.2041 17.0226L50.8061 16.6045L50.3628 17.0277L50.1613 20.8614C50.1411 21.0277 50.2218 21.2644 50.3326 21.3853L51.0076 20.7405Z" fill="#2B8AEB"/>
<path opacity="0.03" d="M53.6987 21.4962L53.0639 20.8262H51.0891L50.4141 21.471C50.5299 21.5869 50.7617 21.6776 50.9279 21.6675H53.2201C53.3712 21.6776 53.5929 21.597 53.7037 21.4962H53.6987Z" fill="#2B8AEB"/>
<path d="M53.341 17.0278L53.1445 20.7456L53.7793 21.4157C53.8851 21.3099 53.9758 21.0932 53.9758 20.9421L54.1823 17.0278L53.7843 16.6096L53.341 17.0328V17.0278Z" fill="#2B8AEB"/>
<g opacity="0.03">
<path d="M83.0664 27.8287H83.5803L84.2503 25.3904H83.3334L83.0664 27.8287Z" fill="#2B8AEB"/>
<path d="M81.959 27.8287H82.4678L83.1429 25.3904H82.221L81.959 27.8287Z" fill="#2B8AEB"/>
</g>
<path opacity="0.03" d="M48.3685 65.0781C49.0056 65.0781 49.5221 64.5097 49.5221 63.8086C49.5221 63.1074 49.0056 62.5391 48.3685 62.5391C47.7314 62.5391 47.2148 63.1074 47.2148 63.8086C47.2148 64.5097 47.7314 65.0781 48.3685 65.0781Z" fill="#2B8AEB"/>
<path d="M54.1715 68.9268L55.3252 67.7278C55.1287 67.5061 54.7307 67.3399 54.4536 67.3601H50.5594C50.3025 67.3449 49.9297 67.491 49.7383 67.6825L50.8164 68.9318H54.1766L54.1715 68.9268Z" fill="#2B8AEB"/>
<path d="M50.337 76.0202L50.6695 69.0731L49.5914 67.8237C49.41 68.0202 49.2539 68.4283 49.2589 68.7104L48.9062 76.0303L49.5813 76.8111L50.337 76.0202Z" fill="#2B8AEB"/>
<path d="M55.7479 68.8562L55.4053 76.02L54.6497 76.8109L53.9746 76.03L54.3071 69.0829L55.4608 67.8789C55.6472 68.1056 55.7832 68.5489 55.753 68.8562H55.7479Z" fill="#2B8AEB"/>
<path d="M49.9139 84.8412L50.2464 77.8941L49.5713 77.1133L48.8157 77.9042L48.4731 85.0679C48.4429 85.3752 48.5738 85.8186 48.7653 86.0453L49.9189 84.8412H49.9139Z" fill="#2B8AEB"/>
<path d="M54.4884 86.2518L53.4103 85.0024H50.0501L48.8965 86.2014C49.093 86.4231 49.4909 86.5893 49.768 86.5742H53.6622C53.9192 86.5893 54.297 86.4433 54.4834 86.2518H54.4884Z" fill="#2B8AEB"/>
<path d="M53.8833 77.9042L53.5508 84.8513L54.6289 86.1007C54.8102 85.9042 54.9664 85.4961 54.9614 85.214L55.314 77.8941L54.6389 77.1133L53.8833 77.9042Z" fill="#2B8AEB"/>
<path d="M58.677 77.7481H62.0372L62.7929 76.9571L62.1178 76.1763H58.7576L58.002 76.9672L58.677 77.7481Z" fill="#2B8AEB"/>
<path d="M58.203 84.8412L58.5354 77.8941L57.8604 77.1133L57.1047 77.9042L56.7622 85.0679C56.7319 85.3752 56.8629 85.8186 57.0543 86.0453L58.208 84.8412H58.203Z" fill="#2B8AEB"/>
<path d="M62.1684 77.9042L61.8359 84.8513L62.914 86.1007C63.0954 85.9042 63.2516 85.4961 63.2465 85.214L63.5992 77.8941L62.9241 77.1133L62.1684 77.9042Z" fill="#2B8AEB"/>
</g>
<defs>
<clipPath id="clip0_13318_298420">
<rect width="100" height="100" fill="white"/>
</clipPath>
</defs>
</svg>
