<svg xmlns="http://www.w3.org/2000/svg" width="97.247" height="97.247" viewBox="0 0 97.247 97.247">
  <g id="Group_7754" data-name="Group 7754" transform="translate(-623.364 -142.535)">
    <g id="Group_7757" data-name="Group 7757" transform="translate(657.954 177.855)">
      <g id="Group_7754-2" data-name="Group 7754" transform="translate(16.594 13.962)">
        <path id="Path_12025" data-name="Path 12025" d="M840.78,347.706a4.452,4.452,0,0,1,3.08,1.145.251.251,0,0,0,.347,0l.885-.884a.249.249,0,0,0,0-.357,6.231,6.231,0,1,0-3.841,10.8,6.43,6.43,0,0,0,3.719-1.525h0a.581.581,0,0,0,.209-.446v-4.52a.249.249,0,0,0-.249-.249H840.7a.249.249,0,0,0-.249.249v1.25a.249.249,0,0,0,.249.249h2.478a.249.249,0,0,1,.249.249v1.884a.583.583,0,0,1-.286.5,4.483,4.483,0,1,1-2.359-8.346Z" transform="translate(-834.636 -345.957)" fill="#424242"/>
      </g>
      <g id="Group_7756" data-name="Group 7756">
        <g id="Group_7755" data-name="Group 7755">
          <path id="Path_12026" data-name="Path 12026" d="M793.918,291.095l-1.2-.346a.249.249,0,0,0-.3.165c-1.361,4.072-7.032,5.592-11.193,6.707l-.683.183a.128.128,0,0,1-.158-.154c.326-1.3,1.6-6.174,1.939-7.366a.247.247,0,0,0-.162-.3l-1.193-.392a.248.248,0,0,0-.315.163c-.011.036-.022.073-.034.113a.1.1,0,0,1-.179.031,3.89,3.89,0,0,0-.883-.859c-2.306-1.615-5.96-.385-8.148,2.738s-2.092,6.979.214,8.593a3.89,3.89,0,0,0,.727.4.138.138,0,0,1,.019.244,17.4,17.4,0,0,0-3.776,3.2,9.7,9.7,0,0,0-2.4,6.813,4.633,4.633,0,0,0,1.769,3.221,4.4,4.4,0,0,0,2.655.847,7.118,7.118,0,0,0,4.281-1.632c3.089-2.472,3.554-5.388,4-8.209.039-.246.93-5.137.93-5.137a.535.535,0,0,1,.377-.4c.462-.131.959-.264,1.472-.4,4.569-1.224,10.8-2.893,12.418-7.9A.248.248,0,0,0,793.918,291.095Zm-16.755,13.881c-.434,2.721-.809,5.07-3.37,7.12-1.341,1.073-3.417,1.763-4.809.741a2.886,2.886,0,0,1-1.068-2.015,7.877,7.877,0,0,1,1.983-5.458,16.143,16.143,0,0,1,4.561-3.563,20.189,20.189,0,0,1,3.3-1.327.128.128,0,0,1,.166.146C777.682,301.848,777.2,304.741,777.164,304.976Zm1.3-6.84a.533.533,0,0,1-.359.389l-1.482.472c-2.4.794-3.6.222-4-.061-1.49-1.043-1.391-3.863.216-6.158s4.223-3.353,5.713-2.309a3.327,3.327,0,0,1,.958,3.476C779.116,295.441,778.723,297,778.462,298.136Z" transform="translate(-766.141 -288.326)" fill="#424242"/>
        </g>
      </g>
    </g>
    <g id="Group_7758" data-name="Group 7758" transform="translate(637.055 198.903)">
      <path id="Path_12027" data-name="Path 12027" d="M679.877,378.051l4.945-1.572.333,1.049-4.079,1.3.638,2.005-.866.275Z" transform="translate(-679.877 -376.17)" fill="#424242"/>
      <path id="Path_12028" data-name="Path 12028" d="M687.084,396.289l4.721-2.151.456,1-4.721,2.151Z" transform="translate(-685.338 -389.551)" fill="#424242"/>
      <path id="Path_12029" data-name="Path 12029" d="M701.2,405.539l.587.943-5.337,1.244-.634-1.018,3.475-4.236.587.943-2.106,2.46q-.189.213-.452.479t-.372.359a9.253,9.253,0,0,1,1.111-.378Z" transform="translate(-691.957 -395.866)" fill="#424242"/>
      <path id="Path_12030" data-name="Path 12030" d="M709.053,428.044l-1.95-2.264,3.931-3.386,1.95,2.264-.683.588-1.232-1.43-.863.743,1.147,1.331-.683.588-1.146-1.331-1.014.873,1.232,1.431Z" transform="translate(-700.507 -410.961)" fill="#424242"/>
      <path id="Path_12031" data-name="Path 12031" d="M734.2,446.94l-.884-.655,2.545-3.432-1.132-.839.545-.735,3.147,2.333-.545.736-1.132-.839Z" transform="translate(-720.371 -425.27)" fill="#424242"/>
      <path id="Path_12032" data-name="Path 12032" d="M752.782,460.141l-.979-.494,1.008-2-1.835-.925-1.008,2-.982-.5,2.336-4.633.982.5-.915,1.816,1.835.925.916-1.816.979.494Z" transform="translate(-732.243 -434.603)" fill="#424242"/>
      <path id="Path_12033" data-name="Path 12033" d="M781.379,469.066a2.816,2.816,0,0,1-1.144,1.738,2.769,2.769,0,0,1-3.53-.978,2.824,2.824,0,0,1-.085-2.085A2.785,2.785,0,0,1,777.765,466a2.4,2.4,0,0,1,1.952-.168,2.36,2.36,0,0,1,1.579,1.152A2.823,2.823,0,0,1,781.379,469.066Zm-3.649-1.011a2.168,2.168,0,0,0-.032,1.35,1.155,1.155,0,0,0,.833.688q1.269.352,1.736-1.335t-.794-2.039a1.162,1.162,0,0,0-1.072.162A2.156,2.156,0,0,0,777.729,468.055Z" transform="translate(-753.066 -443.784)" fill="#424242"/>
      <path id="Path_12034" data-name="Path 12034" d="M808.917,470.478l-.254,3.348a1.938,1.938,0,0,1-.333.985,1.676,1.676,0,0,1-.792.606,2.659,2.659,0,0,1-1.164.142,2.2,2.2,0,0,1-1.511-.629,1.819,1.819,0,0,1-.446-1.441l.253-3.333,1.094.083-.241,3.167a1.331,1.331,0,0,0,.174.9,1,1,0,0,0,.775.34.98.98,0,0,0,.8-.222,1.338,1.338,0,0,0,.31-.865l.24-3.16Z" transform="translate(-774.24 -447.152)" fill="#424242"/>
      <path id="Path_12035" data-name="Path 12035" d="M832.239,472.226l2.046-.223.292,2.674a5.839,5.839,0,0,1-.912.33,6.171,6.171,0,0,1-.891.163,2.285,2.285,0,0,1-1.858-.492,2.871,2.871,0,0,1-.831-1.9,2.612,2.612,0,0,1,.5-2.025,2.727,2.727,0,0,1,1.9-.915,3.858,3.858,0,0,1,1.566.15l-.268.915a2.608,2.608,0,0,0-1.205-.154,1.46,1.46,0,0,0-1.084.6,1.859,1.859,0,0,0-.287,1.327,2.071,2.071,0,0,0,.484,1.245,1.2,1.2,0,0,0,1.049.334,3.572,3.572,0,0,0,.688-.147l-.118-1.076-.977.107Z" transform="translate(-793.677 -446.891)" fill="#424242"/>
      <path id="Path_12036" data-name="Path 12036" d="M858.685,468.019l-1.049.321-.655-2.141-1.965.6.655,2.141-1.052.322L853.1,464.3l1.052-.322.595,1.945,1.965-.6-.595-1.944,1.048-.321Z" transform="translate(-811.135 -441.774)" fill="#424242"/>
      <path id="Path_12037" data-name="Path 12037" d="M879.1,459.087l-.982.5-1.929-3.813-1.257.636-.414-.817,3.5-1.77.414.817-1.257.636Z" transform="translate(-827.365 -434.775)" fill="#424242"/>
      <path id="Path_12038" data-name="Path 12038" d="M897.047,449.321l-.885.623-2.99-4.24,2.431-1.713.519.737-1.546,1.09.771,1.094,1.439-1.014.517.734-1.439,1.014Z" transform="translate(-841.499 -427.326)" fill="#424242"/>
      <path id="Path_12039" data-name="Path 12039" d="M910.763,428.07l2.359,2.389a1.935,1.935,0,0,1,.525.9,1.675,1.675,0,0,1-.062.995,2.666,2.666,0,0,1-.656.972,2.2,2.2,0,0,1-1.466.727,1.82,1.82,0,0,1-1.38-.609l-2.349-2.379.78-.77,2.232,2.259a1.333,1.333,0,0,0,.79.457,1,1,0,0,0,.765-.362.98.98,0,0,0,.359-.751,1.339,1.339,0,0,0-.449-.8l-2.227-2.255Z" transform="translate(-852.531 -415.262)" fill="#424242"/>
      <path id="Path_12040" data-name="Path 12040" d="M928.768,422.886l-4.209-3.034.643-.892,3.472,2.5,1.23-1.707.737.531Z" transform="translate(-865.281 -408.359)" fill="#424242"/>
      <path id="Path_12041" data-name="Path 12041" d="M939.673,406.5l-4.607-2.387.506-.977,3.8,1.969.968-1.868.806.418Z" transform="translate(-873.243 -396.37)" fill="#424242"/>
      <path id="Path_12042" data-name="Path 12042" d="M945.113,378.035l-1.68-1.707.378-1.124,2.455,2.642,1.914.644-.349,1.036-1.88-.632-3.586.61.38-1.13Z" transform="translate(-878.773 -375.204)" fill="#424242"/>
    </g>
    <g id="Group_7759" data-name="Group 7759" transform="translate(632.845 188.064)">
      <path id="Path_12043" data-name="Path 12043" d="M663.924,333.415H663.3v-2.431h-.8v-.521h2.228v.521h-.8Z" transform="translate(-662.497 -330.464)" fill="#424242"/>
      <path id="Path_12044" data-name="Path 12044" d="M676.107,332.283v1.133h-.626v-2.951h.86a1.47,1.47,0,0,1,.89.219.874.874,0,0,1,.146,1.128.95.95,0,0,1-.406.318q.666.995.868,1.286h-.695l-.7-1.133Zm0-.509h.2a.774.774,0,0,0,.438-.1.353.353,0,0,0,.141-.311.324.324,0,0,0-.144-.3.876.876,0,0,0-.447-.089h-.19Z" transform="translate(-672.335 -330.464)" fill="#424242"/>
      <path id="Path_12045" data-name="Path 12045" d="M691.107,331.911a1.455,1.455,0,0,1-.415,1.117,1.693,1.693,0,0,1-1.2.388h-.836v-2.951h.926a1.56,1.56,0,0,1,1.122.381A1.4,1.4,0,0,1,691.107,331.911Zm-.65.016q0-.951-.84-.951h-.333V332.9h.269Q690.457,332.9,690.457,331.927Z" transform="translate(-682.32 -330.464)" fill="#424242"/>
    </g>
    <g id="Group_7760" data-name="Group 7760" transform="translate(702.623 188.064)">
      <path id="Path_12046" data-name="Path 12046" d="M951.772,333.415l-.711-2.315h-.018q.038.706.038.942v1.373h-.559v-2.951h.852l.7,2.257h.012l.741-2.257h.852v2.951h-.583v-1.4c0-.066,0-.142,0-.228s.011-.315.027-.686h-.018l-.761,2.311Z" transform="translate(-950.522 -330.464)" fill="#424242"/>
      <path id="Path_12047" data-name="Path 12047" d="M969.149,332.283v1.133h-.626v-2.951h.86a1.47,1.47,0,0,1,.89.219.874.874,0,0,1,.146,1.128.95.95,0,0,1-.406.318q.666.995.868,1.286h-.695l-.7-1.133Zm0-.509h.2a.774.774,0,0,0,.438-.1.353.353,0,0,0,.141-.311.324.324,0,0,0-.144-.3.877.877,0,0,0-.447-.089h-.19Z" transform="translate(-964.162 -330.464)" fill="#424242"/>
      <path id="Path_12048" data-name="Path 12048" d="M984.073,333.415h-.711l-.773-1.244-.265.19v1.054H981.7v-2.951h.626v1.35l.246-.347.8-1h.694l-1.03,1.306Z" transform="translate(-974.146 -330.464)" fill="#424242"/>
    </g>
    <g id="Group_7762" data-name="Group 7762" transform="translate(638.932 155.063)">
      <g id="Group_7761" data-name="Group 7761">
        <path id="Path_12049" data-name="Path 12049" d="M689.872,277.018l.853-1.873,2.448,1.114a5.8,5.8,0,0,1-.182.952,6.143,6.143,0,0,1-.314.849,2.286,2.286,0,0,1-1.372,1.347,2.872,2.872,0,0,1-2.06-.258,2.614,2.614,0,0,1-1.485-1.466,2.728,2.728,0,0,1,.186-2.1,3.856,3.856,0,0,1,.929-1.269l.65.7a2.614,2.614,0,0,0-.748.958,1.46,1.46,0,0,0-.037,1.238,1.859,1.859,0,0,0,.995.924,2.069,2.069,0,0,0,1.318.219,1.2,1.2,0,0,0,.822-.731,3.572,3.572,0,0,0,.225-.666l-.985-.448-.407.895Z" transform="translate(-687.625 -254.914)" fill="#424242"/>
        <path id="Path_12050" data-name="Path 12050" d="M702.61,255.049l1.608,1.174-.649.889-4.191-3.059.891-1.221a2.587,2.587,0,0,1,1.233-1.037,1.535,1.535,0,0,1,1.753.963,1.669,1.669,0,0,1,.031.906q2.1.085,2.725.1l-.72.986-2.338-.173Zm-.723-.527.209-.287a1.362,1.362,0,0,0,.314-.725.621.621,0,0,0-.3-.523.568.568,0,0,0-.574-.1,1.539,1.539,0,0,0-.59.543l-.2.27Z" transform="translate(-696.531 -237.814)" fill="#424242"/>
        <path id="Path_12051" data-name="Path 12051" d="M723.4,234.054l-2.174,2.051-3.56-3.774,2.173-2.051.619.656-1.373,1.3.782.829,1.278-1.206.618.656-1.277,1.206.918.973,1.373-1.3Z" transform="translate(-710.386 -221.551)" fill="#424242"/>
        <path id="Path_12052" data-name="Path 12052" d="M745.962,220.088l-.982-.838-1.593,1.019.349,1.243-1,.638-1.264-5.375,1.133-.725,4.356,3.4Zm-1.7-1.474q-1.344-1.133-1.518-1.283t-.267-.242q.146.446.645,2.254Z" transform="translate(-728.427 -210.769)" fill="#424242"/>
        <path id="Path_12053" data-name="Path 12053" d="M765.834,207.041l-1.022.406-1.577-3.971-1.31.52-.338-.851,3.642-1.446.338.851-1.31.52Z" transform="translate(-743.669 -199.894)" fill="#424242"/>
        <path id="Path_12054" data-name="Path 12054" d="M792.544,200.977l-2.928.6-1.036-5.084,2.928-.6.18.883-1.85.377.228,1.116,1.721-.351.18.883-1.721.351.267,1.311,1.85-.377Z" transform="translate(-764.122 -195.494)" fill="#424242"/>
        <path id="Path_12055" data-name="Path 12055" d="M815.436,197.453l.034,1.99-1.1.019-.088-5.188,1.512-.026a2.589,2.589,0,0,1,1.571.358,1.535,1.535,0,0,1,.289,1.979,1.666,1.666,0,0,1-.7.571q1.2,1.729,1.564,2.234l-1.221.021-1.272-1.969Zm-.016-.894.355-.006a1.359,1.359,0,0,0,.767-.187.622.622,0,0,0,.239-.551.568.568,0,0,0-.263-.521,1.538,1.538,0,0,0-.789-.143l-.334.006Z" transform="translate(-783.597 -194.248)" fill="#424242"/>
        <path id="Path_12056" data-name="Path 12056" d="M856.73,202.366l1.972.591-.772,2.577a5.779,5.779,0,0,1-.968-.051,6.154,6.154,0,0,1-.884-.2,2.286,2.286,0,0,1-1.521-1.176,2.871,2.871,0,0,1-.024-2.076,2.614,2.614,0,0,1,1.251-1.67,2.728,2.728,0,0,1,2.111-.1,3.857,3.857,0,0,1,1.384.748l-.6.738a2.61,2.61,0,0,0-1.051-.611,1.459,1.459,0,0,0-1.232.131,1.86,1.86,0,0,0-.781,1.111,2.07,2.07,0,0,0-.039,1.335,1.2,1.2,0,0,0,.836.715,3.569,3.569,0,0,0,.69.133l.311-1.037-.942-.282Z" transform="translate(-813.96 -198.684)" fill="#424242"/>
        <path id="Path_12057" data-name="Path 12057" d="M885.6,215.2a2.814,2.814,0,0,1-1.526,1.415,2.768,2.768,0,0,1-3.194-1.791,2.826,2.826,0,0,1,.415-2.046,2.789,2.789,0,0,1,1.526-1.412,2.4,2.4,0,0,1,1.936.3,2.362,2.362,0,0,1,1.259,1.5A2.823,2.823,0,0,1,885.6,215.2Zm-3.3-1.852a2.168,2.168,0,0,0-.353,1.3,1.155,1.155,0,0,0,.645.866q1.148.644,2-.882t-.285-2.169a1.163,1.163,0,0,0-1.08-.1A2.157,2.157,0,0,0,882.3,213.345Z" transform="translate(-834.017 -207.146)" fill="#424242"/>
        <path id="Path_12058" data-name="Path 12058" d="M910.477,234a2.817,2.817,0,0,1-1.8,1.037,2.769,2.769,0,0,1-2.711-2.462,2.826,2.826,0,0,1,.863-1.9,2.788,2.788,0,0,1,1.8-1.034,2.394,2.394,0,0,1,1.819.729,2.362,2.362,0,0,1,.891,1.74A2.823,2.823,0,0,1,910.477,234Zm-2.8-2.546a2.169,2.169,0,0,0-.636,1.191,1.154,1.154,0,0,0,.434.989q.975.885,2.151-.41t.209-2.178a1.162,1.162,0,0,0-1.03-.339A2.159,2.159,0,0,0,907.674,231.449Z" transform="translate(-853.066 -221.057)" fill="#424242"/>
        <path id="Path_12059" data-name="Path 12059" d="M928.221,255.547a2.555,2.555,0,0,1-2.024.535,2.974,2.974,0,0,1-1.771-1.329l-.847-1.2,4.24-2.99.939,1.331a2.744,2.744,0,0,1,.589,2A2.467,2.467,0,0,1,928.221,255.547Zm-.682-.917q1.366-.963.515-2.17l-.338-.479-2.761,1.947.272.386A1.459,1.459,0,0,0,927.54,254.63Z" transform="translate(-866.416 -236.92)" fill="#424242"/>
        <path id="Path_12060" data-name="Path 12060" d="M941.15,282.211a1.34,1.34,0,0,1-1.217-.009,2.2,2.2,0,0,1-.945-1.119,3.3,3.3,0,0,1-.316-1.468l.933-.418a6.013,6.013,0,0,0,.062.946,2.631,2.631,0,0,0,.185.646.945.945,0,0,0,.353.45.474.474,0,0,0,.455.008.456.456,0,0,0,.213-.189.952.952,0,0,0,.107-.322,6.5,6.5,0,0,0,.046-.757,3.19,3.19,0,0,1,.1-.827,1.612,1.612,0,0,1,.282-.542,1.368,1.368,0,0,1,.525-.391,1.341,1.341,0,0,1,1.179-.017,1.94,1.94,0,0,1,.887,1.016,3.054,3.054,0,0,1,.228.744,5.375,5.375,0,0,1,.068.812l-.926.026a5.214,5.214,0,0,0-.064-.724,2.2,2.2,0,0,0-.157-.515.707.707,0,0,0-.329-.378.48.48,0,0,0-.415,0,.472.472,0,0,0-.2.165.744.744,0,0,0-.1.282,6.744,6.744,0,0,0-.047.785,2.778,2.778,0,0,1-.229,1.2A1.361,1.361,0,0,1,941.15,282.211Z" transform="translate(-877.851 -257.767)" fill="#424242"/>
      </g>
    </g>
    <g id="Group_7764" data-name="Group 7764" transform="translate(623.364 142.535)">
      <g id="Group_7763" data-name="Group 7763">
        <path id="Path_12061" data-name="Path 12061" d="M671.988,239.782a48.624,48.624,0,1,1,34.382-14.242A48.3,48.3,0,0,1,671.988,239.782Zm0-95.5a46.871,46.871,0,1,0,33.143,13.728A46.564,46.564,0,0,0,671.988,144.287Z" transform="translate(-623.364 -142.535)" fill="#424242"/>
      </g>
    </g>
  </g>
</svg>
