<svg width="32" height="32" viewBox="0 0 32 32" fill="none" xmlns="http://www.w3.org/2000/svg">
<path d="M15.9995 2C19.7112 2.00392 23.2704 3.47995 25.895 6.10449C28.5197 8.72915 29.9956 12.2882 29.9995 16C29.9995 18.7689 29.1785 21.476 27.6401 23.7783C26.1019 26.0803 23.9158 27.875 21.3579 28.9346C18.7999 29.9941 15.9846 30.2715 13.269 29.7314C10.5533 29.1913 8.05803 27.8573 6.1001 25.8994C4.14232 23.9416 2.80924 21.447 2.26904 18.7314C1.72885 16.0157 2.00629 13.2007 3.06592 10.6426C4.12554 8.08441 5.91988 5.89771 8.22217 4.35938C10.5243 2.82119 13.2308 2.00008 15.9995 2ZM21.3843 11.6914C21.2429 11.6914 21.1028 11.7193 20.9722 11.7734C20.8415 11.8275 20.7226 11.9069 20.6226 12.0068L13.8462 18.7852L11.3774 16.3154C11.1755 16.1135 10.9013 15.9991 10.6157 15.999C10.3299 15.999 10.0551 16.1134 9.85303 16.3154C9.65119 16.5175 9.5376 16.7916 9.5376 17.0771C9.53766 17.3628 9.6511 17.6369 9.85303 17.8389L13.0845 21.0693C13.1845 21.1694 13.3034 21.2495 13.4341 21.3037C13.5647 21.3578 13.7048 21.3857 13.8462 21.3857C13.9876 21.3857 14.1277 21.3578 14.2583 21.3037C14.389 21.2495 14.5079 21.1695 14.6079 21.0693L22.146 13.5312C22.2461 13.4312 22.3262 13.3124 22.3804 13.1816C22.4345 13.051 22.4624 12.9109 22.4624 12.7695C22.4624 12.628 22.4345 12.4872 22.3804 12.3564C22.3262 12.2258 22.246 12.1068 22.146 12.0068C22.046 11.907 21.9269 11.8275 21.7964 11.7734C21.6658 11.7194 21.5256 11.6914 21.3843 11.6914Z" fill="#1565C0"/>
</svg>
