<svg width="24" height="24" viewBox="0 0 24 24" fill="none" xmlns="http://www.w3.org/2000/svg">
<path d="M16.639 11.254C15.1341 10.8096 13.5858 10.5692 12.0282 10.5378C10.4748 10.5697 8.93063 10.8085 7.42921 11.2492C6.89213 11.3851 6.34766 11.521 5.77979 11.6419H18.2601C17.7027 11.521 17.1674 11.3878 16.6402 11.254" fill="#1565C0"/>
<path d="M7.18478 9.1083C8.69623 8.11022 10.1227 7.16786 12.0283 7.16786C13.934 7.16786 15.3654 8.11498 16.8793 9.11849C18.3932 10.122 19.965 11.1676 22 11.1676V10.4597C22.0003 10.3394 21.9593 10.2235 21.8852 10.1353C21.8112 10.047 21.7096 9.99301 21.6009 9.98408C18.2146 9.70823 16.1162 6.00061 12.0283 6.00061C7.9405 6.00061 5.83962 9.71231 2.39973 9.98544C2.29091 9.9942 2.18916 10.0482 2.11498 10.1364C2.0408 10.2247 1.99971 10.3407 2 10.461V11.1676C4.06824 11.1676 5.65299 10.1206 7.18478 9.1083Z" fill="#1565C0"/>
<path d="M12.0281 13.3303C13.5856 13.2994 15.134 13.0591 16.6388 12.6149C16.98 12.5286 17.3256 12.4417 17.6773 12.3588H6.36475C6.72382 12.443 7.07613 12.5307 7.42412 12.6183C8.92715 13.0595 10.473 13.2986 12.0281 13.3303Z" fill="#1565C0"/>
<path d="M16.5439 9.73416C15.1119 8.78297 13.76 7.88477 12.028 7.88477C10.2961 7.88477 8.94844 8.77821 7.52014 9.72329C6.85116 10.1816 6.16124 10.6015 5.45312 10.9816C6.08629 10.8511 6.68496 10.701 7.27931 10.5515C8.82958 10.097 10.4242 9.85197 12.028 9.82181C13.6336 9.85117 15.23 10.0967 16.7817 10.5529C17.3649 10.701 17.9562 10.8505 18.5783 10.9789C17.8807 10.602 17.201 10.1858 16.5421 9.73212" fill="#1565C0"/>
<path d="M7.51927 14.1455C8.95065 15.0912 10.302 15.984 12.0284 15.984C13.7548 15.984 15.1129 15.0865 16.5437 14.136C17.203 13.682 17.8831 13.2657 18.5811 12.8885C17.9584 13.0176 17.3678 13.1664 16.7845 13.3145C15.2321 13.7717 13.6349 14.0179 12.0284 14.0476C10.425 14.0174 8.83084 13.7726 7.28091 13.3186C6.6884 13.1692 6.08788 13.0183 5.4541 12.8885C6.16172 13.2679 6.85104 13.6874 7.51927 14.1455Z" fill="#1565C0"/>
<path d="M16.8152 14.8923C15.3038 15.8904 13.8773 16.8328 11.9717 16.8328C10.066 16.8328 8.63218 15.8857 7.12134 14.8828C5.6105 13.88 4.0356 12.833 2 12.833V13.5416C1.9997 13.6619 2.0407 13.7778 2.11475 13.866C2.1888 13.9543 2.29041 14.0083 2.39911 14.0172C5.78665 14.2938 7.88384 18.0014 11.9717 18.0014C16.0595 18.0014 18.1604 14.289 21.6003 14.0172C21.7091 14.0085 21.8108 13.9545 21.885 13.8663C21.9592 13.778 22.0003 13.662 22 13.5416V12.833C19.9318 12.833 18.347 13.88 16.8152 14.8923Z" fill="#1565C0"/>
</svg>
