<svg width="28" height="28" viewBox="0 0 28 28" fill="none" xmlns="http://www.w3.org/2000/svg">
<circle cx="14" cy="14.2852" r="13" fill="#222D39"/>
<path fill-rule="evenodd" clip-rule="evenodd" d="M14 2.33333C7.55668 2.33333 2.33333 7.55668 2.33333 14C2.33333 20.4433 7.55668 25.6667 14 25.6667C20.4433 25.6667 25.6667 20.4433 25.6667 14C25.6667 7.55668 20.4433 2.33333 14 2.33333ZM0 14C0 6.26801 6.26801 0 14 0C21.732 0 28 6.26801 28 14C28 21.732 21.732 28 14 28C6.26801 28 0 21.732 0 14ZM7.33333 14C7.33333 13.3557 7.85567 12.8333 8.5 12.8333L19.5 12.8333C20.1443 12.8333 20.6667 13.3557 20.6667 14C20.6667 14.6443 20.1443 15.1667 19.5 15.1667L8.5 15.1667C7.85567 15.1667 7.33333 14.6443 7.33333 14Z" fill="#E0E1E1"/>
</svg>
