<svg width="100" height="60" viewBox="0 0 100 60" fill="none" xmlns="http://www.w3.org/2000/svg">
<rect x="1" y="59" width="58" height="98" rx="2" transform="rotate(-90 1 59)" stroke="#2B8AEB" stroke-width="2"/>
<path d="M19.0646 51.685L16.373 55.0301L16.4291 55.0938C16.9151 55.6354 17.6067 55.9593 18.2796 55.9858L27.4759 55.9858C27.7329 55.9381 27.9899 55.9062 28.2329 55.7947L28.2889 55.7628L28.373 55.731L28.4291 55.6991L28.5132 55.6673L28.5693 55.6354L28.6534 55.5717L28.7095 55.5398L28.7936 55.508L28.9058 55.3805L28.9618 55.3487L29.0459 55.285L29.102 55.2212L29.1581 55.1894L29.2142 55.1257L26.6347 51.685L19.0646 51.685Z" fill="#2B8AEB"/>
<path d="M15.3633 52.0356L15.3633 52.5453L15.3913 52.6409L15.3913 52.7364L15.4194 52.8002L15.4194 52.9913L15.4474 53.0869L15.4754 53.1506L15.4754 53.2462L15.5035 53.3418L15.5315 53.4055L15.5595 53.501L15.5876 53.5648L15.6156 53.6603L15.6437 53.7559L15.6717 53.8196L15.6997 53.9152L15.7278 53.9789C15.7651 54.1223 15.8493 54.2444 15.924 54.3612L15.9521 54.4568L16.0081 54.5205L16.0362 54.5842L18.7278 51.271L19.1483 32.5382L17.5502 30.4037L15.8119 32.5382L15.3633 52.0356Z" fill="#2B8AEB"/>
<path d="M27.1951 27.823L19.625 27.823L17.8867 29.9575L19.5129 32.092L27.0549 32.092L28.7933 29.9575L27.1951 27.823Z" fill="#2B8AEB"/>
<path d="M15.9512 27.3771L17.5493 29.5116L19.2876 27.3771L19.7082 8.64434L17.1287 5.23549L17.1007 5.29921C16.6568 5.947 16.4418 6.7116 16.3998 7.52929L16.3998 7.62487L15.9512 27.3771Z" fill="#2B8AEB"/>
<path d="M37.4306 51.685L34.7109 55.0301L34.795 55.0938C35.2436 55.6407 35.9726 55.954 36.6175 55.9858L45.8137 55.9858C46.01 55.954 46.4025 55.9009 46.5708 55.7947L46.6549 55.7628L46.7109 55.731C46.9259 55.6566 47.2857 55.4124 47.4399 55.2212L47.496 55.1894L47.5521 55.1257L44.9726 51.685L37.4306 51.685Z" fill="#2B8AEB"/>
<path d="M33.7012 52.0356L33.7012 52.0993C33.7432 53.1028 33.8647 53.655 34.346 54.5205L34.4021 54.5842L37.0937 51.271L37.5143 32.5382L35.8881 30.4037L34.1498 32.5382L33.7012 52.0356Z" fill="#2B8AEB"/>
<path d="M45.5323 27.823L37.9903 27.823L36.252 29.9575L37.8501 32.092L45.4202 32.092L47.1585 29.9575L45.5323 27.823Z" fill="#2B8AEB"/>
<path d="M45.8965 27.3771L47.4946 29.5116L49.2329 27.3771L49.6815 7.87974L49.6815 7.81602C49.6909 6.96115 49.4619 6.09567 49.0367 5.39478L49.0086 5.33106L46.317 8.6762L45.8965 27.3771Z" fill="#2B8AEB"/>
<path d="M37.7386 3.92922L37.6545 3.92922C37.0096 3.9717 36.3647 4.24781 35.8881 4.75754L35.832 4.7894L38.4115 8.2301L45.9816 8.2301L48.6732 4.88497L48.6171 4.82125C48.1171 4.29028 47.4395 3.9717 46.7666 3.92922L37.7386 3.92922Z" fill="#2B8AEB"/>
<path d="M64.0924 32.5381L63.6719 51.2708L66.2513 54.6797L66.3074 54.616C66.6906 53.9947 66.985 53.1505 66.9803 52.3859L67.0083 52.2903L67.4569 32.5381L65.8308 30.4036L64.0924 32.5381Z" fill="#2B8AEB"/>
<path d="M55.7658 51.685L53.0742 55.0301L53.1303 55.0938C53.6163 55.6407 54.2845 55.9434 54.9527 55.9858L64.177 55.9858C64.434 55.9381 64.691 55.9062 64.934 55.7947L64.9901 55.7628L65.0742 55.731C65.3733 55.5982 65.5555 55.4336 65.8032 55.2212L65.8593 55.1894L65.9153 55.1257L63.3359 51.685L55.7658 51.685Z" fill="#2B8AEB"/>
<path d="M52.066 52.0356L52.066 52.0993C52.0427 53.0019 52.281 53.7612 52.6828 54.5205L52.7389 54.5842L55.4305 51.271L55.8511 32.5382L54.2529 30.4037L52.5146 32.5382L52.066 52.0356Z" fill="#2B8AEB"/>
<path d="M64.2344 27.3771L65.8605 29.5116L67.5989 27.3771L68.0194 7.87974L68.0194 7.72044C68.0381 7.30098 67.982 7.06204 67.9073 6.66912L67.8792 6.6054L67.8792 6.50982C67.7858 6.21248 67.6129 5.71868 67.4306 5.49036L67.4026 5.39478L67.3465 5.33106L64.6549 8.6762L64.2344 27.3771Z" fill="#2B8AEB"/>
<path d="M56.0758 3.92922L55.9917 3.92922C55.3608 3.98232 54.6973 4.23188 54.2533 4.75754L54.1973 4.7894L56.7487 8.2301L64.3188 8.2301L67.0103 4.88497L66.9543 4.82125C66.4776 4.29028 65.8047 3.98232 65.1318 3.92922L56.0758 3.92922Z" fill="#2B8AEB"/>
<path d="M52.6543 27.3771L54.2524 29.5116L55.9907 27.3771L56.4113 8.64434L53.8319 5.23549L53.8038 5.29921C53.3786 5.90452 53.1216 6.76469 53.1029 7.52929L53.1029 7.62487L52.6543 27.3771Z" fill="#2B8AEB"/>
<path d="M82.4577 32.5381L82.0371 51.2708L84.5885 54.6797L84.6446 54.616C85.0745 53.9788 85.3081 53.1823 85.3455 52.3859L85.3455 52.2903L85.7941 32.5381L84.196 30.4036L82.4577 32.5381Z" fill="#2B8AEB"/>
<path d="M74.1037 51.685L71.4121 55.0301L71.4682 55.0938L71.5523 55.1575L71.7205 55.3487L71.8046 55.3805L71.9168 55.508L72.0009 55.5398L72.057 55.6035L72.1411 55.6354L72.2252 55.6673L72.2813 55.6991L72.3654 55.7628C72.6224 55.8531 72.9682 55.9646 73.2345 55.9858L82.5149 55.9858C82.7392 55.954 83.071 55.8956 83.2719 55.7947L83.356 55.7628L83.4121 55.731C83.6878 55.6248 83.9261 55.4389 84.1411 55.2212L84.1972 55.1894L84.2532 55.1257L81.6738 51.685L74.1037 51.685Z" fill="#2B8AEB"/>
<path d="M70.4023 52.0356L70.4023 52.0993C70.4023 52.9541 70.6126 53.8249 71.0472 54.5205L71.1033 54.5842L73.7949 51.271L74.2154 32.5382L72.5893 30.4037L70.8509 32.5382L70.4023 52.0356Z" fill="#2B8AEB"/>
<path d="M82.2342 27.823L74.6641 27.823L72.9258 29.9575L74.552 32.092L82.122 32.092L83.8604 29.9575L82.2342 27.823Z" fill="#2B8AEB"/>
<path d="M74.4397 3.92922L74.3556 3.92922C73.7108 3.9717 73.0566 4.23719 72.5893 4.75754L72.5332 4.7894L75.1126 8.2301L82.6827 8.2301L85.3743 4.88497L85.3182 4.82125C84.8136 4.3009 84.1453 3.96639 83.4678 3.92922L74.4397 3.92922Z" fill="#2B8AEB"/>
<path d="M70.9902 27.3771L72.6164 29.5116L74.3547 27.3771L74.7753 8.64434L72.1958 5.23549L72.0837 5.36293C71.9482 5.63903 71.7519 5.99479 71.6631 6.28682L71.6351 6.35054L71.6351 6.44611C71.4949 6.78063 71.4996 7.13107 71.4388 7.46558L71.4388 7.62487L70.9902 27.3771Z" fill="#2B8AEB"/>
</svg>
