<svg width="24" height="24" viewBox="0 0 24 24" fill="none" xmlns="http://www.w3.org/2000/svg">
<path d="M20.3671 3.88009C19.8529 3.28675 19.2324 2.81398 18.5437 2.49083C17.8551 2.16767 17.113 2.00098 16.3629 2.00098C15.6128 2.00098 14.8706 2.16767 14.182 2.49083C13.4934 2.81398 12.8729 3.28675 12.3585 3.88009L12.0033 4.28166L11.6479 3.88009C10.655 2.73611 9.28765 2.06278 7.84151 2.0057C6.39537 1.94862 4.98666 2.51237 3.91998 3.57506C3.82228 3.67159 3.72723 3.77488 3.63662 3.88009C2.5853 5.09542 2 6.70067 2 8.3687C2 10.0367 2.5853 11.642 3.63662 12.8573L11.4818 21.7601C11.6128 21.9086 11.7924 21.995 11.9816 22.0007C12.1708 22.0062 12.3544 21.9306 12.4927 21.7902C12.5016 21.7805 12.5113 21.7707 12.5202 21.7601L20.3627 12.8573C21.4145 11.6422 22 10.0369 22 8.3687C22 6.70053 21.4145 5.09521 20.3627 3.88009" fill="#1565C0"/>
</svg>
