<svg width="20" height="20" viewBox="0 0 20 20" fill="none" xmlns="http://www.w3.org/2000/svg">
<path d="M19.4014 2.12387L17.8593 0.580269C17.4674 0.207557 16.9476 0 16.4073 0C15.8668 0 15.3472 0.207579 14.9553 0.580269L7.62168 7.92128C7.50839 8.03607 7.43131 8.18162 7.40023 8.34005L6.57986 12.4457C6.52338 12.7164 6.60664 12.9971 6.80131 13.193C6.95615 13.3466 7.16575 13.4324 7.38376 13.4311H7.54787L11.6494 12.6099C11.8077 12.5788 11.9531 12.5017 12.0677 12.3883L19.4014 5.04728C19.7852 4.66117 20.0007 4.13846 20.0007 3.59373C20.0007 3.04901 19.7852 2.52645 19.4014 2.14035V2.12387ZM11.0834 11.0335L8.42554 11.5673L8.95877 8.90679L13.9461 3.91439L16.0708 6.04121L11.0834 11.0335ZM18.2364 3.86499L17.2274 4.88326L15.1027 2.75644L16.12 1.74639C16.1943 1.667 16.2983 1.62199 16.4069 1.62199C16.5158 1.62199 16.6196 1.667 16.6941 1.74639L18.2364 3.29017C18.3157 3.36475 18.3607 3.46871 18.3607 3.57765C18.3607 3.68643 18.3157 3.79058 18.2364 3.86499Z" fill="#2C2827"/>
<path d="M15.1758 20H2.87105C2.10957 20 1.37932 19.6973 0.840985 19.1582C0.302478 18.6193 0 17.8883 0 17.1261V4.80893C0 4.04667 0.302468 3.31569 0.840985 2.77664C1.37932 2.23759 2.10957 1.93481 2.87105 1.93481H8.20341C8.49645 1.93481 8.76715 2.09136 8.91376 2.34549C9.06036 2.59947 9.06036 2.91256 8.91376 3.16652C8.76715 3.42067 8.49644 3.57721 8.20341 3.57721H2.87105C2.54472 3.57721 2.23178 3.70694 2.00107 3.93789C1.77035 4.16884 1.64057 4.48226 1.64057 4.80893V17.1261C1.64057 17.4528 1.77035 17.766 2.00107 17.9969C2.23178 18.2279 2.54471 18.3578 2.87105 18.3578H15.1758C15.5022 18.3578 15.8153 18.2279 16.046 17.9969C16.2767 17.766 16.4063 17.4528 16.4063 17.1261V11.7883C16.4063 11.495 16.5627 11.224 16.8166 11.0773C17.0703 10.9305 17.3831 10.9305 17.6368 11.0773C17.8907 11.224 18.0471 11.495 18.0471 11.7883V17.1261C18.0471 17.8883 17.7445 18.6193 17.206 19.1582C16.6676 19.6973 15.9373 20 15.1758 20Z" fill="#2C2827"/>
</svg>
