<svg width="225" height="72" viewBox="0 0 225 72" fill="none" xmlns="http://www.w3.org/2000/svg">
<g id="Loading and Landing Screens">
<g id="Landing Screen">
<g id="Frame 2610493">
<g id="Group 2610141">
<g id="Group 2610274">
<path id="Vector" d="M5.70885 27.3513H0V8.04584H5.70885V10.459C6.23854 9.57615 6.94479 8.86985 7.86683 8.32051C8.76926 7.79078 9.86787 7.51611 11.143 7.51611C12.4182 7.51611 13.6149 7.81041 14.5762 8.39899C15.5375 8.98757 16.283 9.81158 16.8127 10.871C17.4208 9.85082 18.2448 9.04643 19.3238 8.43823C20.3831 7.83002 21.6191 7.51611 23.0316 7.51611C25.2484 7.51611 26.9552 8.20279 28.1519 9.59577C29.3486 10.9691 29.9567 12.8526 29.9567 15.2265V27.3317H24.2479V16.541C24.2479 15.3443 23.9732 14.4025 23.4436 13.7355C22.9139 13.0488 22.1488 12.7153 21.1482 12.7153C20.1477 12.7153 19.363 13.088 18.7548 13.8336C18.1467 14.5791 17.8524 15.5993 17.8132 16.8942V27.3317H12.1043V16.6195C12.1043 15.3639 11.8493 14.4025 11.3196 13.7355C10.7899 13.0488 10.0444 12.7153 9.04392 12.7153C8.0434 12.7153 7.21944 13.1076 6.61128 13.8728C6.00312 14.638 5.68923 15.6974 5.68923 17.0119V27.3317L5.70885 27.3513Z" fill="#F6F4F1"/>
<path id="Vector_2" d="M35.4036 36.1039C34.6385 36.1039 34.0108 36.0255 33.4615 35.8881C32.9318 35.7508 32.5002 35.5742 32.147 35.3976V30.6301C32.7944 30.944 33.5203 31.101 34.3443 31.101C35.1682 31.101 35.8941 30.9048 36.4826 30.532C37.0712 30.1593 37.5616 29.4922 37.954 28.5505L38.5033 27.2948L30.6953 8.02856H36.718L41.5245 20.9578L46.4094 8.02856H52.2752L43.6432 29.0213C42.6231 31.513 41.4656 33.318 40.1512 34.4363C38.8368 35.535 37.2674 36.1039 35.4429 36.1039H35.4036Z" fill="#F6F4F1"/>
<path id="Vector_3" d="M80.0575 22.74C79.2532 24.3291 78.0761 25.5848 76.5655 26.4873C75.0353 27.3898 73.2305 27.8606 71.1117 27.8606C69.6011 27.8606 68.2279 27.6056 66.9723 27.1151C65.7167 26.6246 64.6378 25.9183 63.7549 25.0158C62.8721 24.1133 62.1463 23.0342 61.6362 21.7982C61.1261 20.5426 60.8711 19.1888 60.8711 17.6978C60.8711 16.2067 61.1261 14.8922 61.6362 13.6562C62.1463 12.4201 62.8525 11.3411 63.7549 10.4386C64.6574 9.53609 65.7167 8.81017 66.9134 8.30007C68.1101 7.78996 69.4442 7.53491 70.8763 7.53491C72.3084 7.53491 73.662 7.78996 74.8784 8.30007C76.0947 8.81017 77.1344 9.51647 77.978 10.4386C78.8412 11.3607 79.5082 12.4398 79.9987 13.6954C80.4891 14.9511 80.7245 16.344 80.7245 17.8547C80.7245 18.1883 80.7245 18.4825 80.7049 18.718C80.7049 18.9534 80.6657 19.13 80.6461 19.2673H66.4622C66.5211 19.8363 66.678 20.366 66.9331 20.8369C67.1881 21.3077 67.5412 21.7197 67.9728 22.0729C68.4044 22.426 68.8752 22.7007 69.4246 22.8969C69.9542 23.0931 70.5232 23.1912 71.1313 23.1912C72.1907 23.1912 73.0539 22.9754 73.6621 22.5634C74.2898 22.1514 74.8195 21.5824 75.2707 20.8369L80.0772 22.7596L80.0575 22.74ZM75.153 15.5593C75.0157 14.5194 74.5645 13.6562 73.7798 13.0087C72.995 12.3417 72.0141 12.0081 70.8567 12.0081C70.2877 12.0081 69.7581 12.1062 69.248 12.3024C68.7575 12.4986 68.3063 12.7733 67.914 13.1068C67.5216 13.4404 67.2077 13.8327 66.9527 14.2448C66.6977 14.6568 66.5603 15.108 66.5015 15.5789H75.1334L75.153 15.5593Z" fill="#F6F4F1"/>
<path id="Vector_4" d="M80.2188 8.04248H86.2415L90.7733 20.2261L95.305 8.04248H101.171L93.3236 27.348H88.0856L80.2384 8.04248H80.2188Z" fill="#F6F4F1"/>
<path id="Vector_5" d="M119.946 22.74C119.142 24.3291 117.965 25.5848 116.454 26.4873C114.924 27.3898 113.119 27.8606 111 27.8606C109.49 27.8606 108.117 27.6056 106.861 27.1151C105.605 26.6246 104.526 25.9183 103.644 25.0158C102.761 24.1133 102.035 23.0342 101.525 21.7982C101.015 20.5426 100.76 19.1888 100.76 17.6978C100.76 16.2067 101.015 14.8922 101.525 13.6562C102.035 12.4201 102.741 11.3411 103.644 10.4386C104.546 9.53609 105.605 8.81017 106.802 8.30007C108.018 7.78996 109.333 7.53491 110.765 7.53491C112.197 7.53491 113.551 7.78996 114.767 8.30007C115.983 8.81017 117.023 9.51647 117.867 10.4386C118.73 11.3607 119.397 12.4398 119.887 13.6954C120.378 14.9511 120.613 16.344 120.613 17.8547C120.613 18.1883 120.613 18.4825 120.594 18.718C120.594 18.9534 120.554 19.13 120.535 19.2673H106.351C106.41 19.8363 106.567 20.366 106.822 20.8369C107.077 21.3077 107.43 21.7197 107.861 22.0729C108.293 22.426 108.764 22.7007 109.313 22.8969C109.843 23.0931 110.412 23.1912 111.02 23.1912C112.079 23.1912 112.943 22.9754 113.551 22.5634C114.179 22.1514 114.708 21.5824 115.159 20.8369L119.966 22.7596L119.946 22.74ZM115.022 15.5593C114.885 14.5194 114.434 13.6562 113.649 13.0087C112.864 12.3417 111.883 12.0081 110.726 12.0081C110.157 12.0081 109.627 12.1062 109.117 12.3024C108.627 12.4986 108.175 12.7733 107.783 13.1068C107.391 13.4404 107.077 13.8327 106.822 14.2448C106.567 14.6568 106.429 15.108 106.371 15.5789H115.002L115.022 15.5593Z" fill="#F6F4F1"/>
<path id="Vector_6" d="M135.298 13.5987C134.984 13.4417 134.494 13.3632 133.846 13.3632C132.257 13.3632 131.021 13.9126 130.138 15.0113C129.256 16.11 128.804 17.601 128.804 19.5041V27.3519H123.135V8.04637H128.765V11.2051C129.295 10.0868 130.021 9.20392 131.002 8.5761C131.963 7.92866 133.081 7.61475 134.317 7.61475C134.533 7.61475 134.729 7.61475 134.925 7.65398C135.121 7.6736 135.239 7.71284 135.298 7.73246V13.5987Z" fill="#F6F4F1"/>
<path id="Vector_7" d="M140.722 36.1039C139.957 36.1039 139.329 36.0255 138.78 35.8881C138.25 35.7508 137.819 35.5742 137.465 35.3976V30.6301C138.113 30.944 138.839 31.101 139.663 31.101C140.487 31.101 141.212 30.9048 141.801 30.532C142.39 30.1593 142.88 29.4922 143.272 28.5505L143.822 27.2948L136.014 8.02856H142.036L146.843 20.9578L151.728 8.02856H157.594L148.962 29.0213C147.941 31.513 146.784 33.318 145.47 34.4363C144.155 35.535 142.586 36.1039 140.761 36.1039H140.722Z" fill="#F6F4F1"/>
<path id="Vector_8" d="M178.208 0V27.3495H172.539V24.7793C171.852 25.7603 170.969 26.5254 169.871 27.0552C168.772 27.5849 167.575 27.8399 166.3 27.8399C165.025 27.8399 163.789 27.5849 162.69 27.0552C161.592 26.5254 160.611 25.8191 159.807 24.9167C158.983 24.0142 158.335 22.9547 157.864 21.7187C157.394 20.4827 157.158 19.1485 157.158 17.7163C157.158 16.2841 157.394 14.95 157.864 13.7336C158.335 12.5172 158.983 11.4381 159.807 10.5356C160.631 9.63313 161.592 8.90721 162.69 8.37749C163.789 7.84777 165.005 7.59271 166.3 7.59271C167.595 7.59271 168.772 7.84777 169.871 8.33825C170.969 8.82874 171.872 9.57427 172.539 10.5749V0H178.208ZM162.808 17.6967C162.808 18.403 162.946 19.0505 163.201 19.6587C163.456 20.2669 163.809 20.777 164.26 21.2478C164.711 21.7187 165.221 22.0522 165.829 22.3269C166.438 22.5819 167.085 22.7193 167.791 22.7193C168.497 22.7193 169.145 22.5819 169.753 22.3269C170.361 22.0718 170.871 21.6991 171.322 21.2478C171.774 20.7966 172.107 20.2669 172.382 19.6587C172.637 19.0505 172.774 18.403 172.774 17.6967C172.774 16.9904 172.637 16.343 172.382 15.7348C172.127 15.1266 171.774 14.6165 171.322 14.1456C170.871 13.6944 170.361 13.3412 169.753 13.0665C169.145 12.8115 168.497 12.6741 167.791 12.6741C167.085 12.6741 166.438 12.8115 165.829 13.0665C165.221 13.3216 164.711 13.6944 164.26 14.1456C163.809 14.5968 163.475 15.1266 163.201 15.7348C162.946 16.343 162.808 16.9904 162.808 17.6967Z" fill="#F6F4F1"/>
<path id="Vector_9" d="M201.896 8.04256V27.3481H196.304V24.7779C195.618 25.7589 194.735 26.524 193.636 27.0538C192.538 27.5835 191.341 27.8385 190.066 27.8385C188.791 27.8385 187.555 27.5835 186.456 27.0538C185.358 26.524 184.377 25.8177 183.572 24.9153C182.748 24.0128 182.101 22.9533 181.63 21.7173C181.159 20.4813 180.924 19.1471 180.924 17.7149C180.924 16.2827 181.159 14.9486 181.63 13.7322C182.101 12.5158 182.748 11.4367 183.572 10.5342C184.396 9.63173 185.358 8.90581 186.456 8.37609C187.555 7.84636 188.771 7.59131 190.066 7.59131C191.361 7.59131 192.538 7.84636 193.636 8.33685C194.735 8.82733 195.637 9.57287 196.304 10.5735V8.08179H201.896V8.04256ZM186.574 17.6953C186.574 18.4016 186.711 19.049 186.966 19.6572C187.221 20.2655 187.574 20.7756 188.026 21.2464C188.477 21.7173 188.987 22.0508 189.595 22.3255C190.203 22.5805 190.851 22.7179 191.557 22.7179C192.263 22.7179 192.91 22.5805 193.519 22.3255C194.127 22.0704 194.637 21.6977 195.088 21.2464C195.539 20.7952 195.873 20.2655 196.147 19.6572C196.402 19.049 196.54 18.4016 196.54 17.6953C196.54 16.989 196.402 16.3416 196.147 15.7334C195.892 15.1252 195.539 14.6151 195.088 14.1442C194.637 13.6929 194.127 13.3398 193.519 13.0651C192.91 12.8101 192.263 12.6727 191.557 12.6727C190.851 12.6727 190.203 12.8101 189.595 13.0651C188.987 13.3202 188.477 13.6929 188.026 14.1442C187.574 14.5954 187.241 15.1252 186.966 15.7334C186.711 16.3416 186.574 16.989 186.574 17.6953Z" fill="#F6F4F1"/>
<path id="Vector_10" d="M208.128 36.1039C207.363 36.1039 206.735 36.0255 206.186 35.8881C205.656 35.7508 205.225 35.5742 204.872 35.3976V30.6301C205.519 30.944 206.245 31.101 207.069 31.101C207.893 31.101 208.619 30.9048 209.207 30.532C209.796 30.1593 210.286 29.4922 210.679 28.5505L211.228 27.2948L203.42 8.02856H209.443L214.249 20.9578L219.134 8.02856H225L216.368 29.0213C215.348 31.513 214.19 33.318 212.876 34.4363C211.561 35.535 209.992 36.1039 208.167 36.1039H208.128Z" fill="#F6F4F1"/>
</g>
<g id="Group 2610273">
<path id="Vector_11" d="M5.70884 70.6693H0V43.3198H5.70884V53.8358C6.317 52.8941 7.08211 52.1682 8.04339 51.6385C8.98506 51.1087 10.1229 50.8537 11.4177 50.8537C13.6345 50.8537 15.3805 51.56 16.6361 52.9726C17.8917 54.3852 18.5391 56.3079 18.5391 58.7603V70.6693H12.8302V60.0356C12.8302 58.7799 12.5359 57.8186 11.9278 57.1319C11.3196 56.4452 10.476 56.0921 9.39704 56.0921C8.31805 56.0921 7.37638 56.4845 6.72899 57.2692C6.06197 58.054 5.72846 59.1135 5.72846 60.428V70.6693H5.70884Z" fill="#65CEC8"/>
<path id="Vector_12" d="M40.2079 66.0598C39.4036 67.649 38.2265 68.9046 36.7159 69.8071C35.1857 70.7096 33.3809 71.1805 31.2621 71.1805C29.7515 71.1805 28.3782 70.9254 27.1227 70.4349C25.8671 69.9444 24.7882 69.2381 23.9053 68.3356C23.0029 67.4331 22.2967 66.3541 21.7866 65.118C21.2765 63.8624 21.0215 62.5087 21.0215 61.0176C21.0215 59.5265 21.2765 58.212 21.7866 56.976C22.2967 55.74 23.0029 54.6609 23.9053 53.7584C24.8078 52.8559 25.8671 52.13 27.0638 51.6199C28.2802 51.1098 29.5946 50.8547 31.0267 50.8547C32.4588 50.8547 33.8124 51.1098 35.0288 51.6199C36.2451 52.13 37.2848 52.8363 38.1284 53.7584C38.9916 54.6805 39.6586 55.7596 40.1491 57.0152C40.6395 58.2709 40.875 59.6639 40.875 61.1745C40.875 61.5081 40.875 61.8024 40.875 62.0378C40.875 62.2732 40.8357 62.4498 40.8161 62.5871H26.6322C26.6911 63.1561 26.8481 63.6858 27.1031 64.1567C27.3581 64.6276 27.7112 65.0396 28.1428 65.3927C28.5744 65.7459 29.0453 66.0205 29.5946 66.2167C30.1243 66.4129 30.6932 66.511 31.3013 66.511C32.3607 66.511 33.2239 66.2952 33.8321 65.8832C34.4598 65.4712 34.9895 64.9022 35.4408 64.1567L40.2472 66.0794L40.2079 66.0598ZM35.2838 58.8791C35.1465 57.8392 34.6953 56.976 33.9105 56.3286C33.1258 55.6615 32.1449 55.328 30.9875 55.328C30.4185 55.328 29.8889 55.4261 29.3788 55.6223C28.8687 55.8184 28.4371 56.0931 28.0447 56.4267C27.6524 56.7602 27.3385 57.1526 27.0835 57.5646C26.8284 57.9766 26.6911 58.4278 26.6322 58.8987H35.2642L35.2838 58.8791Z" fill="#65CEC8"/>
<path id="Vector_13" d="M63.2861 51.3624V70.6679H57.695V68.0977C57.0084 69.0787 56.1255 69.8439 55.0269 70.3736C53.9283 70.9033 52.7316 71.1584 51.4565 71.1584C50.1813 71.1584 48.9453 70.9033 47.8467 70.3736C46.7481 69.8439 45.7672 69.1376 44.9629 68.2351C44.1586 67.3326 43.4915 66.2731 43.0207 65.0371C42.5499 63.8011 42.3145 62.467 42.3145 61.0347C42.3145 59.6025 42.5499 58.2684 43.0207 57.052C43.4915 55.8356 44.1389 54.7565 44.9629 53.854C45.7869 52.9516 46.7481 52.2256 47.8467 51.6959C48.9453 51.1662 50.1617 50.9111 51.4565 50.9111C52.7513 50.9111 53.9283 51.1662 55.0269 51.6567C56.1255 52.1472 57.028 52.8927 57.695 53.8933V51.4016H63.2861V51.3624ZM47.9645 61.0151C47.9645 61.7214 48.1018 62.3689 48.3568 62.9771C48.6118 63.5853 48.965 64.0954 49.4162 64.5662C49.8674 65.0371 50.3775 65.3706 50.9856 65.6453C51.5938 65.9004 52.2412 66.0377 52.9474 66.0377C53.6537 66.0377 54.3011 65.9004 54.9092 65.6453C55.5174 65.3903 56.0275 65.0175 56.4787 64.5662C56.9299 64.115 57.2634 63.5853 57.538 62.9771C57.7931 62.3689 57.9304 61.7214 57.9304 61.0151C57.9304 60.3088 57.7931 59.6614 57.538 59.0532C57.283 58.445 56.9299 57.9349 56.4787 57.464C56.0275 57.0128 55.5174 56.6596 54.9092 56.3849C54.3011 56.1299 53.6537 55.9926 52.9474 55.9926C52.2412 55.9926 51.5938 56.1299 50.9856 56.3849C50.3775 56.64 49.8674 57.0128 49.4162 57.464C48.965 57.9153 48.6118 58.445 48.3568 59.0532C48.1018 59.6614 47.9645 60.3088 47.9645 61.0151Z" fill="#65CEC8"/>
<path id="Vector_14" d="M72.7577 43.3198V70.6693H67.0488V43.3198H72.7577Z" fill="#65CEC8"/>
<path id="Vector_15" d="M83.3788 45.717V51.3871H88.2637V56.0761H83.3788V63.1587C83.3788 64.1985 83.6143 64.9441 84.0655 65.3953C84.5167 65.8466 85.223 66.0624 86.1646 66.0624C86.5374 66.0624 86.8905 66.0231 87.2632 65.925C87.636 65.8269 87.9695 65.6896 88.2833 65.4738V70.3983C87.8321 70.6141 87.3024 70.7907 86.6354 70.9476C85.988 71.1046 85.2033 71.183 84.3009 71.183C82.2606 71.183 80.6716 70.5945 79.4945 69.3977C78.3174 68.2205 77.7289 66.5332 77.7289 64.3751V56.0957H75.002V51.4067H77.7289V45.717H83.3985H83.3788Z" fill="#65CEC8"/>
<path id="Vector_16" d="M96.7674 70.6693H91.0586V43.3198H96.7674V53.8358C97.3756 52.8941 98.1407 52.1682 99.102 51.6385C100.044 51.1087 101.181 50.8537 102.476 50.8537C104.693 50.8537 106.439 51.56 107.695 52.9726C108.95 54.3852 109.598 56.3079 109.598 58.7603V70.6693H103.889V60.0356C103.889 58.7799 103.594 57.8186 102.986 57.1319C102.378 56.4452 101.535 56.0921 100.456 56.0921C99.3766 56.0921 98.435 56.4845 97.7876 57.2692C97.1206 58.054 96.7871 59.1135 96.7871 60.428V70.6693H96.7674Z" fill="#65CEC8"/>
</g>
</g>
</g>
</g>
</g>
</svg>
