<svg width="40" height="40" viewBox="0 0 40 40" fill="none" xmlns="http://www.w3.org/2000/svg">
<path d="M20 14.5664C20.5522 14.5664 20.9999 15.0142 21 15.5664V19H24.4316C24.9837 19.0003 25.4316 19.4479 25.4316 20C25.4316 20.5521 24.9837 20.9997 24.4316 21H21V24.5664C21 25.1187 20.5523 25.5664 20 25.5664C19.4478 25.5663 19 25.1186 19 24.5664V21H15.4316C14.8794 21 14.4316 20.5523 14.4316 20C14.4316 19.4477 14.8794 19 15.4316 19H19V15.5664C19.0001 15.0142 19.4478 14.5665 20 14.5664Z" fill="#2C2827"/>
<path fill-rule="evenodd" clip-rule="evenodd" d="M20 6C27.732 6 34 12.268 34 20C34 27.732 27.732 34 20 34C12.268 34 6 27.732 6 20C6 12.268 12.268 6 20 6ZM20 8C13.3726 8 8 13.3726 8 20C8 26.6274 13.3726 32 20 32C26.6274 32 32 26.6274 32 20C32 13.3726 26.6274 8 20 8Z" fill="#2C2827"/>
</svg>
