<svg width="24" height="24" viewBox="0 0 24 24" fill="none" xmlns="http://www.w3.org/2000/svg">
<path d="M20.0264 10.8794C17.5334 5.83304 16.9985 2.80762 14.9335 3.01058C13.9203 3.11048 11.7933 3.27222 11.07 3.85018C10.2437 4.5114 9.82974 6.40387 10.5065 7.21334C11.4367 8.33439 14.4374 5.64038 14.7963 6.34916C16.4869 10.5067 15.7443 11.7063 15.4668 14.0181C15.4607 14.072 15.4394 14.123 15.4055 14.1647C15.3716 14.2064 15.3266 14.2372 15.2759 14.2533C15.2252 14.2693 15.1711 14.2699 15.1201 14.2551C15.069 14.2402 15.0233 14.2105 14.9885 14.1696C14.4739 13.5468 13.7793 13.1072 13.0047 12.914C12.2302 12.7208 11.4157 12.784 10.6786 13.0945C10.5687 13.1411 10.4472 13.1503 10.3319 13.1208C10.2165 13.0912 10.1136 13.0244 10.0383 12.9304C9.47852 12.2331 8.73206 11.7179 7.89034 11.448C7.04862 11.1781 6.1482 11.1652 5.29942 11.4109C4.45063 11.6566 3.69035 12.1501 3.11172 12.8311C2.5331 13.5121 2.16126 14.3509 2.04179 15.2448C1.92231 16.1387 2.06037 17.0488 2.43906 17.8636C2.81775 18.6785 3.42062 19.3626 4.17379 19.8323C4.92697 20.3019 5.79774 20.5367 6.6794 20.5077C7.56106 20.4788 8.41532 20.1875 9.13751 19.6694C9.23453 19.6002 9.35082 19.565 9.46902 19.569C9.58721 19.573 9.70097 19.616 9.79331 19.6916C10.2494 20.0567 10.7818 20.3091 11.3491 20.4289C11.3491 20.4289 22.2116 23.2181 21.9969 16.4791C21.9511 15.052 20.9054 12.6616 20.0264 10.8817" fill="#1565C0"/>
</svg>
