<svg width="76" height="63" viewBox="0 0 76 63" fill="none" xmlns="http://www.w3.org/2000/svg">
<mask id="mask0_8906_87918" style="mask-type:luminance" maskUnits="userSpaceOnUse" x="0" y="0" width="76" height="63">
<path d="M37.9173 62.4282C58.5585 62.4282 75.2916 48.4562 75.2916 31.2209C75.2916 13.9856 58.5585 0.0136719 37.9173 0.0136719C17.276 0.0136719 0.542969 13.9856 0.542969 31.2209C0.542969 48.4562 17.276 62.4282 37.9173 62.4282Z" fill="white"/>
</mask>
<g mask="url(#mask0_8906_87918)">
<path d="M-16.2051 8.03711H84.2383V54.3696H-16.2051V8.03711Z" fill="#2C2827"/>
<path d="M1.7321 25.0017C1.77617 24.8545 1.9084 24.7441 2.08469 24.7441H2.3932C2.56949 24.7441 2.65765 24.8177 2.70172 24.9281L5.16984 33.5764H5.21391L10.679 24.9281C10.7231 24.8177 10.8553 24.7441 11.0316 24.7441H11.3401C11.4723 24.7441 11.6486 24.8545 11.6486 25.0017L11.9571 36.5941C11.9571 36.8517 11.8249 36.9989 11.5605 36.9989H10.1501C9.97384 36.9989 9.79755 36.8885 9.79755 36.6677L9.92976 29.3075H9.88569L5.16984 36.9989C5.12576 37.1093 4.99353 37.1829 4.81724 37.1829H4.46466C4.28836 37.1829 4.20021 37.1093 4.15614 36.9989L2.17283 29.3075H2.08469L-0.383422 36.7413C-0.427495 36.9253 -0.64786 37.0357 -0.780081 37.0357H-2.19044C-2.45488 37.0357 -2.54302 36.8885 -2.49894 36.6309L1.7321 25.0017ZM13.7642 36.5573L19.3615 25.149C19.4056 25.0385 19.5378 24.9281 19.7141 24.9281H20.7718C21.0363 24.9281 21.1685 25.1121 21.0363 25.3698L15.483 36.7781C15.4389 36.8885 15.3067 36.9989 15.1304 36.9989H14.0286C13.7642 36.9989 13.6319 36.8149 13.7642 36.5573ZM23.6807 28.9027H21.7855C21.6092 28.9027 21.477 28.7554 21.5211 28.5714L21.7415 27.4306C21.7415 27.357 21.8737 27.2098 21.9618 27.173L25.0029 25.2594H26.9862C27.1625 25.2594 27.2947 25.4066 27.2506 25.5906L25.3995 36.6677C25.3995 36.8517 25.1792 36.9989 25.0029 36.9989H22.667C22.4466 36.9989 22.3144 36.8517 22.3585 36.6677L23.6807 28.9027ZM27.7354 36.6677L27.7795 36.3365L33.2887 30.4851C34.1702 29.5283 34.4346 29.0131 34.4346 28.5346C34.4346 27.8354 33.7735 27.5042 33.1565 27.5042C32.3191 27.5042 31.658 28.0194 31.3054 28.3506C31.1291 28.4978 30.9087 28.4978 30.7765 28.3506L29.5865 27.2098C29.4543 27.0994 29.4984 26.9154 29.6306 26.7682C29.6306 26.7682 31.085 25.1122 33.6413 25.1122C36.0653 25.1122 37.5198 26.4002 37.5198 28.277C37.5198 29.2707 36.7705 30.5219 35.8009 31.5891L32.9361 34.8276H35.889C36.0653 34.8276 36.1975 34.9748 36.1975 35.1588L35.9331 36.7045C35.9331 36.8885 35.7127 37.0357 35.5364 37.0357H27.9999C27.8236 36.9989 27.6914 36.8517 27.7354 36.6677ZM38.0927 35.1956L39.3708 34.1652C39.5031 34.0548 39.7234 34.0548 39.8556 34.1652C39.9438 34.2388 40.693 34.8644 41.5745 34.8644C42.7204 34.8644 43.3815 34.1652 43.3815 33.3188C43.3815 32.6564 42.7204 32.0675 41.6186 32.0675H40.6049C40.4286 32.0675 40.2964 31.9203 40.2964 31.7363L40.5167 30.3011C40.5167 30.1171 40.693 29.9699 40.9134 29.9699H41.9712C43.2493 29.9699 43.9986 29.3075 43.9986 28.461C43.9986 27.8354 43.5578 27.357 42.8967 27.357C42.1034 27.357 41.6186 27.7986 41.3101 28.0562C41.1779 28.2034 40.9575 28.2034 40.8253 28.0562L39.6793 26.9154C39.5471 26.805 39.5912 26.5842 39.7675 26.4738C40.2082 26.1426 41.4423 25.0753 43.6019 25.0753C45.5852 25.0753 47.26 26.2162 47.26 27.8354C47.26 29.4179 45.8496 30.5955 44.8359 31.0003V31.0371C45.5852 31.3315 46.643 32.2147 46.643 33.5396C46.643 35.5636 44.88 37.1461 41.6627 37.1461C39.5031 37.1461 38.3131 36.042 37.9605 35.6004C37.8723 35.49 37.9605 35.306 38.0927 35.1956ZM47.7889 34.2388L48.0974 32.3987L55.7221 25.149C55.7662 25.1122 55.8543 25.0385 56.0306 25.0385H57.5732C57.7495 25.0385 57.9258 25.1858 57.8817 25.3698L56.7358 32.4355H58.1902C58.3665 32.4355 58.4987 32.5828 58.4987 32.73L58.2343 34.202C58.2343 34.386 58.0139 34.5332 57.8376 34.5332H56.3832L56.0306 36.6677C56.0306 36.8517 55.8102 36.9989 55.6339 36.9989H53.3421C53.1658 36.9989 52.9895 36.8517 53.0336 36.6677L53.3862 34.57H48.0974C47.9211 34.57 47.7889 34.386 47.7889 34.2388ZM53.7829 32.4355L54.3117 29.3443L51.1385 32.4355H53.7829Z" fill="white"/>
</g>
</svg>
