<svg width="23" height="23" viewBox="0 0 23 23" fill="none" xmlns="http://www.w3.org/2000/svg">
<path d="M14.7861 1.64258C14.7871 2.07791 14.9605 2.49512 15.2683 2.80295C15.5762 3.11077 15.9934 3.28415 16.4287 3.28517H19.7148V6.57129C19.7148 7.00693 19.8878 7.42473 20.1959 7.73277C20.5039 8.04082 20.9217 8.21387 21.3574 8.21387C21.793 8.21387 22.2109 8.04082 22.5189 7.73277C22.8269 7.42473 23 7.00693 23 6.57129V1.64258C22.999 1.20725 22.8256 0.790045 22.5177 0.48222C22.2099 0.174395 21.7927 0.0010124 21.3574 0H16.4287C15.9934 0.0010124 15.5762 0.174395 15.2683 0.48222C14.9605 0.790045 14.7871 1.20725 14.7861 1.64258ZM19.7148 19.7139H16.4287C15.9929 19.7139 15.575 19.887 15.2669 20.1951C14.9588 20.5033 14.7856 20.9212 14.7856 21.3569C14.7856 21.7927 14.9588 22.2106 15.2669 22.5188C15.575 22.8269 15.9929 23 16.4287 23H21.3574C21.7835 22.9711 22.1847 22.7887 22.4867 22.4867C22.7887 22.1847 22.9711 21.7835 23 21.3574V16.4287C23 15.9931 22.8269 15.5753 22.5189 15.2672C22.2109 14.9592 21.793 14.7861 21.3574 14.7861C20.9217 14.7861 20.5039 14.9592 20.1959 15.2672C19.8878 15.5753 19.7148 15.9931 19.7148 16.4287V19.7139ZM1.64351 8.21387C2.06963 8.18496 2.47081 8.00262 2.77281 7.70062C3.07482 7.39861 3.25717 6.99741 3.28608 6.57129V3.28612H6.57222C6.78799 3.28612 7.00167 3.24363 7.20101 3.16105C7.40036 3.07848 7.58148 2.95746 7.73405 2.80488C7.88662 2.65231 8.00764 2.47118 8.09021 2.27184C8.17278 2.07249 8.21526 1.85883 8.21526 1.64306C8.21526 1.42729 8.17278 1.21364 8.09021 1.01429C8.00764 0.814944 7.88662 0.633814 7.73405 0.481242C7.58148 0.328669 7.40036 0.207642 7.20101 0.125071C7.00167 0.042499 6.78799 -3.21522e-09 6.57222 0H1.64351C1.20801 0.000759291 0.790591 0.17403 0.482559 0.481882C0.174527 0.789734 0.0010133 1.20709 0 1.64258V6.57129C0.0291124 6.99734 0.21148 7.39843 0.513443 7.7004C0.815406 8.00236 1.21746 8.18476 1.64351 8.21387ZM1.64351 14.7852C1.21746 14.8143 0.8164 14.9967 0.514437 15.2986C0.212474 15.6006 0.0300483 16.0017 0.000935872 16.4277V21.3565C0.0297996 21.7825 0.211948 22.1837 0.513735 22.4859C0.815522 22.788 1.21654 22.9706 1.64257 23H6.57129C7.00705 23 7.42498 22.8269 7.73311 22.5188C8.04125 22.2106 8.21433 21.7927 8.21433 21.3569C8.21433 20.9212 8.04125 20.5033 7.73311 20.1951C7.42498 19.887 7.00705 19.7139 6.57129 19.7139H3.28515V16.4287C3.28413 15.9934 3.11076 15.5762 2.80294 15.2683C2.49511 14.9605 2.0779 14.7871 1.64257 14.7861L1.64351 14.7852Z" fill="#2C2827"/>
</svg>
