<svg width="32" height="32" viewBox="0 0 32 32" fill="none" xmlns="http://www.w3.org/2000/svg">
<g clip-path="url(#clip0_7104_109242)">
<path d="M20.8356 0C24.0356 0 25.6356 0 27.3778 0.533333C29.2622 1.20889 30.7556 2.70222 31.4311 4.58667C32 6.32889 32 7.96445 32 11.1644V20.8356C32 24.0356 32 25.6356 31.4667 27.3778C30.7911 29.2622 29.2978 30.7556 27.4133 31.4311C25.6356 32 24.0356 32 20.8356 32H11.1644C7.96445 32 6.36444 32 4.62222 31.4667C2.70222 30.7556 1.24444 29.2978 0.533333 27.3778C0 25.6711 0 24.0711 0 20.8356V11.1644C0 7.96445 0 6.36444 0.533333 4.62222C1.24444 2.73778 2.70222 1.24444 4.62222 0.568889C6.32889 -4.23855e-08 7.92889 0 11.1644 0H20.8356Z" fill="#424242"/>
<path d="M24.9661 8.82645L24.1893 8.60307C24.1492 8.59195 24.1063 8.59679 24.0697 8.6166C24.0331 8.6364 24.0056 8.66962 23.9929 8.70928C23.1146 11.338 19.4549 12.318 16.7692 13.0378L16.3284 13.1559C16.3145 13.1592 16.3 13.159 16.2863 13.1553C16.2725 13.1516 16.2599 13.1444 16.2497 13.1344C16.2394 13.1245 16.2319 13.1121 16.2277 13.0985C16.2236 13.0848 16.223 13.0703 16.2259 13.0564C16.4367 12.2134 17.259 9.07175 17.4773 8.30298C17.4886 8.2633 17.4841 8.2208 17.4646 8.1844C17.4452 8.148 17.4124 8.12056 17.3732 8.10784L16.6036 7.85495C16.5833 7.84824 16.562 7.84565 16.5407 7.84734C16.5194 7.84903 16.4987 7.85496 16.4798 7.86478C16.4609 7.8746 16.4441 7.88811 16.4304 7.90452C16.4168 7.92093 16.4066 7.9399 16.4004 7.96032L16.3785 8.03324C16.3751 8.04495 16.3685 8.05548 16.3594 8.06362C16.3503 8.07176 16.3391 8.07719 16.3271 8.0793C16.3151 8.0814 16.3027 8.0801 16.2914 8.07553C16.28 8.07097 16.2702 8.06332 16.263 8.05347C16.1038 7.83945 15.9114 7.65221 15.6932 7.4988C14.205 6.45691 11.8464 7.25013 10.4353 9.26605C9.02418 11.282 9.08656 13.77 10.5731 14.8114C10.72 14.9129 10.8772 14.9985 11.0422 15.0668C11.0572 15.0732 11.0701 15.0835 11.0797 15.0967C11.0892 15.1099 11.0949 15.1254 11.0962 15.1416C11.0975 15.1578 11.0943 15.1741 11.087 15.1886C11.0798 15.2031 11.0686 15.2154 11.0549 15.224C10.1482 15.7928 9.32762 16.4882 8.61788 17.2893C7.73994 18.2924 6.87971 20.095 7.06558 21.6878C7.10403 22.094 7.22519 22.488 7.42163 22.8455C7.61806 23.2031 7.8856 23.5167 8.20778 23.7669C8.7046 24.1304 9.306 24.3227 9.9215 24.3149C10.9334 24.2777 11.9046 23.9073 12.6843 23.2612C14.6774 21.6659 14.9775 19.7836 15.2679 17.9632C15.2932 17.8047 15.8681 14.6479 15.8681 14.6479C15.8811 14.5864 15.9106 14.5296 15.9535 14.4836C15.9963 14.4377 16.0509 14.4043 16.1113 14.387C16.4097 14.3027 16.7305 14.2184 17.0613 14.1278C20.0117 13.3379 24.0313 12.2606 25.0757 9.02792C25.0819 9.0075 25.0841 8.98604 25.0819 8.96479C25.0798 8.94354 25.0734 8.92293 25.0632 8.90417C25.053 8.88541 25.0392 8.86887 25.0225 8.85553C25.0058 8.84219 24.9866 8.8323 24.9661 8.82645ZM14.1535 17.7849C13.8737 19.5408 13.6318 21.0569 11.9787 22.379C11.1134 23.0719 9.77357 23.517 8.8754 22.857C8.67817 22.6985 8.5153 22.5014 8.39675 22.2779C8.2782 22.0543 8.20644 21.8089 8.18587 21.5567C8.06279 20.503 8.60102 19.0207 9.46589 18.0344C10.3004 17.0969 11.2975 16.3178 12.4091 15.7349C13.0921 15.3873 13.8045 15.1007 14.5379 14.8784C14.5516 14.8743 14.5661 14.8738 14.58 14.8768C14.594 14.8798 14.6069 14.8863 14.6177 14.8957C14.6284 14.9051 14.6366 14.9171 14.6414 14.9305C14.6463 14.9439 14.6477 14.9583 14.6454 14.9724C14.4878 15.7665 14.1776 17.6336 14.1535 17.7849ZM14.9914 13.3717C14.9783 13.4304 14.95 13.4847 14.9093 13.5291C14.8686 13.5734 14.817 13.6064 14.7596 13.6245L13.8029 13.9293C12.2544 14.4418 11.4805 14.0726 11.2201 13.8901C10.2587 13.2157 10.3223 11.3966 11.3592 9.91597C12.396 8.43532 14.0844 7.75253 15.0462 8.42563C15.6291 8.83362 15.8588 9.68289 15.6641 10.6691C15.415 11.6318 15.1621 12.6404 14.9914 13.3717Z" fill="white"/>
<path d="M21.6272 16.9947C22.3786 16.9784 23.1079 17.2498 23.6658 17.7534C23.6974 17.7821 23.7388 17.7978 23.7815 17.7973C23.8242 17.7967 23.8651 17.78 23.896 17.7504L24.4814 17.165C24.4971 17.1495 24.5095 17.131 24.5179 17.1106C24.5263 17.0902 24.5305 17.0683 24.5303 17.0462C24.5301 17.0242 24.5254 17.0024 24.5166 16.9822C24.5077 16.9619 24.4949 16.9437 24.4789 16.9286C23.9774 16.4663 23.3691 16.1357 22.7085 15.9662C22.0479 15.7966 21.3556 15.7935 20.6935 15.9571C20.0314 16.1207 19.4201 16.4459 18.9145 16.9036C18.4089 17.3613 18.0246 17.9372 17.7961 18.5798C17.5676 19.2224 17.5019 19.9116 17.605 20.5857C17.7081 21.2599 17.9768 21.898 18.3869 22.4429C18.797 22.9878 19.3359 23.4226 19.9552 23.7082C20.5745 23.9939 21.255 24.1215 21.9357 24.0797C22.8431 24.015 23.7058 23.6612 24.3975 23.0703C24.4406 23.0342 24.4753 22.989 24.4991 22.9381C24.523 22.8871 24.5353 22.8315 24.5354 22.7753V19.7828C24.5354 19.7391 24.518 19.6972 24.4871 19.6663C24.4562 19.6354 24.4143 19.618 24.3706 19.618H21.5728C21.5291 19.618 21.4872 19.6354 21.4563 19.6663C21.4254 19.6972 21.408 19.7391 21.408 19.7828V20.611C21.408 20.6547 21.4254 20.6966 21.4563 20.7275C21.4872 20.7584 21.5291 20.7758 21.5728 20.7758H23.2132C23.2569 20.7758 23.2988 20.7932 23.3297 20.8241C23.3606 20.855 23.378 20.8969 23.378 20.9406V22.1882C23.3781 22.2554 23.3606 22.3214 23.3274 22.3798C23.2941 22.4382 23.2462 22.4869 23.1883 22.5211C22.7972 22.7511 22.3585 22.8884 21.906 22.9223C21.4535 22.9563 20.9993 22.886 20.5782 22.7169C20.1571 22.5478 19.7804 22.2845 19.477 21.947C19.1737 21.6095 18.9517 21.207 18.8283 20.7704C18.7049 20.3337 18.6832 19.8746 18.765 19.4282C18.8467 18.9819 19.0298 18.5603 19.3 18.1958C19.5702 17.8312 19.9205 17.5335 20.3237 17.3255C20.727 17.1175 21.1726 17.0048 21.6263 16.996L21.6272 16.9947Z" fill="white"/>
</g>
<defs>
<clipPath id="clip0_7104_109242">
<rect width="32" height="32" fill="white"/>
</clipPath>
</defs>
</svg>
