<svg width="32" height="32" viewBox="0 0 32 32" fill="none" xmlns="http://www.w3.org/2000/svg">
<g clip-path="url(#clip0_7104_108463)">
<rect width="32" height="32" rx="5" fill="#00A9B9"/>
<path d="M17.5798 4.23922C17.5798 4.65447 17.4566 5.0604 17.2259 5.40568C16.9951 5.75095 16.6672 6.02006 16.2834 6.17897C15.8997 6.33788 15.4775 6.37946 15.0701 6.29844C14.6628 6.21743 14.2886 6.01747 13.9949 5.72384C13.7012 5.43021 13.5012 5.0561 13.4202 4.64882C13.3391 4.24155 13.3807 3.81939 13.5397 3.43575C13.6986 3.0521 13.9678 2.72419 14.3131 2.49349C14.6585 2.26279 15.0645 2.13965 15.4798 2.13965C16.0368 2.13965 16.5709 2.36085 16.9647 2.7546C17.3586 3.14834 17.5798 3.68238 17.5798 4.23922ZM15.4798 7.99845C15.0462 7.99845 14.6224 8.12712 14.2621 8.36816C13.9017 8.60919 13.621 8.95175 13.4556 9.35242C13.2901 9.75309 13.2473 10.1938 13.3326 10.6188C13.418 11.0438 13.6275 11.434 13.9348 11.7398C14.2421 12.0456 14.6332 12.2533 15.0587 12.3367C15.4842 12.42 15.9248 12.3753 16.3248 12.208C16.7248 12.0407 17.0662 11.7585 17.3056 11.3972C17.545 11.0358 17.6718 10.6115 17.6698 10.178C17.6672 9.59903 17.4353 9.04467 17.0248 8.63621C16.6144 8.22775 16.0589 7.99844 15.4798 7.99845ZM15.4798 13.8572C15.0308 13.8572 14.592 13.9904 14.2187 14.2397C13.8454 14.4891 13.5544 14.8436 13.3826 15.2583C13.2108 15.673 13.1658 16.1293 13.2534 16.5695C13.341 17.0098 13.5572 17.4142 13.8747 17.7316C14.1921 18.049 14.5966 18.2651 15.037 18.3527C15.4773 18.4403 15.9337 18.3953 16.3485 18.2236C16.7633 18.0518 17.1178 17.7609 17.3672 17.3877C17.6167 17.0144 17.7498 16.5756 17.7498 16.1268C17.7511 15.8284 17.6933 15.5327 17.5797 15.2567C17.4661 14.9808 17.2989 14.73 17.0879 14.519C16.8768 14.308 16.6261 14.1409 16.3501 14.0273C16.0741 13.9137 15.7783 13.8559 15.4798 13.8572ZM15.4798 19.856C15.0491 19.858 14.6286 19.9875 14.2714 20.2282C13.9142 20.4689 13.6364 20.81 13.4729 21.2084C13.3094 21.6068 13.2677 22.0447 13.3529 22.4669C13.4382 22.889 13.6466 23.2764 13.9518 23.5802C14.2571 23.8841 14.6456 24.0907 15.0682 24.1739C15.4908 24.2572 15.9286 24.2135 16.3263 24.0482C16.7241 23.883 17.064 23.6036 17.3031 23.2454C17.5422 22.8872 17.6698 22.4662 17.6698 22.0356C17.6698 21.7485 17.6131 21.4643 17.5029 21.1992C17.3927 20.9341 17.2313 20.6934 17.0278 20.4908C16.8243 20.2883 16.5828 20.128 16.3171 20.019C16.0515 19.9101 15.7669 19.8547 15.4798 19.856ZM15.4798 25.8548C15.0645 25.8548 14.6585 25.9779 14.3131 26.2086C13.9678 26.4393 13.6986 26.7672 13.5397 27.1509C13.3807 27.5345 13.3391 27.9567 13.4202 28.364C13.5012 28.7712 13.7012 29.1453 13.9949 29.439C14.2886 29.7326 14.6628 29.9326 15.0701 30.0136C15.4775 30.0946 15.8997 30.053 16.2834 29.8941C16.6672 29.7352 16.9951 29.4661 17.2259 29.1208C17.4566 28.7755 17.5798 28.3696 17.5798 27.9544C17.5798 27.3975 17.3586 26.8635 16.9647 26.4697C16.5709 26.076 16.0368 25.8548 15.4798 25.8548ZM21.2698 7.7185C20.7804 7.71653 20.3015 7.85993 19.8938 8.13052C19.4861 8.40111 19.1679 8.78669 18.9798 9.23834C18.7916 9.68998 18.7418 10.1873 18.8368 10.6673C18.9318 11.1473 19.1672 11.5882 19.5133 11.9342C19.8593 12.2801 20.3003 12.5155 20.7804 12.6105C21.2605 12.7055 21.7579 12.6557 22.2097 12.4676C22.6614 12.2794 23.0471 11.9614 23.3177 11.5537C23.5884 11.1461 23.7318 10.6673 23.7298 10.178C23.7272 9.52651 23.4671 8.90246 23.0064 8.44178C22.5456 7.98111 21.9214 7.72114 21.2698 7.7185ZM21.2698 13.5773C20.7655 13.5773 20.2724 13.7268 19.8531 14.007C19.4338 14.2871 19.1069 14.6853 18.9139 15.1511C18.7209 15.617 18.6704 16.1296 18.7688 16.6242C18.8672 17.1187 19.1101 17.573 19.4667 17.9295C19.8233 18.2861 20.2777 18.5289 20.7723 18.6273C21.267 18.7256 21.7797 18.6752 22.2456 18.4822C22.7116 18.2892 23.1099 17.9625 23.3901 17.5432C23.6702 17.1239 23.8198 16.631 23.8198 16.1268C23.8198 15.4506 23.5511 14.8021 23.0729 14.324C22.5947 13.8459 21.9461 13.5773 21.2698 13.5773ZM21.2698 19.5761C20.7833 19.5761 20.3076 19.7203 19.9031 19.9906C19.4986 20.2608 19.1833 20.6449 18.9971 21.0944C18.8109 21.5438 18.7622 22.0383 18.8571 22.5154C18.952 22.9925 19.1863 23.4307 19.5303 23.7747C19.8744 24.1187 20.3127 24.3529 20.7899 24.4478C21.2671 24.5427 21.7617 24.494 22.2112 24.3078C22.6607 24.1217 23.0449 23.8065 23.3152 23.402C23.5855 22.9975 23.7298 22.522 23.7298 22.0356C23.7272 21.3841 23.4671 20.76 23.0064 20.2994C22.5456 19.8387 21.9214 19.5787 21.2698 19.5761ZM27.1998 13.2974C26.6388 13.2914 26.0888 13.4523 25.6195 13.7596C25.1501 14.0668 24.7827 14.5066 24.5639 15.0231C24.3451 15.5395 24.2848 16.1093 24.3906 16.6602C24.4964 17.211 24.7635 17.7179 25.1581 18.1166C25.5526 18.5153 26.0568 18.7878 26.6066 18.8994C27.1563 19.0111 27.7269 18.9568 28.2458 18.7436C28.7646 18.5303 29.2084 18.1677 29.5207 17.7018C29.833 17.2359 29.9998 16.6877 29.9998 16.1268C30.0025 15.3807 29.7093 14.6641 29.1845 14.1337C28.6596 13.6034 27.946 13.3026 27.1998 13.2974ZM9.62981 8.29838C9.2512 8.29641 8.88055 8.40697 8.56492 8.61604C8.24929 8.82511 8.00294 9.12325 7.85714 9.47259C7.71134 9.82193 7.67267 10.2067 7.74605 10.5781C7.81943 10.9494 8.00154 11.2906 8.26926 11.5583C8.53698 11.8259 8.87822 12.008 9.24965 12.0814C9.62109 12.1547 10.0059 12.1161 10.3554 11.9703C10.7048 11.8245 11.003 11.5782 11.2121 11.2627C11.4212 10.9471 11.5318 10.5765 11.5298 10.198C11.5298 9.69419 11.3296 9.21101 10.9733 8.85477C10.617 8.49852 10.1337 8.29838 9.62981 8.29838ZM9.62981 14.1572C9.23424 14.1572 8.84756 14.2745 8.51867 14.4942C8.18977 14.7139 7.93342 15.0262 7.78205 15.3916C7.63067 15.7569 7.59106 16.159 7.66823 16.5469C7.74541 16.9348 7.93589 17.291 8.21559 17.5707C8.4953 17.8503 8.85166 18.0408 9.23962 18.1179C9.62759 18.1951 10.0297 18.1555 10.3952 18.0042C10.7606 17.8528 11.073 17.5965 11.2927 17.2677C11.5125 16.9389 11.6298 16.5523 11.6298 16.1568C11.6298 15.6264 11.4191 15.1178 11.044 14.7428C10.6689 14.3679 10.1602 14.1572 9.62981 14.1572ZM9.62981 20.156C9.25402 20.156 8.88667 20.2674 8.57422 20.4761C8.26177 20.6848 8.01824 20.9815 7.87443 21.3286C7.73063 21.6757 7.693 22.0577 7.76631 22.4262C7.83963 22.7946 8.02058 23.1331 8.2863 23.3988C8.55202 23.6645 8.89057 23.8454 9.25913 23.9187C9.6277 23.992 10.0097 23.9544 10.3569 23.8106C10.7041 23.6668 11.0008 23.4233 11.2096 23.1109C11.4184 22.7985 11.5298 22.4313 11.5298 22.0556C11.5298 21.5518 11.3296 21.0686 10.9733 20.7123C10.617 20.3561 10.1337 20.156 9.62981 20.156ZM3.76981 14.4171C3.43118 14.4151 3.09959 14.5137 2.81707 14.7004C2.53455 14.887 2.31382 15.1533 2.18286 15.4656C2.0519 15.7778 2.01661 16.1218 2.08145 16.4541C2.1463 16.7864 2.30837 17.092 2.54711 17.3321C2.78586 17.5722 3.09053 17.736 3.42251 17.8028C3.75448 17.8696 4.09882 17.8363 4.41186 17.7072C4.72491 17.5781 4.99257 17.359 5.18091 17.0776C5.36925 16.7963 5.4698 16.4653 5.46981 16.1268C5.47112 15.9027 5.42812 15.6806 5.34328 15.4733C5.25844 15.2659 5.13343 15.0774 4.97544 14.9185C4.81745 14.7596 4.62959 14.6335 4.42269 14.5475C4.21578 14.4614 3.9939 14.4171 3.76981 14.4171Z" fill="white"/>
</g>
<defs>
<clipPath id="clip0_7104_108463">
<rect width="32" height="32" fill="white"/>
</clipPath>
</defs>
</svg>
