<svg id="Group_5" data-name="Group 5" xmlns="http://www.w3.org/2000/svg" xmlns:xlink="http://www.w3.org/1999/xlink" width="201.922" height="106.418" viewBox="0 0 201.922 106.418">
  <defs>
    <clipPath id="clip-path">
      <rect id="Rectangle_2" data-name="Rectangle 2" width="201.922" height="106.418" fill="none"/>
    </clipPath>
  </defs>
  <g id="Group_4" data-name="Group 4" clip-path="url(#clip-path)">
    <path id="Path_20" data-name="Path 20" d="M199.06,106.418H2.862A2.862,2.862,0,0,1,0,103.556V2.862A2.862,2.862,0,0,1,2.862,0h196.2a2.862,2.862,0,0,1,2.862,2.862V103.556a2.862,2.862,0,0,1-2.862,2.862" fill="#1f9dea"/>
    <path id="Path_21" data-name="Path 21" d="M113.263,8.419a5.755,5.755,0,0,0-3.848,1.506l5.224,5.911h15.347l5.46-5.761a5.773,5.773,0,0,0-4.008-1.656Z" fill="#fff" fill-rule="evenodd"/>
    <path id="Path_22" data-name="Path 22" d="M128.847,57.157l3.527-3.721-3.266-3.7H113.761l-3.527,3.722,3.266,3.695Z" fill="#fff" fill-rule="evenodd"/>
    <path id="Path_23" data-name="Path 23" d="M109.56,52.7l-3.266-3.695.911-34.2a6.971,6.971,0,0,1,1.512-4.149l5.224,5.911-.854,32.407Z" fill="#fff" fill-rule="evenodd"/>
    <path id="Path_24" data-name="Path 24" d="M133.071,52.7,129.8,49.005l.854-32.407,5.46-5.761a7.022,7.022,0,0,1,1.375,4.435l-.9,33.707Z" fill="#fff" fill-rule="evenodd"/>
    <path id="Path_25" data-name="Path 25" d="M106.489,96.062l5.46-5.761.854-32.407L109.536,54.2,106.01,57.92l-.9,33.707a7.021,7.021,0,0,0,1.374,4.435" fill="#fff" fill-rule="evenodd"/>
    <path id="Path_26" data-name="Path 26" d="M136.314,57.893,133.048,54.2l-3.527,3.721-.854,32.407,5.224,5.911a6.967,6.967,0,0,0,1.512-4.149Z" fill="#fff" fill-rule="evenodd"/>
    <path id="Path_27" data-name="Path 27" d="M166.059,57.157l3.527-3.721-3.266-3.7H150.973l-3.527,3.722,3.266,3.695Z" fill="#fff" fill-rule="evenodd"/>
    <path id="Path_28" data-name="Path 28" d="M146.773,52.7l-3.266-3.695.911-34.2a6.971,6.971,0,0,1,1.512-4.149l5.224,5.911L150.3,48.979Z" fill="#fff" fill-rule="evenodd"/>
    <path id="Path_29" data-name="Path 29" d="M150.475,8.419a5.755,5.755,0,0,0-3.848,1.506l5.224,5.911H167.2l5.46-5.761a5.773,5.773,0,0,0-4.008-1.656Z" fill="#fff" fill-rule="evenodd"/>
    <path id="Path_30" data-name="Path 30" d="M170.284,52.7l-3.266-3.695.854-32.407,5.46-5.761a7.022,7.022,0,0,1,1.375,4.435l-.9,33.707Z" fill="#fff" fill-rule="evenodd"/>
    <path id="Path_31" data-name="Path 31" d="M143.7,96.062l5.46-5.761.854-32.407L146.749,54.2l-3.527,3.721-.9,33.707a7.021,7.021,0,0,0,1.374,4.435" fill="#fff" fill-rule="evenodd"/>
    <path id="Path_32" data-name="Path 32" d="M58.647,52.7l-3.266-3.695L56.235,16.6l5.46-5.761a7.022,7.022,0,0,1,1.375,4.435l-.9,33.707Z" fill="#fff" fill-rule="evenodd"/>
    <path id="Path_33" data-name="Path 33" d="M61.889,57.893,58.623,54.2,55.1,57.919l-.854,32.407,5.224,5.911a6.967,6.967,0,0,0,1.512-4.149Z" fill="#fff" fill-rule="evenodd"/>
    <path id="Path_34" data-name="Path 34" d="M91.635,57.157l3.527-3.721L91.9,49.74H76.549l-3.527,3.722,3.266,3.695Z" fill="#fff" fill-rule="evenodd"/>
    <path id="Path_35" data-name="Path 35" d="M10.3,86.3a.832.832,0,0,0-.324-.705,4.252,4.252,0,0,0-1.167-.518,8.266,8.266,0,0,1-1.334-.538,2.178,2.178,0,0,1-1.339-1.949A1.9,1.9,0,0,1,6.5,81.456a2.35,2.35,0,0,1,1.032-.781,3.883,3.883,0,0,1,1.509-.281,3.53,3.53,0,0,1,1.5.306,2.386,2.386,0,0,1,1.023.861,2.255,2.255,0,0,1,.365,1.264H10.308a1.06,1.06,0,0,0-.34-.84,1.4,1.4,0,0,0-.956-.3,1.494,1.494,0,0,0-.923.251.793.793,0,0,0-.33.662.76.76,0,0,0,.386.643,4.366,4.366,0,0,0,1.137.486A4.92,4.92,0,0,1,11.3,84.758a2.057,2.057,0,0,1,.632,1.534,1.894,1.894,0,0,1-.773,1.6,3.381,3.381,0,0,1-2.079.58,4.024,4.024,0,0,1-1.653-.332,2.619,2.619,0,0,1-1.137-.91A2.33,2.33,0,0,1,5.9,85.893H7.522q0,1.3,1.555,1.3a1.511,1.511,0,0,0,.9-.235A.763.763,0,0,0,10.3,86.3" fill="#fff"/>
    <path id="Path_36" data-name="Path 36" d="M17.756,84.959H14.645v2.106H18.3v1.3H13.025V80.5h5.26v1.313h-3.64V83.69h3.111Z" fill="#fff"/>
    <path id="Path_37" data-name="Path 37" d="M25.274,81.815H22.865v6.551h-1.62V81.815H18.869V80.5h6.405Z" fill="#fff"/>
    <path id="Path_38" data-name="Path 38" d="M14.794,90.454v5.179a2.654,2.654,0,0,1-.807,2.042,3.118,3.118,0,0,1-2.207.751A3.147,3.147,0,0,1,9.593,97.7a2.605,2.605,0,0,1-.826-2V90.454h1.62v5.19a1.5,1.5,0,0,0,.37,1.126,1.42,1.42,0,0,0,1.023.354q1.367,0,1.388-1.437V90.454Z" fill="#fff"/>
    <path id="Path_39" data-name="Path 39" d="M17.743,95.546v2.771h-1.62V90.453H19.19a3.554,3.554,0,0,1,1.559.324,2.387,2.387,0,0,1,1.034.921,2.572,2.572,0,0,1,.362,1.359,2.255,2.255,0,0,1-.792,1.822,3.292,3.292,0,0,1-2.19.667Zm0-1.312H19.19a1.427,1.427,0,0,0,.981-.3,1.1,1.1,0,0,0,.337-.865,1.3,1.3,0,0,0-.34-.934,1.269,1.269,0,0,0-.94-.367H17.743Z" fill="#fff"/>
  </g>
</svg>
