<svg width="32" height="32" viewBox="0 0 32 32" fill="none" xmlns="http://www.w3.org/2000/svg">
<path d="M17.8115 10.4326H17.8076L12.2188 16L17.8076 21.5664L9.34766 30V18.8838L4.70605 23.5225L3.01465 21.8184L8.83984 16L3 10.166L4.69043 8.46094L9.34766 13.1152V2L17.8115 10.4326ZM11.5889 24.2422L14.2881 21.5479L11.5889 18.8574V24.2422ZM24.9756 8.35742C25.4921 7.92839 26.2265 8.01824 26.6162 8.56348C28.1205 10.6639 29 13.2292 29 16C29 18.7707 28.1202 21.3361 26.625 23.4365C26.2353 23.9816 25.5012 24.0705 24.9756 23.6416C24.5501 23.284 24.4592 22.6225 24.7764 22.1758C26.0179 20.4239 26.7519 18.297 26.752 16H26.7432C26.7432 13.7029 26.0182 11.5662 24.7676 9.82324C24.4506 9.37635 24.5499 8.7149 24.9756 8.35742ZM21.2324 11.4941C21.7853 11.0296 22.5375 11.1638 22.918 11.7715C23.6792 12.9959 24.123 14.4528 24.123 15.999C24.123 17.5451 23.6882 18.9932 22.918 20.2266C22.5374 20.8433 21.7853 20.9687 21.2324 20.5039C20.8157 20.1643 20.734 19.5212 21.0146 19.0654C21.5765 18.1716 21.8936 17.1252 21.8936 15.999C21.8935 14.8729 21.5674 13.8273 21.0146 12.9336C20.7337 12.4777 20.8246 11.8427 21.2324 11.4941ZM17.0459 14.9893C17.8886 14.2837 19.211 14.8465 19.2295 15.9365V16.0439C19.2113 17.1344 17.8887 17.6973 17.0459 16.9912V16.9824C16.4206 16.4639 16.4206 15.5166 17.0459 14.9893ZM11.5889 13.1416L14.2881 10.4512L11.5889 7.75684V13.1416Z" fill="#1565C0"/>
</svg>
