<svg width="18" height="18" viewBox="0 0 18 18" fill="none" xmlns="http://www.w3.org/2000/svg">
<path fill-rule="evenodd" clip-rule="evenodd" d="M0.899623 0.679857C1.27027 0.304569 1.8712 0.304569 2.24184 0.679857L17.3302 15.9573C17.7008 16.3326 17.7008 16.9411 17.3302 17.3163C16.9596 17.6916 16.3586 17.6916 15.988 17.3163L0.899623 2.03889C0.528981 1.66361 0.528981 1.05514 0.899623 0.679857Z" fill="#1565C0"/>
<path fill-rule="evenodd" clip-rule="evenodd" d="M17.0988 0.68351C17.4693 1.05885 17.4693 1.66738 17.0988 2.04272L2.01235 17.3221C1.64175 17.6974 1.0409 17.6974 0.670304 17.3221C0.29971 16.9468 0.29971 16.3382 0.670304 15.9629L15.7567 0.68351C16.1273 0.308175 16.7282 0.308175 17.0988 0.68351Z" fill="#1565C0"/>
</svg>
