<svg width="25" height="22" viewBox="0 0 25 22" fill="none" xmlns="http://www.w3.org/2000/svg">
<path fill-rule="evenodd" clip-rule="evenodd" d="M4.47858 2.49956C4.78511 2.19279 5.20079 2.02046 5.63422 2.02046C6.06765 2.02046 6.48333 2.19279 6.78986 2.49956L12.9898 8.70629L19.1897 2.49956C19.3405 2.34327 19.5209 2.21861 19.7203 2.13285C19.9197 2.04709 20.1342 2.00195 20.3512 2.00006C20.5683 1.99817 20.7835 2.03958 20.9844 2.12185C21.1853 2.20413 21.3678 2.32564 21.5212 2.47928C21.6747 2.63292 21.7961 2.81563 21.8783 3.01673C21.9605 3.21783 22.0018 3.43331 21.9999 3.65058C21.9981 3.86786 21.953 4.08258 21.8673 4.28222C21.7816 4.48187 21.6571 4.66243 21.501 4.81338L15.3011 11.0201L21.501 17.2268C21.7987 17.5355 21.9635 17.9488 21.9598 18.3779C21.956 18.8069 21.7841 19.2173 21.4811 19.5207C21.178 19.8241 20.768 19.9962 20.3395 19.9999C19.9109 20.0037 19.498 19.8387 19.1897 19.5407L12.9898 13.3339L6.78986 19.5407C6.48158 19.8387 6.06868 20.0037 5.6401 19.9999C5.21152 19.9962 4.80155 19.8241 4.49849 19.5207C4.19543 19.2173 4.02352 18.8069 4.0198 18.3779C4.01607 17.9488 4.18083 17.5355 4.47858 17.2268L10.6785 11.0201L4.47858 4.81338C4.17215 4.50652 4 4.09038 4 3.65647C4 3.22257 4.17215 2.80643 4.47858 2.49956Z" fill="#4079CC"/>
</svg>
