<svg width="100" height="100" viewBox="0 0 100 100" fill="none" xmlns="http://www.w3.org/2000/svg">
<path d="M0 16C0 7.16345 7.16344 0 16 0H84C92.8366 0 100 7.16344 100 16V84C100 92.8366 92.8366 100 84 100H16C7.16345 100 0 92.8366 0 84V16Z" fill="#222D39"/>
<path d="M70.8827 40.2884L49.1971 64.5295C47.5046 66.4103 44.5577 66.4998 42.7594 64.7236L30.2921 52.394C28.5693 50.6775 28.5693 47.916 30.2921 46.1994C32.0299 44.4828 34.8408 44.4828 36.5635 46.1994L45.6911 55.2301L64.2335 34.4819C65.8504 32.6608 68.6613 32.4966 70.5049 34.1087C72.3335 35.7059 72.5148 38.4823 70.8827 40.2884Z" fill="#61AD94"/>
</svg>
