<?xml version="1.0" encoding="utf-8"?>
<!-- Generator: Adobe Illustrator 24.0.0, SVG Export Plug-In . SVG Version: 6.00 Build 0)  -->
<svg version="1.1" id="Layer_1" xmlns="http://www.w3.org/2000/svg" xmlns:xlink="http://www.w3.org/1999/xlink" x="0px" y="0px"
	 viewBox="0 0 1481 1594.8" style="enable-background:new 0 0 1481 1594.8;" xml:space="preserve">
<style type="text/css">
	.st0{fill:#FCFCFC;}
	.st1{fill:#DDDDDD;}
	.st2{fill:#E8E8E8;stroke:#AAAAAA;stroke-width:4;stroke-miterlimit:10;}
	.st3{fill:#77777A;}
	.st4{fill:#ADAD10;}
	.st5{fill:#F42534;}
	.st6{fill:#FF8300;}
	.st7{fill:#F4CD00;}
	.st8{fill:#BABF10;}
	.st9{fill:url(#SVGID_1_);}
	.st10{fill:#FFFFFF;}
	.st11{fill:url(#SVGID_2_);}
	.st12{fill:url(#SVGID_3_);}
	.st13{fill:none;stroke:#FFFFFF;stroke-width:3.9426;stroke-miterlimit:10;}
	.st14{fill:#228ED6;}
	.st15{fill:none;stroke:#ADAD10;stroke-width:7.8851;stroke-linecap:round;stroke-miterlimit:10;}
</style>
<g>
	<path class="st0" d="M325.2,1517.2c275.8,34.8,554.8,34.8,830.6,0c123.1-15.5,220.7-111.1,238.9-233.8
		c47.7-322.2,47.7-649.7,0-971.9c-18.2-122.7-115.8-218.3-238.9-233.8C880,42.9,601,42.9,325.2,77.7
		c-123.1,15.4-220.8,111-239,233.7c-47.7,322.2-47.7,649.7,0,971.9C104.4,1406.1,202.1,1501.6,325.2,1517.2"/>
	<path class="st1" d="M740.5,51.5c138.8,0,277.6,8.7,415.3,26.1c123.1,15.5,220.7,111.1,238.9,233.8c47.7,322.2,47.7,649.7,0,972
		c-18.2,122.7-115.8,218.3-238.9,233.8c-137.8,17.4-276.5,26.1-415.3,26.1s-277.6-8.7-415.3-26.1
		c-123.1-15.5-220.7-111.1-238.9-233.8c-47.7-322.2-47.7-649.7,0-972C104.4,188.7,202.1,93.1,325.2,77.6
		C462.9,60.2,601.6,51.5,740.5,51.5 M740.5,16C600.2,16,460,24.8,320.7,42.4C181.8,59.9,71.7,167.8,51.1,306.2
		c-48.3,325.7-48.3,656.7,0,982.3c20.5,138.4,130.7,246.3,269.6,263.8c139.2,17.5,279.4,26.3,419.8,26.4
		c140.3,0,280.5-8.8,419.8-26.4c138.9-17.5,249.1-125.4,269.6-263.8c48.3-325.7,48.3-656.7,0-982.3
		c-20.5-138.5-130.7-246.3-269.6-263.8C1021,24.8,880.8,16,740.5,16"/>
	<path class="st2" d="M740.5,51.5c138.8,0,277.6,8.7,415.3,26.1c123.1,15.5,220.7,111.1,238.9,233.8c47.7,322.2,47.7,649.7,0,972
		c-18.2,122.7-115.8,218.3-238.9,233.8c-137.8,17.4-276.5,26.1-415.3,26.1s-277.6-8.7-415.3-26.1
		c-123.1-15.5-220.7-111.1-238.9-233.8c-47.7-322.2-47.7-649.7,0-972C104.4,188.7,202.1,93.1,325.2,77.6
		C462.9,60.2,601.6,51.5,740.5,51.5 M740.5,16C600.2,16,460,24.8,320.7,42.4C181.8,59.9,71.7,167.8,51.1,306.2
		c-48.3,325.7-48.3,656.7,0,982.3c20.5,138.4,130.7,246.3,269.6,263.8c139.2,17.5,279.4,26.3,419.8,26.4
		c140.3,0,280.5-8.8,419.8-26.4c138.9-17.5,249.1-125.4,269.6-263.8c48.3-325.7,48.3-656.7,0-982.3
		c-20.5-138.5-130.7-246.3-269.6-263.8C1021,24.8,880.8,16,740.5,16z"/>
	<polygon class="st3" points="385.4,1365.4 385.4,1344.3 377.8,1344.3 377.8,1340 398,1340 398,1344.3 390.5,1344.3 390.5,1365.4 	
		"/>
	<rect x="403" y="1340" class="st3" width="5.1" height="25.4"/>
	<polygon class="st3" points="414.7,1365.4 414.7,1340 422.4,1340 427,1357.3 431.6,1340 439.3,1340 439.3,1365.4 434.5,1365.4 
		434.5,1345.4 429.5,1365.4 424.5,1365.4 419.5,1345.4 419.5,1365.4 	"/>
	<polygon class="st3" points="446.2,1365.4 446.2,1340 465,1340 465,1344.3 451.3,1344.3 451.3,1350 464.1,1350 464.1,1354.2 
		451.3,1354.2 451.3,1361.1 465.5,1361.1 465.5,1365.4 	"/>
	<polygon class="st3" points="480.7,1365.9 487,1339.6 490.6,1339.6 484.3,1365.9 	"/>
	<path class="st3" d="M506.6,1340.2h9.4c1.6-0.1,3.3,0.1,4.8,0.5s2.9,1.2,3.9,2.3c1.1,1.1,1.9,2.5,2.4,3.9c0.6,1.9,0.9,4,0.8,6
		c0,1.8-0.2,3.7-0.8,5.4c-0.5,1.7-1.5,3.2-2.7,4.5c-1,0.9-2.3,1.6-3.6,2c-1.5,0.4-3,0.6-4.5,0.6h-9.7L506.6,1340.2z M511.8,1344.5
		v16.8h3.9c1,0,2.1,0,3.1-0.2c0.8-0.2,1.5-0.5,2.1-1.1c0.7-0.7,1.1-1.5,1.3-2.4c0.4-1.5,0.6-3.1,0.5-4.7c0.1-1.5-0.1-3.1-0.5-4.5
		c-0.3-0.9-0.8-1.8-1.5-2.4s-1.5-1-2.4-1.2c-1.4-0.2-2.8-0.3-4.2-0.2L511.8,1344.5z"/>
	<path class="st3" d="M557,1365.4h-5.6l-2.2-5.8H539l-2.1,5.8h-5.4l9.9-25.4h5.3L557,1365.4z M547.6,1355.4l-3.5-9.4l-3.4,9.4H547.6
		z"/>
	<polygon class="st3" points="567.2,1365.4 567.2,1344.3 559.7,1344.3 559.7,1340 579.9,1340 579.9,1344.3 572.4,1344.3 
		572.4,1365.4 	"/>
	<polygon class="st3" points="585,1365.4 585,1340 603.9,1340 603.9,1344.3 590.1,1344.3 590.1,1350 602.9,1350 602.9,1354.2 
		590.1,1354.2 590.1,1361.1 604.3,1361.1 604.3,1365.4 	"/>
	<polygon class="st3" points="1174.1,790.5 1174.1,770.8 1180.1,770.8 1183.7,784.3 1187.2,770.8 1193.2,770.8 1193.2,790.5 
		1189.5,790.5 1189.5,775 1185.6,790.5 1181.8,790.5 1177.9,775 1177.9,790.5 	"/>
	<polygon class="st3" points="1198.6,790.5 1198.6,770.8 1213.3,770.8 1213.3,774.1 1202.6,774.1 1202.6,778.5 1212.5,778.5 
		1212.5,781.8 1202.6,781.8 1202.6,787.2 1213.6,787.2 1213.6,790.5 	"/>
	<polygon class="st3" points="1218.4,790.5 1218.4,770.8 1224.3,770.8 1227.9,784.3 1231.5,770.8 1237.4,770.8 1237.4,790.5 
		1233.7,790.5 1233.7,775 1229.8,790.5 1226,790.5 1222,775 1222,790.5 	"/>
	<path class="st3" d="M1242,780.8c-0.1-1.7,0.3-3.5,0.9-5.1c0.5-1,1.1-1.9,1.9-2.7c0.7-0.8,1.6-1.4,2.6-1.8c1.4-0.5,2.8-0.8,4.3-0.8
		c2.6-0.1,5.1,0.9,7,2.7c3.5,4.4,3.5,10.6,0,15c-4,3.6-10,3.6-14,0C1242.8,786.1,1241.8,783.5,1242,780.8 M1245.9,780.7
		c-0.1,1.8,0.4,3.6,1.5,5.1c2,2.2,5.3,2.3,7.5,0.4c0.1-0.1,0.3-0.2,0.4-0.4c1.1-1.5,1.7-3.3,1.5-5.2c0.1-1.8-0.4-3.6-1.5-5
		c-2.1-2.2-5.6-2.2-7.8-0.1l-0.1,0.1C1246.4,777.1,1245.9,778.9,1245.9,780.7"/>
	<path class="st3" d="M1265.7,790.5v-19.7h8.4c1.6-0.1,3.1,0.1,4.6,0.6c1,0.4,1.8,1,2.3,1.9c0.6,0.9,0.9,2,0.9,3.1
		c0.1,1.3-0.4,2.7-1.3,3.7c-1.1,1.1-2.5,1.7-3.9,1.8c0.8,0.4,1.5,1,2.1,1.7c0.9,1,1.6,2.1,2.3,3.2l2.4,3.9h-4.8l-2.9-4.3
		c-0.6-1-1.3-2-2.1-2.9c-0.3-0.4-0.7-0.6-1.2-0.8c-0.7-0.2-1.3-0.3-2-0.2h-0.8v8.2L1265.7,790.5z M1269.6,779.1h3
		c1.2,0.1,2.4,0,3.6-0.2c0.4-0.1,0.8-0.4,1.1-0.8c0.3-0.4,0.4-1,0.4-1.5c0-0.6-0.1-1.2-0.5-1.6c-0.4-0.4-0.9-0.7-1.5-0.8h-2.9h-3.1
		L1269.6,779.1L1269.6,779.1z"/>
	<polygon class="st3" points="1292.2,790.5 1292.2,782.2 1285,770.8 1289.7,770.8 1294.3,778.6 1298.8,770.8 1303.5,770.8 
		1296.2,782.2 1296.2,790.5 	"/>
	<path class="st3" d="M1129.7,1445.6l3.9-0.4c0.1,1.1,0.6,2.1,1.4,2.9c0.8,0.6,1.8,1,2.9,0.9c1,0.1,2.1-0.2,2.9-0.8
		c0.6-0.4,1-1.1,1-1.9c0-0.4-0.2-0.9-0.4-1.2c-0.4-0.4-0.9-0.7-1.4-0.9l-3.2-0.9c-1.6-0.3-3.2-1-4.5-2c-1.2-1-1.8-2.4-1.8-3.9
		c0-1,0.3-2,0.9-2.8c0.6-0.9,1.5-1.6,2.5-2c1.3-0.5,2.6-0.7,3.9-0.7c2-0.2,4,0.4,5.6,1.6c1.3,1.1,2,2.7,2,4.3h-3.9
		c-0.1-0.8-0.5-1.6-1.1-2.2c-0.7-0.5-1.6-0.7-2.5-0.7c-1-0.1-1.9,0.2-2.7,0.7c-0.4,0.3-0.6,0.7-0.6,1.2s0.2,0.9,0.6,1.2
		c1.1,0.7,2.4,1.1,3.7,1.3c1.5,0.3,2.9,0.8,4.3,1.4c0.9,0.5,1.6,1.2,2.2,2c1.2,2,1.2,4.4,0,6.3c-0.6,1-1.6,1.8-2.7,2.2
		c-1.4,0.5-2.8,0.8-4.3,0.7c-2.1,0.1-4.1-0.5-5.8-1.7c-1.4-1.3-2.3-3.1-2.4-5"/>
	<polygon class="st3" points="1150.5,1452 1150.5,1432.3 1165.2,1432.3 1165.2,1435.6 1154.5,1435.6 1154.5,1439.9 1164.4,1439.9 
		1164.4,1443.3 1154.5,1443.3 1154.5,1448.7 1165.6,1448.7 1165.6,1452 	"/>
	<polygon class="st3" points="1174.8,1452 1174.8,1435.6 1168.9,1435.6 1168.9,1432.3 1184.6,1432.3 1184.6,1435.6 1178.8,1435.6 
		1178.8,1452 	"/>
	<path class="st3" d="M1197.6,1432.3h3.9v10.7c-0.1,1.1-0.1,2.2,0,3.3c0.2,0.8,0.6,1.5,1.2,1.9c0.8,0.5,1.7,0.8,2.6,0.7
		c0.9,0.1,1.8-0.2,2.6-0.7c0.5-0.4,0.9-1,1-1.7c0.1-1.1,0.1-2.2,0-3.4v-10.9h3.9v10.4c0.1,1.7-0.1,3.4-0.3,5
		c-0.2,0.9-0.6,1.8-1.2,2.5s-1.4,1.3-2.3,1.6c-1.3,0.5-2.6,0.7-3.9,0.6c-1.5,0.1-2.9-0.2-4.3-0.7c-0.9-0.4-1.7-1-2.3-1.7
		c-0.5-0.6-0.9-1.4-1.1-2.2c-0.3-1.7-0.4-3.3-0.4-5L1197.6,1432.3z"/>
	<path class="st3" d="M1219,1452v-19.7h6.4c1.6-0.1,3.2,0,4.7,0.3c1.1,0.3,2.1,1,2.8,1.9c0.8,1.1,1.2,2.5,1.1,3.9
		c0,1.1-0.2,2.1-0.7,3.1c-0.4,0.8-1,1.4-1.7,1.9c-0.6,0.4-1.3,0.8-2.1,0.9c-1.3,0.2-2.6,0.3-3.9,0.3h-2.6v7.5L1219,1452z
		 M1223,1435.6v5.6h2.2c1.1,0.1,2.1,0,3.2-0.3c0.5-0.2,1-0.5,1.3-1s0.5-1,0.5-1.5c0-0.7-0.2-1.3-0.6-1.8s-1-0.8-1.6-0.9
		c-1-0.1-1.9-0.1-2.9,0L1223,1435.6z"/>
	<path class="st3" d="M1190.6,376.9h3.9v10.7c-0.1,1.1-0.1,2.2,0,3.3c0.2,0.8,0.6,1.5,1.2,1.9c0.8,0.5,1.7,0.8,2.6,0.7
		c0.9,0.1,1.8-0.2,2.6-0.7c0.5-0.4,0.9-1,1-1.7c0.1-1.1,0.1-2.2,0-3.4v-11h3.9v10.4c0.1,1.7-0.1,3.4-0.3,5c-0.2,0.9-0.6,1.8-1.2,2.5
		s-1.4,1.3-2.3,1.6c-1.3,0.5-2.6,0.7-3.9,0.6c-1.5,0.1-2.9-0.2-4.3-0.7c-0.9-0.4-1.7-1-2.3-1.7c-0.5-0.6-0.9-1.4-1.1-2.2
		c-0.3-1.7-0.4-3.3-0.4-5L1190.6,376.9z"/>
	<path class="st3" d="M1211,390.3l3.9-0.4c0.1,1.1,0.6,2.1,1.4,2.9c0.8,0.6,1.8,1,2.9,0.9c1,0.1,2.1-0.2,2.9-0.8
		c0.6-0.4,1-1.1,1-1.9c0-0.4-0.2-0.9-0.4-1.2c-0.4-0.4-0.9-0.7-1.4-0.9l-3.2-0.9c-1.6-0.3-3.2-1-4.5-2c-2-1.7-2.4-4.6-0.9-6.8
		c0.6-0.9,1.5-1.6,2.5-2c1.3-0.5,2.6-0.7,3.9-0.7c2-0.2,4,0.4,5.6,1.6c1.3,1.1,2,2.7,2,4.3h-3.9c-0.1-0.8-0.5-1.6-1.1-2.2
		c-0.7-0.5-1.6-0.7-2.5-0.7c-1-0.1-1.9,0.2-2.7,0.7c-0.4,0.3-0.6,0.7-0.6,1.2s0.2,0.9,0.6,1.2c1.1,0.7,2.4,1.1,3.7,1.3
		c1.5,0.3,2.9,0.8,4.3,1.4c0.9,0.5,1.6,1.2,2.2,2c1.2,2,1.2,4.4,0,6.3c-0.6,1-1.6,1.8-2.7,2.2c-1.4,0.5-2.8,0.8-4.3,0.7
		c-2.1,0.1-4.1-0.5-5.8-1.7c-1.4-1.3-2.3-3.1-2.4-5"/>
	<polygon class="st3" points="1231.8,396.7 1231.8,376.9 1246.5,376.9 1246.5,380.3 1235.8,380.3 1235.8,384.7 1245.7,384.7 
		1245.7,388 1235.8,388 1235.8,393.4 1246.8,393.4 1246.8,396.7 	"/>
	<path class="st3" d="M1251.6,396.7V377h8.4c1.6-0.1,3.1,0.1,4.6,0.6c1,0.4,1.8,1,2.3,1.9c0.6,0.9,0.9,2,0.9,3.1
		c0.1,1.3-0.4,2.7-1.3,3.7c-1.1,1.1-2.5,1.7-3.9,1.8c0.8,0.4,1.5,1,2.1,1.7c0.9,1,1.6,2.1,2.3,3.2l2.4,3.9h-4.8l-2.9-4.3
		c-0.6-1-1.3-2-2.1-2.9c-0.3-0.4-0.7-0.6-1.2-0.8c-0.7-0.2-1.3-0.3-2-0.2h-0.8v8.2L1251.6,396.7z M1255.6,385.3h3
		c1.2,0.1,2.4,0,3.6-0.2c0.4-0.1,0.8-0.4,1.1-0.8c0.3-0.4,0.4-1,0.4-1.5c0-0.6-0.1-1.2-0.5-1.6s-0.9-0.7-1.5-0.8h-2.9h-3.1
		L1255.6,385.3L1255.6,385.3z"/>
	<path class="st4" d="M1246.2,509c25.9-0.8,46.3-22.4,45.6-48.3c-0.7-24.9-20.7-44.9-45.6-45.6h-39.1c-25.9,0.8-46.3,22.4-45.6,48.3
		c0.7,24.9,20.7,44.9,45.6,45.6H1246.2z"/>
	<path class="st5" d="M690.9,1339.8c2.2,0,4.4,0.9,6,2.5l0.2,0.2l3.9,3.9l3.9-3.7c3.7-2.9,9-2.3,12,1.3c2.5,3.2,2.5,7.7-0.1,10.8
		l-15.8,15.8l-16.4-16.3c-3.3-3.3-3.3-8.7,0.1-12c1.6-1.6,3.7-2.5,6-2.5 M690.7,1334.4c-7.8,0-14,6.3-14,14.1c0,3.7,1.5,7.3,4.1,9.9
		l19.7,20.3l19.7-19.7c5.5-5.4,5.6-14.3,0.2-19.9c-5.4-5.5-14.3-5.6-19.9-0.2l-0.2-0.2c-2.6-2.6-6.2-4-9.9-3.9"/>
	<path class="st3" d="M997.6,471.1c0-1.5-0.6-3-1.8-3.9c-1.9-1.4-4.1-2.4-6.3-3.1c-5-1.4-9.8-3.5-14.1-6.4c-3-2.4-4.8-6-4.6-9.9
		c-0.1-4.2,2-8.2,5.6-10.4c4.1-2.7,8.9-4.1,13.8-3.9c4.9-0.2,9.7,1.3,13.6,4.3c3.4,2.6,5.4,6.7,5.2,11v0.2h-11.3
		c0.1-1.9-0.7-3.6-2.1-4.9c-1.6-1.3-3.6-2-5.6-1.9c-2-0.1-3.9,0.4-5.5,1.5c-1.3,0.9-2,2.4-2,3.9s0.7,2.8,2,3.5
		c2.4,1.4,4.9,2.5,7.6,3.3c4.7,1.2,9,3.3,12.9,6.3c2.9,2.6,4.5,6.3,4.3,10.2c0.2,4.1-1.8,8-5.2,10.4c-4,2.7-8.8,4-13.6,3.7
		c-5.3,0.1-10.5-1.4-14.9-4.4c-4.1-2.7-6.4-7.4-6.1-12.3v-0.2h11.3c-0.2,2.3,0.6,4.6,2.3,6.2c2.1,1.4,4.6,2,7.1,1.9
		c1.9,0.1,3.8-0.4,5.4-1.5c1.2-0.9,1.9-2.4,1.8-3.9"/>
	<polygon class="st3" points="1034,456.2 1034.2,456.2 1044.2,434.3 1056.8,434.3 1039.7,466.8 1039.7,484.4 1028.2,484.4 
		1028.2,466.2 1011.5,434.3 1024,434.3 	"/>
	<path class="st3" d="M1086.8,471.1c0-1.5-0.6-3-1.8-3.9c-1.9-1.4-4.1-2.4-6.3-3.1c-5-1.4-9.8-3.5-14.1-6.4c-3-2.4-4.8-6-4.6-9.9
		c-0.1-4.1,2-8,5.4-10.2c4.1-2.7,8.9-4.1,13.8-3.9c4.9-0.2,9.7,1.3,13.6,4.3c3.4,2.6,5.4,6.7,5.2,11v0.2h-11.4
		c0.1-1.9-0.7-3.6-2.1-4.9c-1.6-1.3-3.6-2-5.6-1.9c-2-0.1-3.9,0.4-5.5,1.5c-1.3,0.9-2,2.4-2,3.9s0.7,2.8,2,3.5
		c2.4,1.4,4.9,2.5,7.6,3.3c4.7,1.2,9,3.3,12.9,6.3c2.9,2.6,4.5,6.3,4.3,10.2c0.2,4.1-1.8,8-5.2,10.4c-4,2.7-8.8,4-13.6,3.7
		c-5.3,0-10.5-1.6-14.9-4.7c-4.1-2.7-6.4-7.4-6.1-12.3V468h11.3c-0.2,2.3,0.6,4.6,2.3,6.2c2.1,1.4,4.6,2,7.1,1.9
		c1.9,0.1,3.8-0.4,5.4-1.5c1.2-0.9,1.9-2.4,1.8-3.9"/>
	<path class="st3" d="M969.6,868.7v-51.6h18.6c5.7-0.1,11.2,2,15.2,6c4.1,4,6.3,9.5,6.1,15.2v9.1c0.2,5.7-2,11.2-6.1,15.2
		c-4.1,3.9-9.6,6.1-15.2,5.9L969.6,868.7z M981.4,826.3v33.2h5.8c2.9,0.1,5.6-1.1,7.5-3.3c1.9-2.5,2.8-5.6,2.7-8.7v-9.3
		c0.2-3.1-0.8-6.1-2.7-8.6c-1.8-2.2-4.6-3.4-7.5-3.3L981.4,826.3z"/>
	<rect x="1017.8" y="817.1" class="st3" width="11.9" height="51.6"/>
	<path class="st3" d="M1067.4,858.6h-16.1l-2.9,10h-12L1053,817h12.9l16.7,51.6h-12L1067.4,858.6z M1053.8,849.4h11l-5.6-18.5l0,0
		L1053.8,849.4z"/>
	<path class="st3" d="M739.1,1365.4v-25.2h8.2c2-0.1,4.1,0.1,6.1,0.4c1.5,0.4,2.8,1.3,3.7,2.5c1,1.4,1.5,3.2,1.5,4.9
		c0.1,1.4-0.2,2.7-0.8,3.9c-0.5,1-1.3,1.8-2.2,2.5c-0.8,0.6-1.7,1-2.6,1.2c-1.7,0.3-3.4,0.4-5.2,0.3h-3.4v9.6L739.1,1365.4z
		 M744.2,1344.3v7.2h2.8c1.3,0.1,2.7-0.1,3.9-0.4c1.3-0.5,2.2-1.8,2.2-3.2c0-0.8-0.3-1.7-0.8-2.3c-0.5-0.6-1.3-1-2.1-1.1
		c-1.2-0.1-2.5-0.1-3.7,0L744.2,1344.3z"/>
	<path class="st3" d="M764.6,1340.2h5.1v13.8c-0.1,1.4-0.1,2.8,0,4.3c0.2,1,0.7,1.9,1.6,2.5c1,0.7,2.2,1,3.4,0.9
		c1.2,0.1,2.3-0.2,3.3-0.9c0.7-0.5,1.2-1.3,1.3-2.2c0.2-1.4,0.3-2.9,0.2-4.3v-14h5.1v13.3c0.1,2.2-0.1,4.3-0.4,6.5
		c-0.2,1.2-0.8,2.3-1.5,3.2c-0.8,0.9-1.9,1.6-3,2.1c-1.6,0.6-3.2,0.8-4.9,0.8c-1.9,0.1-3.8-0.2-5.5-0.8c-1.1-0.5-2.2-1.2-3-2.2
		c-0.7-0.8-1.2-1.8-1.4-2.8c-0.4-2.1-0.6-4.3-0.5-6.4L764.6,1340.2z"/>
	<polygon class="st3" points="792.2,1365.4 792.2,1340.2 797.3,1340.2 797.3,1361.1 810,1361.1 810,1365.4 	"/>
	<polygon class="st3" points="824.5,1365.9 830.8,1339.6 834.5,1339.6 828.1,1365.9 	"/>
	<polygon class="st3" points="850.4,1365.4 850.4,1340 858.1,1340 862.7,1357.3 867.3,1340 875,1340 875,1365.4 870.2,1365.4 
		870.2,1345.4 865.2,1365.4 860.2,1365.4 855.2,1345.4 855.2,1365.4 	"/>
	<rect x="881.7" y="1340" class="st3" width="5.1" height="25.4"/>
	<polygon class="st3" points="893.6,1365.4 893.6,1340 898.6,1340 909,1357 909,1340 913.7,1340 913.7,1365.4 908.6,1365.4 
		898.4,1348.9 898.4,1365.4 	"/>
	<path class="st3" d="M587.2,139.7c0-0.5,0.4-0.9,0.9-0.9H603c8.6,0,14.5,5,14.5,12.7c0,5.1-3.1,9.6-7.9,11.4
		c5.6,1.1,9.5,6.1,9.3,11.8c0,7.9-6.3,13.3-15.5,13.3h-15.8c-0.5,0-0.9-0.4-0.9-0.9L587.2,139.7z M604,185c5.8,0.5,11-3.7,11.5-9.6
		c0-0.3,0-0.6,0-0.9c0-6.3-5.3-10-11.8-10h-13.3V185H604z M603.5,161.6c5.2,0.5,9.9-3.3,10.4-8.6c0-0.4,0.1-0.9,0-1.3
		c0-6.1-4.2-9.8-11-9.8h-12.6v19.7L603.5,161.6z"/>
	<path class="st3" d="M626.6,187.3c-0.2,0.4-0.6,0.6-1,0.6h-2c-0.5,0-0.7-0.3-0.5-0.8l21.6-48.9c0.2-0.3,0.5-0.5,0.8-0.5h0.2
		c0.4,0,0.7,0.1,0.9,0.5l21.4,48.9c0,0.4,0,0.8-0.6,0.8h-1.8c-0.4,0-0.8-0.3-1-0.6l-18.9-44l0,0L626.6,187.3z"/>
	<path class="st3" d="M675.5,139.7c0-0.5,0.4-0.9,0.9-0.9h1.5c0.5,0,0.8,0.4,0.8,0.9V185h22.4c0.8,0,0.9,0.4,0.9,0.9v1.3
		c0,0.5-0.4,0.8-0.9,0.8l0,0h-24.8c-0.5,0-0.9-0.4-0.9-0.9L675.5,139.7z"/>
	<path class="st3" d="M711.1,187.3c-0.2,0.4-0.6,0.6-1,0.6h-2c-0.5,0-0.7-0.3-0.5-0.8l21.6-48.9c0.2-0.3,0.5-0.5,0.8-0.5h0.2
		c0.4,0,0.7,0.1,0.9,0.5l21.4,48.9c0,0.4,0,0.8-0.6,0.8h-1.8c-0.4,0-0.8-0.3-1-0.6l-18.9-44l0,0L711.1,187.3z"/>
	<path class="st3" d="M760,139.1c0-0.5,0.5-0.9,1.1-0.9l0,0h1.2L796,182l0,0v-42.3c0-0.5,0.4-0.9,0.9-0.9h1.4c0.5,0,0.9,0.4,0.9,0.9
		v48.1c0,0.6-0.6,0.9-1.1,0.9h-0.9c0,0-0.6-0.2-34-44.3l0,0v42.7c0,0.5-0.4,0.9-0.9,0.9H761c-0.5,0-0.9-0.4-0.9-0.9L760,139.1z"/>
	<path class="st3" d="M834.2,138.1c6.3-0.1,12.5,2.2,17.1,6.5c0.3,0.4,0.3,0.9,0,1.3l-1.1,1.2c-0.4,0.4-0.8,0.4-1.2,0
		c-9.1-8.1-23-7.3-31.1,1.8s-7.3,23,1.8,31.1c4,3.6,9.2,5.6,14.5,5.6c5.5-0.1,10.8-2.2,14.8-5.9c0.3-0.3,0.8-0.3,1.1,0l1.2,1.2
		c0.3,0.3,0.4,0.8,0.1,1.1c0,0,0,0-0.1,0.1c-4.6,4.4-10.7,6.9-17.1,6.8c-14,0-25.3-11.3-25.3-25.3s11.3-25.3,25.3-25.3"/>
	<path class="st3" d="M860.4,139.7c0-0.5,0.4-0.9,0.9-0.9h28.3c0.4,0,0.8,0.4,0.8,0.8v1.4c0,0.4-0.4,0.8-0.8,0.8h-25.8v19.6h22.3
		c0.5,0,0.9,0.4,0.9,0.9v1.2c0,0.5-0.4,0.9-0.9,0.9h-22.3V185h25.8c0.5,0,0.9,0.4,0.9,0.9v1.1c0,0.5-0.4,0.9-0.9,0.9h-28.1
		c-0.5,0-0.9-0.4-0.9-0.9L860.4,139.7z"/>
	<path class="st5" d="M227.3,463.2h-60.5V327c0.1-7.2,6-13,13.2-12.9l0,0h47.3V463.2z"/>
	<rect x="166.8" y="481.1" class="st6" width="60.4" height="142"/>
	<rect x="166.8" y="641.1" class="st7" width="60.4" height="142.9"/>
	<path class="st8" d="M227.3,1113.1H180c-7.2,0-13.1-5.9-13.1-13.1l0,0V801.9h60.4L227.3,1113.1L227.3,1113.1z"/>
	
		<radialGradient id="SVGID_1_" cx="1237.8" cy="1063.3682" r="78.2" gradientTransform="matrix(1 0 0 1 0 -176.5682)" gradientUnits="userSpaceOnUse">
		<stop  offset="0" style="stop-color:#77777A"/>
		<stop  offset="0.51" style="stop-color:#676768"/>
		<stop  offset="1" style="stop-color:#5C5C5C"/>
	</radialGradient>
	<path class="st9" d="M1316,886.8c0-43.2-35-78.2-78.2-78.2s-78.2,35-78.2,78.2s35,78.2,78.2,78.2l0,0C1281,965,1316,930,1316,886.8
		"/>
	<path class="st10" d="M1237.8,914.6c-0.8,0-1.6-0.4-2-1.1l-24.9-40.3c-0.7-1.1-0.3-2.6,0.8-3.2c0.4-0.2,0.8-0.3,1.2-0.3h49.8
		c1.3,0,2.4,1.1,2.4,2.4c0,0.4-0.1,0.8-0.3,1.2l-24.9,40.3C1239.4,914.2,1238.6,914.6,1237.8,914.6"/>
	
		<radialGradient id="SVGID_2_" cx="1237.7999" cy="851.1682" r="78.2001" gradientTransform="matrix(1 0 0 1 0 -176.5682)" gradientUnits="userSpaceOnUse">
		<stop  offset="0" style="stop-color:#77777A"/>
		<stop  offset="0.51" style="stop-color:#676768"/>
		<stop  offset="1" style="stop-color:#5C5C5C"/>
	</radialGradient>
	<path class="st11" d="M1316,674.5c0-43.2-35.1-78.2-78.3-78.1s-78.2,35.1-78.1,78.3c0,43.2,35.1,78.1,78.2,78.1
		C1281,752.8,1316,717.7,1316,674.5"/>
	<path class="st10" d="M1262.7,694.2H1213c-1.3,0-2.4-1.1-2.4-2.4c0-0.4,0.1-0.8,0.3-1.2l24.8-40.4c0.8-1.1,2.3-1.3,3.4-0.5
		c0.2,0.1,0.4,0.3,0.5,0.5l24.9,40.3c0.7,1.1,0.3,2.6-0.8,3.2C1263.5,694,1263,694.2,1262.7,694.2"/>
	<path class="st8" d="M1293.1,462.1c0,25.9-21,47-47,47c-25.9,0-47-21-47-47c0-25.9,21-47,47-47
		C1272.1,415.2,1293.1,436.2,1293.1,462.1L1293.1,462.1"/>
	
		<radialGradient id="SVGID_3_" cx="1182" cy="1392.9182" r="169.4341" gradientTransform="matrix(1 0 0 1 0 -176.5682)" gradientUnits="userSpaceOnUse">
		<stop  offset="0" style="stop-color:#BABF10;stop-opacity:0.9"/>
		<stop  offset="0.29" style="stop-color:#BABF10;stop-opacity:0.93"/>
		<stop  offset="1" style="stop-color:#BABF10"/>
	</radialGradient>
	<path class="st12" d="M1046.1,1277.9v-123c0-75,60.8-135.9,135.9-135.9s135.9,60.8,135.9,135.9v122.9c0,75-60.8,135.9-135.9,135.9
		S1046.1,1352.9,1046.1,1277.9"/>
	<path class="st8" d="M1181.9,1023.1c72.8,0.1,131.8,59,132,131.8v122.9c0,72.9-59.1,131.9-131.9,131.9s-131.9-59.1-131.9-131.9l0,0
		v-122.9c0.1-72.9,59.1-131.9,132-132 M1182,1019c-75.1,0-135.9,60.8-135.9,135.9v122.9c0,75,60.8,135.9,135.9,135.9
		s135.9-60.8,135.9-135.9v-122.9C1317.8,1079.9,1257,1019,1182,1019L1182,1019"/>
	<path class="st10" d="M1120.3,1189.5c0.1-1.2-0.4-2.4-1.4-3.2c-1.5-1.1-3.2-1.9-4.9-2.4c-3.9-1.1-7.7-2.8-11-5
		c-2.4-1.9-3.8-4.8-3.6-7.9c0-3.2,1.6-6.2,4.3-7.9c3.2-2.1,7-3.2,10.8-3c3.8-0.2,7.6,1,10.7,3.4c2.6,2.1,4.1,5.3,3.9,8.6l0,0h-8.8
		c0.1-1.5-0.5-2.9-1.6-3.9c-1.2-1-2.7-1.4-4.3-1.3c-1.5-0.1-3.1,0.3-4.3,1.2c-1,0.7-1.6,1.8-1.6,3c0,1.1,0.6,2.2,1.6,2.8
		c1.9,1.1,3.9,1.9,5.9,2.6c3.7,0.9,7.1,2.6,10.1,4.9c2.3,2,3.5,4.9,3.4,7.9c0.1,3.2-1.3,6.3-3.9,8.1c-3.2,2.1-6.9,3.1-10.7,2.9
		c-4.1,0.1-8.2-1.1-11.6-3.4c-3.2-2.1-5-5.8-4.7-9.7l0,0h8.9c-0.2,1.8,0.5,3.6,1.8,4.8c1.6,1.1,3.6,1.6,5.6,1.5
		c1.5,0.1,3-0.3,4.2-1.1c0.9-0.7,1.4-1.8,1.4-3"/>
	<polygon class="st10" points="1163.1,1167.6 1152.7,1167.6 1152.7,1199.9 1143.6,1199.9 1143.6,1167.6 1133.3,1167.6 
		1133.3,1160.6 1163.1,1160.6 	"/>
	<path class="st10" d="M1186.1,1192.2h-12.5l-2.2,7.6h-9.2l12.7-39.4h9.8l12.7,39.4h-9.2L1186.1,1192.2z M1175.7,1185.2h8.3l-3.9-14
		l0,0L1175.7,1185.2z"/>
	<path class="st10" d="M1210.8,1184.8v15.1h-9.1v-39.4h15.3c3.9-0.2,7.7,0.9,10.8,3.2c2.6,2.1,4.1,5.3,3.9,8.6
		c0,1.9-0.5,3.7-1.6,5.2c-1.2,1.6-2.9,2.8-4.7,3.5c2.1,0.5,3.9,1.7,5.2,3.4c1.1,1.8,1.7,3.9,1.6,6v2.5c0,1.2,0.2,2.4,0.5,3.5
		c0.2,1.1,0.7,2.1,1.6,2.8v0.6h-9.3c-0.8-0.8-1.3-1.8-1.4-3c-0.2-1.3-0.3-2.6-0.4-3.9v-2.4c0.1-1.6-0.4-3.1-1.5-4.3
		c-1.2-1.1-2.7-1.6-4.3-1.5L1210.8,1184.8z M1210.8,1177.8h6.2c1.5,0.1,3-0.3,4.2-1.3c1-0.9,1.5-2.2,1.5-3.6
		c0.1-1.5-0.5-2.9-1.5-3.9c-1.2-1-2.7-1.6-4.2-1.5h-6L1210.8,1177.8z"/>
	<polygon class="st10" points="1265.6,1167.6 1255.2,1167.6 1255.2,1199.9 1246.1,1199.9 1246.1,1167.6 1235.8,1167.6 
		1235.8,1160.6 1265.6,1160.6 	"/>
	<path class="st10" d="M1134.7,1261.9c0.1-1.2-0.4-2.4-1.4-3.2c-1.5-1.1-3.2-1.9-4.9-2.4c-3.9-1.1-7.7-2.8-11-5
		c-2.4-1.9-3.8-4.8-3.6-7.9c0-3.2,1.6-6.2,4.3-7.9c3.2-2.1,7-3.2,10.8-3c3.8-0.2,7.6,1,10.7,3.4c2.6,2.1,4.1,5.3,3.9,8.6l0,0h-8.8
		c0.1-1.5-0.5-2.9-1.6-3.9c-1.2-1-2.8-1.6-4.4-1.5c-1.5-0.1-3.1,0.3-4.3,1.2c-1,0.7-1.6,1.8-1.6,3c0,1.1,0.6,2.2,1.6,2.8
		c1.9,1.1,3.9,1.9,5.9,2.6c3.7,0.9,7.1,2.6,10.1,4.9c2.3,2,3.5,4.9,3.4,7.9c0.1,3.2-1.3,6.3-3.9,8.1c-3.2,2.1-6.9,3.1-10.7,2.9
		c-4.1,0.1-8.2-1.1-11.6-3.4c-3.2-2.1-5-5.8-4.7-9.7l0,0h8.9c-0.2,1.8,0.5,3.6,1.8,4.8c1.6,1.1,3.6,1.6,5.6,1.5
		c1.5,0.1,3-0.3,4.2-1.1c0.9-0.7,1.4-1.8,1.4-3"/>
	<polygon class="st10" points="1176.7,1240.1 1166.3,1240.1 1166.3,1272.3 1157.2,1272.3 1157.2,1240.1 1146.9,1240.1 
		1146.9,1233.1 1176.7,1233.1 	"/>
	<path class="st10" d="M1212.7,1256.2c0.1,4.4-1.5,8.7-4.6,11.8c-3.1,3.1-7.4,4.8-11.8,4.7c-8.8,0.4-16.3-6.4-16.8-15.2
		c0-0.5,0-1,0-1.5v-7.1c-0.1-4.4,1.5-8.7,4.6-11.8c6.8-6.3,17.3-6.3,24.1,0c3.1,3.2,4.8,7.4,4.7,11.8L1212.7,1256.2z M1203.6,1249.1
		c0.1-2.5-0.6-4.9-2-6.9c-2.5-3.1-7-3.6-10.1-1.1c-0.4,0.3-0.8,0.7-1.1,1.1c-1.4,2-2.1,4.4-2,6.9v7.1c-0.1,2.5,0.6,4.9,2,7
		c1.3,1.8,3.5,2.8,5.7,2.7c2.2,0.1,4.3-0.9,5.6-2.7c1.4-2.1,2.1-4.5,2-7L1203.6,1249.1L1203.6,1249.1z"/>
	<path class="st10" d="M1227.6,1258.9v13.4h-9.1v-39.4h15.8c4-0.2,8,1.1,11.1,3.6c5.2,4.7,5.5,12.8,0.7,17.9
		c-0.2,0.3-0.5,0.5-0.7,0.7c-3.1,2.5-7.1,3.8-11.1,3.5L1227.6,1258.9z M1227.6,1251.8h6.8c1.7,0.1,3.3-0.5,4.5-1.6
		c1.1-1.1,1.6-2.7,1.5-4.2c0.1-1.6-0.5-3.1-1.5-4.3c-1.2-1.2-2.9-1.8-4.5-1.7h-6.8V1251.8z"/>
	<line class="st13" x1="1106.5" y1="1216.4" x2="1254.7" y2="1216.4"/>
	<path class="st3" d="M1210.7,276.9v-33.5c0-0.4-0.4-0.8-0.8-0.7c-0.2,0-0.3,0.1-0.4,0.2l-12.5,10.9c-0.3,0.3-0.8,0.3-1.1,0
		l-4.8-5.7l17-14.8c0.3-0.3,0.4-0.8,0.1-1.1c0,0,0,0-0.1-0.1l-17-14.8l4.8-5.6c0.3-0.3,0.8-0.3,1.1,0l12.5,10.9
		c0.3,0.3,0.8,0.2,1.1-0.2c0.1-0.1,0.1-0.3,0.2-0.4v-33.5c0-0.4,0.4-0.8,0.8-0.7c0.2,0,0.3,0.1,0.4,0.2l29.5,25.7
		c0.3,0.3,0.4,0.7,0.1,1.1l-0.1,0.1l-19.7,17.3c-0.3,0.3-0.4,0.7-0.1,1.1l0.1,0.1l19.7,17.3c0.3,0.3,0.4,0.7,0.1,1.1l-0.1,0.1
		l-29.5,25.7c-0.3,0.3-0.8,0.2-1.1-0.2C1210.7,277.2,1210.7,277,1210.7,276.9 M1218.8,243.4v15.5c0,0.4,0.4,0.8,0.8,0.7
		c0.2,0,0.3-0.1,0.4-0.2l8.9-7.9c0.3-0.3,0.3-0.8,0-1.1l0,0l-8.9-7.9c-0.3-0.3-0.8-0.2-1.1,0.2c-0.1,0.1-0.1,0.3-0.2,0.4
		 M1218.8,206.4v15.5c0,0.4,0.4,0.8,0.8,0.7c0.2,0,0.3-0.1,0.4-0.2l8.9-7.9c0.3-0.3,0.3-0.8,0-1.1l0,0l-8.9-7.9
		c-0.3-0.3-0.8-0.2-1.1,0.2c-0.1,0.1-0.1,0.3-0.2,0.4"/>
	<polygon class="st3" points="1235,188.1 1235,188.9 1231.9,188.9 1231.9,197.1 1231,197.1 1231,188.9 1227.9,188.9 1227.9,188.1 	
		"/>
	<polygon class="st3" points="1237.1,188.1 1240.1,196 1243.2,188.1 1244.4,188.1 1244.4,197.1 1243.6,197.1 1243.6,189.4 
		1243.5,189.4 1240.5,197.1 1239.7,197.1 1236.7,189.4 1236.7,189.4 1236.7,197.1 1235.8,197.1 1235.8,188.1 	"/>
	<path class="st8" d="M1171.3,472.8l10.2-22.1c0.1-0.2,0.3-0.3,0.6-0.4h0.3c0.2,0,0.4,0.2,0.6,0.4l10.1,22.2c0.2,0.3,0,0.6-0.2,0.8
		c-0.1,0-0.2,0.1-0.3,0.1h-2.1c-0.3,0-0.6-0.2-0.7-0.5l-2.1-4.5h-10.8c-0.7,1.5-1.3,3-2,4.5c-0.1,0.3-0.4,0.5-0.7,0.5h-2.1
		c-0.3,0-0.6-0.2-0.6-0.6c0-0.1,0-0.2,0.1-0.3 M1186.2,466l-3.9-9l0,0l-3.9,9H1186.2z"/>
	<path class="st3" d="M989.6,520.8V511c0.2-1.7-0.9-3.3-2.6-3.5c-0.2,0-0.4,0-0.6,0c-1.7-0.1-3.2,1.2-3.3,3c0,0.1,0,0.3,0,0.4v9.9
		h-3.2V511c0.2-1.7-0.9-3.3-2.6-3.5c-0.2,0-0.4,0-0.6,0c-1.8-0.1-3.3,1.3-3.3,3.1c0,0.2,0,0.3,0,0.5v9.7H970v-16h3.2v1.6
		c1.1-1.2,2.6-1.8,4.3-1.8c1.8-0.1,3.5,0.8,4.5,2.3c1.2-1.5,3.1-2.4,5-2.3c1.5,0,2.9,0.5,3.9,1.5c1.2,1.2,1.8,2.8,1.7,4.5v10.2
		H989.6z"/>
	<path class="st3" d="M1017.2,520.8V511c0-2.5-1.4-3.5-3.2-3.5c-1.7-0.1-3.2,1.2-3.3,3c0,0.1,0,0.3,0,0.4v9.9h-3.2V511
		c0-2.5-1.4-3.5-3.2-3.5c-1.8-0.1-3.3,1.3-3.3,3.1c0,0.2,0,0.3,0,0.5v9.7h-3.2v-16h3.2v1.6c1.1-1.2,2.6-1.8,4.3-1.8
		c1.8-0.1,3.5,0.8,4.5,2.3c1.2-1.5,3.1-2.4,5-2.3c1.5,0,2.9,0.5,3.9,1.5c1.2,1.2,1.8,2.8,1.7,4.5v10.2H1017.2z"/>
	<polygon class="st3" points="1038.3,520.8 1038.3,511 1029.2,511 1029.2,520.8 1025.8,520.8 1025.8,498.3 1029.2,498.3 
		1029.2,507.9 1038.3,507.9 1038.3,498.3 1041.7,498.3 1041.7,520.8 	"/>
	<path class="st3" d="M1052.6,527.4c-2.1,0.1-4.1-0.6-5.6-2.1l2.1-2.1c0.9,1,2.2,1.5,3.5,1.4c2,0.2,3.7-1.2,3.9-3.2
		c0-0.2,0-0.5,0-0.7v-2.1c-1,1.2-2.4,1.9-3.9,1.8c-1.5,0.1-2.9-0.4-3.9-1.4c-2.4-4-2.4-9,0-13c1.1-1,2.5-1.5,3.9-1.4
		c1.6-0.1,3.2,0.6,4.2,1.9v-1.7h3.1v15.8c0.2,3.5-2.5,6.6-6.1,6.7c-0.3,0-0.5,0-0.8,0 M1053.3,507.5c-2.9,0-3.3,2.5-3.3,5
		s0.4,5,3.3,5s3.2-2.5,3.2-5S1056.2,507.5,1053.3,507.5"/>
	<path class="st3" d="M989.6,905.3v-9.7c0.2-1.7-0.9-3.3-2.6-3.5c-0.2,0-0.4,0-0.6,0c-1.7-0.1-3.2,1.2-3.3,3c0,0.1,0,0.3,0,0.4v9.9
		h-3.2v-9.7c0.2-1.7-0.9-3.3-2.6-3.5c-0.2,0-0.4,0-0.6,0c-1.8-0.1-3.3,1.3-3.3,3.1c0,0.2,0,0.3,0,0.5v9.7H970v-16h3.2v1.6
		c1.1-1.2,2.6-1.8,4.3-1.8c1.8-0.1,3.5,0.8,4.5,2.3c1.2-1.5,3.1-2.4,5-2.3c1.5,0,2.9,0.5,3.9,1.5c1.2,1.2,1.8,2.8,1.7,4.5v10.2
		L989.6,905.3z"/>
	<path class="st3" d="M1017.2,905.3v-9.7c0-2.5-1.4-3.5-3.2-3.5c-1.7-0.1-3.2,1.2-3.3,3c0,0.1,0,0.3,0,0.4v9.9h-3.2v-9.7
		c0-2.5-1.4-3.5-3.2-3.5c-1.8-0.1-3.3,1.3-3.3,3.1c0,0.2,0,0.3,0,0.5v9.7h-3.2v-16h3.2v1.6c1.1-1.2,2.6-1.8,4.3-1.8
		c1.8-0.1,3.5,0.8,4.5,2.3c1.2-1.5,3.1-2.4,5-2.3c1.5,0,2.9,0.5,3.9,1.5c1.2,1.2,1.8,2.8,1.7,4.5v10.2L1017.2,905.3z"/>
	<polygon class="st3" points="1038.3,905.3 1038.3,895.6 1029.2,895.6 1029.2,905.3 1025.8,905.3 1025.8,882.9 1029.2,882.9 
		1029.2,892.5 1038.3,892.5 1038.3,882.9 1041.7,882.9 1041.7,905.3 	"/>
	<path class="st3" d="M1052.6,912c-2.1,0.1-4.1-0.6-5.6-2.1l2.1-2.1c0.9,1,2.2,1.5,3.5,1.4c2,0.2,3.7-1.2,3.9-3.2c0-0.2,0-0.5,0-0.7
		v-2.1c-1,1.2-2.4,1.9-3.9,1.8c-1.5,0.1-2.9-0.4-3.9-1.4c-2.4-4-2.4-9,0-13c1.1-1,2.5-1.5,3.9-1.4c1.6-0.1,3.2,0.6,4.2,1.9v-1.7h3.1
		v15.8c0.2,3.5-2.5,6.6-6.1,6.7c-0.3,0-0.5,0-0.8,0 M1053.3,892c-2.9,0-3.3,2.5-3.3,5s0.4,5,3.3,5s3.2-2.5,3.2-5
		S1056.2,892,1053.3,892"/>
	<path class="st14" d="M299.3,277.7c-18.6,0-33.8,15-33.8,33.7l0,0v971.9c0,18.6,15.1,33.7,33.8,33.7l0,0h614
		c18.6,0,33.8-15.1,33.8-33.7l0,0V311.4c0-18.6-15.1-33.7-33.8-33.7l0,0L299.3,277.7L299.3,277.7z"/>
	<path class="st10" d="M829.7,333h65.8l17.9-22.1c-4.1-4.9-10.2-7.8-16.6-7.9h-68.6c-6.4,0.1-12.4,3-16.6,7.9L829.7,333z"/>
	<path class="st10" d="M803.9,585.9c-0.1,7.3,2.3,14.5,6.6,20.4l18-22.1V476.8l-11-15.8l-13.6,19.7V585.9z"/>
	<path class="st10" d="M828.4,334.6l-18-22.1c-4.3,5.9-6.7,13.1-6.6,20.4v105.9l13.6,19l11-16.1V334.6z"/>
	<path class="st10" d="M921.5,585.9c0.1,7.4-2.3,14.5-6.7,20.4l-18.1-22.1V476.8l11-15.5l13.7,19.7L921.5,585.9L921.5,585.9z"/>
	<path class="st10" d="M896.8,334.6l18.1-22.1c4.4,5.9,6.7,13,6.6,20.4v105.9l-13.6,19l-11-16.1L896.8,334.6z"/>
	<path class="st10" d="M895.5,585.7h-65.8l-18,22.1c4.1,4.9,10.1,7.8,16.5,7.9h68.7c6.4-0.1,12.4-3,16.6-7.9L895.5,585.7z"/>
	<polygon class="st10" points="683.2,474.4 749.8,474.4 760.4,459.3 750.1,444.2 682.9,444.2 672.5,459.4 	"/>
	<path class="st10" d="M683.6,333h65.8l18.1-22.1c-4.1-4.9-10.2-7.8-16.6-7.9h-68.8c-6.4,0.1-12.4,3-16.6,7.9L683.6,333z"/>
	<path class="st10" d="M657.7,585.9c-0.1,7.3,2.3,14.5,6.6,20.4l18-22.1V476.8l-11-15.8l-13.6,19.7V585.9z"/>
	<path class="st10" d="M750.7,334.6l18.1-22.1c4.4,5.9,6.7,13,6.6,20.4v105.9l-13.6,19l-11-16.1L750.7,334.6z"/>
	<path class="st10" d="M749.4,585.7h-65.8l-18,22.1c4.1,4.9,10.1,7.8,16.5,7.9h68.7c6.4-0.1,12.4-3,16.6-7.9L749.4,585.7z"/>
	<path class="st10" d="M629.2,585.9c0.1,7.4-2.3,14.5-6.7,20.4l-18.1-22.1V476.8l11-15.5l13.7,19.7L629.2,585.9L629.2,585.9z"/>
	<path class="st10" d="M604.6,334.6l18.1-22.1c4.4,5.9,6.7,13,6.6,20.4v105.9l-13.6,19l-11-16.1L604.6,334.6z"/>
	<polygon class="st10" points="829.3,857.9 895.9,857.9 906.5,842.9 896.2,827.8 829,827.8 818.6,843 	"/>
	<path class="st10" d="M829.7,716.6h65.8l18-22.1c-4.1-4.9-10.2-7.8-16.6-7.9h-68.7c-6.4,0.1-12.4,3-16.6,7.9L829.7,716.6z"/>
	<path class="st10" d="M803.9,969.6c-0.1,7.3,2.3,14.5,6.6,20.4l18-22.1V860.3l-11-15.5l-13.6,19.7V969.6z"/>
	<path class="st10" d="M828.4,718.1l-18-22.1c-4.3,5.9-6.7,13.1-6.6,20.4v105.9l13.6,19l11-16.1V718.1z"/>
	<path class="st10" d="M921.5,969.6c0.1,7.4-2.3,14.5-6.7,20.4l-18.1-22.1V860.3l11-15.5l13.7,19.7L921.5,969.6L921.5,969.6z"/>
	<path class="st10" d="M895.5,969.2h-65.8l-18,22.1c4.1,4.9,10.1,7.8,16.5,7.9h68.7c6.4-0.1,12.4-3,16.6-7.9L895.5,969.2z"/>
	<path class="st10" d="M683.6,716.6h65.8l18-22.1c-4.1-4.9-10.2-7.8-16.6-7.9h-68.7c-6.4,0.1-12.4,3-16.6,7.9L683.6,716.6z"/>
	<path class="st10" d="M775.4,969.6c0.1,7.4-2.3,14.5-6.7,20.4l-18.1-22.1V860.3l11-15.5l13.7,19.7L775.4,969.6L775.4,969.6z"/>
	<path class="st10" d="M750.7,718.1l18.1-22.1c4.4,5.9,6.7,13,6.6,20.4v105.9l-13.6,19l-11-16.1L750.7,718.1z"/>
	<path class="st10" d="M370.6,998.6v-33.5c0-0.4-0.4-0.8-0.8-0.7c-0.2,0-0.3,0.1-0.4,0.2l-12.5,10.9c-0.3,0.3-0.8,0.3-1.1,0
		l-4.8-5.6l17-14.8c0.3-0.3,0.4-0.8,0.1-1.1c0,0,0,0-0.1-0.1l-17-14.8l4.8-5.6c0.3-0.3,0.8-0.3,1.1,0l12.5,10.8
		c0.3,0.3,0.8,0.2,1.1-0.2c0.1-0.1,0.1-0.3,0.2-0.4v-33.4c0-0.4,0.4-0.8,0.8-0.7c0.2,0,0.3,0.1,0.4,0.2l29.5,25.7
		c0.3,0.3,0.4,0.7,0.1,1.1l-0.1,0.1L381.6,954c-0.3,0.3-0.4,0.7-0.1,1.1l0.1,0.1l19.7,17.3c0.3,0.3,0.4,0.7,0.1,1.1l-0.1,0.1
		l-29.5,25.7c-0.3,0.3-0.8,0.2-1.1-0.2C370.6,999,370.5,998.9,370.6,998.6 M378.7,965.3v15.5c0,0.4,0.4,0.8,0.8,0.7
		c0.2,0,0.3-0.1,0.4-0.2l9-7.8c0.3-0.3,0.3-0.8,0-1.1l0,0l-8.9-7.9c-0.3-0.3-0.8-0.2-1.1,0.2c-0.1,0.1-0.1,0.3-0.2,0.4 M378.8,928.2
		v15.5c0,0.4,0.4,0.8,0.8,0.7c0.2,0,0.3-0.1,0.4-0.2l8.9-7.9c0.3-0.3,0.4-0.8,0.1-1.1c0,0,0,0-0.1-0.1l-8.9-7.9
		c-0.3-0.3-0.8-0.2-1.1,0.2c-0.1,0.1-0.1,0.3-0.2,0.4"/>
	<polygon class="st10" points="846.7,1176.3 901.1,1176.3 909.7,1164.1 901.3,1151.7 846.4,1151.7 838,1164.1 	"/>
	<path class="st10" d="M846,1062.2l-14.7-18.1c-3.6,4.8-5.4,10.7-5.4,16.7v86.2l11.1,15.5l9-13.2L846,1062.2L846,1062.2z"/>
	<path class="st10" d="M922,1267.4c0.1,6-1.8,11.9-5.4,16.7l-14.7-18.1v-87.8l9-12.7l11.2,16.2L922,1267.4L922,1267.4z"/>
	<path class="st10" d="M901.8,1062.2l14.7-18.1c3.6,4.8,5.5,10.7,5.4,16.7v86.2l-11.1,15.8l-9-13.2L901.8,1062.2L901.8,1062.2z"/>
	<polygon class="st10" points="733.4,1176.3 787.7,1176.3 796.3,1164.1 787.9,1151.7 733.1,1151.7 724.7,1164.1 	"/>
	<path class="st10" d="M733.6,1060.9h53.5l14.7-18.1c-3.3-4.1-8.3-6.5-13.5-6.6h-55.9c-5.3,0.1-10.2,2.5-13.5,6.6L733.6,1060.9z"/>
	<path class="st10" d="M712.6,1267.4c-0.1,6,1.8,11.9,5.4,16.7l14.7-18.1v-87.8l-8.9-12.7l-11.1,16.2L712.6,1267.4z"/>
	<path class="st10" d="M732.6,1062.2l-14.7-18.1c-3.6,4.8-5.4,10.7-5.4,16.7v86.2l11.1,15.5l9-13.2L732.6,1062.2L732.6,1062.2z"/>
	<path class="st10" d="M808.6,1267.4c0.1,6-1.8,11.9-5.4,16.7l-14.7-18.1v-87.8l9-12.7l11.2,16.2L808.6,1267.4L808.6,1267.4z"/>
	<path class="st10" d="M787.4,1267.2h-53.7l-14.7,18.1c3.3,4,8.3,6.4,13.5,6.5h56.1c5.3-0.1,10.2-2.5,13.5-6.6L787.4,1267.2z"/>
	<polygon class="st10" points="282.3,1032 297.4,961 312.3,961 312.3,1102.9 297.4,1102.9 	"/>
	<polygon class="st10" points="431.3,1219.3 465.5,1219.3 470.9,1211.6 465.6,1203.8 431.1,1203.8 425.8,1211.6 	"/>
	<path class="st10" d="M431.5,1146.7h33.8l9.3-11.4c-2.1-2.5-5.2-3.9-8.5-3.9h-35.3c-3.3,0-6.4,1.5-8.5,3.9L431.5,1146.7z"/>
	<path class="st10" d="M418.2,1276.6c0,3.8,1.2,7.5,3.4,10.5l9.2-11.4v-55.2l-5.6-7.9l-7,10.2V1276.6z"/>
	<path class="st10" d="M430.8,1147.5l-9.3-11.4c-2.2,3-3.4,6.7-3.4,10.5v54.4l7,9.7l5.6-8.3L430.8,1147.5z"/>
	<path class="st10" d="M478.6,1276.6c0,3.8-1.2,7.5-3.4,10.5l-9.3-11.4v-55.2l5.7-7.9l7,10.2L478.6,1276.6L478.6,1276.6z"/>
	<path class="st10" d="M465.9,1147.5l9.3-11.4c2.2,3,3.4,6.7,3.4,10.5v54.4l-6.9,9.7l-5.7-8.3L465.9,1147.5z"/>
	<path class="st10" d="M465.3,1276.5h-33.8l-9.2,11.4c2.1,2.5,5.2,3.9,8.5,3.9H466c3.3,0,6.4-1.5,8.5-3.9L465.3,1276.5z"/>
	<path class="st10" d="M517.8,1146.7h33.8l9.3-11.4c-2.1-2.5-5.2-3.9-8.5-3.9H517c-3.3,0-6.4,1.5-8.5,3.9L517.8,1146.7z"/>
	<path class="st10" d="M504.5,1276.6c0,3.8,1.2,7.5,3.4,10.5l9.2-11.4v-55.2l-5.6-7.9l-7,10.2L504.5,1276.6L504.5,1276.6z"/>
	<path class="st10" d="M517.2,1147.5l-9.3-11.4c-2.2,3-3.4,6.7-3.4,10.5v54.4l7,9.7l5.6-8.3L517.2,1147.5z"/>
	<path class="st10" d="M564.9,1276.6c0,3.8-1.2,7.5-3.4,10.5l-9.3-11.4v-55.2l5.7-7.9l7,10.2V1276.6z"/>
	<path class="st10" d="M552.3,1147.5l9.3-11.4c2.2,3,3.4,6.7,3.4,10.5v54.4l-7,9.7l-5.7-8.3V1147.5z"/>
	<path class="st10" d="M551.6,1276.5h-33.8l-9.2,11.4c2.1,2.5,5.2,3.9,8.5,3.9h35.3c3.3,0,6.4-1.5,8.5-3.9L551.6,1276.5z"/>
	<path class="st10" d="M586.1,1146.7h33.8l9.3-11.4c-2.1-2.5-5.2-3.9-8.5-3.9h-35.3c-3.3,0-6.4,1.5-8.5,3.9L586.1,1146.7z"/>
	<path class="st10" d="M572.7,1276.6c0,3.8,1.2,7.5,3.4,10.5l9.2-11.4v-55.2l-5.6-7.9l-7,10.2L572.7,1276.6L572.7,1276.6z"/>
	<path class="st10" d="M585.3,1147.5l-9.3-11.4c-2.2,3-3.4,6.7-3.4,10.5v54.4l7,9.7l5.6-8.3L585.3,1147.5z"/>
	<path class="st10" d="M633.1,1276.6c0,3.8-1.2,7.5-3.4,10.5l-9.3-11.4v-55.2l5.7-7.9l7,10.2V1276.6z"/>
	<path class="st10" d="M620.5,1147.5l9.3-11.4c2.2,3,3.4,6.7,3.4,10.5v54.4l-7,9.7l-5.7-8.3V1147.5z"/>
	<path class="st10" d="M619.8,1276.5h-33.7l-9.2,11.4c2.1,2.5,5.2,3.9,8.5,3.9h35.3c3.3,0,6.4-1.5,8.5-3.9L619.8,1276.5z"/>
	<path class="st10" d="M499.8,1190.4c0,4.5-3.7,8.2-8.2,8.2s-8.2-3.7-8.2-8.2s3.7-8.2,8.2-8.2l0,0
		C496.1,1182.2,499.8,1185.8,499.8,1190.4"/>
	<path class="st10" d="M499.8,1232.4c0,4.5-3.7,8.2-8.2,8.2s-8.2-3.7-8.2-8.2s3.7-8.2,8.2-8.2l0,0
		C496.1,1224.2,499.8,1227.8,499.8,1232.4"/>
	<path class="st10" d="M809,644.9v2.4c1.5-1.8,3.7-2.9,6.1-2.8c2.4-0.2,4.6,1.1,5.6,3.2c1.4-2.1,3.8-3.3,6.3-3.2
		c1.9-0.1,3.8,0.6,5.1,2c1.2,1.7,1.8,3.9,1.7,6V666h-5.6v-13.4c0.1-0.9-0.2-1.8-0.7-2.6c-0.7-0.6-1.6-0.9-2.5-0.8
		c-1.6-0.1-3,0.9-3.5,2.4V666H816v-13.4c0.1-0.9-0.2-1.9-0.7-2.6c-0.7-0.6-1.5-0.9-2.4-0.8c-1.4-0.1-2.8,0.7-3.5,2V666h-5.6v-21
		L809,644.9z"/>
	<path class="st10" d="M843.5,644.9v2.4c1.5-1.8,3.7-2.9,6.1-2.8c2.4-0.2,4.6,1.1,5.6,3.2c1.4-2.1,3.8-3.3,6.3-3.2
		c1.9-0.1,3.8,0.6,5.1,2c1.2,1.7,1.8,3.9,1.7,6V666h-5.6v-13.4c0.1-0.9-0.2-1.8-0.7-2.6c-0.7-0.6-1.6-0.9-2.5-0.8
		c-1.6-0.1-3,0.9-3.5,2.4V666h-5.6v-13.4c0.1-0.9-0.2-1.9-0.7-2.6c-0.7-0.6-1.5-0.9-2.4-0.8c-1.4-0.1-2.8,0.7-3.5,2V666H838v-21
		L843.5,644.9z"/>
	<polygon class="st10" points="896.2,665.9 890.3,665.9 890.3,653.8 878.9,653.8 878.9,665.9 873.1,665.9 873.1,637.6 878.9,637.6 
		878.9,649.1 890.3,649.1 890.3,637.6 896.2,637.6 	"/>
	<path class="st10" d="M900.1,655.3c-0.2-2.8,0.6-5.6,2.3-7.9c1.5-1.9,3.8-3,6.2-3c2.1-0.1,4.1,0.8,5.4,2.4l0.2-2h5.1v20.3
		c0,1.7-0.4,3.4-1.3,4.8c-0.8,1.4-2.1,2.5-3.5,3.1c-1.7,0.7-3.5,1.1-5.3,1.1c-1.6,0-3.1-0.3-4.5-0.9c-1.3-0.5-2.5-1.3-3.4-2.4
		l2.5-3.4c1.3,1.5,3.1,2.4,5.1,2.4c1.3,0.1,2.5-0.3,3.5-1.2c0.9-0.9,1.3-2.1,1.3-3.4v-1.1c-1.3,1.5-3.2,2.3-5.1,2.2
		c-2.4,0.1-4.7-1-6.2-3c-1.7-2.3-2.5-5.1-2.4-7.9L900.1,655.3z M905.7,655.6c-0.1,1.6,0.3,3.1,1.1,4.5c0.7,1,1.9,1.7,3.2,1.6
		c1.5,0.1,2.9-0.6,3.7-1.9V651c-0.8-1.3-2.2-2-3.6-1.9c-1.3,0-2.5,0.6-3.2,1.7C906,652.2,905.6,653.9,905.7,655.6"/>
	<path class="st10" d="M304,1242.1h-7.5l-1.5,4.6h-4.3l7.4-21.4h4.4l7.3,21.4h-4.3L304,1242.1z M297.5,1238.8h5.4l-2.6-8.4l0,0
		L297.5,1238.8z"/>
	<polygon class="st10" points="317.4,1225.3 322.9,1241.1 322.9,1241.1 328.5,1225.3 334.1,1225.3 334.1,1246.8 329.8,1246.8 
		329.8,1240.4 330.2,1230.9 330.1,1230.9 324.4,1246.8 321.5,1246.8 315.8,1230.9 315.7,1231 316.1,1240.4 316.1,1246.8 
		311.8,1246.8 311.8,1225.3 	"/>
	<polygon class="st10" points="381.8,359 377.8,368 386,368 382,359 	"/>
	<path class="st10" d="M390.5,336.1c-0.3-0.2-0.5-0.6-0.3-1c0.1-0.1,0.2-0.2,0.3-0.3c8.5-4.6,11.6-15.3,6.9-23.7
		s-15.3-11.6-23.7-6.9c-8.5,4.6-11.6,15.3-6.9,23.7c1.6,2.9,4,5.3,6.9,6.9c0.3,0.2,0.4,0.7,0.2,1c-0.1,0.1-0.2,0.2-0.4,0.3
		c-9.1,1.7-15.7,9.6-15.8,18.8v35.5h48.4v-35.5c0-9.3-6.7-17.2-15.8-18.8 M394.8,377.8h-3.5c-0.5,0-1-0.3-1.2-0.8l-2-4.4h-12.2
		l-2,4.4c-0.2,0.5-0.7,0.8-1.2,0.8h-3.4c-0.4,0.1-0.7-0.2-0.8-0.6c0-0.2,0-0.3,0.1-0.5l12.7-27.6c0.1-0.3,0.4-0.5,0.7-0.4h0.4
		c0.3,0,0.6,0.2,0.7,0.4l12.6,27.6c0.2,0.3,0.1,0.8-0.2,1c-0.1,0.1-0.3,0.1-0.5,0.1"/>
	<line class="st15" x1="1246.2" y1="500.9" x2="1246.2" y2="423.3"/>
	<g>
		<path class="st3" d="M937.6,143.1c1.6,0,3.1,0.5,4.3,1.6c0.1,0.1,0.3,0.1,0.5,0l1.2-1.2c0.1-0.1,0.1-0.4,0-0.5
			c-1.8-1.7-4.3-2.5-6.8-2.2c-4,0.4-7.2,3.6-7.6,7.6c-0.6,5.4,3.8,10,9.1,9.7c1.9-0.1,3.7-0.9,5.2-2.1l0,0c0.2-0.2,0.3-0.4,0.3-0.6
			v-6.3c0-0.2-0.2-0.3-0.3-0.3h-5.9c-0.2,0-0.3,0.2-0.3,0.3v1.7c0,0.2,0.2,0.3,0.3,0.3h3.4c0.2,0,0.3,0.2,0.3,0.3v2.6
			c0,0.3-0.2,0.6-0.4,0.7c-1,0.6-2,0.9-3.2,0.9c-3.5,0-6.4-3-6.2-6.6C931.7,145.8,934.4,143.2,937.6,143.1z"/>
		<path class="st3" d="M944.6,125.1l-1.7-0.5c-0.2-0.1-0.4,0.1-0.4,0.2c-1.9,5.7-9.8,7.8-15.5,9.3l-0.9,0.3c-0.1,0-0.3-0.1-0.2-0.2
			c0.5-1.8,2.2-8.6,2.7-10.2c0.1-0.2,0-0.4-0.2-0.4l-1.7-0.5c-0.2-0.1-0.4,0-0.4,0.2c0,0,0,0.1,0,0.2s-0.2,0.1-0.2,0
			c-0.3-0.5-0.8-0.9-1.2-1.2c-3.2-2.2-8.3-0.5-11.3,3.8c-3,4.3-2.9,9.7,0.3,11.9c0.3,0.2,0.6,0.4,1,0.5c0.1,0.1,0.2,0.3,0,0.3
			c-2,1.3-3.8,2.8-5.2,4.4c-1.9,2.2-3.7,6-3.3,9.5c0.2,1.9,1.1,3.5,2.5,4.5c1.1,0.8,2.4,1.2,3.7,1.2c2.1,0,4.3-0.9,5.9-2.3
			c4.3-3.4,4.9-7.5,5.6-11.4c0.1-0.3,1.3-7.1,1.3-7.1c0.1-0.3,0.3-0.5,0.5-0.6c0.6-0.2,1.3-0.4,2-0.6c6.3-1.7,15-4,17.2-11
			C944.9,125.4,944.8,125.2,944.6,125.1z M921.3,144.4c-0.6,3.8-1.1,7-4.7,9.9c-1.9,1.5-4.7,2.4-6.7,1c-0.8-0.6-1.3-1.6-1.5-2.8
			c-0.3-2.3,0.9-5.5,2.8-7.6c1.7-1.9,3.8-3.6,6.3-4.9c1.4-0.8,3-1.3,4.6-1.8c0.1,0,0.3,0.1,0.2,0.2
			C922.1,140.1,921.4,144.1,921.3,144.4z M923.1,134.9c-0.1,0.3-0.2,0.5-0.5,0.5c-0.7,0.2-2,0.6-2.1,0.7c-3.3,1.1-5,0.3-5.6-0.1
			c-2.1-1.4-1.9-5.4,0.3-8.5c2.2-3.2,5.9-4.7,7.9-3.2c1.3,0.9,1.7,2.7,1.3,4.8S923.5,133.3,923.1,134.9z"/>
	</g>
</g>
</svg>
