<svg width="370" height="90" viewBox="0 0 370 90" fill="none" xmlns="http://www.w3.org/2000/svg">
<mask id="path-1-inside-1_8315_297161" fill="white">
<path d="M0 0H370V90H0V0Z"/>
</mask>
<path d="M0 0H370V90H0V0Z" fill="white"/>
<path d="M0 0V0.5H370V0V-0.5H0V0Z" fill="#D0CCCA" mask="url(#path-1-inside-1_8315_297161)"/>
<path d="M55.0008 20H65.0003C66.8884 20.0316 68.6862 20.7867 69.9986 22.0993C71.311 23.4119 72.0305 25.1747 71.999 27V37C72.0305 38.8255 71.3109 40.5884 69.9983 41.9011C68.6856 43.2137 66.8875 43.9687 64.9992 44H55.0008C53.1125 43.9687 51.3144 43.2137 50.0017 41.9011C48.6891 40.5884 47.9695 38.8255 48.001 37V27C47.9695 25.1745 48.6891 23.4116 50.0017 22.0989C51.3144 20.7863 53.1125 20.0313 55.0008 20Z" stroke="#2C2827" stroke-width="2"/>
<path d="M66 38C66 38 66 32 59.9999 32C53.9999 32 54 27.5 54 26" stroke="#2C2827" stroke-width="2" stroke-linecap="round" stroke-linejoin="round"/>
<path d="M66 36.5C66.8284 36.5 67.5 37.1716 67.5 38C67.5 38.8284 66.8284 39.5 66 39.5C65.1716 39.5 64.5 38.8284 64.5 38C64.5 37.1716 65.1716 36.5 66 36.5Z" fill="#2C2827" stroke="#2C2827"/>
<circle cx="60" cy="32" r="1.5" fill="#2C2827" stroke="#2C2827"/>
<circle cx="54" cy="26" r="1.5" fill="#2C2827" stroke="#2C2827"/>
<path d="M53.002 62.2822H52.958C52.5837 62.8258 52.0238 63.0977 51.2783 63.0977C50.5785 63.0977 50.0332 62.8584 49.6426 62.3799C49.2552 61.9014 49.0615 61.221 49.0615 60.3389C49.0615 59.4567 49.2568 58.7715 49.6475 58.2832C50.0381 57.7949 50.5817 57.5508 51.2783 57.5508C52.0042 57.5508 52.5609 57.8145 52.9482 58.3418H53.0117L52.9775 57.9561L52.958 57.5801V55.4023H53.7686V63H53.1094L53.002 62.2822ZM51.3809 62.4189C51.9342 62.4189 52.3346 62.2692 52.582 61.9697C52.8327 61.667 52.958 61.1803 52.958 60.5098V60.3389C52.958 59.5804 52.8311 59.04 52.5771 58.7178C52.3265 58.3923 51.9245 58.2295 51.3711 58.2295C50.8958 58.2295 50.5312 58.415 50.2773 58.7861C50.0267 59.154 49.9014 59.6748 49.9014 60.3486C49.9014 61.0322 50.0267 61.5482 50.2773 61.8965C50.528 62.2448 50.8958 62.4189 51.3809 62.4189ZM58.7832 63L58.6221 62.2383H58.583C58.3161 62.5736 58.0492 62.8014 57.7822 62.9219C57.5186 63.0391 57.1882 63.0977 56.791 63.0977C56.2604 63.0977 55.8438 62.9609 55.541 62.6875C55.2415 62.4141 55.0918 62.0251 55.0918 61.5205C55.0918 60.4398 55.9561 59.8734 57.6846 59.8213L58.5928 59.792V59.46C58.5928 59.04 58.5016 58.7308 58.3193 58.5322C58.1403 58.3304 57.8522 58.2295 57.4551 58.2295C57.0091 58.2295 56.5046 58.3662 55.9414 58.6396L55.6924 58.0195C55.9561 57.8763 56.2441 57.764 56.5566 57.6826C56.8724 57.6012 57.1882 57.5605 57.5039 57.5605C58.1419 57.5605 58.6139 57.7021 58.9199 57.9854C59.2292 58.2686 59.3838 58.7227 59.3838 59.3477V63H58.7832ZM56.9521 62.4287C57.4567 62.4287 57.8522 62.2904 58.1387 62.0137C58.4284 61.737 58.5732 61.3496 58.5732 60.8516V60.3682L57.7627 60.4023C57.1182 60.4251 56.6527 60.526 56.3662 60.7051C56.083 60.8809 55.9414 61.1559 55.9414 61.5303C55.9414 61.8232 56.0293 62.0462 56.2051 62.1992C56.3841 62.3522 56.6331 62.4287 56.9521 62.4287ZM64.5107 61.54C64.5107 62.0381 64.3252 62.4222 63.9541 62.6924C63.583 62.9626 63.0622 63.0977 62.3916 63.0977C61.682 63.0977 61.1286 62.9854 60.7314 62.7607V62.0088C60.9886 62.139 61.2637 62.2415 61.5566 62.3164C61.8529 62.3913 62.1377 62.4287 62.4111 62.4287C62.8343 62.4287 63.1598 62.362 63.3877 62.2285C63.6156 62.0918 63.7295 61.8851 63.7295 61.6084C63.7295 61.4001 63.6383 61.2227 63.4561 61.0762C63.277 60.9264 62.9255 60.7507 62.4014 60.5488C61.9033 60.3633 61.5485 60.2021 61.3369 60.0654C61.1286 59.9255 60.9723 59.7676 60.8682 59.5918C60.7673 59.416 60.7168 59.2061 60.7168 58.9619C60.7168 58.5257 60.8942 58.1823 61.249 57.9316C61.6038 57.6777 62.0905 57.5508 62.709 57.5508C63.2852 57.5508 63.8483 57.668 64.3984 57.9023L64.1104 58.5615C63.5732 58.3402 63.0866 58.2295 62.6504 58.2295C62.2663 58.2295 61.9766 58.2897 61.7812 58.4102C61.5859 58.5306 61.4883 58.6966 61.4883 58.9082C61.4883 59.0514 61.5241 59.1735 61.5957 59.2744C61.6706 59.3753 61.7894 59.4714 61.9521 59.5625C62.1149 59.6536 62.4274 59.7855 62.8896 59.958C63.5244 60.1891 63.9525 60.4219 64.1738 60.6562C64.3984 60.8906 64.5107 61.1852 64.5107 61.54ZM69.4961 63V59.5381C69.4961 59.1019 69.3968 58.7764 69.1982 58.5615C68.9997 58.3467 68.6888 58.2393 68.2656 58.2393C67.7025 58.2393 67.2907 58.3923 67.0303 58.6982C66.7731 59.0042 66.6445 59.5055 66.6445 60.2021V63H65.834V55.4023H66.6445V57.7021C66.6445 57.9788 66.6315 58.2083 66.6055 58.3906H66.6543C66.8138 58.1335 67.04 57.9316 67.333 57.7852C67.6292 57.6354 67.9661 57.5605 68.3438 57.5605C68.998 57.5605 69.488 57.7168 69.8135 58.0293C70.1423 58.3385 70.3066 58.8317 70.3066 59.5088V63H69.4961Z" fill="#7B726E"/>
<path d="M122.5 27.5664V36.5664" stroke="#2C2827" stroke-width="2" stroke-linecap="round"/>
<path d="M126.932 32H117.932" stroke="#2C2827" stroke-width="2" stroke-linecap="round"/>
<path d="M122.5 45C129.68 45 135.5 39.1797 135.5 32C135.5 24.8203 129.68 19 122.5 19C115.32 19 109.5 24.8203 109.5 32C109.5 39.1797 115.32 45 122.5 45Z" stroke="#2C2827" stroke-width="2"/>
<path d="M113.12 63.0977C112.329 63.0977 111.704 62.8568 111.245 62.375C110.789 61.8932 110.562 61.2243 110.562 60.3682C110.562 59.5055 110.773 58.8203 111.196 58.3125C111.623 57.8047 112.194 57.5508 112.91 57.5508C113.581 57.5508 114.111 57.7721 114.502 58.2148C114.893 58.6543 115.088 59.2354 115.088 59.958V60.4707H111.401C111.418 61.099 111.576 61.5758 111.875 61.9014C112.178 62.2269 112.603 62.3896 113.149 62.3896C113.726 62.3896 114.295 62.2692 114.858 62.0283V62.751C114.572 62.8747 114.3 62.9626 114.043 63.0146C113.789 63.07 113.481 63.0977 113.12 63.0977ZM112.9 58.2295C112.471 58.2295 112.127 58.3695 111.87 58.6494C111.616 58.9294 111.466 59.3167 111.421 59.8115H114.219C114.219 59.3005 114.105 58.9098 113.877 58.6396C113.649 58.3662 113.324 58.2295 112.9 58.2295ZM120.137 63V59.5381C120.137 59.1019 120.037 58.7764 119.839 58.5615C119.64 58.3467 119.329 58.2393 118.906 58.2393C118.346 58.2393 117.936 58.3906 117.676 58.6934C117.415 58.9961 117.285 59.4958 117.285 60.1924V63H116.475V57.6484H117.134L117.266 58.3809H117.305C117.471 58.1172 117.703 57.9137 118.003 57.7705C118.302 57.624 118.636 57.5508 119.004 57.5508C119.648 57.5508 120.133 57.707 120.459 58.0195C120.785 58.3288 120.947 58.8252 120.947 59.5088V63H120.137ZM124.346 62.4287C124.489 62.4287 124.627 62.4189 124.761 62.3994C124.894 62.3766 125 62.3538 125.078 62.3311V62.9512C124.99 62.9935 124.86 63.0277 124.688 63.0537C124.518 63.083 124.365 63.0977 124.229 63.0977C123.193 63.0977 122.676 62.5524 122.676 61.4619V58.2783H121.909V57.8877L122.676 57.5508L123.018 56.4082H123.486V57.6484H125.039V58.2783H123.486V61.4277C123.486 61.75 123.563 61.9974 123.716 62.1699C123.869 62.3424 124.079 62.4287 124.346 62.4287ZM128.594 57.5508C128.831 57.5508 129.045 57.5703 129.233 57.6094L129.121 58.3613C128.9 58.3125 128.704 58.2881 128.535 58.2881C128.102 58.2881 127.731 58.4639 127.422 58.8154C127.116 59.167 126.963 59.6048 126.963 60.1289V63H126.152V57.6484H126.821L126.914 58.6396H126.953C127.152 58.2913 127.391 58.0228 127.671 57.834C127.951 57.6452 128.258 57.5508 128.594 57.5508ZM129.385 57.6484H130.254L131.426 60.7002C131.683 61.3968 131.842 61.8997 131.904 62.209H131.943C131.986 62.043 132.074 61.7598 132.207 61.3594C132.344 60.9557 132.786 59.7188 133.535 57.6484H134.404L132.104 63.7422C131.877 64.3444 131.61 64.7708 131.304 65.0215C131.001 65.2754 130.628 65.4023 130.186 65.4023C129.938 65.4023 129.694 65.3747 129.453 65.3193V64.6699C129.632 64.709 129.832 64.7285 130.054 64.7285C130.61 64.7285 131.007 64.416 131.245 63.791L131.543 63.0293L129.385 57.6484Z" fill="#7B726E"/>
<path d="M195 21H176V43H195V21Z" stroke="#2C2827" stroke-width="2" stroke-linejoin="round"/>
<path d="M182 32H190" stroke="#2C2827" stroke-width="2" stroke-linecap="round"/>
<path d="M182 27H190" stroke="#2C2827" stroke-width="2" stroke-linecap="round"/>
<path d="M182 37H185" stroke="#2C2827" stroke-width="2" stroke-linecap="round"/>
<path d="M173.021 63V59.5381C173.021 59.1019 172.922 58.7764 172.724 58.5615C172.525 58.3467 172.214 58.2393 171.791 58.2393C171.228 58.2393 170.816 58.3923 170.556 58.6982C170.299 59.0042 170.17 59.5055 170.17 60.2021V63H169.359V55.4023H170.17V57.7021C170.17 57.9788 170.157 58.2083 170.131 58.3906H170.18C170.339 58.1335 170.565 57.9316 170.858 57.7852C171.155 57.6354 171.492 57.5605 171.869 57.5605C172.523 57.5605 173.013 57.7168 173.339 58.0293C173.668 58.3385 173.832 58.8317 173.832 59.5088V63H173.021ZM176.312 63H175.502V57.6484H176.312V63ZM175.434 56.1982C175.434 56.0127 175.479 55.8776 175.57 55.793C175.661 55.7051 175.775 55.6611 175.912 55.6611C176.042 55.6611 176.155 55.7051 176.249 55.793C176.343 55.8809 176.391 56.016 176.391 56.1982C176.391 56.3805 176.343 56.5173 176.249 56.6084C176.155 56.6963 176.042 56.7402 175.912 56.7402C175.775 56.7402 175.661 56.6963 175.57 56.6084C175.479 56.5173 175.434 56.3805 175.434 56.1982ZM181.483 61.54C181.483 62.0381 181.298 62.4222 180.927 62.6924C180.556 62.9626 180.035 63.0977 179.364 63.0977C178.655 63.0977 178.101 62.9854 177.704 62.7607V62.0088C177.961 62.139 178.236 62.2415 178.529 62.3164C178.826 62.3913 179.11 62.4287 179.384 62.4287C179.807 62.4287 180.132 62.362 180.36 62.2285C180.588 62.0918 180.702 61.8851 180.702 61.6084C180.702 61.4001 180.611 61.2227 180.429 61.0762C180.25 60.9264 179.898 60.7507 179.374 60.5488C178.876 60.3633 178.521 60.2021 178.31 60.0654C178.101 59.9255 177.945 59.7676 177.841 59.5918C177.74 59.416 177.689 59.2061 177.689 58.9619C177.689 58.5257 177.867 58.1823 178.222 57.9316C178.576 57.6777 179.063 57.5508 179.682 57.5508C180.258 57.5508 180.821 57.668 181.371 57.9023L181.083 58.5615C180.546 58.3402 180.059 58.2295 179.623 58.2295C179.239 58.2295 178.949 58.2897 178.754 58.4102C178.559 58.5306 178.461 58.6966 178.461 58.9082C178.461 59.0514 178.497 59.1735 178.568 59.2744C178.643 59.3753 178.762 59.4714 178.925 59.5625C179.088 59.6536 179.4 59.7855 179.862 59.958C180.497 60.1891 180.925 60.4219 181.146 60.6562C181.371 60.8906 181.483 61.1852 181.483 61.54ZM184.535 62.4287C184.678 62.4287 184.817 62.4189 184.95 62.3994C185.084 62.3766 185.189 62.3538 185.268 62.3311V62.9512C185.18 62.9935 185.049 63.0277 184.877 63.0537C184.708 63.083 184.555 63.0977 184.418 63.0977C183.383 63.0977 182.865 62.5524 182.865 61.4619V58.2783H182.099V57.8877L182.865 57.5508L183.207 56.4082H183.676V57.6484H185.229V58.2783H183.676V61.4277C183.676 61.75 183.752 61.9974 183.905 62.1699C184.058 62.3424 184.268 62.4287 184.535 62.4287ZM190.961 60.3193C190.961 61.1917 190.741 61.8737 190.302 62.3652C189.862 62.8535 189.255 63.0977 188.48 63.0977C188.002 63.0977 187.577 62.9854 187.206 62.7607C186.835 62.5361 186.549 62.2139 186.347 61.7939C186.145 61.374 186.044 60.8825 186.044 60.3193C186.044 59.4469 186.262 58.7682 186.698 58.2832C187.134 57.7949 187.74 57.5508 188.515 57.5508C189.263 57.5508 189.857 57.7998 190.297 58.2979C190.74 58.7959 190.961 59.4697 190.961 60.3193ZM186.884 60.3193C186.884 61.0029 187.021 61.5238 187.294 61.8818C187.567 62.2399 187.969 62.4189 188.5 62.4189C189.031 62.4189 189.433 62.2415 189.706 61.8867C189.983 61.5286 190.121 61.0062 190.121 60.3193C190.121 59.639 189.983 59.123 189.706 58.7715C189.433 58.4167 189.027 58.2393 188.49 58.2393C187.96 58.2393 187.559 58.4134 187.289 58.7617C187.019 59.11 186.884 59.6292 186.884 60.3193ZM194.828 57.5508C195.066 57.5508 195.279 57.5703 195.468 57.6094L195.355 58.3613C195.134 58.3125 194.939 58.2881 194.77 58.2881C194.337 58.2881 193.965 58.4639 193.656 58.8154C193.35 59.167 193.197 59.6048 193.197 60.1289V63H192.387V57.6484H193.056L193.148 58.6396H193.188C193.386 58.2913 193.625 58.0228 193.905 57.834C194.185 57.6452 194.493 57.5508 194.828 57.5508ZM195.619 57.6484H196.488L197.66 60.7002C197.917 61.3968 198.077 61.8997 198.139 62.209H198.178C198.22 62.043 198.308 61.7598 198.441 61.3594C198.578 60.9557 199.021 59.7188 199.77 57.6484H200.639L198.339 63.7422C198.111 64.3444 197.844 64.7708 197.538 65.0215C197.235 65.2754 196.863 65.4023 196.42 65.4023C196.173 65.4023 195.928 65.3747 195.688 65.3193V64.6699C195.867 64.709 196.067 64.7285 196.288 64.7285C196.845 64.7285 197.242 64.416 197.479 63.791L197.777 63.0293L195.619 57.6484Z" fill="#7B726E"/>
<path d="M247.436 29.3135C247.93 29.3135 248.413 29.4601 248.824 29.7348C249.236 30.0095 249.556 30.4 249.745 30.8568C249.934 31.3136 249.984 31.8162 249.888 32.3012C249.791 32.7862 249.553 33.2316 249.203 33.5812C248.854 33.9309 248.408 34.169 247.923 34.2654C247.438 34.3619 246.936 34.3124 246.479 34.1232C246.022 33.934 245.632 33.6135 245.357 33.2024C245.082 32.7913 244.936 32.3079 244.936 31.8135C244.936 31.1504 245.199 30.5146 245.668 30.0457C246.137 29.5769 246.773 29.3135 247.436 29.3135Z" fill="#2C2827" stroke="#2C2827" stroke-linecap="round"/>
<path d="M249.931 20L251.208 22.79L253.925 24.302L257.071 23.973L259.502 28.0291L257.633 30.49V33.5131L259.502 35.973L257.071 40.0291L253.925 39.699L251.208 41.2111L249.931 44H245.07L243.793 41.2111L241.076 39.699L237.93 40.0291L235.5 35.973L237.369 33.5131V30.49L235.5 28.0291L237.93 23.973L241.076 24.302L243.793 22.79L245.07 20H249.931Z" stroke="#2C2827" stroke-width="2" stroke-linecap="round" stroke-linejoin="round"/>
<path d="M234.812 61.54C234.812 62.0381 234.626 62.4222 234.255 62.6924C233.884 62.9626 233.363 63.0977 232.692 63.0977C231.983 63.0977 231.429 62.9854 231.032 62.7607V62.0088C231.289 62.139 231.564 62.2415 231.857 62.3164C232.154 62.3913 232.438 62.4287 232.712 62.4287C233.135 62.4287 233.461 62.362 233.688 62.2285C233.916 62.0918 234.03 61.8851 234.03 61.6084C234.03 61.4001 233.939 61.2227 233.757 61.0762C233.578 60.9264 233.226 60.7507 232.702 60.5488C232.204 60.3633 231.849 60.2021 231.638 60.0654C231.429 59.9255 231.273 59.7676 231.169 59.5918C231.068 59.416 231.018 59.2061 231.018 58.9619C231.018 58.5257 231.195 58.1823 231.55 57.9316C231.905 57.6777 232.391 57.5508 233.01 57.5508C233.586 57.5508 234.149 57.668 234.699 57.9023L234.411 58.5615C233.874 58.3402 233.387 58.2295 232.951 58.2295C232.567 58.2295 232.277 58.2897 232.082 58.4102C231.887 58.5306 231.789 58.6966 231.789 58.9082C231.789 59.0514 231.825 59.1735 231.896 59.2744C231.971 59.3753 232.09 59.4714 232.253 59.5625C232.416 59.6536 232.728 59.7855 233.19 59.958C233.825 60.1891 234.253 60.4219 234.475 60.6562C234.699 60.8906 234.812 61.1852 234.812 61.54ZM238.396 63.0977C237.604 63.0977 236.979 62.8568 236.521 62.375C236.065 61.8932 235.837 61.2243 235.837 60.3682C235.837 59.5055 236.049 58.8203 236.472 58.3125C236.898 57.8047 237.469 57.5508 238.186 57.5508C238.856 57.5508 239.387 57.7721 239.777 58.2148C240.168 58.6543 240.363 59.2354 240.363 59.958V60.4707H236.677C236.693 61.099 236.851 61.5758 237.15 61.9014C237.453 62.2269 237.878 62.3896 238.425 62.3896C239.001 62.3896 239.571 62.2692 240.134 62.0283V62.751C239.847 62.8747 239.576 62.9626 239.318 63.0146C239.064 63.07 238.757 63.0977 238.396 63.0977ZM238.176 58.2295C237.746 58.2295 237.403 58.3695 237.146 58.6494C236.892 58.9294 236.742 59.3167 236.696 59.8115H239.494C239.494 59.3005 239.38 58.9098 239.152 58.6396C238.924 58.3662 238.599 58.2295 238.176 58.2295ZM243.479 62.4287C243.622 62.4287 243.76 62.4189 243.894 62.3994C244.027 62.3766 244.133 62.3538 244.211 62.3311V62.9512C244.123 62.9935 243.993 63.0277 243.82 63.0537C243.651 63.083 243.498 63.0977 243.361 63.0977C242.326 63.0977 241.809 62.5524 241.809 61.4619V58.2783H241.042V57.8877L241.809 57.5508L242.15 56.4082H242.619V57.6484H244.172V58.2783H242.619V61.4277C242.619 61.75 242.696 61.9974 242.849 62.1699C243.002 62.3424 243.212 62.4287 243.479 62.4287ZM247.014 62.4287C247.157 62.4287 247.295 62.4189 247.429 62.3994C247.562 62.3766 247.668 62.3538 247.746 62.3311V62.9512C247.658 62.9935 247.528 63.0277 247.355 63.0537C247.186 63.083 247.033 63.0977 246.896 63.0977C245.861 63.0977 245.344 62.5524 245.344 61.4619V58.2783H244.577V57.8877L245.344 57.5508L245.686 56.4082H246.154V57.6484H247.707V58.2783H246.154V61.4277C246.154 61.75 246.231 61.9974 246.384 62.1699C246.537 62.3424 246.747 62.4287 247.014 62.4287ZM249.631 63H248.82V57.6484H249.631V63ZM248.752 56.1982C248.752 56.0127 248.798 55.8776 248.889 55.793C248.98 55.7051 249.094 55.6611 249.23 55.6611C249.361 55.6611 249.473 55.7051 249.567 55.793C249.662 55.8809 249.709 56.016 249.709 56.1982C249.709 56.3805 249.662 56.5173 249.567 56.6084C249.473 56.6963 249.361 56.7402 249.23 56.7402C249.094 56.7402 248.98 56.6963 248.889 56.6084C248.798 56.5173 248.752 56.3805 248.752 56.1982ZM255.012 63V59.5381C255.012 59.1019 254.912 58.7764 254.714 58.5615C254.515 58.3467 254.204 58.2393 253.781 58.2393C253.221 58.2393 252.811 58.3906 252.551 58.6934C252.29 58.9961 252.16 59.4958 252.16 60.1924V63H251.35V57.6484H252.009L252.141 58.3809H252.18C252.346 58.1172 252.578 57.9137 252.878 57.7705C253.177 57.624 253.511 57.5508 253.879 57.5508C254.523 57.5508 255.008 57.707 255.334 58.0195C255.66 58.3288 255.822 58.8252 255.822 59.5088V63H255.012ZM261.872 57.6484V58.1611L260.881 58.2783C260.972 58.3923 261.053 58.542 261.125 58.7275C261.197 58.9098 261.232 59.1165 261.232 59.3477C261.232 59.8717 261.053 60.29 260.695 60.6025C260.337 60.915 259.846 61.0713 259.221 61.0713C259.061 61.0713 258.911 61.0583 258.771 61.0322C258.426 61.2145 258.254 61.444 258.254 61.7207C258.254 61.8672 258.314 61.9762 258.435 62.0479C258.555 62.1162 258.762 62.1504 259.055 62.1504H260.002C260.581 62.1504 261.026 62.2725 261.335 62.5166C261.647 62.7607 261.804 63.1156 261.804 63.5811C261.804 64.1735 261.566 64.6243 261.091 64.9336C260.616 65.2461 259.922 65.4023 259.011 65.4023C258.311 65.4023 257.771 65.2721 257.39 65.0117C257.012 64.7513 256.823 64.3835 256.823 63.9082C256.823 63.5827 256.927 63.3011 257.136 63.0635C257.344 62.8258 257.637 62.6647 258.015 62.5801C257.878 62.5182 257.762 62.4222 257.668 62.292C257.577 62.1618 257.531 62.0104 257.531 61.8379C257.531 61.6426 257.583 61.4717 257.688 61.3252C257.792 61.1787 257.956 61.0371 258.181 60.9004C257.904 60.7865 257.678 60.5928 257.502 60.3193C257.329 60.0459 257.243 59.7334 257.243 59.3818C257.243 58.7959 257.419 58.3451 257.771 58.0293C258.122 57.7103 258.62 57.5508 259.265 57.5508C259.545 57.5508 259.797 57.5833 260.021 57.6484H261.872ZM257.604 63.8984C257.604 64.1882 257.727 64.4079 257.971 64.5576C258.215 64.7074 258.565 64.7822 259.021 64.7822C259.701 64.7822 260.204 64.6797 260.529 64.4746C260.858 64.2728 261.022 63.9977 261.022 63.6494C261.022 63.3597 260.933 63.1579 260.754 63.0439C260.575 62.9333 260.238 62.8779 259.743 62.8779H258.771C258.404 62.8779 258.117 62.9658 257.912 63.1416C257.707 63.3174 257.604 63.5697 257.604 63.8984ZM258.044 59.3623C258.044 59.7367 258.15 60.0199 258.361 60.2119C258.573 60.404 258.868 60.5 259.245 60.5C260.036 60.5 260.432 60.1159 260.432 59.3477C260.432 58.5436 260.031 58.1416 259.23 58.1416C258.85 58.1416 258.557 58.2441 258.352 58.4492C258.146 58.6543 258.044 58.9587 258.044 59.3623ZM266.423 61.54C266.423 62.0381 266.237 62.4222 265.866 62.6924C265.495 62.9626 264.974 63.0977 264.304 63.0977C263.594 63.0977 263.041 62.9854 262.644 62.7607V62.0088C262.901 62.139 263.176 62.2415 263.469 62.3164C263.765 62.3913 264.05 62.4287 264.323 62.4287C264.746 62.4287 265.072 62.362 265.3 62.2285C265.528 62.0918 265.642 61.8851 265.642 61.6084C265.642 61.4001 265.55 61.2227 265.368 61.0762C265.189 60.9264 264.838 60.7507 264.313 60.5488C263.815 60.3633 263.461 60.2021 263.249 60.0654C263.041 59.9255 262.884 59.7676 262.78 59.5918C262.679 59.416 262.629 59.2061 262.629 58.9619C262.629 58.5257 262.806 58.1823 263.161 57.9316C263.516 57.6777 264.003 57.5508 264.621 57.5508C265.197 57.5508 265.76 57.668 266.311 57.9023L266.022 58.5615C265.485 58.3402 264.999 58.2295 264.562 58.2295C264.178 58.2295 263.889 58.2897 263.693 58.4102C263.498 58.5306 263.4 58.6966 263.4 58.9082C263.4 59.0514 263.436 59.1735 263.508 59.2744C263.583 59.3753 263.701 59.4714 263.864 59.5625C264.027 59.6536 264.34 59.7855 264.802 59.958C265.437 60.1891 265.865 60.4219 266.086 60.6562C266.311 60.8906 266.423 61.1852 266.423 61.54Z" fill="#7B726E"/>
<path d="M313.786 22.6426C313.787 23.0779 313.961 23.4951 314.268 23.8029C314.576 24.1108 314.993 24.2842 315.429 24.2852H318.715V27.5713C318.715 28.0069 318.888 28.4247 319.196 28.7328C319.504 29.0408 319.922 29.2139 320.357 29.2139C320.793 29.2139 321.211 29.0408 321.519 28.7328C321.827 28.4247 322 28.0069 322 27.5713V22.6426C321.999 22.2073 321.826 21.79 321.518 21.4822C321.21 21.1744 320.793 21.001 320.357 21H315.429C314.993 21.001 314.576 21.1744 314.268 21.4822C313.961 21.79 313.787 22.2073 313.786 22.6426ZM318.715 40.7139H315.429C314.993 40.7139 314.575 40.887 314.267 41.1951C313.959 41.5033 313.786 41.9212 313.786 42.3569C313.786 42.7927 313.959 43.2106 314.267 43.5188C314.575 43.8269 314.993 44 315.429 44H320.357C320.783 43.9711 321.185 43.7887 321.487 43.4867C321.789 43.1847 321.971 42.7835 322 42.3574V37.4287C322 36.9931 321.827 36.5753 321.519 36.2672C321.211 35.9592 320.793 35.7861 320.357 35.7861C319.922 35.7861 319.504 35.9592 319.196 36.2672C318.888 36.5753 318.715 36.9931 318.715 37.4287V40.7139ZM300.644 29.2139C301.07 29.185 301.471 29.0026 301.773 28.7006C302.075 28.3986 302.257 27.9974 302.286 27.5713V24.2861H305.572C305.788 24.2861 306.002 24.2436 306.201 24.1611C306.4 24.0785 306.581 23.9575 306.734 23.8049C306.887 23.6523 307.008 23.4712 307.09 23.2718C307.173 23.0725 307.215 22.8588 307.215 22.6431C307.215 22.4273 307.173 22.2136 307.09 22.0143C307.008 21.8149 306.887 21.6338 306.734 21.4812C306.581 21.3287 306.4 21.2076 306.201 21.1251C306.002 21.0425 305.788 21 305.572 21H300.644C300.208 21.0008 299.791 21.174 299.483 21.4819C299.175 21.7897 299.001 22.2071 299 22.6426V27.5713C299.029 27.9973 299.211 28.3984 299.513 28.7004C299.815 29.0024 300.217 29.1848 300.644 29.2139ZM300.644 35.7852C300.217 35.8143 299.816 35.9967 299.514 36.2986C299.212 36.6006 299.03 37.0017 299.001 37.4277V42.3565C299.03 42.7825 299.212 43.1837 299.514 43.4859C299.816 43.788 300.217 43.9706 300.643 44H305.571C306.007 44 306.425 43.8269 306.733 43.5188C307.041 43.2106 307.214 42.7927 307.214 42.3569C307.214 41.9212 307.041 41.5033 306.733 41.1951C306.425 40.887 306.007 40.7139 305.571 40.7139H302.285V37.4287C302.284 36.9934 302.111 36.5762 301.803 36.2683C301.495 35.9605 301.078 35.7871 300.643 35.7861L300.644 35.7852Z" fill="#2C2827"/>
<path d="M295.15 63L294.989 62.2383H294.95C294.683 62.5736 294.416 62.8014 294.149 62.9219C293.886 63.0391 293.555 63.0977 293.158 63.0977C292.628 63.0977 292.211 62.9609 291.908 62.6875C291.609 62.4141 291.459 62.0251 291.459 61.5205C291.459 60.4398 292.323 59.8734 294.052 59.8213L294.96 59.792V59.46C294.96 59.04 294.869 58.7308 294.687 58.5322C294.507 58.3304 294.219 58.2295 293.822 58.2295C293.376 58.2295 292.872 58.3662 292.309 58.6396L292.06 58.0195C292.323 57.8763 292.611 57.764 292.924 57.6826C293.24 57.6012 293.555 57.5605 293.871 57.5605C294.509 57.5605 294.981 57.7021 295.287 57.9854C295.596 58.2686 295.751 58.7227 295.751 59.3477V63H295.15ZM293.319 62.4287C293.824 62.4287 294.219 62.2904 294.506 62.0137C294.796 61.737 294.94 61.3496 294.94 60.8516V60.3682L294.13 60.4023C293.485 60.4251 293.02 60.526 292.733 60.7051C292.45 60.8809 292.309 61.1559 292.309 61.5303C292.309 61.8232 292.396 62.0462 292.572 62.1992C292.751 62.3522 293 62.4287 293.319 62.4287ZM299.916 63.0977C299.568 63.0977 299.249 63.0342 298.959 62.9072C298.673 62.777 298.432 62.5785 298.236 62.3115H298.178C298.217 62.624 298.236 62.9202 298.236 63.2002V65.4023H297.426V57.6484H298.085L298.197 58.3809H298.236C298.445 58.0879 298.687 57.8763 298.964 57.7461C299.241 57.6159 299.558 57.5508 299.916 57.5508C300.626 57.5508 301.173 57.7933 301.557 58.2783C301.944 58.7633 302.138 59.4437 302.138 60.3193C302.138 61.1982 301.941 61.8818 301.547 62.3701C301.156 62.8551 300.613 63.0977 299.916 63.0977ZM299.799 58.2393C299.252 58.2393 298.856 58.3906 298.612 58.6934C298.368 58.9961 298.243 59.4779 298.236 60.1387V60.3193C298.236 61.0713 298.362 61.61 298.612 61.9355C298.863 62.2578 299.265 62.4189 299.818 62.4189C300.281 62.4189 300.642 62.2318 300.902 61.8574C301.166 61.4831 301.298 60.9671 301.298 60.3096C301.298 59.6423 301.166 59.1312 300.902 58.7764C300.642 58.4183 300.274 58.2393 299.799 58.2393ZM306.049 63.0977C305.701 63.0977 305.382 63.0342 305.092 62.9072C304.805 62.777 304.564 62.5785 304.369 62.3115H304.311C304.35 62.624 304.369 62.9202 304.369 63.2002V65.4023H303.559V57.6484H304.218L304.33 58.3809H304.369C304.577 58.0879 304.82 57.8763 305.097 57.7461C305.373 57.6159 305.691 57.5508 306.049 57.5508C306.758 57.5508 307.305 57.7933 307.689 58.2783C308.077 58.7633 308.271 59.4437 308.271 60.3193C308.271 61.1982 308.074 61.8818 307.68 62.3701C307.289 62.8551 306.745 63.0977 306.049 63.0977ZM305.932 58.2393C305.385 58.2393 304.989 58.3906 304.745 58.6934C304.501 58.9961 304.376 59.4779 304.369 60.1387V60.3193C304.369 61.0713 304.494 61.61 304.745 61.9355C304.996 62.2578 305.398 62.4189 305.951 62.4189C306.413 62.4189 306.775 62.2318 307.035 61.8574C307.299 61.4831 307.431 60.9671 307.431 60.3096C307.431 59.6423 307.299 59.1312 307.035 58.7764C306.775 58.4183 306.407 58.2393 305.932 58.2393ZM313.144 61.54C313.144 62.0381 312.958 62.4222 312.587 62.6924C312.216 62.9626 311.695 63.0977 311.024 63.0977C310.315 63.0977 309.761 62.9854 309.364 62.7607V62.0088C309.621 62.139 309.896 62.2415 310.189 62.3164C310.486 62.3913 310.771 62.4287 311.044 62.4287C311.467 62.4287 311.793 62.362 312.021 62.2285C312.248 62.0918 312.362 61.8851 312.362 61.6084C312.362 61.4001 312.271 61.2227 312.089 61.0762C311.91 60.9264 311.558 60.7507 311.034 60.5488C310.536 60.3633 310.181 60.2021 309.97 60.0654C309.761 59.9255 309.605 59.7676 309.501 59.5918C309.4 59.416 309.35 59.2061 309.35 58.9619C309.35 58.5257 309.527 58.1823 309.882 57.9316C310.237 57.6777 310.723 57.5508 311.342 57.5508C311.918 57.5508 312.481 57.668 313.031 57.9023L312.743 58.5615C312.206 58.3402 311.719 58.2295 311.283 58.2295C310.899 58.2295 310.609 58.2897 310.414 58.4102C310.219 58.5306 310.121 58.6966 310.121 58.9082C310.121 59.0514 310.157 59.1735 310.229 59.2744C310.303 59.3753 310.422 59.4714 310.585 59.5625C310.748 59.6536 311.06 59.7855 311.522 59.958C312.157 60.1891 312.585 60.4219 312.807 60.6562C313.031 60.8906 313.144 61.1852 313.144 61.54ZM313.617 57.6484H314.486L315.658 60.7002C315.915 61.3968 316.075 61.8997 316.137 62.209H316.176C316.218 62.043 316.306 61.7598 316.439 61.3594C316.576 60.9557 317.019 59.7188 317.768 57.6484H318.637L316.337 63.7422C316.109 64.3444 315.842 64.7708 315.536 65.0215C315.233 65.2754 314.861 65.4023 314.418 65.4023C314.171 65.4023 313.926 65.3747 313.686 65.3193V64.6699C313.865 64.709 314.065 64.7285 314.286 64.7285C314.843 64.7285 315.24 64.416 315.478 63.791L315.775 63.0293L313.617 57.6484ZM323.168 63V59.5381C323.168 59.1019 323.069 58.7764 322.87 58.5615C322.672 58.3467 322.361 58.2393 321.938 58.2393C321.378 58.2393 320.967 58.3906 320.707 58.6934C320.447 58.9961 320.316 59.4958 320.316 60.1924V63H319.506V57.6484H320.165L320.297 58.3809H320.336C320.502 58.1172 320.735 57.9137 321.034 57.7705C321.334 57.624 321.667 57.5508 322.035 57.5508C322.68 57.5508 323.165 57.707 323.49 58.0195C323.816 58.3288 323.979 58.8252 323.979 59.5088V63H323.168ZM327.787 63.0977C327.012 63.0977 326.412 62.86 325.985 62.3848C325.562 61.9062 325.351 61.2308 325.351 60.3584C325.351 59.4632 325.565 58.7715 325.995 58.2832C326.428 57.7949 327.043 57.5508 327.841 57.5508C328.098 57.5508 328.355 57.5785 328.612 57.6338C328.869 57.6891 329.071 57.7542 329.218 57.8291L328.969 58.5176C328.79 58.446 328.594 58.3874 328.383 58.3418C328.171 58.293 327.984 58.2686 327.821 58.2686C326.734 58.2686 326.19 58.9619 326.19 60.3486C326.19 61.0062 326.322 61.5107 326.586 61.8623C326.853 62.2139 327.247 62.3896 327.768 62.3896C328.214 62.3896 328.671 62.2936 329.14 62.1016V62.8193C328.782 63.0049 328.331 63.0977 327.787 63.0977Z" fill="#7B726E"/>
</svg>
