<svg width="24" height="24" viewBox="0 0 24 24" fill="none" xmlns="http://www.w3.org/2000/svg">
<path d="M11.7899 15.5264C11.7899 16.3701 11.6383 17.0782 11.3351 17.6507C11.0479 18.2081 10.6729 18.6676 10.2101 19.0292C9.76331 19.3757 9.25267 19.6243 8.6782 19.775C8.11969 19.9256 7.56915 20.001 7.0266 20.001H2V4.00098H6.5C6.99469 4.00098 7.52128 4.06124 8.07979 4.18177C8.6383 4.28723 9.14894 4.49062 9.61171 4.79194C10.0745 5.07819 10.4575 5.48497 10.7606 6.01228C11.0638 6.52452 11.2154 7.19495 11.2154 8.02357C11.2154 9.01792 10.992 9.80135 10.5452 10.3739C10.0984 10.9464 9.57979 11.3456 8.98937 11.5716V11.6168C9.30852 11.6921 9.62767 11.8202 9.94682 12.001C10.2819 12.1818 10.5851 12.4379 10.8564 12.7693C11.1277 13.0857 11.3511 13.4774 11.5266 13.9445C11.7021 14.3965 11.7899 14.9238 11.7899 15.5264ZM8.63033 8.45295C8.63033 8.04617 8.55852 7.70719 8.4149 7.436C8.28724 7.14975 8.11171 6.92376 7.8883 6.75804C7.68086 6.57725 7.43352 6.44919 7.14628 6.37386C6.85905 6.29853 6.56383 6.26086 6.26064 6.26086H4.68085V10.7128H6.30851C6.59575 10.7128 6.875 10.6752 7.14628 10.5998C7.43352 10.5095 7.68086 10.3739 7.8883 10.1931C8.11171 10.0123 8.28724 9.77875 8.4149 9.4925C8.55852 9.20625 8.63033 8.85973 8.63033 8.45295ZM9.03724 15.3004C9.03724 14.8334 8.95745 14.4417 8.79788 14.1253C8.6383 13.7938 8.43086 13.5302 8.17554 13.3343C7.92022 13.1234 7.64096 12.9727 7.33777 12.8823C7.03458 12.7919 6.73139 12.7467 6.4282 12.7467H4.68085V17.7411H6.5C6.85107 17.7411 7.1782 17.6959 7.48139 17.6055C7.78458 17.5 8.04788 17.3494 8.27128 17.1535C8.51064 16.9426 8.69416 16.6865 8.82182 16.3852C8.96543 16.0838 9.03724 15.7223 9.03724 15.3004Z" fill="#1565C0"/>
<path d="M17.2846 6.44165V10.8032H21.641V13.1309H17.3085V20.001H14.4122V4.00098H22V6.44165H17.2846Z" fill="#1565C0"/>
</svg>
