<svg width="110" height="9" viewBox="0 0 110 9" fill="none" xmlns="http://www.w3.org/2000/svg">
<path d="M5.80673 0.0621939C6.99671 0.0621939 7.83411 0.430199 8.53928 1.09262C8.62743 1.16622 8.62743 1.31342 8.49521 1.38703L7.96633 1.79184C7.87818 1.86544 7.70189 1.90224 7.56967 1.79184C7.17301 1.42383 6.46783 1.12942 5.76265 1.12942C3.95564 1.12942 2.32493 2.67506 2.32493 4.40471C2.32493 5.72954 3.25047 6.87038 4.70489 6.87038C5.54229 6.87038 6.29153 6.57597 6.42375 6.50237L6.64412 5.25113H5.54229C5.41007 5.25113 5.32192 5.17753 5.36599 5.06713L5.45414 4.44151C5.45414 4.33111 5.58636 4.2207 5.71858 4.2207H7.92226C8.0104 4.2207 8.09855 4.2943 8.09855 4.40471L7.65781 7.12798C7.61374 7.23839 7.56966 7.27519 7.52559 7.31199C7.52559 7.31199 6.20339 8.04801 4.44045 8.04801C2.28085 8.04801 0.738281 6.50236 0.738281 4.58871C0.782355 1.97584 2.98603 0.0621939 5.80673 0.0621939ZM10.8752 0.356597C10.8752 0.246194 11.0074 0.135795 11.1396 0.135795H14.4451C15.7673 0.135795 16.6929 1.12942 16.6929 2.19665C16.6929 3.37428 15.8114 4.44151 14.4892 4.77272L15.6792 7.6064C15.7673 7.7536 15.6792 7.9008 15.4588 7.9008H14.4451C14.3129 7.9008 14.2248 7.8272 14.1807 7.7536L13.2111 4.88312H11.4481L10.9633 7.7168C10.9633 7.8272 10.8311 7.9376 10.6989 7.9376H9.77334C9.64112 7.9376 9.55298 7.8272 9.59705 7.7168L10.8752 0.356597ZM13.6959 3.9263C14.4892 3.9263 15.2825 3.22707 15.2825 2.38065C15.2825 1.75504 14.7977 1.23982 14.1366 1.23982H12.1092L11.6685 3.9263H13.6959ZM19.0728 0.356597C19.0728 0.246194 19.2051 0.135795 19.3373 0.135795H24.1413C24.2735 0.135795 24.3617 0.246194 24.3176 0.356597L24.2294 0.982219C24.2294 1.09262 24.0972 1.20302 23.965 1.20302H20.2628L19.8662 3.48468H22.9513C23.0835 3.48468 23.1717 3.59509 23.1276 3.70549L23.0395 4.33111C22.9954 4.44151 22.9072 4.55191 22.775 4.55191H19.6899L19.2932 6.94398H22.9954C23.1276 6.94398 23.2157 7.05438 23.1717 7.16478L23.0835 7.7904C23.0835 7.90081 22.9513 8.0112 22.8191 8.0112H18.0151C17.8829 8.0112 17.7947 7.90081 17.8388 7.7904L19.0728 0.356597ZM23.965 7.6432L28.9012 0.172592C28.9453 0.0989904 28.9894 0.0621939 29.1216 0.0621939H29.2538C29.342 0.0621939 29.4301 0.135791 29.4301 0.172592L31.8541 7.6432C31.8982 7.7904 31.766 7.9376 31.5897 7.9376H30.7964C30.6201 7.9376 30.5319 7.864 30.5319 7.7536L30.0471 6.20796H26.389L25.3753 7.7536C25.3313 7.8272 25.1991 7.9376 25.0228 7.9376H24.0972C23.9209 7.9376 23.8328 7.7904 23.965 7.6432ZM29.6945 5.28793L28.8131 2.23345H28.769L26.8738 5.28793H29.6945ZM34.9393 1.20302H33.0441C32.9119 1.20302 32.8238 1.09262 32.8678 0.982219L32.956 0.356597C32.956 0.246194 33.0882 0.135795 33.2204 0.135795H38.4211C38.5533 0.135795 38.6415 0.246194 38.5974 0.356597L38.5092 0.982219C38.5092 1.09262 38.377 1.20302 38.2448 1.20302H36.3496L35.2478 7.7168C35.2478 7.8272 35.1156 7.9376 34.9834 7.9376H34.0137C33.8815 7.9376 33.7934 7.8272 33.7934 7.7168L34.9393 1.20302ZM40.0077 0.356597C40.0077 0.246194 40.1399 0.135795 40.2722 0.135795H45.0762C45.2084 0.135795 45.2965 0.246194 45.2525 0.356597L45.1643 0.982219C45.1643 1.09262 45.0321 1.20302 44.8999 1.20302H41.1977L40.8011 3.48468H43.8862C44.0184 3.48468 44.1066 3.59509 44.0625 3.70549L43.9743 4.33111C43.9303 4.44151 43.8421 4.55191 43.7099 4.55191H40.6248L40.2281 6.94398H43.9303C44.0625 6.94398 44.1506 7.05438 44.1066 7.16478L44.0184 7.7904C44.0184 7.90081 43.8862 8.0112 43.754 8.0112H38.95C38.8177 8.0112 38.7296 7.90081 38.7737 7.7904L40.0077 0.356597ZM47.2799 0.356597C47.2799 0.246194 47.4121 0.135795 47.5443 0.135795H50.8498C52.172 0.135795 53.0975 1.12942 53.0975 2.19665C53.0975 3.37428 52.2161 4.44151 50.8939 4.77272L52.0839 7.6064C52.172 7.7536 52.0839 7.9008 51.8635 7.9008H50.8498C50.7176 7.9008 50.6294 7.8272 50.5854 7.7536L49.6157 4.88312H47.8528L47.368 7.7168C47.368 7.8272 47.2358 7.9376 47.1036 7.9376H46.178C46.0458 7.9376 45.9577 7.8272 46.0017 7.7168L47.2799 0.356597ZM50.1006 3.9263C50.8939 3.9263 51.6872 3.22707 51.6872 2.38065C51.6872 1.75504 51.2024 1.23982 50.5413 1.23982H48.5139L48.0732 3.9263H50.1006ZM59.2678 0.0621939C60.4578 0.0621939 61.2952 0.430199 62.0004 1.09262C62.0885 1.16622 62.0885 1.31342 61.9563 1.38703L61.4274 1.79184C61.3393 1.86544 61.163 1.90224 61.0308 1.79184C60.6341 1.42383 59.9289 1.12942 59.2238 1.12942C57.4168 1.12942 55.786 2.67506 55.786 4.40471C55.786 5.72954 56.7116 6.87038 58.166 6.87038C59.0034 6.87038 59.7526 6.57597 59.8849 6.50237L60.1052 5.25113H59.0034C58.8712 5.25113 58.783 5.17753 58.8271 5.06713L58.9152 4.44151C58.9152 4.33111 59.0475 4.2207 59.1797 4.2207H61.3834C61.4715 4.2207 61.5597 4.2943 61.5597 4.40471L61.1189 7.12798C61.0748 7.23839 61.0308 7.27519 60.9867 7.31199C60.9867 7.31199 59.6645 8.04801 57.9016 8.04801C55.742 8.04801 54.1994 6.50236 54.1994 4.58871C54.2435 1.97584 56.4471 0.0621939 59.2678 0.0621939ZM68.0825 0.0621939C70.2421 0.0621939 71.7847 1.68144 71.7847 3.52148C71.7847 6.06075 69.5369 8.04801 66.7603 8.04801C64.6007 8.04801 63.0581 6.46556 63.0581 4.62551C63.0581 2.04945 65.3059 0.0621939 68.0825 0.0621939ZM66.9366 6.94398C68.6996 6.94398 70.3743 5.47194 70.3743 3.66869C70.3743 2.30705 69.3606 1.16622 67.9062 1.16622C66.1433 1.16622 64.4685 2.67506 64.4685 4.47831C64.4685 5.80315 65.4822 6.94398 66.9366 6.94398ZM77.999 0.0621939C80.1586 0.0621939 81.7012 1.68144 81.7012 3.52148C81.7012 6.06075 79.4535 8.04801 76.6768 8.04801C74.5172 8.04801 72.9747 6.46556 72.9747 4.62551C73.0187 2.04945 75.2224 0.0621939 77.999 0.0621939ZM76.8531 6.94398C78.6161 6.94398 80.2909 5.47194 80.2909 3.66869C80.2909 2.30705 79.2772 1.16622 77.8228 1.16622C76.0598 1.16622 74.385 2.67506 74.385 4.47831C74.385 5.80315 75.3987 6.94398 76.8531 6.94398ZM84.2134 0.356597C84.2134 0.246194 84.3456 0.135795 84.4779 0.135795H87.2545C89.3259 0.135795 90.8685 1.71824 90.8685 3.52148C90.8685 5.91355 88.7089 7.9008 85.9763 7.9008H83.1997C83.0675 7.9008 82.9794 7.7904 83.0234 7.68L84.2134 0.356597ZM85.9323 6.87038C87.7834 6.87038 89.3259 5.47194 89.3259 3.59509C89.3259 2.23345 88.3563 1.20302 86.8578 1.20302H85.3593L84.3897 6.87038H85.9323ZM91.75 6.79677L92.1466 6.39196C92.2788 6.24476 92.4551 6.24476 92.5874 6.35516C92.8077 6.50236 93.3807 7.01758 94.2622 7.01758C95.0996 7.01758 95.7607 6.50237 95.7607 5.83995C95.7607 5.25113 95.2318 4.88312 94.3062 4.44151C93.3366 3.9631 92.4551 3.33748 92.4551 2.27025C92.4551 1.23983 93.4248 0.0253906 95.4521 0.0253906C96.6421 0.0253906 97.4354 0.540603 97.6117 0.651006C97.6999 0.724608 97.788 0.871812 97.6117 1.01902L97.2591 1.42383C97.1269 1.57103 96.9066 1.60783 96.7743 1.49743C96.598 1.38703 95.981 1.05582 95.2758 1.05582C94.3944 1.05582 93.7774 1.68143 93.7774 2.19665C93.7774 2.71186 94.2181 3.07987 95.0555 3.44788C96.1132 3.9631 97.2151 4.58871 97.2151 5.72954C97.2151 7.05438 96.0251 8.0112 94.1299 8.0112C92.7196 8.0112 91.8381 7.31199 91.6618 7.12798C91.6618 7.09118 91.5737 6.98078 91.75 6.79677ZM99.2425 6.50237C99.6832 6.50237 100.036 6.79677 100.036 7.16478C100.036 7.64319 99.551 8.04801 98.978 8.04801C98.5373 8.04801 98.2288 7.7536 98.2288 7.38559C98.2288 6.87038 98.7136 6.50237 99.2425 6.50237ZM106.515 0.0621939C107.705 0.0621939 108.542 0.430199 109.247 1.09262C109.335 1.16622 109.335 1.31342 109.203 1.38703L108.674 1.79184C108.586 1.86544 108.41 1.90224 108.278 1.79184C107.881 1.42383 107.176 1.16622 106.47 1.16622C104.663 1.16622 103.033 2.74866 103.033 4.51511C103.033 5.83995 103.958 6.90718 105.413 6.90718C106.294 6.90718 106.911 6.57597 107.484 6.17116C107.66 6.06075 107.749 6.06075 107.837 6.17116L108.366 6.68637C108.454 6.75997 108.41 6.90717 108.322 6.98078C107.396 7.7168 106.294 8.04801 105.325 8.04801C103.033 8.04801 101.534 6.50236 101.534 4.51511C101.49 1.97584 103.738 0.0621939 106.515 0.0621939Z" fill="white"/>
</svg>
