<svg width="100" height="100" viewBox="0 0 100 100" fill="none" xmlns="http://www.w3.org/2000/svg">
<g clip-path="url(#clip0_7104_108965)">
<path d="M34.8887 0.5H65.1113C75.1202 0.5 80.0384 0.503722 85.3887 2.1377C91.1314 4.19699 95.6833 8.74728 97.7461 14.4883H97.7471C99.4951 19.8416 99.5 24.8651 99.5 34.8887V65.1113C99.5 75.1191 99.4957 80.0371 97.8623 85.3867C95.8029 91.1315 91.2512 95.6847 85.5078 97.7471C80.0438 99.4944 75.129 99.5 65.1113 99.5H34.8887C24.8789 99.5 19.9612 99.4948 14.6104 97.8604C8.9344 95.7556 4.58537 91.5184 2.3457 85.9277L2.13574 85.3818C0.504282 80.1458 0.5 75.2301 0.5 65.1113V34.8887L0.50293 31.3594C0.526168 23.6426 0.708455 19.2927 2.1377 14.6123C4.31099 8.86033 8.75627 4.31162 14.6025 2.25195C19.188 0.723487 23.5203 0.528801 31.3223 0.503906L34.8887 0.5Z" fill="white" stroke="#E8E8E8"/>
<path d="M84.1181 30.0001C84.1181 22.4445 78.3403 16.6667 71.6736 16.6667C67.0069 16.6667 63.2292 18.2223 60.8958 21.6667C58.5625 18.2223 54.7847 16.6667 50.8958 16.6667C43.3403 16.6667 37.5625 22.4445 37.5625 30.0001C37.5625 29.6667 37.5625 29.7779 37.5625 30.0001C37.5625 41.2223 48.3403 52.5556 60.8958 57.4445C70.6736 54.2223 84.1181 41.2223 84.1181 30.0001C84.1181 29.7779 84.1181 29.6667 84.1181 30.0001Z" fill="url(#paint0_linear_7104_108965)"/>
</g>
<defs>
<linearGradient id="paint0_linear_7104_108965" x1="60.8181" y1="16.695" x2="60.8181" y2="57.5147" gradientUnits="userSpaceOnUse">
<stop stop-color="#FF61AD"/>
<stop offset="1" stop-color="#FF2719"/>
</linearGradient>
<clipPath id="clip0_7104_108965">
<rect width="100" height="100" fill="white"/>
</clipPath>
</defs>
</svg>
