<svg width="24" height="24" viewBox="0 0 24 24" fill="none" xmlns="http://www.w3.org/2000/svg">
<path d="M19.3109 18.1385C18.534 19.8417 17.0734 21.2204 15.2187 22.001C15.7965 21.2346 16.0549 20.3095 15.9484 19.3886C15.8289 18.5494 15.4273 17.7629 14.7974 17.1342C14.4668 16.7962 14.1363 16.4697 13.7941 16.1403C12.673 15.0987 12.0431 13.708 12.0358 12.2588C12.0242 12.1458 12.0126 12.0329 12.001 11.9104C11.9474 11.9145 11.8942 11.9212 11.8415 11.9303C10.2745 12.7564 9.02847 13.9961 8.27272 15.4809C7.51696 16.9658 7.28812 18.6238 7.61732 20.2297C7.83592 20.83 8.11041 21.4127 8.43786 21.9715C6.84125 21.2934 5.56434 20.1278 4.83465 18.6824C4.12663 17.3989 3.86019 15.9548 4.06936 14.5346C4.27852 13.1143 4.95379 11.7824 6.00896 10.7087C6.86058 9.87831 7.77065 9.098 8.73355 8.37254C9.38302 7.81913 10.0779 7.29609 10.682 6.70185C11.2513 6.15417 11.68 5.50091 11.938 4.78812C12.196 4.07534 12.277 3.32036 12.1752 2.5764C12.1752 2.5764 12.2555 1.58253 13.1784 2.20714C14.7767 3.57126 15.8404 5.364 16.2103 7.31697C16.5452 9.01872 16.5377 10.7607 16.1882 12.46C16.1882 12.46 16.0625 13.321 16.6898 13.0239C17.2209 12.6058 17.6409 12.0859 17.9189 11.5025C18.1969 10.9191 18.3258 10.2871 18.296 9.65308C18.296 9.65308 18.4555 8.99715 18.6952 9.4376C18.7023 9.44256 18.7081 9.44889 18.7121 9.45612C18.7161 9.46335 18.7183 9.47129 18.7184 9.47937C19.1161 10.345 19.4244 11.2417 19.6393 12.1582C20.2148 14.1348 20.0994 16.2228 19.3088 18.1385" fill="#1565C0"/>
</svg>
