<svg width="24" height="24" viewBox="0 0 24 24" fill="none" xmlns="http://www.w3.org/2000/svg">
<circle cx="12" cy="12.001" r="9.25" stroke="#1565C0" stroke-width="1.5"/>
<path fill-rule="evenodd" clip-rule="evenodd" d="M9.77778 9.2232C9.77778 8.63383 10.0119 8.0686 10.4287 7.65185C10.8454 7.2351 11.4106 7.00098 12 7.00098C12.5894 7.00098 13.1546 7.2351 13.5713 7.65185C13.9881 8.0686 14.2222 8.63383 14.2222 9.2232C14.2222 9.81257 13.9881 10.3778 13.5713 10.7945C13.1546 11.2113 12.5894 11.4454 12 11.4454C11.4106 11.4454 10.8454 11.2113 10.4287 10.7945C10.0119 10.3778 9.77778 9.81257 9.77778 9.2232ZM9.77778 12.5565C9.04107 12.5565 8.33453 12.8492 7.81359 13.3701C7.29266 13.8911 7 14.5976 7 15.3343C7 15.7763 7.17559 16.2003 7.48816 16.5128C7.80072 16.8254 8.22464 17.001 8.66667 17.001H15.3333C15.7754 17.001 16.1993 16.8254 16.5118 16.5128C16.8244 16.2003 17 15.7763 17 15.3343C17 14.5976 16.7073 13.8911 16.1864 13.3701C15.6655 12.8492 14.9589 12.5565 14.2222 12.5565H9.77778Z" fill="#1565C0"/>
</svg>
