<svg width="40" height="40" viewBox="0 0 40 40" fill="none" xmlns="http://www.w3.org/2000/svg">
<path d="M19.9352 16.8135C20.5285 16.8135 21.1088 16.9897 21.6022 17.3193C22.0952 17.6489 22.4796 18.1172 22.7067 18.665C22.9335 19.213 22.9932 19.8167 22.8775 20.3984C22.7617 20.9802 22.4757 21.5151 22.0563 21.9346C21.6367 22.354 21.1019 22.6401 20.5201 22.7559C19.9384 22.8715 19.3347 22.8119 18.7867 22.585C18.2389 22.358 17.7706 21.9734 17.441 21.4805C17.1115 20.9873 16.9353 20.4067 16.9352 19.8135C16.9352 19.018 17.2516 18.255 17.8141 17.6924C18.3767 17.1298 19.1396 16.8135 19.9352 16.8135Z" fill="#2C2827"/>
<path fill-rule="evenodd" clip-rule="evenodd" d="M22.4313 7C22.8223 7.00015 23.1777 7.22841 23.3404 7.58398L24.4801 10.0742L26.6363 11.2744L29.4674 10.9785L29.6119 10.9736C29.9453 10.9871 30.2545 11.1673 30.4293 11.459L32.86 15.5146C33.0698 15.8649 33.0462 16.3085 32.7994 16.6338L31.1334 18.8271V21.1748L32.7984 23.3682C33.0455 23.6935 33.0699 24.1369 32.86 24.4873L30.4293 28.543C30.2294 28.8765 29.8541 29.0638 29.4674 29.0234L26.6363 28.7256L24.4801 29.9258L23.3404 32.416C23.1777 32.7715 22.8223 32.9999 22.4313 33H17.5709C17.1798 33 16.8246 32.7716 16.6617 32.416L15.5211 29.9258L13.3649 28.7256L10.5348 29.0234C10.148 29.064 9.7728 28.8765 9.57286 28.543L7.14317 24.4873C6.93317 24.1368 6.9575 23.6935 7.2047 23.3682L8.86974 21.1748V18.8271L7.2047 16.6338C6.9576 16.3084 6.93321 15.8651 7.14317 15.5146L9.57286 11.459L9.65587 11.3408C9.86688 11.0823 10.1965 10.9431 10.5348 10.9785L13.3649 11.2744L15.5211 10.0742L16.6617 7.58398L16.7311 7.45703C16.9135 7.17499 17.2286 7 17.5709 7H22.4313ZM17.2027 11.2061C17.1141 11.3997 16.9659 11.5605 16.7799 11.6641L14.0631 13.1758C13.8835 13.2757 13.6766 13.3182 13.4723 13.2969L10.9606 13.0332L9.20567 15.9619L10.6656 17.8848C10.7977 18.0587 10.8697 18.2719 10.8697 18.4902V21.5127C10.8697 21.7311 10.7977 21.9442 10.6656 22.1182L9.20567 24.0391L10.9606 26.9668L13.4723 26.7041L13.6256 26.7002C13.7782 26.7077 13.9284 26.7502 14.0631 26.8252L16.7799 28.3369L16.9117 28.4248C17.0361 28.5227 17.1362 28.6496 17.2027 28.7949L18.2125 31H21.7897L22.7994 28.7949L22.8766 28.6562C22.9644 28.5246 23.0827 28.4146 23.2223 28.3369L25.9391 26.8252L26.0787 26.7607C26.222 26.7078 26.3766 26.688 26.5299 26.7041L29.0406 26.9668L30.7965 24.0391L29.3375 22.1182C29.2053 21.9442 29.1334 21.7312 29.1334 21.5127V18.4902C29.1334 18.2718 29.2054 18.0587 29.3375 17.8848L30.7965 15.9619L29.0406 13.0332L26.5299 13.2969C26.3255 13.3182 26.1187 13.2756 25.9391 13.1758L23.2223 11.6641C23.0362 11.5605 22.8881 11.3997 22.7994 11.2061L21.7897 9H18.2125L17.2027 11.2061Z" fill="#2C2827"/>
</svg>
