<svg width="14" height="20" viewBox="0 0 14 20" fill="none" xmlns="http://www.w3.org/2000/svg">
<path opacity="0.988" fill-rule="evenodd" clip-rule="evenodd" d="M6.11604 0C8.7533 1.92287 11.3813 3.85563 14 5.79832C12.1058 7.19765 10.2105 8.59819 8.31399 10C10.2105 11.4018 12.1058 12.8024 14 14.2017C11.3863 16.139 8.76629 18.0718 6.13993 20C6.12402 17.2829 6.10806 14.5658 6.09215 11.8487C4.49147 13.2563 2.89078 14.6639 1.2901 16.0714C1.24232 16.0995 1.19454 16.0995 1.14676 16.0714C0.755847 15.7347 0.373595 15.3916 0 15.042C1.89534 13.3613 3.79067 11.6807 5.68601 10C3.79067 8.31933 1.89534 6.63866 0 4.95798C0.373595 4.60845 0.755847 4.26529 1.14676 3.92857C1.19454 3.90055 1.24232 3.90055 1.2901 3.92857C2.89078 5.33613 4.49147 6.7437 6.09215 8.15126C6.11604 5.4342 6.12402 2.71712 6.11604 0ZM7.7884 3.23529C8.98165 4.06887 10.1603 4.92324 11.3242 5.79832C10.1704 6.66265 9.00769 7.51702 7.83618 8.36134C7.7884 6.6529 7.77249 4.9442 7.7884 3.23529ZM7.7884 11.6387C8.98165 12.4722 10.1603 13.3266 11.3242 14.2017C10.1704 15.066 9.00769 15.9204 7.83618 16.7647C7.7884 15.0563 7.77249 13.3476 7.7884 11.6387Z" fill="#1565C0"/>
</svg>
