<svg width="59" height="60" viewBox="0 0 59 60" fill="none" xmlns="http://www.w3.org/2000/svg">
<path d="M5.06385 25.2308C6.3176 26.4846 8.30885 26.6075 9.66093 25.4767C21.1413 16.0367 37.8088 16.0367 49.3139 25.4521C50.6905 26.5829 52.7064 26.4846 53.9601 25.2308C55.4105 23.7804 55.3122 21.3712 53.7143 20.0683C39.6772 8.5879 19.3713 8.5879 5.30968 20.0683C3.71176 21.3467 3.58885 23.7558 5.06385 25.2308ZM24.1405 44.3075L27.7543 47.9212C28.713 48.88 30.2618 48.88 31.2205 47.9212L34.8343 44.3075C35.9897 43.1521 35.7438 41.1608 34.2688 40.3987C32.7819 39.6352 31.1344 39.237 29.4628 39.237C27.7913 39.237 26.1437 39.6352 24.6568 40.3987C23.2555 41.1608 22.9851 43.1521 24.1405 44.3075ZM14.9709 35.1379C16.1755 36.3425 18.0684 36.4654 19.4697 35.4575C22.4026 33.3824 25.9069 32.268 29.4997 32.268C33.0924 32.268 36.5968 33.3824 39.5297 35.4575C40.9309 36.4408 42.8238 36.3425 44.0284 35.1379L44.053 35.1133C45.528 33.6383 45.4297 31.1308 43.7334 29.9262C35.2768 23.805 23.7472 23.805 15.2659 29.9262C13.5697 31.1554 13.4713 33.6383 14.9709 35.1379Z" fill="white"/>
</svg>
