<svg width="32" height="32" viewBox="0 0 32 32" fill="none" xmlns="http://www.w3.org/2000/svg">
<path d="M16.0815 22.874C18.0107 22.9091 19.0066 25.4655 17.7573 27.0938H17.7417C16.8245 28.3018 15.1483 28.3018 14.2153 27.0938C12.9662 25.4655 13.9628 22.9091 15.8921 22.874H16.0815ZM16.0005 13.4189C18.7362 13.4189 21.2986 14.2598 23.4809 15.748C24.5718 16.4835 24.7934 17.937 23.9712 19.0049C23.3702 19.8102 22.2307 19.9676 21.4243 19.4248C19.843 18.3394 17.9929 17.7266 16.0005 17.7266C14.008 17.7266 12.1579 18.3569 10.5766 19.4248C9.77025 19.9675 8.64752 19.7925 8.03073 19.0049C7.20841 17.9369 7.44563 16.4834 8.52096 15.748C10.6874 14.2774 13.2648 13.419 16.0005 13.4189ZM16.0005 4C20.9024 4.00006 25.4406 5.69831 29.1567 8.58691C30.1214 9.33974 30.2799 10.758 29.521 11.7734C28.8884 12.5963 27.7179 12.772 26.9272 12.1592C23.8277 9.7606 20.0645 8.34186 16.0005 8.3418V8.35938C11.9363 8.35938 8.15638 9.76062 5.07272 12.1768C4.28206 12.7892 3.11242 12.5961 2.47995 11.7734C1.72089 10.7755 1.87859 9.35732 2.84323 8.60449C6.55942 5.69817 11.0983 4 16.0005 4Z" fill="#1565C0"/>
</svg>
