<svg width="24" height="24" viewBox="0 0 24 24" fill="none" xmlns="http://www.w3.org/2000/svg">
<path d="M21.503 13.1572C21.3577 12.7849 21.284 12.3788 21.2871 11.9684V11.9644C21.2833 11.5541 21.3564 11.148 21.5009 10.7756C21.6567 10.4926 21.7865 10.1905 21.8881 9.87453C21.9879 9.4731 22.0202 9.05215 21.983 8.63584C21.9458 8.21952 21.84 7.81606 21.6715 7.4486C21.4796 7.00386 21.1764 6.64111 20.8038 6.41053C20.4212 6.14481 19.9866 6.00358 19.5437 6.00101C19.1007 5.99844 18.665 6.13463 18.2802 6.3959C17.8954 6.65718 17.5751 7.03436 17.3514 7.4896C17.1277 7.94484 17.0084 8.46213 17.0056 8.98959V8.99845C17.0066 9.07923 16.9941 9.15944 16.969 9.23446C16.9438 9.30949 16.9064 9.37785 16.859 9.4356C16.8116 9.49336 16.755 9.53937 16.6926 9.57099C16.6302 9.60261 16.5631 9.61922 16.4953 9.61984H7.4632C7.40164 9.61984 7.34068 9.60539 7.28382 9.57731C7.22695 9.54923 7.17529 9.50808 7.13179 9.45621C7.08829 9.40433 7.05381 9.34275 7.03031 9.275C7.00681 9.20724 6.99476 9.13463 6.99485 9.06132C6.99224 8.53363 6.87312 8.01605 6.64946 7.5605C6.4258 7.10496 6.10545 6.72748 5.72057 6.46594C5.33569 6.2044 4.89981 6.06801 4.45668 6.07045C4.01354 6.07289 3.57874 6.21408 3.19591 6.47984C2.82258 6.71002 2.51863 7.07281 2.32621 7.51791C2.1579 7.88545 2.05214 8.2889 2.01498 8.70518C1.97781 9.12146 2.00998 9.54238 2.10963 9.94384C2.21125 10.2598 2.34104 10.5619 2.49676 10.8449C2.64136 11.2173 2.71442 11.6234 2.71064 12.0337V12.0377C2.71435 12.448 2.64129 12.8541 2.49676 13.2265C2.34091 13.5094 2.21111 13.8115 2.10963 14.1276C2.00998 14.529 1.97781 14.9499 2.01498 15.3662C2.05214 15.7825 2.1579 16.1859 2.32621 16.5535C2.51863 16.9986 2.82258 17.3614 3.19591 17.5915C3.5786 17.8572 4.01321 17.9984 4.45617 18.0009C4.89913 18.0035 5.33487 17.8673 5.71969 17.6061C6.10452 17.3448 6.4249 16.9677 6.64871 16.5125C6.87251 16.0572 6.99189 15.54 6.99485 15.0125V15.006C6.99387 14.9253 7.00631 14.8451 7.03147 14.77C7.05662 14.695 7.09399 14.6266 7.14142 14.5689C7.18886 14.5111 7.24541 14.4651 7.30784 14.4335C7.37027 14.4019 7.43733 14.3853 7.50517 14.3847H16.5372C16.5988 14.3847 16.6597 14.3991 16.7166 14.4272C16.7735 14.4553 16.8251 14.4964 16.8686 14.5483C16.9121 14.6002 16.9466 14.6617 16.9701 14.7295C16.9936 14.7973 17.0057 14.8699 17.0056 14.9432C17.0084 15.4706 17.1277 15.9879 17.3514 16.4432C17.5751 16.8984 17.8954 17.2756 18.2802 17.5369C18.665 17.7981 19.1007 17.9343 19.5437 17.9318C19.9866 17.9292 20.4212 17.788 20.8038 17.5222C21.1772 17.2921 21.4811 16.9293 21.6735 16.4842C21.842 16.1167 21.9479 15.7132 21.985 15.2969C22.0222 14.8806 21.99 14.4597 21.8901 14.0582C21.7888 13.7421 21.659 13.44 21.503 13.1572Z" fill="#1565C0"/>
</svg>
