<svg width="100" height="100" viewBox="0 0 100 100" fill="none" xmlns="http://www.w3.org/2000/svg">
<g clip-path="url(#clip0_7104_108977)">
<rect width="100" height="100" rx="5" fill="#1565C0"/>
<path d="M11.6665 76.0061C14.2832 75.1269 16.9019 74.2665 20.4728 72.8456C24.0248 71.4436 28.5311 69.4811 31.7853 67.8165C35.0394 66.1519 37.0207 64.7873 39.3394 63.4227C41.8224 62.2997 43.9831 60.5703 45.6228 58.3936C46.7223 56.0369 47.1616 53.4261 46.8936 50.8394C46.8023 49.5629 46.5889 48.2981 46.2561 47.0623C45.9569 45.8211 45.9569 44.5265 46.2561 43.2852C46.6311 42.1269 47.5665 41.304 45.0061 37.004C42.4457 32.704 36.4019 24.9061 36.1978 23.7831C35.9728 22.6623 41.6019 28.2144 45.004 31.9727C48.4082 35.7123 49.5853 37.6956 50.6707 38.2561C50.872 38.3837 51.1061 38.4501 51.3444 38.4471C51.5828 38.4442 51.8152 38.3719 52.0132 38.2392C52.2113 38.1065 52.3665 37.9191 52.4599 37.6998C52.5533 37.4805 52.5809 37.2387 52.5394 37.004C52.4269 35.9936 51.2477 34.8331 51.8478 33.7311C53.0172 32.4424 54.5957 31.5968 56.3165 31.3373C56.828 31.183 57.3785 31.2236 57.8617 31.4514C58.345 31.6792 58.7267 32.0779 58.9332 32.5706C59.4748 33.5248 59.9998 34.8894 59.4748 35.7311C58.9332 36.5915 57.3811 36.9102 56.3352 37.6769C55.2873 38.4248 54.7457 39.6206 55.5498 39.6019C56.3727 39.5831 58.5415 38.3498 60.729 37.6206C62.5941 37.1017 64.4857 36.6831 66.3957 36.3665C67.6478 36.0686 67.9852 35.6936 70.154 35.1144C72.6201 34.4286 75.1526 34.0088 77.7082 33.8623C79.0353 33.9748 77.6332 34.9831 75.8186 35.7311C74.0061 36.4977 71.7811 37.0227 70.1519 37.6206C68.5477 38.2373 67.5186 38.9477 65.7603 39.5081C63.8101 39.9368 61.9107 40.5702 60.0936 41.3977C58.7103 42.2936 58.4478 43.6602 57.5894 45.1748C56.7311 46.6894 55.2707 48.3331 55.1957 49.5873C55.1019 50.8373 56.3727 51.6811 56.954 52.7269C57.5353 53.7727 57.4394 55.0081 58.2998 55.9623C59.8346 57.1481 61.4895 58.1696 63.2373 59.0102C65.4978 60.3936 68.1727 62.4123 70.0602 63.3665C71.9665 64.3206 73.0707 64.1706 75.1269 65.1436C77.6321 66.6316 80.2377 67.9437 82.9248 69.0706C85.7103 69.9477 88.2727 69.6123 89.1498 70.2852C90.0269 70.9581 89.2248 72.6394 87.7477 73.0894C86.1285 73.3413 84.4723 73.0098 83.0748 72.154C82.0269 71.5373 82.1019 71.0498 80.1207 70.2852C78.1561 69.5186 74.1561 68.4894 70.1728 67.0144C66.1728 65.5352 62.2082 63.6477 58.8415 62.7852C56.1694 62.036 53.3428 62.036 50.6707 62.7852C48.9164 63.4753 47.2271 64.3203 45.6228 65.3102C44.0332 66.0769 42.2373 66.5644 39.9769 67.8165C37.3979 69.5516 34.6549 71.0295 31.7873 72.229C28.6082 73.2956 24.9998 73.3706 22.9811 74.1185C20.9623 74.8665 20.5498 76.2686 19.8394 76.6227C19.129 76.9769 18.0998 76.2873 16.6978 76.0061C15.0276 75.7903 13.3366 75.7903 11.6665 76.0061Z" fill="white" stroke="white" stroke-linecap="round" stroke-linejoin="round"/>
</g>
<defs>
<clipPath id="clip0_7104_108977">
<rect width="100" height="100" fill="white"/>
</clipPath>
</defs>
</svg>
