<svg width="24" height="24" viewBox="0 0 24 24" fill="none" xmlns="http://www.w3.org/2000/svg">
<path d="M12 3C16.9706 3 21 7.02944 21 12C21 16.9706 16.9706 21 12 21C7.02944 21 3 16.9706 3 12C3 7.02944 7.02944 3 12 3Z" stroke="#1565C0" stroke-width="2"/>
<mask id="mask0_15617_74816" style="mask-type:luminance" maskUnits="userSpaceOnUse" x="9" y="7" width="7" height="11">
<path d="M15.3179 7.45312H9.27344V17.3527H15.3179V7.45312Z" fill="white"/>
</mask>
<g mask="url(#mask0_15617_74816)">
<path d="M11.0432 13.9994V13.5118C11.0344 13.1308 11.1271 12.7543 11.3118 12.4209C11.5697 12.0275 11.9038 11.6896 12.2944 11.4273C12.6347 11.2068 12.9407 10.9374 13.2024 10.6276C13.3472 10.4273 13.4243 10.1859 13.4222 9.93867C13.429 9.81274 13.4037 9.68715 13.3487 9.57369C13.2936 9.46023 13.2107 9.36261 13.1076 9.29C12.8447 9.12684 12.5378 9.04887 12.229 9.06678C11.4416 9.10276 10.6736 9.32293 9.98672 9.70958L9.27344 8.27377C10.2179 7.73485 11.2868 7.45222 12.3741 7.45391C13.1438 7.41281 13.9036 7.64262 14.5215 8.10342C14.7796 8.30998 14.9858 8.57402 15.1237 8.87447C15.2615 9.17491 15.3272 9.50343 15.3154 9.83377C15.3266 10.2719 15.2128 10.7041 14.9873 11.0799C14.6492 11.5464 14.2279 11.9464 13.7445 12.2598C13.4473 12.4575 13.1792 12.6959 12.9481 12.968C12.8285 13.1576 12.77 13.3794 12.7803 13.6033V13.9994H11.0432ZM10.8334 16.2416C10.8222 16.0899 10.8427 15.9376 10.8936 15.7943C10.9444 15.651 11.0245 15.5198 11.1288 15.4092C11.367 15.2064 11.6753 15.1052 11.9873 15.1272C12.2942 15.1084 12.5961 15.2122 12.8264 15.4159C12.9304 15.5255 13.0105 15.6555 13.0618 15.7976C13.113 15.9397 13.1343 16.0909 13.1243 16.2416C13.1323 16.391 13.1097 16.5405 13.0579 16.6809C13.0061 16.8213 12.9262 16.9497 12.8231 17.0581C12.7103 17.1614 12.5779 17.241 12.4337 17.2922C12.2896 17.3434 12.1366 17.3651 11.9839 17.356C11.8296 17.3658 11.6748 17.3451 11.5285 17.295C11.3822 17.2449 11.2472 17.1664 11.1313 17.064C11.027 16.9552 10.9464 16.8259 10.8946 16.6844C10.8427 16.5428 10.8208 16.3921 10.8301 16.2416" fill="#1565C0"/>
</g>
</svg>
