<svg width="28" height="28" viewBox="0 0 28 28" fill="none" xmlns="http://www.w3.org/2000/svg">
<path d="M14 1C21.1797 1 27 6.8203 27 14C27 21.1797 21.1797 27 14 27C6.8203 27 1 21.1797 1 14C1 6.8203 6.8203 1 14 1Z" stroke="#1565C0" stroke-width="2"/>
<mask id="mask0_6604_16938" style="mask-type:luminance" maskUnits="userSpaceOnUse" x="10" y="7" width="9" height="15">
<path d="M18.6439 7.63672H10.1816V21.4961H18.6439V7.63672Z" fill="white"/>
</mask>
<g mask="url(#mask0_6604_16938)">
<path d="M12.6593 16.8001V16.1175C12.647 15.5841 12.7768 15.057 13.0353 14.5902C13.3964 14.0394 13.8642 13.5664 14.411 13.1993C14.8874 12.8905 15.3158 12.5133 15.6822 12.0796C15.885 11.7992 15.9928 11.4612 15.99 11.1151C15.9995 10.9388 15.964 10.763 15.887 10.6041C15.8099 10.4453 15.6938 10.3086 15.5494 10.207C15.1814 9.97855 14.7518 9.8694 14.3194 9.89447C13.217 9.94485 12.1419 10.2531 11.1802 10.7944L10.1816 8.78426C11.5038 8.02977 13.0003 7.63409 14.5226 7.63646C15.6002 7.57891 16.6639 7.90064 17.529 8.54577C17.8903 8.83494 18.179 9.2046 18.3719 9.62523C18.5649 10.0459 18.6568 10.5058 18.6404 10.9683C18.656 11.5816 18.4967 12.1868 18.181 12.7129C17.7077 13.3659 17.1179 13.9259 16.4411 14.3647C16.025 14.6415 15.6497 14.9753 15.3262 15.3562C15.1588 15.6217 15.0768 15.9321 15.0912 16.2456V16.8001H12.6593ZM12.3656 19.9392C12.3499 19.7269 12.3786 19.5136 12.4498 19.313C12.521 19.1124 12.6332 18.9287 12.7792 18.7738C13.1127 18.49 13.5442 18.3483 13.981 18.3791C14.4107 18.3527 14.8333 18.4981 15.1559 18.7832C15.3013 18.9367 15.4135 19.1186 15.4853 19.3176C15.5571 19.5165 15.5869 19.7282 15.5729 19.9392C15.5841 20.1484 15.5524 20.3577 15.4799 20.5543C15.4074 20.7508 15.2955 20.9305 15.1512 21.0823C14.9932 21.227 14.8079 21.3384 14.6061 21.4101C14.4042 21.4817 14.1901 21.5121 13.9763 21.4994C13.7603 21.5132 13.5436 21.4841 13.3388 21.414C13.1339 21.3438 12.945 21.2339 12.7827 21.0906C12.6367 20.9382 12.5238 20.7572 12.4512 20.5591C12.3786 20.3609 12.3479 20.1499 12.3609 19.9392" fill="#1565C0"/>
</g>
</svg>
