<svg preserveAspectRatio="none" width="100%" height="100%" overflow="visible" style="display: block;" viewBox="0 0 20 20" fill="none" xmlns="http://www.w3.org/2000/svg">
<g id="Group 7000">
<path id="Ellipse 2099" d="M10 20C15.5228 20 20 15.5228 20 10C20 4.47715 15.5228 0 10 0C4.47715 0 0 4.47715 0 10C0 15.5228 4.47715 20 10 20Z" fill="#8841A4"/>
<g id="Group 6741">
<path id="Path 11272" d="M8.01172 14.0848C8.23551 14.0037 8.47623 13.9807 8.71132 14.018C9.13216 14.1079 9.30329 14.4523 8.96748 15.1186C8.90219 15.2719 8.89108 15.443 8.93598 15.6035C8.98088 15.764 9.07911 15.9045 9.2145 16.0017" stroke="#FFFFFF" stroke-width="0.645786" stroke-linecap="round" stroke-linejoin="round"/>
<path id="Path 11273" d="M12.0781 12.708C11.8675 12.592 11.622 12.5562 11.3871 12.6074C11.1718 12.6704 10.7618 13.0675 11.2698 13.7122C11.3946 13.8583 11.4731 14.0381 11.4954 14.2289C11.5178 14.4197 11.4829 14.6128 11.3952 14.7837" stroke="#FFFFFF" stroke-width="0.645786" stroke-miterlimit="10" stroke-linecap="round"/>
<path id="Path 11274" d="M15.5214 8.99818C15.2346 10.6756 13.5152 12.5457 11.8378 12.2583C10.1603 11.971 9.16044 9.63643 9.44727 7.959C9.51475 7.55944 9.66036 7.17711 9.87579 6.8339C10.0912 6.49069 10.3722 6.19334 10.7027 5.95887C11.0332 5.7244 11.4067 5.55741 11.8018 5.46748C12.1969 5.37754 12.6059 5.36642 13.0053 5.43475C13.4047 5.50307 13.7868 5.64951 14.1295 5.86567C14.4723 6.08183 14.769 6.36347 15.0028 6.69446C15.2365 7.02546 15.4027 7.39931 15.4918 7.79461C15.5809 8.18992 15.5906 8.59891 15.5214 8.99818Z" stroke="#FFFFFF" stroke-width="0.645786" stroke-miterlimit="10" stroke-linecap="round"/>
<path id="Path 11275" d="M11.4523 8.76747C11.7284 10.6655 10.5374 13.2691 8.63773 13.5452C6.73804 13.8213 4.8545 11.666 4.57789 9.7679C4.44522 8.8563 4.68012 7.92934 5.23091 7.19093C5.78171 6.45252 6.60327 5.96316 7.51487 5.83049C8.42647 5.69783 9.35344 5.93273 10.0918 6.48352C10.8303 7.03431 11.3196 7.85587 11.4523 8.76747Z" fill="#8841A4" stroke="#FFFFFF" stroke-width="0.645786" stroke-miterlimit="10" stroke-linecap="round"/>
</g>
<path id="Path 11298" opacity="0.159" d="M4.88166 7.80208C4.55479 8.36279 4.42129 9.01539 4.50221 9.65935C4.58313 10.3033 4.87399 10.9029 5.32942 11.3653C5.32942 11.3653 5.05056 11.7689 6.49927 12.3491C7.09049 12.5516 7.73213 12.5535 8.32448 12.3543C8.91684 12.1552 9.42676 11.7661 9.7755 11.2475C10.1853 10.6135 10.425 9.88416 10.4713 9.13066C10.5176 8.37715 10.369 7.62485 10.0399 6.94545C10.0399 6.94545 10.3652 6.57248 9.17428 6.1172C8.01564 5.67483 6.14686 5.98151 4.88166 7.80208Z" fill="#FFFFFF"/>
<path id="Path 11300" opacity="0.159" d="M10.7096 6.47565C11.1679 6.64282 11.5771 6.92127 11.901 7.28604C12.2249 7.65081 12.453 8.09036 12.5648 8.56521C12.5766 8.85408 12.6883 9.13029 12.8807 9.34616C13.073 9.56203 13.334 9.70379 13.6196 9.74873C13.879 9.78748 14.965 9.78745 15.121 8.00078C15.2771 6.2141 15.7621 8.26967 14.8903 6.37159C14.8903 6.37159 15.2162 5.99485 14.0253 5.54334C13.4429 5.34771 12.8152 5.33199 12.2237 5.49814C11.6323 5.66429 11.1049 6.00538 10.7096 6.47565Z" fill="#FFFFFF"/>
<path id="Path 11299" d="M7.37872 7.71159C7.1088 7.79398 6.86547 7.9469 6.67501 8.15515C6.48456 8.3634 6.35359 8.61893 6.29557 8.89511" stroke="#FFFFFF" stroke-width="0.645786" stroke-linecap="round"/>
</g>
</svg>
