<svg width="89" height="162" viewBox="0 0 89 162" fill="none" xmlns="http://www.w3.org/2000/svg">
<path d="M42.7178 82.6094C54.1835 82.6095 60.9178 89.9088 60.918 98.8086C60.918 103.056 59.7181 105.459 57.7891 109.234C55.222 113.802 48.6489 122.38 44.8799 127.675H59.001C59.4003 127.689 59.7796 127.855 60.0615 128.138C60.3436 128.421 60.5071 128.802 60.5195 129.201V136.413C60.5071 136.813 60.3434 137.192 60.0615 137.476C59.7796 137.759 59.4004 137.924 59.001 137.939H26.9209C26.5163 137.938 26.1279 137.777 25.8418 137.491C25.5559 137.205 25.3951 136.818 25.3945 136.413V134.813L25.3906 134.814C30.0468 128.718 41.9106 112.605 46.6436 105.385C47.8918 103.586 48.615 101.476 48.7324 99.2901C48.7324 96.2451 46.1657 93.5167 41.6738 93.5166C38.384 93.5166 35.4147 95.8425 33.8916 97.5225C33.7477 97.6755 33.5736 97.7976 33.3809 97.8809C33.1881 97.9642 32.9804 98.0079 32.7705 98.0079C32.5605 98.0078 32.3529 97.9642 32.1602 97.8809C31.9674 97.7976 31.7933 97.6755 31.6494 97.5225L26.7568 92.5528C26.4748 92.2831 26.3084 91.9144 26.2939 91.5245C26.2796 91.1344 26.4182 90.7537 26.6797 90.4639C26.6982 90.4415 33.1934 82.6094 42.7178 82.6094Z" fill="#00B3E3" fill-opacity="0.4"/>
<path fill-rule="evenodd" clip-rule="evenodd" d="M44.1621 0.00199234C46.4838 0.00463686 48.7993 0.246577 51.0713 0.724649C57.404 2.12262 63.1589 5.42037 67.5684 10.1758C71.9778 14.9313 74.8316 20.9188 75.748 27.3389C76.6645 33.759 75.6001 40.3062 72.6973 46.1055C69.7945 51.9046 65.1915 56.6801 59.5029 59.794C59.28 59.9198 59.1011 60.1107 58.9893 60.3409C58.8774 60.5711 58.8381 60.8301 58.877 61.083C58.9158 61.3358 59.0304 61.571 59.2061 61.7569C59.3819 61.9429 59.6109 62.071 59.8613 62.1241C67.8632 63.6655 75.0796 67.9435 80.2725 74.2237C85.4652 80.5038 88.3115 88.395 88.3223 96.544V161.145H0V96.5498C0.0106503 88.4015 2.85584 80.5106 8.04785 74.2305C13.24 67.9504 20.4557 63.6721 28.457 62.1299C28.7068 62.0764 28.9348 61.9483 29.1104 61.7627C29.2857 61.5773 29.4009 61.343 29.4404 61.0909C29.4799 60.8386 29.4423 60.5799 29.332 60.3496C29.2216 60.1193 29.0437 59.9272 28.8223 59.7998C22.612 56.4017 17.7102 51.032 14.8916 44.5381C12.0731 38.0443 11.4978 30.7965 13.2568 23.9395C15.016 17.0824 19.0098 11.006 24.6064 6.67094C30.203 2.33609 37.0841 -0.0110639 44.1631 3.92111e-05L44.1621 0.00199234ZM44.1631 7.20023C38.6808 7.18754 33.3501 9.00183 29.0146 12.3575C24.6794 15.713 21.5869 20.4183 20.2246 25.7286C18.8624 31.039 19.3084 36.6525 21.4932 41.6807C23.678 46.7088 27.4766 50.8654 32.2881 53.4932C33.8048 54.3327 35.0268 55.6179 35.7891 57.1748C36.5514 58.732 36.8171 60.4862 36.5498 62.1993C36.2825 63.9123 35.4954 65.5021 34.2949 66.753C33.0944 68.0038 31.5385 68.8559 29.8379 69.1934C23.4834 70.4288 17.7538 73.8298 13.626 78.8164C9.49831 83.8031 7.22775 90.0668 7.20117 96.5401V153.94H81.125V96.5469C81.1011 90.072 78.8313 83.8058 74.7031 78.8174C70.575 73.8293 64.8443 70.428 58.4883 69.1934C56.7871 68.8564 55.2301 68.0043 54.0293 66.753C52.8285 65.5016 52.042 63.911 51.7754 62.1973C51.5088 60.4837 51.7753 58.7298 52.5391 57.1729C53.3029 55.6159 54.5266 54.3312 56.0449 53.4932C60.4452 51.0866 64.0074 47.3957 66.2568 42.9131C68.5063 38.4305 69.3361 33.3686 68.6357 28.4024C67.9353 23.4364 65.7381 18.8018 62.3369 15.1163C58.9355 11.4306 54.4909 8.8693 49.5967 7.77348C47.81 7.39615 45.9892 7.20386 44.1631 7.20023Z" fill="#00B3E3" fill-opacity="0.4"/>
</svg>
