<svg width="100" height="60" viewBox="0 0 100 60" fill="none" xmlns="http://www.w3.org/2000/svg">
<rect y="60" width="60" height="100" rx="3" transform="rotate(-90 0 60)" fill="#2B8AEB"/>
<path d="M19.0646 51.685L16.373 55.0301L16.4291 55.0938C16.9151 55.6354 17.6067 55.9593 18.2796 55.9858L27.4759 55.9858C27.7329 55.9381 27.9899 55.9062 28.2329 55.7947L28.2889 55.7628L28.373 55.731L28.4291 55.6991L28.5132 55.6673L28.5693 55.6354L28.6534 55.5717L28.7095 55.5398L28.7936 55.508L28.9058 55.3805L28.9618 55.3487L29.0459 55.285L29.102 55.2212L29.1581 55.1894L29.2142 55.1257L26.6347 51.685L19.0646 51.685Z" fill="#222D39"/>
<path d="M15.3633 52.0356L15.3633 52.5453L15.3913 52.6409L15.3913 52.7364L15.4194 52.8002L15.4194 52.9913L15.4474 53.0869L15.4754 53.1506L15.4754 53.2462L15.5035 53.3418L15.5315 53.4055L15.5595 53.501L15.5876 53.5648L15.6156 53.6603L15.6437 53.7559L15.6717 53.8196L15.6997 53.9152L15.7278 53.9789C15.7651 54.1223 15.8493 54.2444 15.924 54.3612L15.9521 54.4568L16.0081 54.5205L16.0362 54.5842L18.7278 51.271L19.1483 32.5382L17.5502 30.4037L15.8119 32.5382L15.3633 52.0356Z" fill="#222D39"/>
<path d="M27.1951 27.823L19.625 27.823L17.8867 29.9575L19.5129 32.092L27.0549 32.092L28.7933 29.9575L27.1951 27.823Z" fill="#222D39"/>
<path d="M15.9512 27.377L17.5493 29.5115L19.2876 27.377L19.7082 8.64422L17.1287 5.23537L17.1007 5.29909C16.6568 5.94687 16.4418 6.71148 16.3998 7.52917L16.3998 7.62475L15.9512 27.377Z" fill="#222D39"/>
<path d="M45.7565 32.5381L45.3359 51.2708L47.9154 54.6797L47.9434 54.616C48.3733 53.9947 48.6116 53.1664 48.6443 52.3859L48.6443 52.2903L49.0929 32.5381L47.4948 30.4036L45.7565 32.5381Z" fill="#222D39"/>
<path d="M45.8965 27.377L47.4946 29.5115L49.2329 27.377L49.6815 7.87962L49.6815 7.8159C49.6909 6.96103 49.4619 6.09554 49.0367 5.39466L49.0086 5.33094L46.317 8.67607L45.8965 27.377Z" fill="#222D39"/>
<path d="M64.0924 32.5381L63.6719 51.2708L66.2513 54.6797L66.3074 54.616C66.6906 53.9947 66.985 53.1505 66.9803 52.3859L67.0083 52.2903L67.4569 32.5381L65.8308 30.4036L64.0924 32.5381Z" fill="#222D39"/>
<path d="M55.7658 51.685L53.0742 55.0301L53.1303 55.0938C53.6163 55.6407 54.2845 55.9434 54.9527 55.9858L64.177 55.9858C64.434 55.9381 64.691 55.9062 64.934 55.7947L64.9901 55.7628L65.0742 55.731C65.3733 55.5982 65.5555 55.4336 65.8032 55.2212L65.8593 55.1894L65.9153 55.1257L63.3359 51.685L55.7658 51.685Z" fill="#222D39"/>
<path d="M52.066 52.0356L52.066 52.0993C52.0427 53.0019 52.281 53.7612 52.6828 54.5205L52.7389 54.5842L55.4305 51.271L55.8511 32.5382L54.2529 30.4037L52.5146 32.5382L52.066 52.0356Z" fill="#222D39"/>
<path d="M63.8983 27.823L56.3282 27.823L54.5898 29.9575L56.188 32.092L63.7581 32.092L65.4964 29.9575L63.8983 27.823Z" fill="#222D39"/>
<path d="M56.0758 3.9291L55.9917 3.9291C55.3608 3.98219 54.6973 4.23175 54.2533 4.75742L54.1973 4.78927L56.7487 8.22998L64.3188 8.22998L67.0103 4.88485L66.9543 4.82113C66.4776 4.29016 65.8047 3.98219 65.1318 3.9291L56.0758 3.9291Z" fill="#222D39"/>
<path d="M52.6543 27.377L54.2524 29.5115L55.9907 27.377L56.4113 8.64422L53.8319 5.23537L53.8038 5.29909C53.3786 5.9044 53.1216 6.76457 53.1029 7.52917L53.1029 7.62475L52.6543 27.377Z" fill="#222D39"/>
<path d="M82.4577 32.5381L82.0371 51.2708L84.5885 54.6797L84.6446 54.616C85.0745 53.9788 85.3081 53.1823 85.3455 52.3859L85.3455 52.2903L85.7941 32.5381L84.196 30.4036L82.4577 32.5381Z" fill="#222D39"/>
<path d="M74.1037 51.685L71.4121 55.0301L71.4682 55.0938L71.5523 55.1575L71.7205 55.3487L71.8046 55.3805L71.9168 55.508L72.0009 55.5398L72.057 55.6035L72.1411 55.6354L72.2252 55.6673L72.2813 55.6991L72.3654 55.7628C72.6224 55.8531 72.9682 55.9646 73.2345 55.9858L82.5149 55.9858C82.7392 55.954 83.071 55.8956 83.2719 55.7947L83.356 55.7628L83.4121 55.731C83.6878 55.6248 83.9261 55.4389 84.1411 55.2212L84.1972 55.1894L84.2532 55.1257L81.6738 51.685L74.1037 51.685Z" fill="#222D39"/>
<path d="M82.2342 27.823L74.6641 27.823L72.9258 29.9575L74.552 32.092L82.122 32.092L83.8604 29.9575L82.2342 27.823Z" fill="#222D39"/>
<path d="M82.5977 27.377L84.1958 29.5115L85.9341 27.377L86.3827 7.87962L86.3827 7.8159C86.4014 7.01413 86.1491 6.04776 85.7378 5.39466L85.7098 5.33094L83.0182 8.67607L82.5977 27.377Z" fill="#222D39"/>
<path d="M74.4397 3.9291L74.3556 3.9291C73.7108 3.97157 73.0566 4.23706 72.5893 4.75742L72.5332 4.78927L75.1126 8.22998L82.6827 8.22998L85.3743 4.88485L85.3182 4.82113C84.8136 4.30078 84.1453 3.96626 83.4678 3.9291L74.4397 3.9291Z" fill="#222D39"/>
</svg>
