<svg width="24" height="24" viewBox="0 0 24 24" fill="none" xmlns="http://www.w3.org/2000/svg">
<path d="M14.3492 15.4275C14.3137 14.7215 14.161 14.0267 13.8976 13.3724C12.7713 9.80567 9.85923 4.41704 8.6787 2.30126C8.62799 2.21015 8.55441 2.13436 8.46546 2.08162C8.37652 2.02889 8.2754 2.0011 8.17243 2.0011C8.06946 2.0011 7.96834 2.02889 7.8794 2.08162C7.79045 2.13436 7.71687 2.21015 7.66616 2.30126C6.46756 4.45102 3.47784 9.98474 2.39033 13.545C2.22925 13.9846 2.11686 14.4411 2.05523 14.9059C2.01341 15.2369 1.99529 15.5705 2.00104 15.9041C2.04858 17.5512 2.73079 19.1132 3.9006 20.2536C5.0704 21.394 6.63413 22.0214 8.25469 22.0006C9.87525 21.9798 11.4229 21.3123 12.5639 20.1422C13.705 18.9721 14.3481 17.393 14.3547 15.7453C14.3547 15.7232 14.3547 15.7021 14.3547 15.681C14.3547 15.6599 14.3547 15.5019 14.3474 15.4275" fill="#1565C0"/>
<path d="M21.9971 10.1263C21.9813 9.79046 21.9085 9.45992 21.7821 9.14922C21.1732 7.49638 20.4325 5.89688 19.5674 4.36668C19.517 4.27404 19.4431 4.19682 19.3535 4.14305C19.2638 4.08928 19.1616 4.06091 19.0575 4.06091C18.9534 4.06091 18.8512 4.08928 18.7615 4.14305C18.6718 4.19682 18.598 4.27404 18.5476 4.36668C17.6657 5.92136 16.9157 7.54959 16.3058 9.23371C16.2291 9.4432 16.1752 9.66061 16.145 9.88203C16.127 10.0393 16.1192 10.1976 16.1215 10.3559C16.1312 11.1484 16.4502 11.9045 17.0082 12.4579C17.5663 13.0114 18.3177 13.3167 19.0972 13.3069C19.8767 13.297 20.6205 12.9727 21.1648 12.4053C21.7091 11.838 22.0095 11.074 21.9998 10.2815C21.9998 10.2705 21.9998 10.2604 21.9998 10.2503C21.9998 10.2402 21.9998 10.1649 21.9998 10.13" fill="#1565C0"/>
</svg>
