<svg width="32" height="32" viewBox="0 0 32 32" fill="none" xmlns="http://www.w3.org/2000/svg">
<path d="M16.0067 6.00293C16.1496 6.00293 16.288 6.03355 16.422 6.09479C16.5649 6.14729 16.6944 6.2304 16.8105 6.34414L22.6919 11.8559C22.7812 11.9522 22.8526 12.0615 22.9062 12.184C22.9687 12.3065 23 12.4552 23 12.6302C23 12.9364 22.8928 13.1945 22.6785 13.4045C22.473 13.6145 22.214 13.7195 21.9014 13.7195C21.7675 13.7195 21.6335 13.6976 21.4995 13.6538C21.3656 13.6014 21.2316 13.5182 21.0976 13.4045L16.0067 8.50949L10.9024 13.4045C10.7774 13.527 10.6434 13.6101 10.5005 13.6538C10.3665 13.6976 10.237 13.7195 10.112 13.7195C9.79043 13.7195 9.52249 13.6145 9.30813 13.4045C9.10271 13.1945 9 12.9364 9 12.6302C9 12.4552 9.02679 12.3065 9.08038 12.184C9.1429 12.0615 9.21882 11.9522 9.30813 11.8559L15.2029 6.34414C15.319 6.2304 15.444 6.14729 15.578 6.09479C15.712 6.03355 15.8549 6.00293 16.0067 6.00293ZM16.0067 26.0029C15.8549 26.0029 15.712 25.9723 15.578 25.9111C15.444 25.8586 15.319 25.7755 15.2029 25.6617L9.30813 20.1499C9.21882 20.0537 9.1429 19.9443 9.08038 19.8218C9.02679 19.6993 9 19.5506 9 19.3756C9 19.0694 9.10271 18.8113 9.30813 18.6014C9.52249 18.3914 9.79043 18.2864 10.112 18.2864C10.237 18.2864 10.3665 18.3083 10.5005 18.352C10.6434 18.3958 10.7774 18.4789 10.9024 18.6014L16.0067 23.4964L21.0976 18.6014C21.2316 18.4876 21.3656 18.4089 21.4995 18.3651C21.6335 18.3126 21.7675 18.2864 21.9014 18.2864C22.214 18.2864 22.473 18.3914 22.6785 18.6014C22.8928 18.8113 23 19.0694 23 19.3756C23 19.5506 22.9687 19.6993 22.9062 19.8218C22.8526 19.9443 22.7812 20.0537 22.6919 20.1499L16.8105 25.6617C16.6944 25.7755 16.5649 25.8586 16.422 25.9111C16.288 25.9723 16.1496 26.0029 16.0067 26.0029Z" fill="#7B726E"/>
</svg>
