<svg width="10" height="14" viewBox="0 0 10 14" fill="none" xmlns="http://www.w3.org/2000/svg">
<path d="M4.99854 0.955078C5.08708 0.955078 5.17285 0.974447 5.25586 1.01318C5.3444 1.04639 5.42464 1.09896 5.49658 1.1709L9.14062 4.65723C9.19596 4.7181 9.24023 4.78727 9.27344 4.86475C9.31217 4.94222 9.33154 5.0363 9.33154 5.14697C9.33154 5.34066 9.26514 5.50391 9.13232 5.63672C9.00505 5.76953 8.84456 5.83594 8.65088 5.83594C8.56787 5.83594 8.48486 5.8221 8.40186 5.79443C8.31885 5.76123 8.23584 5.70866 8.15283 5.63672L4.99854 2.54053L1.83594 5.63672C1.75846 5.71419 1.67546 5.76676 1.58691 5.79443C1.50391 5.8221 1.42367 5.83594 1.34619 5.83594C1.14697 5.83594 0.980957 5.76953 0.848145 5.63672C0.720866 5.50391 0.657227 5.34066 0.657227 5.14697C0.657227 5.0363 0.673828 4.94222 0.707031 4.86475C0.745768 4.78727 0.792806 4.7181 0.848145 4.65723L4.50049 1.1709C4.57243 1.09896 4.6499 1.04639 4.73291 1.01318C4.81592 0.974447 4.90446 0.955078 4.99854 0.955078ZM4.99854 13.6055C4.90446 13.6055 4.81592 13.5861 4.73291 13.5474C4.6499 13.5142 4.57243 13.4616 4.50049 13.3896L0.848145 9.90332C0.792806 9.84245 0.745768 9.77327 0.707031 9.6958C0.673828 9.61833 0.657227 9.52425 0.657227 9.41357C0.657227 9.21989 0.720866 9.05664 0.848145 8.92383C0.980957 8.79102 1.14697 8.72461 1.34619 8.72461C1.42367 8.72461 1.50391 8.73844 1.58691 8.76611C1.67546 8.79378 1.75846 8.84635 1.83594 8.92383L4.99854 12.02L8.15283 8.92383C8.23584 8.85189 8.31885 8.80208 8.40186 8.77441C8.48486 8.74121 8.56787 8.72461 8.65088 8.72461C8.84456 8.72461 9.00505 8.79102 9.13232 8.92383C9.26514 9.05664 9.33154 9.21989 9.33154 9.41357C9.33154 9.52425 9.31217 9.61833 9.27344 9.6958C9.24023 9.77327 9.19596 9.84245 9.14062 9.90332L5.49658 13.3896C5.42464 13.4616 5.3444 13.5142 5.25586 13.5474C5.17285 13.5861 5.08708 13.6055 4.99854 13.6055Z" fill="#7B726E"/>
</svg>
