<svg width="100" height="100" viewBox="0 0 100 100" fill="none" xmlns="http://www.w3.org/2000/svg">
<g clip-path="url(#clip0_12782_84163)">
<path d="M50 1C77.062 1 99 22.938 99 50C99 77.062 77.062 99 50 99C22.938 99 1 77.062 1 50C1 22.938 22.938 1 50 1Z" stroke="#1565C0" stroke-width="2"/>
<g opacity="0.03">
<path d="M48.916 27.5366H49.7069L50.3316 25.2747H49.1629L48.916 27.5366Z" fill="#1565C0"/>
</g>
<path d="M61.7987 28.257L64.1967 25.7583C63.7886 25.2999 62.9624 24.9472 62.3781 24.9875H54.2723C53.7383 24.9523 52.9574 25.2596 52.5645 25.6575L54.8113 28.257H61.8037H61.7987Z" fill="#1565C0"/>
<path d="M65.0845 28.1109L64.3691 43.0127L62.7923 44.655L61.3867 43.0278L62.0819 28.5744L64.4799 26.0757C64.8729 26.5492 65.1499 27.4712 65.0845 28.1109Z" fill="#1565C0"/>
<path d="M62.4595 64.2972L60.2127 61.6978H53.2203L50.8223 64.1965C51.2303 64.6549 52.0565 65.0076 52.6409 64.9673H60.7467C61.2807 65.0025 62.0616 64.6952 62.4545 64.2972H62.4595Z" fill="#1565C0"/>
<path d="M61.1999 46.932L60.5098 61.3854L62.7566 63.9849C63.1395 63.5769 63.4569 62.7305 63.4518 62.1461L64.1823 46.9119L62.7768 45.2847L61.1999 46.927V46.932Z" fill="#1565C0"/>
<path d="M45.2753 28.2519L47.6733 25.7532C47.2652 25.2947 46.439 24.9421 45.8546 24.9824H37.7488C37.2148 24.9471 36.434 25.2544 36.041 25.6524L38.2879 28.2519H45.2803H45.2753Z" fill="#1565C0"/>
<path d="M37.2996 43.0177L37.9948 28.5643L35.748 25.9648C35.3651 26.3779 35.0477 27.2193 35.0527 27.8036L34.3223 43.0329L35.7278 44.6601L37.2996 43.0177Z" fill="#1565C0"/>
<path d="M36.4184 61.3704L37.1136 46.917L35.708 45.2898L34.1312 46.9321L33.4158 61.8339C33.3504 62.4686 33.6274 63.3956 34.0204 63.8691L36.4184 61.3704Z" fill="#1565C0"/>
<path d="M45.9342 64.2972L43.6873 61.6978H36.6949L34.2969 64.1965C34.7049 64.6549 35.5311 65.0076 36.1155 64.9673H44.2213C44.7553 65.0025 45.5362 64.6952 45.9291 64.2972H45.9342Z" fill="#1565C0"/>
<path d="M46.6753 16.0202L46.8718 12.3023L46.237 11.6323C46.1312 11.7381 46.0405 11.9547 46.0405 12.1059L45.834 16.0202L46.232 16.4384L46.6753 16.0152V16.0202Z" fill="#1565C0"/>
<path d="M49.8592 12.1914L49.6577 16.0252L49.2144 16.4483L48.8164 16.0302L49.0129 12.3123L49.6879 11.6675C49.7988 11.7884 49.8794 12.0252 49.8592 12.1914Z" fill="#1565C0"/>
<path d="M46.4276 20.7405L46.624 17.0226L46.2261 16.6045L45.7827 17.0277L45.5812 20.8614C45.5611 21.0277 45.6417 21.2644 45.7525 21.3853L46.4276 20.7405Z" fill="#1565C0"/>
<path d="M49.1186 21.4962L48.4839 20.8262H46.509L45.834 21.471C45.9499 21.5869 46.1816 21.6776 46.3478 21.6675H48.64C48.7912 21.6776 49.0128 21.597 49.1237 21.4962H49.1186Z" fill="#1565C0"/>
<path d="M48.7609 17.0278L48.5645 20.7456L49.1992 21.4157C49.305 21.3099 49.3957 21.0932 49.3957 20.9421L49.6022 17.0278L49.2042 16.6096L48.7609 17.0328V17.0278Z" fill="#1565C0"/>
<path opacity="0.03" d="M51.2855 16.947H53.2603L53.7087 16.5238L53.3107 16.1057H51.3359L50.8926 16.5289L51.2855 16.947Z" fill="#1565C0"/>
<path d="M54.4393 12.1914L54.2378 16.0252L53.7945 16.4483L53.3965 16.0302L53.593 12.3123L54.268 11.6675C54.3789 11.7884 54.4595 12.0252 54.4393 12.1914Z" fill="#1565C0"/>
<path d="M53.341 17.0278L53.1445 20.7456L53.7793 21.4157C53.8851 21.3099 53.9758 21.0932 53.9758 20.9421L54.1823 17.0278L53.7843 16.6096L53.341 17.0328V17.0278Z" fill="#1565C0"/>
<path opacity="0.03" d="M48.3685 65.0781C49.0056 65.0781 49.5221 64.5097 49.5221 63.8086C49.5221 63.1074 49.0056 62.5391 48.3685 62.5391C47.7314 62.5391 47.2148 63.1074 47.2148 63.8086C47.2148 64.5097 47.7314 65.0781 48.3685 65.0781Z" fill="#1565C0"/>
<path d="M54.1715 68.9268L55.3252 67.7278C55.1287 67.5061 54.7307 67.3399 54.4536 67.3601H50.5594C50.3025 67.3449 49.9297 67.491 49.7383 67.6825L50.8164 68.9318H54.1766L54.1715 68.9268Z" fill="#1565C0"/>
<path d="M50.388 77.7481H53.7482L54.5038 76.9571L53.8288 76.1763H50.4736L49.7129 76.9672L50.388 77.7481Z" fill="#1565C0"/>
<path d="M55.7479 68.8562L55.4053 76.02L54.6497 76.8109L53.9746 76.03L54.3071 69.0829L55.4608 67.8789C55.6472 68.1056 55.7832 68.5489 55.753 68.8562H55.7479Z" fill="#1565C0"/>
<path d="M54.4884 86.2518L53.4103 85.0024H50.0501L48.8965 86.2014C49.093 86.4231 49.4909 86.5893 49.768 86.5742H53.6622C53.9192 86.5893 54.297 86.4433 54.4834 86.2518H54.4884Z" fill="#1565C0"/>
<path d="M53.8833 77.9042L53.5508 84.8513L54.6289 86.1007C54.8102 85.9042 54.9664 85.4961 54.9614 85.214L55.314 77.8941L54.6389 77.1133L53.8833 77.9042Z" fill="#1565C0"/>
<path d="M58.6202 76.02L58.9527 69.0729L57.8746 67.8235C57.6932 68.02 57.5371 68.428 57.5421 68.7101L57.1895 76.03L57.8645 76.8109L58.6202 76.02Z" fill="#1565C0"/>
<path d="M58.677 77.7481H62.0372L62.7929 76.9571L62.1178 76.1763H58.7576L58.002 76.9672L58.677 77.7481Z" fill="#1565C0"/>
<path d="M64.0311 68.8562L63.6885 76.02L62.9329 76.8109L62.2578 76.03L62.5903 69.0829L63.744 67.8789C63.9304 68.1056 64.0664 68.5489 64.0362 68.8562H64.0311Z" fill="#1565C0"/>
<path d="M62.1684 77.9042L61.8359 84.8513L62.914 86.1007C63.0954 85.9042 63.2516 85.4961 63.2465 85.214L63.5992 77.8941L62.9241 77.1133L62.1684 77.9042Z" fill="#1565C0"/>
<path d="M46.111 68.927L47.2646 67.7281C47.0682 67.5064 46.6702 67.3401 46.3931 67.3603H42.4989C42.242 67.3452 41.8692 67.4913 41.6777 67.6827L42.7558 68.9321H46.116L46.111 68.927Z" fill="#1565C0"/>
<path d="M42.3324 77.7483H45.6876L46.4483 76.9574L45.7733 76.1765H42.4131L41.6523 76.9674L42.3324 77.7483Z" fill="#1565C0"/>
<path d="M47.6874 68.8565L47.3448 76.0202L46.5891 76.8111L45.9141 76.0303L46.2466 69.0832L47.4002 67.8792C47.5866 68.1059 47.7226 68.5492 47.6924 68.8565H47.6874Z" fill="#1565C0"/>
<path d="M41.8533 84.8415L42.1858 77.8944L41.5108 77.1135L40.7551 77.9045L40.4125 85.0682C40.3823 85.3755 40.5133 85.8188 40.7047 86.0455L41.8584 84.8415H41.8533Z" fill="#1565C0"/>
<path d="M46.4279 86.2469L45.3498 84.9976H41.9896L40.8359 86.1966C41.0324 86.4182 41.4304 86.5845 41.7075 86.5693H45.6017C45.8586 86.5845 46.2364 86.4384 46.4228 86.2469H46.4279Z" fill="#1565C0"/>
<path d="M39.6327 68.8565L39.2901 76.0202L38.5344 76.8111L37.8594 76.0303L38.1919 69.0832L39.3455 67.8792C39.5319 68.1059 39.6679 68.5492 39.6377 68.8565H39.6327Z" fill="#1565C0"/>
<path d="M37.768 77.9045L37.4355 84.8516L38.5136 86.1009C38.695 85.9045 38.8512 85.4964 38.8461 85.2143L39.1988 77.8944L38.5237 77.1135L37.768 77.9045Z" fill="#1565C0"/>
<g opacity="0.86">
<path d="M13.0974 43.0832C14.0143 43.0832 14.8556 43.4056 15.5155 43.9446C15.5458 43.9698 15.5961 43.9648 15.6213 43.9346L16.0344 43.4509C16.0596 43.4207 16.0596 43.3703 16.0243 43.3401C15.2284 42.6852 14.2057 42.2922 13.0974 42.2922C11.9891 42.2922 10.9664 42.6852 10.1704 43.3401C10.1352 43.3653 10.1352 43.4157 10.1604 43.4509L10.5735 43.9346C10.5987 43.9648 10.649 43.9698 10.6793 43.9446C11.3392 43.4056 12.1805 43.0832 13.0974 43.0832Z" fill="#1565C0"/>
<path d="M13.0974 44.7859C13.5911 44.7859 14.0496 44.9572 14.4073 45.2494C14.4375 45.2746 14.4879 45.2695 14.513 45.2393L14.9211 44.7557C14.9513 44.7204 14.9463 44.6751 14.911 44.6448C14.4173 44.2418 13.7826 44 13.0974 44C12.4123 44 11.7775 44.2418 11.2838 44.6448C11.2486 44.67 11.2435 44.7204 11.2738 44.7557L11.6818 45.2393C11.707 45.2695 11.7574 45.2746 11.7876 45.2494C12.1453 44.9572 12.5987 44.7859 13.0974 44.7859Z" fill="#1565C0"/>
<path d="M13.7936 46.0858C13.8188 46.0556 13.8188 46.0052 13.7835 45.9749C13.5971 45.8137 13.3603 45.718 13.0933 45.718C12.8263 45.718 12.5896 45.8137 12.4032 45.9749C12.3729 46.0052 12.3679 46.0505 12.3931 46.0858L13.0329 46.8364C13.0631 46.8717 13.1185 46.8717 13.1487 46.8364L13.7885 46.0858H13.7936Z" fill="#1565C0"/>
</g>
</g>
<defs>
<clipPath id="clip0_12782_84163">
<rect width="100" height="100" fill="white"/>
</clipPath>
</defs>
</svg>
