<svg width="40" height="40" viewBox="0 0 40 40" fill="none" xmlns="http://www.w3.org/2000/svg">
<path d="M25.0168 7C27.1593 7.03581 29.2069 7.89294 30.7062 9.39258C32.2024 10.8892 33.0307 12.9048 32.9992 15V24.9824L32.9953 25.376C32.9286 27.3354 32.1122 29.2014 30.7052 30.6084C29.2057 32.1079 27.1584 32.9645 25.0158 33H14.9845C12.842 32.9645 10.7947 32.1079 9.29509 30.6084C7.79433 29.1076 6.96483 27.0842 7.00114 24.9824V15C6.96966 12.9044 7.79844 10.8883 9.29509 9.3916C10.7947 7.89211 12.842 7.03552 14.9845 7H25.0168ZM14.0002 12C12.8957 12.0001 12.0002 12.8955 12.0002 14C12.0002 14.7868 12.4557 15.4655 13.1164 15.792C13.2286 16.5002 13.449 17.3008 13.882 18.0586C14.6485 19.3999 15.9968 20.4773 18.1935 20.8545C18.5141 21.5311 19.2017 21.9999 20.0002 22C20.6567 22 21.2371 21.6819 21.6017 21.1934C22.1286 21.3318 22.5599 21.5333 22.9142 21.7695C23.5822 22.2149 24.04 22.8159 24.3556 23.4473C24.5243 23.7845 24.6485 24.1256 24.7414 24.4453C24.2891 24.812 24.0002 25.3724 24.0002 26C24.0002 27.1045 24.8957 27.9999 26.0002 28C27.1047 28 28.0002 27.1046 28.0002 26C28.0002 25.1535 27.4736 24.4316 26.7306 24.1396C26.6051 23.6526 26.4208 23.1048 26.1447 22.5527C25.7104 21.6841 25.043 20.7851 24.0236 20.1055C23.404 19.6924 22.6758 19.376 21.8273 19.1895C21.5161 18.4891 20.8159 18 20.0002 18C19.3232 18.0001 18.7253 18.3369 18.3634 18.8516C16.8025 18.5434 16.0351 17.7958 15.6183 17.0664C15.3593 16.6131 15.2117 16.1239 15.1242 15.6533C15.6526 15.2934 16.0002 14.6876 16.0002 14C16.0002 12.8954 15.1047 12 14.0002 12Z" fill="#2C2827"/>
</svg>
