<svg width="26" height="26" viewBox="0 0 26 26" fill="none" xmlns="http://www.w3.org/2000/svg">
<path d="M8.00076 1H18.0003C19.8884 1.03156 21.6862 1.78666 22.9986 3.09929C24.311 4.41193 25.0305 6.17467 24.999 8V18C25.0305 19.8255 24.3109 21.5884 22.9983 22.9011C21.6856 24.2137 19.8875 24.9687 17.9992 25H8.00076C6.11248 24.9687 4.31435 24.2137 3.00173 22.9011C1.68911 21.5884 0.969452 19.8255 1.00099 18V8C0.969452 6.1745 1.68911 4.41161 3.00173 3.09894C4.31435 1.78628 6.11248 1.0313 8.00076 1Z" fill="#2C2827" stroke="#2C2827" stroke-width="2"/>
<path d="M18.9999 19C18.9999 19 18.9999 13 12.9999 13C7 13 7 8.5 7 7" stroke="white" stroke-width="2" stroke-linecap="round" stroke-linejoin="round"/>
<path d="M21 19C21 20.1046 20.1046 21 19 21C17.8954 21 17 20.1046 17 19C17 17.8954 17.8954 17 19 17C20.1046 17 21 17.8954 21 19Z" fill="white"/>
<circle cx="13" cy="13" r="2" fill="white"/>
<circle cx="7" cy="7" r="2" fill="white"/>
</svg>
