<svg width="100" height="100" viewBox="0 0 100 100" fill="none" xmlns="http://www.w3.org/2000/svg">
<path d="M0 16C0 7.16345 7.16344 0 16 0H84C92.8366 0 100 7.16344 100 16V84C100 92.8366 92.8366 100 84 100H16C7.16345 100 0 92.8366 0 84V16Z" fill="#FCF8F4"/>
<path d="M77.8275 28.5902L75.4001 27.8922C75.2747 27.8574 75.1408 27.8726 75.0263 27.9344C74.9119 27.9963 74.8259 28.1001 74.7863 28.2241C72.0415 36.4389 60.605 39.5012 52.2123 41.7508L50.8346 42.1196C50.7913 42.1302 50.746 42.1296 50.703 42.1179C50.66 42.1062 50.6207 42.0837 50.5887 42.0527C50.5567 42.0216 50.5331 41.983 50.5202 41.9403C50.5072 41.8976 50.5053 41.8524 50.5146 41.8088C51.1731 39.1746 53.7428 29.3568 54.4251 26.9544C54.4603 26.8304 54.4461 26.6976 54.3855 26.5838C54.3248 26.4701 54.2224 26.3843 54.0997 26.3446L51.6947 25.5543C51.6314 25.5333 51.5646 25.5252 51.4981 25.5305C51.4317 25.5358 51.367 25.5543 51.3078 25.585C51.2486 25.6157 51.1962 25.6579 51.1536 25.7092C51.111 25.7605 51.0792 25.8198 51.0598 25.8836L50.9914 26.1114C50.9807 26.148 50.96 26.1809 50.9315 26.2064C50.9031 26.2318 50.8682 26.2488 50.8306 26.2554C50.793 26.262 50.7544 26.2579 50.719 26.2436C50.6836 26.2293 50.653 26.2055 50.6305 26.1746C50.1328 25.5059 49.5317 24.9207 48.8497 24.4413C44.199 21.1854 36.8284 23.6642 32.4187 29.964C28.009 36.2637 28.204 44.0387 32.8494 47.2933C33.3084 47.6105 33.7998 47.878 34.3154 48.0914C34.3622 48.1112 34.4027 48.1435 34.4324 48.1847C34.4621 48.2259 34.48 48.2744 34.4841 48.3251C34.4882 48.3757 34.4783 48.4265 34.4555 48.472C34.4327 48.5174 34.3979 48.5557 34.3549 48.5827C31.5217 50.36 28.9573 52.5333 26.7393 55.0366C23.9958 58.1713 21.3076 63.8046 21.8884 68.782C22.0086 70.0512 22.3872 71.2824 23.0011 72.3998C23.6149 73.5172 24.451 74.4971 25.4578 75.2793C27.0103 76.415 28.8897 77.0159 30.8132 76.9915C33.9753 76.8754 37.0105 75.7178 39.4469 73.6987C45.6755 68.7135 46.6133 62.8312 47.5208 57.1426C47.5998 56.6474 49.3963 46.7822 49.3963 46.7822C49.4369 46.5901 49.5291 46.4126 49.663 46.269C49.7969 46.1253 49.9675 46.0209 50.1563 45.9669C51.0888 45.7035 52.0911 45.4401 53.1251 45.1569C62.3449 42.6886 74.9062 39.3221 78.17 29.2198C78.1895 29.156 78.1962 29.0889 78.1895 29.0225C78.1828 28.9561 78.1629 28.8917 78.131 28.8331C78.0991 28.7745 78.0559 28.7228 78.0037 28.6811C77.9516 28.6394 77.8917 28.6085 77.8275 28.5902ZM44.0383 56.5855C43.1638 62.0726 42.4077 66.8102 37.242 70.942C34.538 73.1074 30.3509 74.4982 27.5441 72.4356C26.9277 71.9402 26.4188 71.3245 26.0483 70.6259C25.6778 69.9272 25.4536 69.1605 25.3893 68.3723C25.0047 65.0796 26.6867 60.4473 29.3894 57.3652C31.9972 54.4353 35.1131 52.0007 38.5868 50.179C40.7213 49.093 42.9475 48.1974 45.2395 47.5027C45.2822 47.4899 45.3275 47.4881 45.3711 47.4975C45.4146 47.507 45.4551 47.5273 45.4887 47.5567C45.5222 47.586 45.5478 47.6234 45.5629 47.6653C45.5781 47.7073 45.5824 47.7524 45.5754 47.7964C45.0828 50.2778 44.1134 56.1126 44.0383 56.5855ZM46.6567 42.794C46.6157 42.9776 46.5272 43.1472 46.4001 43.2859C46.273 43.4246 46.1117 43.5275 45.9323 43.5843L42.9425 44.5365C38.1034 46.1381 35.6852 44.9844 34.8712 44.414C31.8669 42.3067 32.0658 36.622 35.3059 31.995C38.5459 27.368 43.8223 25.2342 46.828 27.3377C48.6495 28.6126 49.3674 31.2666 48.7589 34.3487C47.9804 37.3569 47.1902 40.5088 46.6567 42.794Z" fill="#12161B"/>
<path d="M67.3931 54.116C69.7413 54.065 72.0203 54.9131 73.764 56.4868C73.8627 56.5767 73.9919 56.6257 74.1254 56.624C74.2589 56.6223 74.3868 56.57 74.4831 56.4776L76.3126 54.6481C76.3617 54.5997 76.4005 54.5419 76.4268 54.4781C76.453 54.4143 76.4662 54.3459 76.4654 54.277C76.4647 54.208 76.4501 54.1399 76.4225 54.0768C76.3949 54.0136 76.3548 53.9566 76.3047 53.9092C74.7375 52.4648 72.8367 51.4315 70.7723 50.9017C68.7079 50.3719 66.5444 50.3622 64.4753 50.8735C62.4062 51.3847 60.4962 52.4009 58.9161 53.8312C57.336 55.2615 56.1352 57.0612 55.421 59.0692C54.7069 61.0773 54.5018 63.2311 54.824 65.3379C55.1462 67.4447 55.9856 69.4387 57.2673 71.1416C58.549 72.8445 60.2328 74.203 62.1681 75.0957C64.1035 75.9883 66.23 76.3872 68.3572 76.2567C71.1929 76.0542 73.889 74.9487 76.0505 73.1022C76.1853 72.9893 76.2936 72.8482 76.3681 72.689C76.4425 72.5297 76.4811 72.356 76.4812 72.1802V62.8287C76.4812 62.6921 76.4269 62.5611 76.3304 62.4646C76.2338 62.368 76.1028 62.3137 75.9662 62.3137H67.2232C67.0866 62.3137 66.9556 62.368 66.8591 62.4646C66.7625 62.5611 66.7082 62.6921 66.7082 62.8287V65.4168C66.7082 65.5534 66.7625 65.6844 66.8591 65.781C66.9556 65.8776 67.0866 65.9318 67.2232 65.9318H72.3494C72.486 65.9318 72.617 65.9861 72.7136 66.0827C72.8102 66.1792 72.8644 66.3102 72.8644 66.4468V70.3455C72.8647 70.5555 72.8102 70.762 72.7063 70.9445C72.6023 71.127 72.4525 71.2792 72.2717 71.386C71.0494 72.1048 69.6785 72.5337 68.2645 72.6398C66.8504 72.7459 65.4309 72.5263 64.115 71.9979C62.7991 71.4695 61.6219 70.6464 60.674 69.5919C59.726 68.5373 59.0324 67.2794 58.6467 65.9149C58.2609 64.5504 58.1932 63.1155 58.4487 61.7207C58.7043 60.326 59.2763 59.0083 60.1207 57.8692C60.9652 56.7301 62.0596 55.7997 63.3199 55.1498C64.5802 54.4998 65.9727 54.1475 67.3905 54.12L67.3931 54.116Z" fill="#12161B"/>
</svg>
