<svg width="28" height="28" viewBox="0 0 28 28" fill="none" xmlns="http://www.w3.org/2000/svg">
<path d="M14 0C21.732 0 28 6.26801 28 14C28 21.732 21.732 28 14 28C6.26801 28 0 21.732 0 14C0 6.26801 6.26801 0 14 0ZM9.30566 7.71777C8.91512 7.32752 8.28203 7.32734 7.8916 7.71777C7.50132 8.10822 7.5014 8.74134 7.8916 9.13184L12.8115 14.0518L7.71973 19.1445C7.32974 19.535 7.32963 20.1682 7.71973 20.5586C8.11019 20.9491 8.74423 20.9489 9.13477 20.5586L14.2266 15.4668L19.3145 20.5547C19.7049 20.9452 20.338 20.9451 20.7285 20.5547C21.119 20.1642 21.119 19.5311 20.7285 19.1406L15.6406 14.0527L20.5586 9.13477C20.9491 8.74424 20.9491 8.11025 20.5586 7.71973C20.1682 7.32959 19.535 7.32964 19.1445 7.71973L14.2256 12.6377L9.30566 7.71777Z" fill="#1565C0"/>
</svg>
