<svg width="89" height="162" viewBox="0 0 89 162" fill="none" xmlns="http://www.w3.org/2000/svg">
<g opacity="1">
<mask id="mask0_26748_22571" style="mask-type:luminance" maskUnits="userSpaceOnUse" x="0" y="0" width="89" height="162">
<path d="M88.328 0H0V161.143H88.328V0Z" fill="white"/>
</mask>
<g mask="url(#mask0_26748_22571)">
<path d="M44.163 7.20395C45.9882 7.20792 47.8081 7.39959 49.594 7.77595C54.4877 8.87146 58.9313 11.4323 62.3327 15.1173C65.7341 18.8023 67.9317 23.4364 68.6326 28.402C69.3335 33.3676 68.5045 38.4289 66.256 42.9114C64.0075 47.3939 60.4463 51.0847 56.047 53.4919C54.5268 54.3288 53.3008 55.6131 52.5354 57.1705C51.77 58.7279 51.5023 60.4831 51.7685 62.1979C52.0347 63.9127 52.822 65.5041 54.0235 66.7561C55.225 68.0082 56.7826 68.8604 58.485 69.197C64.8419 70.4284 70.5742 73.8282 74.7033 78.8159C78.8324 83.8036 81.1021 90.0699 81.125 96.545V153.945H7.2V96.545C7.22477 90.071 9.49498 83.8061 13.6234 78.8192C17.7517 73.8322 23.4825 70.4321 29.838 69.199C31.5387 68.8605 33.0944 68.0078 34.2946 66.7562C35.4948 65.5046 36.2815 63.9145 36.5484 62.2011C36.8153 60.4877 36.5493 58.7337 35.7866 57.1763C35.0239 55.619 33.8012 54.3336 32.284 53.4939C27.4738 50.8652 23.6768 46.7083 21.4931 41.6804C19.3094 36.6524 18.8637 31.0401 20.2262 25.7305C21.5888 20.4208 24.682 15.7167 29.0169 12.3615C33.3519 9.0064 38.6813 7.19159 44.163 7.20395ZM44.163 0.00394867C37.0837 -0.00760073 30.2022 2.33939 24.6052 6.67429C19.0083 11.0092 15.0148 17.085 13.2554 23.9422C11.4961 30.7995 12.071 38.0474 14.8896 44.5415C17.7081 51.0356 22.6096 56.4057 28.82 59.8039C29.0425 59.9299 29.2213 60.1207 29.3326 60.3508C29.4439 60.5809 29.4825 60.8395 29.4432 61.0921C29.4039 61.3447 29.2886 61.5793 29.1125 61.7648C28.9365 61.9502 28.7082 62.0776 28.458 62.1299C20.457 63.6718 13.2418 67.9493 8.04946 74.2289C2.85716 80.5084 0.0113383 88.3988 0 96.547L0 161.147H88.328V96.547C88.316 88.3976 85.4692 80.5063 80.2759 74.2261C75.0826 67.9458 67.8661 63.668 59.864 62.1259C59.6139 62.073 59.3859 61.9451 59.2103 61.7593C59.0348 61.5735 58.9201 61.3385 58.8815 61.0858C58.8429 60.8331 58.8823 60.5746 58.9945 60.3449C59.1066 60.1151 59.2861 59.925 59.509 59.7999C65.1973 56.6852 69.8 51.9091 72.7023 46.1095C75.6047 40.31 76.6686 33.7629 75.752 27.3428C74.8353 20.9226 71.9818 14.9349 67.5724 10.1793C63.163 5.42361 57.4077 2.12641 51.075 0.727949C48.8021 0.249053 46.4858 0.00642994 44.163 0.00394867Z" fill="#2C2827"/>
<path d="M52.4027 112.404C55.9257 110.739 60.6607 106.233 60.6607 100.436C60.6607 92.5426 53.7497 86.5166 44.7947 86.5166H27.5777C27.1983 86.5166 26.8342 86.6662 26.5644 86.933C26.2946 87.1998 26.1409 87.5622 26.1367 87.9416V137.742C26.1367 137.93 26.1741 138.117 26.2466 138.292C26.3191 138.466 26.4254 138.624 26.5593 138.757C26.6932 138.89 26.8522 138.996 27.027 139.067C27.2017 139.139 27.3889 139.175 27.5777 139.174H45.7777C54.9777 139.174 62.1837 133.092 62.1837 124.667C62.1837 117.739 56.3747 113.692 52.3997 112.405M35.8517 95.4666H43.9057C44.7613 95.4214 45.6168 95.5555 46.4175 95.8602C47.2182 96.1649 47.9464 96.6335 48.5555 97.2361C49.1645 97.8386 49.641 98.5618 49.9542 99.3592C50.2675 100.157 50.4107 101.011 50.3747 101.867C50.4187 102.743 50.2839 103.618 49.9784 104.44C49.6729 105.262 49.2032 106.014 48.598 106.648C47.9927 107.283 47.2645 107.788 46.4578 108.132C45.6511 108.476 44.7827 108.652 43.9057 108.65H35.8517V95.4666ZM44.9657 130.307H35.8597V116.916H44.0597C47.9597 116.916 51.7277 119.691 51.7277 123.458C51.7473 124.355 51.5863 125.248 51.2542 126.082C50.922 126.916 50.4256 127.675 49.7943 128.314C49.1631 128.953 48.4099 129.458 47.5796 129.8C46.7492 130.141 45.8586 130.313 44.9607 130.304" fill="#2C2827"/>
</g>
</g>
</svg>
