<svg width="24" height="24" viewBox="0 0 24 24" fill="none" xmlns="http://www.w3.org/2000/svg">
<path d="M7.90764 14.0431C7.90764 14.6318 7.81616 15.1259 7.6332 15.5253C7.45987 15.9143 7.23358 16.2349 6.95433 16.4872C6.6847 16.729 6.37656 16.9025 6.0299 17.0076C5.69287 17.1127 5.36066 17.1653 5.03326 17.1653H2V6.00098H4.71549C5.014 6.00098 5.33177 6.04303 5.6688 6.12713C6.00583 6.20071 6.31397 6.34263 6.59322 6.55288C6.87248 6.75262 7.10358 7.03646 7.28654 7.4044C7.4695 7.76182 7.56098 8.22963 7.56098 8.80782C7.56098 9.50165 7.42617 10.0483 7.15654 10.4478C6.88692 10.8473 6.57397 11.1258 6.21768 11.2835V11.3151C6.41026 11.3676 6.60285 11.457 6.79544 11.5831C6.99766 11.7093 7.18062 11.888 7.34432 12.1193C7.50802 12.34 7.64283 12.6134 7.74875 12.9392C7.85468 13.2546 7.90764 13.6226 7.90764 14.0431ZM6.00102 9.10743C6.00102 8.82359 5.95768 8.58706 5.87102 8.39783C5.79398 8.19809 5.68806 8.04041 5.55325 7.92477C5.42807 7.79862 5.27881 7.70926 5.10548 7.6567C4.93215 7.60414 4.75401 7.57786 4.57105 7.57786H3.61774V10.6843H4.59994C4.77327 10.6843 4.94178 10.658 5.10548 10.6055C5.27881 10.5424 5.42807 10.4478 5.55325 10.3216C5.68806 10.1955 5.79398 10.0325 5.87102 9.83279C5.95768 9.63306 6.00102 9.39127 6.00102 9.10743ZM6.24657 13.8854C6.24657 13.5595 6.19842 13.2862 6.10212 13.0654C6.00583 12.8341 5.88065 12.6502 5.72658 12.5135C5.57251 12.3663 5.40399 12.2612 5.22103 12.1981C5.03808 12.135 4.85512 12.1035 4.67216 12.1035H3.61774V15.5884H4.71549C4.92734 15.5884 5.12474 15.5569 5.3077 15.4938C5.49066 15.4202 5.64954 15.3151 5.78435 15.1784C5.9288 15.0312 6.03953 14.8525 6.11657 14.6423C6.20323 14.432 6.24657 14.1797 6.24657 13.8854Z" fill="#1565C0"/>
<path d="M16.5099 17.1653L16.5388 8.58706H16.4954L14.4444 17.1653H13.0866L11.0789 8.58706H11.0356L11.0645 17.1653H9.49006V6.00098H11.8156L13.78 14.1692H13.8377L15.7588 6.00098H18.1998V17.1653H16.5099Z" fill="#1565C0"/>
<path d="M20.2667 17.1653V6.00098H22V17.1653H20.2667Z" fill="#1565C0"/>
</svg>
