<svg width="75" height="75" viewBox="0 0 75 75" fill="none" xmlns="http://www.w3.org/2000/svg">
<path d="M64.0625 6.25H10.9375C9.6943 6.25 8.50201 6.74386 7.62294 7.62294C6.74386 8.50201 6.25 9.6943 6.25 10.9375V64.0625C6.25 65.3057 6.74386 66.498 7.62294 67.3771C8.50201 68.2561 9.6943 68.75 10.9375 68.75H64.0625C65.3057 68.75 66.498 68.2561 67.3771 67.3771C68.2561 66.498 68.75 65.3057 68.75 64.0625V10.9375C68.75 9.6943 68.2561 8.50201 67.3771 7.62294C66.498 6.74386 65.3057 6.25 64.0625 6.25Z" stroke="#1565C0" stroke-width="3.5" stroke-linejoin="round"/>
<path d="M18.75 29.7715C23.9448 23.5215 30.1948 20.3965 37.5 20.3965C44.8042 20.3965 51.0542 23.5215 56.25 29.7715" stroke="#1565C0" stroke-width="3.5" stroke-linecap="round"/>
<path d="M37.69 50.38C39.1991 50.38 40.6464 49.7805 41.7134 48.7134C42.7805 47.6464 43.38 46.1991 43.38 44.69C43.38 43.1809 42.7805 41.7336 41.7134 40.6666C40.6464 39.5995 39.1991 39 37.69 39C36.1809 39 34.7336 39.5995 33.6666 40.6666C32.5995 41.7336 32 43.1809 32 44.69C32 46.1991 32.5995 47.6464 33.6666 48.7134C34.7336 49.7805 36.1809 50.38 37.69 50.38Z" fill="#1565C0"/>
<path d="M29.6875 32.8125L37.5125 43.75" stroke="#1565C0" stroke-width="3.5" stroke-linecap="round"/>
</svg>
