<svg width="24" height="24" viewBox="0 0 24 24" fill="none" xmlns="http://www.w3.org/2000/svg">
<path d="M16.3331 4.38875L12.4224 2.1154C12.2933 2.04036 12.1469 2.00085 11.9978 2.00085C11.8487 2.00085 11.7023 2.04036 11.5732 2.1154L7.6668 4.38875C7.53795 4.46364 7.43091 4.5713 7.35639 4.70094C7.28187 4.83058 7.24249 4.97765 7.24219 5.12744V9.67328C7.24249 9.82306 7.28187 9.97014 7.35639 10.0998C7.43091 10.2294 7.53795 10.3371 7.6668 10.412L11.5732 12.6853C11.7023 12.7604 11.8487 12.7999 11.9978 12.7999C12.1469 12.7999 12.2933 12.7604 12.4224 12.6853L16.3331 10.412C16.4619 10.3371 16.569 10.2294 16.6435 10.0998C16.718 9.97014 16.7574 9.82306 16.7577 9.67328V5.12744C16.7574 4.97765 16.718 4.83058 16.6435 4.70094C16.569 4.5713 16.4619 4.46364 16.3331 4.38875ZM15.6435 9.34754C15.6435 9.40039 15.6297 9.45231 15.6035 9.49809C15.5773 9.54387 15.5395 9.58188 15.4941 9.6083L13.7905 10.5975C13.7456 10.6245 13.6942 10.6387 13.6419 10.6385C13.576 10.6388 13.5118 10.6171 13.4594 10.5768C13.407 10.5365 13.3693 10.48 13.3522 10.4159C13.335 10.3518 13.3394 10.2838 13.3646 10.2225C13.3898 10.1612 13.4345 10.11 13.4916 10.0768L15.0457 9.17398V5.45574C15.0412 5.41376 15.0456 5.3713 15.0585 5.33112C15.0714 5.29095 15.0925 5.25396 15.1206 5.22255C15.1486 5.19114 15.1829 5.16603 15.2212 5.14884C15.2595 5.13164 15.3009 5.12276 15.3429 5.12276C15.3848 5.12276 15.4263 5.13164 15.4646 5.14884C15.5029 5.16603 15.5372 5.19114 15.5652 5.22255C15.5933 5.25396 15.6144 5.29095 15.6273 5.33112C15.6402 5.3713 15.6446 5.41376 15.6401 5.45574L15.6435 9.34754Z" fill="#1565C0"/>
<path d="M21.5754 13.5898L17.669 11.3164C17.5399 11.2414 17.3935 11.2019 17.2444 11.2019C17.0953 11.2019 16.9489 11.2414 16.8198 11.3164L12.9134 13.5898C12.7845 13.6647 12.6775 13.7723 12.603 13.902C12.5285 14.0316 12.4891 14.1787 12.4888 14.3285V18.8743C12.4891 19.0241 12.5285 19.1712 12.603 19.3008C12.6775 19.4305 12.7845 19.5381 12.9134 19.613L16.8198 21.8864C16.9489 21.9614 17.0953 22.0009 17.2444 22.0009C17.3935 22.0009 17.5399 21.9614 17.669 21.8864L21.5754 19.613C21.7043 19.5381 21.8113 19.4305 21.8858 19.3008C21.9603 19.1712 21.9997 19.0241 22 18.8743V14.3285C21.9997 14.1787 21.9603 14.0316 21.8858 13.902C21.8113 13.7723 21.7043 13.6647 21.5754 13.5898ZM20.8858 18.5486C20.8859 18.6014 20.8721 18.6534 20.8458 18.6991C20.8196 18.7449 20.7818 18.7829 20.7364 18.8094L19.0329 19.7994C18.9877 19.8258 18.9364 19.8396 18.8842 19.8396C18.8159 19.8435 18.7483 19.8237 18.6927 19.7835C18.6371 19.7433 18.5969 19.6851 18.5788 19.6187C18.5608 19.5522 18.5659 19.4815 18.5933 19.4184C18.6208 19.3553 18.6689 19.3036 18.7297 19.2719L20.2838 18.369V14.6551C20.2793 14.6131 20.2836 14.5706 20.2965 14.5305C20.3095 14.4903 20.3306 14.4533 20.3586 14.4219C20.3867 14.3905 20.421 14.3654 20.4593 14.3482C20.4976 14.331 20.539 14.3221 20.581 14.3221C20.6229 14.3221 20.6644 14.331 20.7027 14.3482C20.741 14.3654 20.7753 14.3905 20.8033 14.4219C20.8313 14.4533 20.8525 14.4903 20.8654 14.5305C20.8783 14.5706 20.8827 14.6131 20.8782 14.6551L20.8858 18.5486Z" fill="#1565C0"/>
<path d="M11.0917 13.5899L7.18024 11.3208C7.05114 11.2458 6.9047 11.2063 6.75563 11.2063C6.60656 11.2063 6.46011 11.2458 6.33102 11.3208L2.42461 13.5899C2.29576 13.6648 2.18872 13.7725 2.1142 13.9021C2.03968 14.0317 2.0003 14.1788 2 14.3286V18.8745C2.0003 19.0242 2.03968 19.1713 2.1142 19.301C2.18872 19.4306 2.29576 19.5382 2.42461 19.6131L6.33102 21.8865C6.46011 21.9615 6.60656 22.001 6.75563 22.001C6.9047 22.001 7.05114 21.9615 7.18024 21.8865L11.0866 19.6131C11.2155 19.5382 11.3225 19.4306 11.3971 19.301C11.4716 19.1713 11.511 19.0242 11.5113 18.8745V14.3286C11.511 14.1788 11.4716 14.0317 11.3971 13.9021C11.3225 13.7725 11.2155 13.6648 11.0866 13.5899M10.3971 18.5487C10.3971 18.6016 10.3833 18.6535 10.3571 18.6993C10.3308 18.745 10.2931 18.783 10.2476 18.8095L8.54918 19.797C8.50402 19.8233 8.45275 19.8372 8.40056 19.8371C8.33352 19.8388 8.26787 19.8177 8.21418 19.7772C8.16048 19.7368 8.12185 19.6793 8.10451 19.6141C8.08716 19.5489 8.0921 19.4797 8.11854 19.4177C8.14497 19.3556 8.19136 19.3043 8.25025 19.272L9.80432 18.3692V14.6552C9.81218 14.5814 9.84688 14.513 9.90175 14.4634C9.95662 14.4138 10.0278 14.3863 10.1016 14.3863C10.1753 14.3863 10.2465 14.4138 10.3014 14.4634C10.3562 14.513 10.3909 14.5814 10.3988 14.6552L10.3971 18.5487Z" fill="#1565C0"/>
</svg>
