<svg width="24" height="24" viewBox="0 0 24 24" fill="none" xmlns="http://www.w3.org/2000/svg">
<path fill-rule="evenodd" clip-rule="evenodd" d="M2 6.20829C2 3.88466 3.88368 2.00098 6.20732 2.00098H17.7927C20.1163 2.00098 22 3.88466 22 6.20829V17.7937C22 20.1173 20.1163 22.001 17.7927 22.001H6.20732C3.88368 22.001 2 20.1173 2 17.7937V6.20829ZM6.20732 3.46439C4.69191 3.46439 3.46341 4.69288 3.46341 6.20829V17.7937C3.46341 19.3091 4.69191 20.5376 6.20732 20.5376H17.7927C19.3081 20.5376 20.5366 19.3091 20.5366 17.7937V6.20829C20.5366 4.69288 19.3081 3.46439 17.7927 3.46439H6.20732Z" fill="#1565C0"/>
<path fill-rule="evenodd" clip-rule="evenodd" d="M7.12184 11.6556C7.52595 11.6556 7.85355 11.9832 7.85355 12.3873V15.863C7.85355 16.2671 7.52595 16.5947 7.12184 16.5947C6.71773 16.5947 6.39014 16.2671 6.39014 15.863V12.3873C6.39014 11.9832 6.71773 11.6556 7.12184 11.6556Z" fill="#1565C0"/>
<path fill-rule="evenodd" clip-rule="evenodd" d="M11.7561 6.39124C12.1602 6.39124 12.4878 6.71883 12.4878 7.12294V15.9522C12.4878 16.3564 12.1602 16.6839 11.7561 16.6839C11.352 16.6839 11.0244 16.3564 11.0244 15.9522V7.12294C11.0244 6.71883 11.352 6.39124 11.7561 6.39124Z" fill="#1565C0"/>
<path fill-rule="evenodd" clip-rule="evenodd" d="M16.3904 13.3207C16.7945 13.3207 17.1221 13.6483 17.1221 14.0524V15.9508C17.1221 16.3549 16.7945 16.6825 16.3904 16.6825C15.9863 16.6825 15.6587 16.3549 15.6587 15.9508V14.0524C15.6587 13.6483 15.9863 13.3207 16.3904 13.3207Z" fill="#1565C0"/>
</svg>
