<svg width="89" height="162" viewBox="0 0 89 162" fill="none" xmlns="http://www.w3.org/2000/svg">
<path d="M59.862 62.1947C59.6116 62.1416 59.3833 62.0135 59.2075 61.8275C59.0317 61.6415 58.9167 61.4064 58.8778 61.1534C58.8389 60.9004 58.878 60.6416 58.9899 60.4113C59.1018 60.1811 59.2811 59.9904 59.504 59.8647C65.7123 56.4571 70.6102 51.0806 73.4257 44.5823C76.2413 38.0841 76.8144 30.8337 75.0547 23.9738C73.2951 17.1139 69.3027 11.0346 63.7068 6.69404C58.111 2.35346 51.2298 -0.00161474 44.1478 8.30654e-07C37.0659 0.0016164 30.1858 2.35983 24.5919 6.70297C18.998 11.0461 15.0084 17.1272 13.2519 23.9879C11.4954 30.8486 12.0718 38.0987 14.8903 44.5957C17.7088 51.0926 22.6091 56.467 28.819 59.8717C29.0405 59.9985 29.2183 60.1897 29.3287 60.4198C29.4392 60.6499 29.4771 60.9082 29.4376 61.1604C29.398 61.4125 29.2828 61.6467 29.1071 61.832C28.9315 62.0172 28.7037 62.1447 28.454 62.1977C20.4531 63.7405 13.2382 68.0189 8.04665 74.2992C2.85506 80.5795 0.0102306 88.4704 0 96.6187V161.213H88.323V96.6127C88.3118 88.4639 85.4656 80.5729 80.2727 74.2931C75.0798 68.0133 67.8637 63.7359 59.862 62.1947ZM50.562 136.495C50.565 136.887 50.4155 137.266 50.145 137.55C49.8746 137.835 49.5043 138.004 49.112 138.021H40.212C39.8074 138.02 39.4196 137.859 39.1335 137.573C38.8475 137.287 38.6865 136.899 38.686 136.495V100.406H30.986C30.595 100.391 30.2254 100.223 29.956 99.9395C29.6866 99.6557 29.5388 99.2779 29.544 98.8867V93.8326C29.582 93.393 29.7513 92.9749 30.03 92.6327L41.737 83.4927H49.113C49.5046 83.508 49.8749 83.6751 50.1456 83.9586C50.4162 84.2421 50.5659 84.6197 50.563 85.0117V136.497L50.562 136.495Z" fill="#00B3E3"/>
</svg>
