<svg width="17" height="14" viewBox="0 0 17 14" fill="none" xmlns="http://www.w3.org/2000/svg">
<path d="M13.781 8.28885C14.6184 8.28885 15.2795 8.54646 15.8525 8.95127C15.9406 9.02487 15.9406 9.09847 15.8525 9.13527L15.4558 9.46648C15.3677 9.54008 15.3236 9.54008 15.2354 9.46648C14.8388 9.17207 14.3099 8.98807 13.781 8.98807C12.591 8.98807 11.6655 9.83449 11.6655 10.8281C11.6655 11.8217 12.591 12.6682 13.781 12.6682C14.4862 12.6682 14.971 12.4474 15.0592 12.4106V11.3065H13.781C13.6929 11.3065 13.6047 11.2329 13.6047 11.1961V10.7913C13.6047 10.7177 13.6929 10.6441 13.781 10.6441H15.8084C15.8966 10.6441 15.9406 10.7177 15.9406 10.7913V12.8154C15.9406 12.8522 15.8966 12.9258 15.8525 12.9258C15.8525 12.9258 14.971 13.4042 13.7369 13.4042C12.0622 13.4042 10.6959 12.2634 10.6959 10.8649C10.74 9.42968 12.1062 8.28885 13.781 8.28885ZM15.7203 1.92228C15.6321 1.88547 15.4999 1.95908 15.4999 2.03268C14.6625 3.98313 11.4011 4.68235 9.02109 5.23436C8.88887 5.27117 8.75665 5.27116 8.6685 5.30797C8.58036 5.30797 8.53628 5.27116 8.53628 5.19756C8.71258 4.60875 9.19739 2.9159 9.63812 1.66467C9.68219 1.59107 9.59405 1.51747 9.5059 1.48066L8.88887 1.29666C8.80072 1.25986 8.71258 1.29666 8.6685 1.40706V1.44386C8.6685 1.48066 8.58036 1.48066 8.58036 1.44386C8.44814 1.29666 8.27184 1.14945 8.05148 1.03905C6.72927 0.26623 4.61375 0.855046 3.33561 2.36389C2.71859 3.06311 2.41007 3.87273 2.41007 4.64555C2.41007 5.45517 2.76266 6.11759 3.46784 6.5224C3.60006 6.596 3.73228 6.6696 3.90857 6.70641C3.95264 6.70641 3.95264 6.78001 3.90857 6.81681C3.07118 7.25842 2.32193 7.77363 1.7049 8.36245C0.911576 9.09847 0.162325 10.4601 0.294545 11.6745C0.382692 12.337 0.779355 12.889 1.30824 13.2202C1.79304 13.5146 2.32193 13.625 2.85081 13.625C3.73228 13.625 4.65782 13.2938 5.31892 12.8522C7.12593 11.6377 7.39037 10.2393 7.65481 8.87766C7.69889 8.76726 7.69889 8.65686 7.74296 8.50965C8.0074 7.18482 8.22777 6.30159 8.22777 6.30159C8.22777 6.26479 8.27184 6.22799 8.31592 6.22799C8.62443 6.15439 8.93294 6.08079 9.28553 6.00719C11.9299 5.41837 15.4558 4.60875 16.4695 2.25348C16.5136 2.17988 16.4254 2.06948 16.3373 2.03268L15.7203 1.92228ZM6.72927 8.43605C6.6852 8.54645 6.6852 8.69366 6.64112 8.80406C6.37668 10.1289 6.15632 11.2697 4.70189 12.2634C3.90857 12.7786 2.71859 13.1098 1.92527 12.6314C1.57268 12.4106 1.35231 12.0793 1.30824 11.6377C1.17602 10.8281 1.66082 9.72409 2.45415 8.98807C3.15932 8.32565 4.04079 7.73683 5.09855 7.25842C5.71558 7.00081 6.33261 6.78001 7.03779 6.596C7.08186 6.596 7.12593 6.6328 7.12593 6.6696C6.99371 7.11121 6.94964 7.33202 6.72927 8.43605ZM8.0074 3.50472C7.78703 4.24074 7.56667 5.01356 7.39037 5.52877C7.39037 5.56558 7.3463 5.60238 7.25815 5.63918L6.33261 5.89678C4.92226 6.26479 4.26116 6.00718 3.99672 5.85998C3.60006 5.63917 3.37969 5.19756 3.37969 4.68235C3.37969 4.09353 3.64413 3.46792 4.12894 2.8791C5.05448 1.77507 6.59705 1.25986 7.43445 1.77507C8.0074 2.06948 8.22777 2.7319 8.0074 3.50472Z" fill="#2C2827"/>
</svg>
