<svg width="24" height="24" viewBox="0 0 24 24" fill="none" xmlns="http://www.w3.org/2000/svg">
<path d="M19.6968 8.09597V3.12732H21.9293V3.87161H20.5067V5.19097H21.8239V5.87913H20.5067V7.34526H22.0002V8.09597H19.6968Z" fill="#1565C0"/>
<path d="M18.432 8.08965C18.1901 8.16942 17.9363 8.2074 17.6816 8.20193C17.4082 8.20797 17.1376 8.14565 16.8945 8.02068C16.6515 7.8957 16.4438 7.71205 16.2904 7.48651C16.119 7.23639 15.9926 6.95848 15.9168 6.66522C15.8264 6.31937 15.7825 5.96309 15.7864 5.60572C15.7835 5.25416 15.8263 4.90371 15.9136 4.56307C15.9869 4.26805 16.1111 3.98797 16.2807 3.73536C16.4294 3.51382 16.6268 3.32895 16.858 3.19478C17.09 3.06448 17.3525 2.99779 17.6188 3.00149C17.8838 2.99588 18.1465 3.05075 18.3869 3.1619C18.5977 3.26292 18.7794 3.41551 18.915 3.60543L18.432 4.19493C18.3511 4.06774 18.2387 3.96349 18.1055 3.89226C17.9724 3.82102 17.823 3.78521 17.6719 3.78829C17.5079 3.78476 17.3475 3.83679 17.217 3.93587C17.0806 4.04159 16.9704 4.17716 16.895 4.33208C16.8047 4.51497 16.7407 4.70965 16.705 4.91035C16.6616 5.1396 16.6403 5.37244 16.6414 5.60572C16.64 5.84459 16.6613 6.08305 16.705 6.31793C16.7403 6.52001 16.8043 6.71607 16.895 6.90022C16.9694 7.054 17.0799 7.18769 17.217 7.29001C17.3517 7.38486 17.5135 7.43381 17.6784 7.42956C17.7817 7.4312 17.8847 7.41823 17.9843 7.39107C18.064 7.3712 18.1393 7.33695 18.2065 7.29001V6.00674H17.6011V5.27688H18.9714V7.7953C18.8098 7.92297 18.6269 8.02249 18.432 8.08965Z" fill="#1565C0"/>
<path d="M13.9144 3.92047H13.9426L14.4699 6.38354H13.3718L13.9144 3.92047ZM13.4072 3.12805L12.1665 8.10071H13.0127L13.2663 7.04763H14.577L14.8185 8.10071H15.6993L14.4868 3.12805H13.4072Z" fill="#1565C0"/>
<path d="M13.6728 17.7375C13.0805 19.1766 11.967 20.3414 10.553 21.001C10.9935 20.3534 11.1905 19.5718 11.1093 18.7938C11.0182 18.0846 10.712 17.4201 10.2317 16.8889C9.97973 16.6034 9.72773 16.3275 9.46688 16.0492C8.61199 15.1689 8.13169 13.9936 8.12637 12.7688C8.11751 12.6734 8.10866 12.5779 8.0998 12.4745C8.05901 12.4779 8.01842 12.4836 7.97823 12.4913C6.78359 13.1893 5.83363 14.2367 5.25745 15.4913C4.68127 16.7459 4.50681 18.1468 4.75779 19.5036C4.92445 20.0108 5.13371 20.5031 5.38336 20.9753C4.16613 20.4024 3.19263 19.4175 2.63632 18.1962C2.09654 17.1118 1.89341 15.8917 2.05288 14.6917C2.21234 13.4917 2.72716 12.3663 3.5316 11.4591C4.18086 10.7575 4.87468 10.0982 5.60879 9.48526C6.10393 9.01767 6.63369 8.57574 7.09422 8.07367C7.52826 7.61092 7.85515 7.05897 8.05184 6.45672C8.24854 5.85447 8.31026 5.21658 8.23264 4.58799C8.23264 4.58799 8.29383 3.74825 8.9975 4.276C10.2164 5.4292 11.0274 6.94483 11.309 8.5958C11.5643 10.0336 11.5585 11.5054 11.2921 12.9413C11.2921 12.9413 11.1963 13.6687 11.6745 13.4177C12.0794 13.0644 12.3996 12.6251 12.6116 12.1322C12.8235 11.6393 12.9217 11.1054 12.8991 10.5696C12.8991 10.5696 13.0206 10.0154 13.2034 10.3876C13.2088 10.3917 13.2132 10.3971 13.2163 10.4032C13.2193 10.4093 13.221 10.416 13.2211 10.4228C13.524 11.153 13.759 11.9093 13.9232 12.6822C14.3619 14.3523 14.274 16.1165 13.6712 17.7351" fill="#1565C0"/>
</svg>
