<svg width="180" height="180" viewBox="0 0 180 180" fill="none" xmlns="http://www.w3.org/2000/svg">
<path d="M90 0.5C139.429 0.5 179.5 40.5705 179.5 90C179.5 139.429 139.429 179.5 90 179.5C40.5705 179.5 0.5 139.429 0.5 90C0.500004 40.5705 40.5705 0.500004 90 0.5Z" stroke="#1565C0"/>
<path d="M89.9996 177.222C138.171 177.222 177.222 138.171 177.222 89.9996C177.222 41.8281 138.171 2.77734 89.9996 2.77734C41.8281 2.77734 2.77734 41.8281 2.77734 89.9996C2.77734 138.171 41.8281 177.222 89.9996 177.222Z" stroke="#1565C0" stroke-width="5"/>
<path d="M47.2109 92.5347L72.7565 118.714L132.304 57.8369" stroke="#1565C0" stroke-width="5" stroke-linecap="round"/>
</svg>
