<svg width="24" height="24" viewBox="0 0 24 24" fill="none" xmlns="http://www.w3.org/2000/svg">
<path d="M7.33361 5.98264C7.33374 6.16023 7.29886 6.33609 7.23097 6.50017C7.16308 6.66425 7.0635 6.81335 6.93794 6.93892C6.81237 7.06447 6.66328 7.16405 6.49919 7.23195C6.33511 7.29984 6.15925 7.33471 5.98167 7.33458H3.35194C3.17436 7.33471 2.9985 7.29984 2.83441 7.23195C2.67033 7.16405 2.52124 7.06447 2.39567 6.93892C2.27011 6.81335 2.17053 6.66425 2.10263 6.50017C2.03474 6.33609 1.99986 6.16023 2 5.98264V3.35292C1.99986 3.17533 2.03474 2.99947 2.10263 2.83539C2.17053 2.6713 2.27011 2.52221 2.39567 2.39665C2.52124 2.27108 2.67033 2.1715 2.83441 2.10361C2.9985 2.03572 3.17436 2.00084 3.35194 2.00098H5.98167C6.15925 2.00084 6.33511 2.03572 6.49919 2.10361C6.66328 2.1715 6.81237 2.27108 6.93794 2.39665C7.0635 2.52221 7.16308 2.6713 7.23097 2.83539C7.29886 2.99947 7.33374 3.17533 7.33361 3.35292V5.98264Z" fill="#1565C0"/>
<path d="M7.33361 13.3159C7.33361 13.4934 7.29863 13.6691 7.23068 13.8331C7.16272 13.9971 7.06313 14.1461 6.93757 14.2715C6.81202 14.3969 6.66298 14.4964 6.49895 14.5643C6.33494 14.6321 6.15916 14.6669 5.98167 14.6668H3.35194C3.17445 14.6669 2.99867 14.6321 2.83465 14.5643C2.67063 14.4964 2.52159 14.3969 2.39603 14.2715C2.27048 14.1461 2.17088 13.9971 2.10293 13.8331C2.03498 13.6691 2 13.4934 2 13.3159V10.6862C1.99986 10.5086 2.03474 10.3327 2.10263 10.1686C2.17053 10.0046 2.27011 9.85547 2.39567 9.72991C2.52124 9.60434 2.67033 9.50476 2.83441 9.43687C2.9985 9.36897 3.17436 9.3341 3.35194 9.33423H5.98167C6.15916 9.3341 6.33494 9.36895 6.49895 9.43677C6.66298 9.5046 6.81202 9.60408 6.93757 9.72954C7.06313 9.85499 7.16272 10.004 7.23068 10.1679C7.29863 10.3319 7.33361 10.5076 7.33361 10.6851V13.3159Z" fill="#1565C0"/>
<path d="M7.33361 20.6491C7.33374 20.8267 7.29886 21.0025 7.23097 21.1666C7.16308 21.3307 7.0635 21.4798 6.93794 21.6054C6.81237 21.731 6.66328 21.8305 6.49919 21.8984C6.33511 21.9663 6.15925 22.0012 5.98167 22.001H3.35194C3.17436 22.0012 2.9985 21.9663 2.83441 21.8984C2.67033 21.8305 2.52124 21.731 2.39567 21.6054C2.27011 21.4798 2.17053 21.3307 2.10263 21.1666C2.03474 21.0025 1.99986 20.8267 2 20.6491V18.0193C1.99986 17.8419 2.03474 17.666 2.10263 17.5019C2.17053 17.3378 2.27011 17.1887 2.39567 17.0631C2.52124 16.9376 2.67033 16.838 2.83441 16.7701C2.9985 16.7022 3.17436 16.6673 3.35194 16.6675H5.98167C6.15916 16.6673 6.33494 16.7022 6.49895 16.77C6.66298 16.8379 6.81202 16.9373 6.93757 17.0627C7.06313 17.1882 7.16272 17.3372 7.23068 17.5012C7.29863 17.6651 7.33361 17.8409 7.33361 18.0183V20.6491Z" fill="#1565C0"/>
<path d="M14.6656 5.98264C14.6657 6.16014 14.6309 6.33592 14.5631 6.49993C14.4952 6.66395 14.3957 6.813 14.2703 6.93855C14.1448 7.0641 13.9958 7.1637 13.8319 7.23165C13.6679 7.29961 13.4922 7.33458 13.3147 7.33458H10.6849C10.5074 7.33471 10.3315 7.29984 10.1674 7.23195C10.0033 7.16405 9.85425 7.06447 9.72869 6.93892C9.60312 6.81335 9.50354 6.66425 9.43565 6.50017C9.36775 6.33609 9.33288 6.16023 9.33301 5.98264V3.35292C9.33288 3.17542 9.36772 2.99965 9.43555 2.83563C9.50338 2.67161 9.60286 2.52256 9.72832 2.39701C9.85377 2.27146 10.0027 2.17186 10.1667 2.10391C10.3307 2.03595 10.5064 2.00098 10.6839 2.00098H13.3136C13.4912 2.00084 13.6671 2.03572 13.8312 2.10361C13.9952 2.1715 14.1443 2.27108 14.2699 2.39665C14.3955 2.52221 14.4951 2.6713 14.563 2.83539C14.6309 2.99947 14.6657 3.17533 14.6656 3.35292V5.98264Z" fill="#1565C0"/>
<path d="M14.6656 13.3159C14.6656 13.6742 14.5233 14.0178 14.2699 14.2711C14.0165 14.5245 13.673 14.6668 13.3147 14.6668H10.6849C10.5075 14.6669 10.3317 14.6321 10.1677 14.5643C10.0036 14.4964 9.85459 14.3969 9.72905 14.2715C9.60349 14.1461 9.5039 13.9971 9.43595 13.8331C9.36799 13.6691 9.33301 13.4934 9.33301 13.3159V10.6862C9.33288 10.5087 9.36772 10.3329 9.43555 10.1689C9.50338 10.0049 9.60286 9.85581 9.72832 9.73027C9.85377 9.60471 10.0027 9.50512 10.1667 9.43717C10.3307 9.36922 10.5064 9.33423 10.6839 9.33423H13.3136C13.4911 9.3341 13.6669 9.36895 13.831 9.43677C13.9949 9.5046 14.144 9.60408 14.2695 9.72954C14.3951 9.85499 14.4947 10.004 14.5627 10.1679C14.6306 10.3319 14.6656 10.5076 14.6656 10.6851V13.3159Z" fill="#1565C0"/>
<path d="M14.6656 20.6491C14.6657 20.8267 14.6309 21.0024 14.5631 21.1664C14.4952 21.3304 14.3957 21.4795 14.2703 21.6051C14.1448 21.7306 13.9958 21.8301 13.8319 21.8981C13.6679 21.966 13.4922 22.001 13.3147 22.001H10.6849C10.5074 22.0012 10.3315 21.9663 10.1674 21.8984C10.0033 21.8305 9.85425 21.731 9.72869 21.6054C9.60312 21.4798 9.50354 21.3307 9.43565 21.1666C9.36775 21.0025 9.33288 20.8267 9.33301 20.6491V18.0193C9.33288 17.8419 9.36772 17.6661 9.43555 17.5021C9.50338 17.3381 9.60286 17.189 9.72832 17.0634C9.85377 16.938 10.0027 16.8384 10.1667 16.7704C10.3307 16.7025 10.5064 16.6675 10.6839 16.6675H13.3136C13.4912 16.6673 13.6671 16.7022 13.8312 16.7701C13.9952 16.838 14.1443 16.9376 14.2699 17.0631C14.3955 17.1887 14.4951 17.3378 14.563 17.5019C14.6309 17.666 14.6657 17.8419 14.6656 18.0193V20.6491Z" fill="#1565C0"/>
<path d="M21.9991 5.98264C21.9992 6.16014 21.9644 6.33592 21.8965 6.49993C21.8287 6.66395 21.7292 6.813 21.6037 6.93855C21.4783 7.0641 21.3293 7.1637 21.1653 7.23165C21.0014 7.29961 20.8257 7.33458 20.6481 7.33458H18.0184C17.8409 7.33471 17.665 7.29984 17.5009 7.23195C17.3368 7.16405 17.1878 7.06447 17.0622 6.93892C16.9366 6.81335 16.837 6.66425 16.7691 6.50017C16.7012 6.33609 16.6663 6.16023 16.6665 5.98264V3.35292C16.6663 3.17542 16.7012 2.99965 16.769 2.83563C16.8369 2.67161 16.9363 2.52256 17.0618 2.39701C17.1873 2.27146 17.3362 2.17186 17.5002 2.10391C17.6641 2.03595 17.8399 2.00098 18.0174 2.00098H20.6481C20.8257 2.00084 21.0016 2.03572 21.1656 2.10361C21.3297 2.1715 21.4788 2.27108 21.6044 2.39665C21.73 2.52221 21.8296 2.6713 21.8975 2.83539C21.9654 2.99947 22.0003 3.17533 22.0001 3.35292L21.9991 5.98264Z" fill="#1565C0"/>
<path d="M21.9991 13.3159C21.9991 13.4933 21.9642 13.669 21.8963 13.8329C21.8284 13.9968 21.7288 14.1457 21.6034 14.2711C21.4779 14.3966 21.329 14.4961 21.1651 14.564C21.0013 14.6319 20.8256 14.6668 20.6481 14.6668H18.0184C17.8409 14.6669 17.6651 14.6321 17.5011 14.5643C17.3371 14.4964 17.1881 14.3969 17.0625 14.2715C16.937 14.1461 16.8374 13.9971 16.7694 13.8331C16.7015 13.6691 16.6665 13.4934 16.6665 13.3159V10.6862C16.6663 10.5086 16.7012 10.3327 16.7691 10.1686C16.837 10.0046 16.9366 9.85547 17.0622 9.72991C17.1878 9.60434 17.3368 9.50476 17.5009 9.43687C17.665 9.36897 17.8409 9.3341 18.0184 9.33423H20.6481C20.8257 9.3341 21.0015 9.36895 21.1654 9.43677C21.3294 9.5046 21.4785 9.60408 21.6041 9.72954C21.7296 9.85499 21.8292 10.004 21.8972 10.1679C21.9651 10.3319 22.0001 10.5076 22.0001 10.6851L21.9991 13.3159Z" fill="#1565C0"/>
<path d="M21.9991 20.6491C21.9991 21.0074 21.8568 21.351 21.6034 21.6044C21.35 21.8577 21.0065 22 20.6481 22H18.0184C17.8409 22.0001 17.6651 21.9653 17.5011 21.8974C17.3371 21.8296 17.1881 21.7302 17.0625 21.6047C16.937 21.4793 16.8374 21.3303 16.7694 21.1663C16.7015 21.0023 16.6665 20.8267 16.6665 20.6491V18.0193C16.6663 17.8419 16.7012 17.666 16.7691 17.5019C16.837 17.3378 16.9366 17.1887 17.0622 17.0631C17.1878 16.9376 17.3368 16.838 17.5009 16.7701C17.665 16.7022 17.8409 16.6673 18.0184 16.6675H20.6481C20.8257 16.6673 21.0016 16.7022 21.1656 16.7701C21.3297 16.838 21.4788 16.9376 21.6044 17.0631C21.73 17.1887 21.8296 17.3378 21.8975 17.5019C21.9654 17.666 22.0003 17.8419 22.0001 18.0193L21.9991 20.6491Z" fill="#1565C0"/>
</svg>
