<?xml version="1.0" encoding="utf-8"?>
<!-- Generator: Adobe Illustrator 24.0.0, SVG Export Plug-In . SVG Version: 6.00 Build 0)  -->
<svg version="1.1" id="Layer_1" xmlns="http://www.w3.org/2000/svg" xmlns:xlink="http://www.w3.org/1999/xlink" x="0px" y="0px"
	 viewBox="0 0 1500 1180.3" style="enable-background:new 0 0 1500 1180.3;" xml:space="preserve">
<style type="text/css">
	.st0{opacity:0.8;}
	.st1{fill:#232323;}
	.st2{fill:none;stroke:#414042;stroke-width:4.0567;stroke-miterlimit:10;}
	.st3{fill:#FCFCFC;stroke:#AAAAAA;stroke-width:4.0405;stroke-miterlimit:10;}
	.st4{fill:#FCFCFC;}
	.st5{fill:none;stroke:#49C1BB;stroke-width:4.0567;stroke-miterlimit:10;}
	.st6{fill:#292829;}
	.st7{fill:#49C1BB;}
	.st8{fill:none;stroke:#AAAAAA;stroke-width:4.1305;stroke-miterlimit:10;}
	.st9{fill:#FFFFFF;}
	.st10{fill:none;stroke:#FFFFFF;stroke-width:4.0567;stroke-miterlimit:10;}
	.st11{fill:#808184;}
	.st12{fill:#142020;}
</style>
<g>
	<g>
		<g>
			<g class="st0">
				<g>
					<defs>
						<rect id="SVGID_1_" x="298.5" y="165.3" width="667.6" height="843.5"/>
					</defs>
					<clipPath id="SVGID_2_">
						<use xlink:href="#SVGID_1_"  style="overflow:visible;"/>
					</clipPath>
				</g>
			</g>
			<path class="st1" d="M1431.3,589.6v90.1l-0.4,45l-1.1,45l-1.8,45l-3.6,45l-2.6,22.5l-2.6,17.3c-0.5,3.2-1.1,6.5-1.7,9.7
				l-3.7,17.3l-3.4,13.1c-1.6,6-3.5,11.9-5.8,17.7l-6.7,16.8c-2,5-4.3,10-6.8,14.8l-1.2,2.2c-2.3,4.4-4.8,8.6-7.5,12.7
				c-4.1,6.3-8.6,12.2-13.6,17.9l-3.5,4l-1.8,2.1l-3.9,4.5c-4.6,5.2-9.5,10.1-14.8,14.7l-1.7,1.5c-2.8,2.4-5.7,4.7-8.6,6.9l-4.4,3.3
				c-3.8,2.9-7.8,5.6-11.9,8.1l-10.2,6.3c-2.9,1.8-5.9,3.5-9,5.1l-10.6,5.5c-4.2,2.2-8.5,4.2-12.9,6l-11.3,4.7
				c-3.3,1.4-6.7,2.6-10.1,3.8l-13.3,4.4c-3.8,1.2-7.6,2.4-11.4,3.3l-7,1.7c-3.2,0.8-6.4,1.5-9.6,2.1l-8.1,1.5
				c-3.3,0.6-6.6,1.1-9.9,1.5l-7.6,0.9c-4,0.5-8,0.8-12,0.9l-12.5,0.5H341.8c-2.7,0-5.4-0.1-8.1-0.2l-11.3-0.6
				c-3.6-0.2-7.1-0.5-10.7-0.9l-8.9-1.1c-4.4-0.5-8.7-1.3-13-2.2l-8.9-1.9c-3.6-0.7-7.1-1.6-10.6-2.6l-10.7-3
				c-3-0.8-5.9-1.8-8.9-2.8l-9.6-3.4c-3.8-1.3-7.5-2.8-11.2-4.4l-13.4-5.9l-13-6.5c-4-2-7.8-4.1-11.6-6.4l-6.2-3.8
				c-4-2.4-7.8-5-11.5-7.8l-8.6-6.4l-7.7-6.3c-4.1-3.3-8-6.8-11.7-10.5l-2.5-2.5c-3.1-3.1-6.1-6.4-9-9.7l-3.5-4.2
				c-2.6-3-5-6.2-7.3-9.4l-1.5-2.1c-3.4-4.8-6.6-9.7-9.5-14.9l-1.7-3c-1.8-3.3-3.5-6.6-5.1-10l-2.9-6.3c-1.6-3.3-3-6.7-4.3-10.1
				l-2.3-6c-1.5-4-2.9-8-4.1-12.1l-2.8-9.7c-0.8-2.7-1.5-5.5-2.2-8.2l-2.8-11.8c-0.7-2.9-1.3-5.8-1.8-8.8l-2.9-16.7l-2.9-21.1
				L75,850.4L73.2,829L71,786.1v-3.3l-0.4-13.4l-1.1-52.7l-0.4-63.6v-63.6v-90.1l0.4-44.7l1.1-45l1.8-45l3-37.5l0-0.1l0.6-7.4
				l2.6-22.5l2.6-17.5c0.5-3.1,1-6.1,1.6-9.2l2.9-13.8c0.6-2.7,1.2-5.5,1.9-8.2l3.4-12.7c0.9-3.4,1.9-6.7,3-10l1.1-3.2
				c2-6,4.4-11.8,7.2-17.5l6.9-14.1c3.1-6.4,6.7-12.6,10.6-18.6l0.1-0.2c2.8-4.1,5.7-8.1,8.9-12l3-3.7c2.4-2.9,4.9-5.7,7.4-8.5
				l3.3-3.4c3.5-3.7,7.2-7.2,11-10.6l3.9-3.3c2.8-2.4,5.7-4.7,8.6-7l5.1-3.8c3.3-2.5,6.7-4.8,10.2-7l9.4-5.9c4-2.6,8.2-4.9,12.5-7.1
				l10.5-5.4c3-1.5,6.1-3,9.2-4.3l11.4-4.9c4.6-2,9.3-3.7,14-5.2l9.9-3.1c4.7-1.5,9.4-2.7,14.2-3.8l20.9-4.5c4.8-1,9.7-1.9,14.6-2.4
				l5.2-0.6c4-0.5,8-0.8,12-0.9l12.5-0.5h825l12.7,0.4c5.4,0.2,10.8,0.7,16.1,1.4l7.6,1.1c3.5,0.5,6.9,1.1,10.3,1.8l10.2,2.1
				c3.6,0.8,7.1,1.6,10.7,2.6l10.6,3c3,0.8,5.9,1.8,8.8,2.8l10.8,3.8c3,1.1,6,2.2,9,3.5l8.9,3.8c3.7,1.6,7.4,3.3,11,5.1l8.7,4.5
				c3.2,1.7,6.4,3.5,9.5,5.4l9.1,5.6c2.7,1.6,5.3,3.4,7.9,5.2l5.2,3.6c3.7,2.6,7.2,5.3,10.6,8.1l3.1,2.6c3.5,2.9,6.9,6,10.1,9.2
				l3.2,3.2c3.1,3.1,6.1,6.4,8.9,9.7l2.9,3.5c3,3.5,5.8,7.2,8.4,10.9l2.1,3.1c2.7,3.9,5.2,7.9,7.6,12l1.7,3
				c2.3,4.1,4.5,8.2,6.4,12.5l2.7,5.9c1.3,3,2.6,5.9,3.8,9l2.5,6.6c1.5,4,2.9,8,4.1,12.1l2.8,9.7c0.8,2.7,1.5,5.5,2.2,8.3l2.8,12.1
				c0.6,2.7,1.2,5.5,1.7,8.3l2.9,16.5l2.9,21.1l2,19.8l0,0.1l0.1,1.5l1.8,21.4l2.2,43.2v3.3l0.4,13.1l1.1,53l0.4,63.6V589.6"/>
			<path class="st2" d="M1431.3,589.6v90.1l-0.4,45l-1.1,45l-1.8,45l-3.6,45l-2.6,22.5l-2.6,17.3c-0.5,3.2-1.1,6.5-1.7,9.7
				l-3.7,17.3l-3.4,13.1c-1.6,6-3.5,11.9-5.8,17.7l-6.7,16.8c-2,5-4.3,10-6.8,14.8l-1.2,2.2c-2.3,4.4-4.8,8.6-7.5,12.7
				c-4.1,6.3-8.6,12.2-13.6,17.9l-3.5,4l-1.8,2.1l-3.9,4.5c-4.6,5.2-9.5,10.1-14.8,14.7l-1.7,1.5c-2.8,2.4-5.7,4.7-8.6,6.9l-4.4,3.3
				c-3.8,2.9-7.8,5.6-11.9,8.1l-10.2,6.3c-2.9,1.8-5.9,3.5-9,5.1l-10.6,5.5c-4.2,2.2-8.5,4.2-12.9,6l-11.3,4.7
				c-3.3,1.4-6.7,2.6-10.1,3.8l-13.3,4.4c-3.8,1.2-7.6,2.4-11.4,3.3l-7,1.7c-3.2,0.8-6.4,1.5-9.6,2.1l-8.1,1.5
				c-3.3,0.6-6.6,1.1-9.9,1.5l-7.6,0.9c-4,0.5-8,0.8-12,0.9l-12.5,0.5H341.8c-2.7,0-5.4-0.1-8.1-0.2l-11.3-0.6
				c-3.6-0.2-7.1-0.5-10.7-0.9l-8.9-1.1c-4.4-0.5-8.7-1.3-13-2.2l-8.9-1.9c-3.6-0.7-7.1-1.6-10.6-2.6l-10.7-3
				c-3-0.8-5.9-1.8-8.9-2.8l-9.6-3.4c-3.8-1.3-7.5-2.8-11.2-4.4l-13.4-5.9l-13-6.5c-4-2-7.8-4.1-11.6-6.4l-6.2-3.8
				c-4-2.4-7.8-5-11.5-7.8l-8.6-6.4l-7.7-6.3c-4.1-3.3-8-6.8-11.7-10.5l-2.5-2.5c-3.1-3.1-6.1-6.4-9-9.7l-3.5-4.2
				c-2.6-3-5-6.2-7.3-9.4l-1.5-2.1c-3.4-4.8-6.6-9.7-9.5-14.9l-1.7-3c-1.8-3.3-3.5-6.6-5.1-10l-2.9-6.3c-1.6-3.3-3-6.7-4.3-10.1
				l-2.3-6c-1.5-4-2.9-8-4.1-12.1l-2.8-9.7c-0.8-2.7-1.5-5.5-2.2-8.2l-2.8-11.8c-0.7-2.9-1.3-5.8-1.8-8.8l-2.9-16.7l-2.9-21.1
				L75,850.4L73.2,829L71,786.1v-3.3l-0.4-13.4l-1.1-52.7l-0.4-63.6v-63.6v-90.1l0.4-44.7l1.1-45l1.8-45l3-37.5l0-0.1l0.6-7.4
				l2.6-22.5l2.6-17.5c0.5-3.1,1-6.1,1.6-9.2l2.9-13.8c0.6-2.7,1.2-5.5,1.9-8.2l3.4-12.7c0.9-3.4,1.9-6.7,3-10l1.1-3.2
				c2-6,4.4-11.8,7.2-17.5l6.9-14.1c3.1-6.4,6.7-12.6,10.6-18.6l0.1-0.2c2.8-4.1,5.7-8.1,8.9-12l3-3.7c2.4-2.9,4.9-5.7,7.4-8.5
				l3.3-3.4c3.5-3.7,7.2-7.2,11-10.6l3.9-3.3c2.8-2.4,5.7-4.7,8.6-7l5.1-3.8c3.3-2.5,6.7-4.8,10.2-7l9.4-5.9c4-2.6,8.2-4.9,12.5-7.1
				l10.5-5.4c3-1.5,6.1-3,9.2-4.3l11.4-4.9c4.6-2,9.3-3.7,14-5.2l9.9-3.1c4.7-1.5,9.4-2.7,14.2-3.8l20.9-4.5c4.8-1,9.7-1.9,14.6-2.4
				l5.2-0.6c4-0.5,8-0.8,12-0.9l12.5-0.5h825l12.7,0.4c5.4,0.2,10.8,0.7,16.1,1.4l7.6,1.1c3.5,0.5,6.9,1.1,10.3,1.8l10.2,2.1
				c3.6,0.8,7.1,1.6,10.7,2.6l10.6,3c3,0.8,5.9,1.8,8.8,2.8l10.8,3.8c3,1.1,6,2.2,9,3.5l8.9,3.8c3.7,1.6,7.4,3.3,11,5.1l8.7,4.5
				c3.2,1.7,6.4,3.5,9.5,5.4l9.1,5.6c2.7,1.6,5.3,3.4,7.9,5.2l5.2,3.6c3.7,2.6,7.2,5.3,10.6,8.1l3.1,2.6c3.5,2.9,6.9,6,10.1,9.2
				l3.2,3.2c3.1,3.1,6.1,6.4,8.9,9.7l2.9,3.5c3,3.5,5.8,7.2,8.4,10.9l2.1,3.1c2.7,3.9,5.2,7.9,7.6,12l1.7,3
				c2.3,4.1,4.5,8.2,6.4,12.5l2.7,5.9c1.3,3,2.6,5.9,3.8,9l2.5,6.6c1.5,4,2.9,8,4.1,12.1l2.8,9.7c0.8,2.7,1.5,5.5,2.2,8.3l2.8,12.1
				c0.6,2.7,1.2,5.5,1.7,8.3l2.9,16.5l2.9,21.1l2,19.8l0,0.1l0.1,1.5l1.8,21.4l2.2,43.2v3.3l0.4,13.1l1.1,53l0.4,63.6V589.6z"/>
			<path class="st3" d="M1485.4,438.8l-0.7-38.1l-1.9-37.8l-2.6-38.9l-0.2-1.6l0-0.1l-3.9-37.2l-2.1-13.6c-0.6-4-1.3-8-2.2-11.9
				l-5.2-24.6c-1.2-5.6-2.5-11.1-4.1-16.5l-1.4-4.9c-1.1-3.9-2.4-7.8-3.8-11.6l-2.1-5.8c-2.2-6.1-4.6-12.1-7.3-17.9l-1.8-3.9
				c-2.3-4.9-4.7-9.7-7.3-14.4l-2.2-3.9c-3.1-5.5-6.4-10.9-9.9-16.1l-1.6-2.4c-3.8-5.5-7.8-10.9-12-16l-1.2-1.5
				c-4.3-5.2-8.9-10.2-13.6-15l-2.1-2.1c-4.2-4.2-8.5-8.2-13-12l-4.6-3.9c-3.8-3.2-7.6-6.2-11.6-9.2l-4.5-3.3
				c-5.1-3.8-10.4-7.3-15.8-10.6l-8.8-5.4c-4.9-3-10-5.8-15.2-8.4l-9.1-4.5c-6-3-12.2-5.8-18.5-8.2l-12-4.6
				c-4.2-1.6-8.5-3.1-12.8-4.5l-10.6-3.3c-7.4-2.3-14.9-4.3-22.5-5.8l-13.5-2.7c-9.3-1.9-18.7-3.1-28.2-3.7l-18.9-1.2
				c-4.6-0.3-9.2-0.5-13.8-0.5H337.8c-4.9,0-9.7,0.2-14.5,0.5L304.9,13c-8.3,0.6-16.5,1.6-24.7,3.1l-13.5,2.5
				c-8,1.5-16,3.4-23.8,5.8l-9.9,3.1c-4.8,1.5-9.6,3.1-14.3,4.9L207,37.1c-5.9,2.3-11.8,4.9-17.5,7.7L179,49.9
				c-5.8,2.8-11.4,5.9-16.9,9.3l-7.3,4.5c-7.4,4.5-14.4,9.4-21.2,14.8l-9.2,7.3c-9.5,7.5-18.4,15.9-26.5,24.9l-5.1,5.6
				c-8,8.9-15.2,18.5-21.6,28.6l-3.1,4.8c-6.8,10.8-12.7,22.2-17.5,34.1l-4,9.9c-3.6,8.9-6.6,18-9,27.3l-5.7,22.4
				c-1.9,7.6-3.5,15.3-4.6,23.1L22.8,298c-0.6,4.2-1.1,8.5-1.4,12.8l-0.9,11.5v0.1l-2.6,32.7l-2.2,50.7L14.1,498v91.8v75.9l0.7,75.5
				l0.7,37.8l1.8,37.8l2.6,39.2l3.3,31.9c0.5,4.6,1.1,9.3,1.9,13.9l4,23.1c1,5.9,2.3,11.8,3.8,17.6l5.2,19.9c1.7,6.5,3.7,13,6,19.4
				L45,984c2.1,5.7,4.4,11.3,6.9,16.8l2.4,5.2c2,4.3,4.2,8.6,6.5,12.8l2.3,4.3c3.3,6,6.9,11.9,10.8,17.6l0.5,0.7
				c4.2,6.1,8.7,12.1,13.5,17.8l1.1,1.3c3.9,4.6,7.9,9,12.2,13.2l3.9,3.9c3.5,3.5,7.2,6.9,10.9,10.2l3.7,3.2
				c5.1,4.5,10.5,8.7,16,12.6l3.6,2.6c4.1,3,8.4,5.8,12.7,8.4l9.9,6.1c5.6,3.4,11.3,6.6,17.1,9.4l9.4,4.6c4.9,2.4,10,4.7,15.1,6.7
				l11.5,4.6c5.7,2.3,11.6,4.3,17.5,6.1l12.4,3.7c4.6,1.4,9.2,2.6,13.9,3.7l3.2,0.7c6,1.4,12.1,2.5,18.1,3.4l19,2.7
				c7.4,1,14.8,1.7,22.2,2l9.2,0.3h831.8c4.8,0,9.7-0.2,14.5-0.5l17.4-1.2c9-0.6,17.9-1.8,26.7-3.5l14.4-2.8c6.8-1.3,13.5-3,20.1-5
				l11.8-3.5c4.5-1.4,9.1-2.9,13.5-4.5l5.1-1.9c6.7-2.5,13.2-5.3,19.6-8.5l21.4-10.5c7-3.4,13.8-7.2,20.3-11.4
				c6.2-4,12.3-8.3,18.1-12.9l11.2-8.9c9.2-7.3,17.7-15.3,25.6-23.9l4.1-4.5c9.1-10.1,17.3-21,24.4-32.6l3.2-5.3
				c5.8-9.5,10.9-19.5,15.1-29.8l5.5-13.2c3.2-7.8,5.9-15.7,8.2-23.8l3.2-11.6l4.2-18.4c0.9-4,1.7-8.1,2.4-12.2l3-18.3l3-25.2
				l2.6-25.2l1.5-25.2l2.2-51.1l1.1-45.9l0.4-45.9v-92.2v-75.5L1485.4,438.8z M1431.2,589.8v90.1l-0.4,45l-1.1,45l-1.8,45l-3.6,45
				l-2.6,22.5l-2.6,17.3c-0.5,3.2-1.1,6.5-1.7,9.7l-3.7,17.3l-3.4,13.1c-1.6,6-3.5,11.9-5.8,17.7l-6.7,16.8c-2,5-4.3,10-6.8,14.8
				l-1.2,2.2c-2.3,4.4-4.8,8.6-7.5,12.7c-4.1,6.3-8.6,12.2-13.6,17.9l-3.5,4l-1.8,2.1l-3.9,4.5c-4.6,5.2-9.5,10.1-14.8,14.7
				l-1.7,1.5c-2.8,2.4-5.7,4.7-8.6,6.9l-4.4,3.3c-3.8,2.9-7.8,5.6-11.9,8.1l-10.2,6.3c-2.9,1.8-5.9,3.5-9,5.1l-10.6,5.5
				c-4.2,2.2-8.5,4.2-12.9,6l-11.3,4.7c-3.3,1.4-6.7,2.6-10.1,3.8l-13.3,4.4c-3.8,1.2-7.6,2.4-11.4,3.3l-7,1.7
				c-3.2,0.8-6.4,1.5-9.6,2.1l-8.1,1.5c-3.3,0.6-6.6,1.1-9.8,1.5l-7.6,0.9c-4,0.5-8,0.8-12,0.9l-12.5,0.5H341.7
				c-2.7,0-5.4-0.1-8.1-0.2l-11.3-0.6c-3.6-0.2-7.2-0.5-10.7-0.9l-8.8-1.1c-4.4-0.5-8.7-1.3-13-2.2l-8.9-1.9
				c-3.6-0.7-7.1-1.6-10.6-2.6l-10.7-3c-3-0.8-5.9-1.8-8.8-2.8l-9.6-3.4c-3.8-1.3-7.5-2.8-11.2-4.4l-13.4-5.9l-13-6.5
				c-4-2-7.8-4.1-11.6-6.4l-6.2-3.8c-4-2.4-7.8-5-11.5-7.8l-8.6-6.4l-7.7-6.3c-4.1-3.3-8-6.8-11.7-10.5l-2.5-2.5
				c-3.1-3.1-6.1-6.4-8.9-9.7l-3.5-4.2c-2.6-3-5-6.2-7.3-9.4l-1.5-2.1c-3.4-4.8-6.6-9.7-9.5-14.9l-1.7-3c-1.8-3.3-3.5-6.6-5.1-10
				l-2.9-6.3c-1.6-3.3-3-6.7-4.3-10.1l-2.3-6c-1.5-4-2.9-8-4.1-12.1l-2.8-9.7c-0.8-2.7-1.5-5.5-2.2-8.2l-2.7-11.8
				c-0.7-2.9-1.3-5.8-1.8-8.8L80,893.1L77.1,872l-2.2-21.4l-1.8-21.4l-2.2-42.9V783l-0.4-13.4l-1.1-52.7l-0.4-63.6v-63.6v-90.1
				l0.4-44.7l1.1-45l1.8-45l3-37.5l0-0.1l0.6-7.4l2.6-22.5l2.6-17.5c0.5-3.1,1-6.1,1.6-9.2l2.9-13.8c0.6-2.7,1.2-5.5,2-8.2L91,236
				c0.9-3.4,1.9-6.7,3-10l1.1-3.2c2-6,4.4-11.8,7.2-17.5l6.9-14.1c3.1-6.4,6.7-12.6,10.6-18.6l0.1-0.2c2.8-4.1,5.7-8.1,8.8-12l3-3.7
				c2.4-2.9,4.9-5.7,7.4-8.5l3.3-3.4c3.5-3.7,7.2-7.2,11-10.6l3.9-3.3c2.8-2.4,5.7-4.7,8.6-7l5.1-3.8c3.3-2.5,6.7-4.8,10.2-7
				l9.4-5.9c4-2.6,8.2-4.9,12.5-7.1l10.5-5.4c3-1.5,6.1-3,9.2-4.3l11.4-4.9c4.6-2,9.3-3.7,14-5.2l9.9-3.1c4.7-1.5,9.4-2.7,14.2-3.8
				l20.9-4.5c4.8-1,9.7-1.9,14.6-2.4l5.2-0.6c4-0.5,8-0.8,12-0.9l12.5-0.5h825l12.7,0.4c5.4,0.2,10.7,0.7,16.1,1.4l7.6,1.1
				c3.5,0.5,6.9,1.1,10.3,1.8l10.2,2.1c3.6,0.8,7.1,1.6,10.7,2.6l10.6,3c3,0.8,5.9,1.8,8.8,2.8l10.8,3.8c3,1.1,6,2.2,9,3.5l8.9,3.8
				c3.7,1.6,7.4,3.3,11,5.1l8.7,4.5c3.2,1.7,6.4,3.5,9.5,5.4l9.1,5.6c2.7,1.6,5.3,3.4,7.9,5.2l5.2,3.6c3.7,2.6,7.2,5.3,10.6,8.1
				l3.1,2.6c3.5,2.9,6.9,6,10.1,9.2l3.2,3.2c3.1,3.1,6.1,6.4,8.9,9.7l2.9,3.5c3,3.5,5.8,7.2,8.4,10.9l2.1,3.1
				c2.7,3.9,5.3,7.9,7.6,12l1.7,3c2.3,4.1,4.5,8.2,6.4,12.5l2.7,5.9c1.4,3,2.6,5.9,3.8,9l2.5,6.6c1.5,4,2.9,8,4.1,12.1l2.8,9.7
				c0.8,2.7,1.5,5.5,2.2,8.3l2.8,12.1c0.6,2.7,1.2,5.5,1.7,8.3l2.9,16.5l2.9,21.1l2,19.8l0,0.1l0.2,1.5l1.8,21.4l2.2,43.2v3.3
				l0.4,13.1l1.1,53l0.4,63.6C1431.2,526.6,1431.2,589.8,1431.2,589.8"/>
			<path class="st4" d="M1323.2,744.5l-0.4-3.9l-2.2-19.4c-0.4-3.5-1-6.9-1.8-10.3l-2.6-10.4c-1.3-5.2-3.2-10.3-5.5-15.2l-1.3-2.6
				c-1.2-2.5-2.6-4.9-4-7.3l-1.2-2c-2.9-4.7-6.3-9-10.1-12.9l-0.9-0.9c-3.6-3.7-7.6-7.1-11.9-10.1l-2.4-1.7c-3.2-2.2-6.5-4.1-10-5.8
				l-4.1-2c-3.9-1.9-8.1-3.5-12.3-4.7l-3.7-1.1c-4-1.2-8.1-2-12.2-2.5l-20.6-2.6c-2.9-0.4-5.8-0.6-8.7-0.6l-26.8-0.3H1167
				c-1.7,0-3.5,0.1-5.2,0.2l-28.1,1.9c-2.9,0.2-5.9,0.6-8.8,1.1l-4.2,0.8l-2.3,0.4l-11.1,3.2c-4.3,1.2-8.5,2.9-12.6,4.8l-3.8,1.8
				c-4.1,2-8,4.3-11.7,7l-1.8,1.3c-3.7,2.7-7.1,5.7-10.3,8.9l-0.5,0.6c-3.5,3.6-6.6,7.6-9.3,11.8l-1.2,1.8c-2.2,3.4-4.1,7-5.8,10.7
				l-1.2,2.8c-1.7,3.8-3.1,7.7-4.1,11.7l-3.4,12.6c-1.1,4.2-1.9,8.5-2.3,12.9l-1.5,16.1c-0.2,1.8-0.3,3.6-0.3,5.4l-1.1,48l0.4,32.8
				l0.3,13.7c0,1.8,0.1,3.5,0.3,5.3l0.2,1.6l2.1,18.6c0.4,4,1.2,7.9,2.2,11.8l3.1,11.4c1,3.9,2.4,7.6,4,11.3l1,2.2
				c1.9,4.2,4.1,8.3,6.7,12.1l0.8,1.2c2.3,3.4,4.9,6.6,7.7,9.6l2.2,2.3c3.5,3.8,7.4,7.1,11.6,10.1l1.1,0.8c4.2,3,8.6,5.5,13.3,7.7
				l3.9,1.7c3.1,1.4,6.3,2.6,9.6,3.6l4.9,1.5c3.9,1.2,7.8,2,11.8,2.6l20.4,2.8c3.2,0.4,6.4,0.7,9.7,0.7l26.7,0.3h13
				c1.7,0,3.5-0.1,5.2-0.2l28.4-1.9c2.7-0.2,5.5-0.5,8.2-1l4.9-0.9l1.9-0.4l11.9-3.7c3.8-1.2,7.5-2.6,11-4.4l4.5-2.2
				c4.1-2,8-4.3,11.7-7l1.8-1.3c3.7-2.7,7.1-5.7,10.3-9l1.5-1.5c2.9-3,5.5-6.1,7.8-9.5l1.2-1.7c2.8-4.1,5.3-8.4,7.3-12.9l0.4-0.9
				c1.9-4.2,3.4-8.6,4.5-13l3.3-13.5c0.8-3.4,1.4-6.8,1.8-10.3l1.8-16.6c0.3-2.4,0.4-4.8,0.4-7.1l0.7-46.8v-32.8L1323.2,744.5z"/>
			<path class="st5" d="M304.6,218.4v6.9c0,18.6-7.4,36.5-20.6,49.7L244,315.1c-13.2,13.2-20.6,31-20.6,49.7V593
				c0,18.6,7.4,36.5,20.6,49.7l39.3,39.3c13.2,13.2,20.6,31,20.6,49.7v4.9L304.6,218.4"/>
			<path class="st6" d="M918.2,1006.8H346.6c-25.4,0-46-20.6-46-46V213.4c0-25.4,20.6-46,46-46h571.6c25.4,0,46,20.6,46,46v747.5
				C964.2,986.3,943.6,1006.8,918.2,1006.8"/>
			<path class="st7" d="M1316.6,794.9l-0.7,44.2c0,2.4-0.2,4.8-0.4,7.1l-1.6,15.3c-0.4,3.5-1,6.9-1.8,10.3l-3,12.2
				c-1.1,4.5-2.6,8.8-4.5,13.1l-0.1,0.2c-2,4.5-4.5,8.9-7.3,12.9l-0.7,1c-2.3,3.4-5,6.6-7.8,9.5l-0.9,1c-3.2,3.3-6.6,6.3-10.3,9
				l-1.1,0.8c-3.7,2.7-7.6,5-11.7,7l-3.7,1.8c-3.6,1.7-7.2,3.2-11,4.4l-11,3.4l-1.8,0.4l-4.4,0.8c-2.7,0.5-5.5,0.8-8.2,1l-26.6,1.8
				c-1.7,0.1-3.5,0.2-5.2,0.2h-12.2l-25.1-0.3c-3.2,0-6.5-0.3-9.7-0.7l-18.8-2.6c-4-0.5-8-1.4-11.8-2.6l-4.1-1.2
				c-3.3-1-6.5-2.2-9.6-3.6l-3.1-1.4c-4.7-2.1-9.1-4.7-13.3-7.6l-0.4-0.3c-4.2-3-8.1-6.4-11.6-10.1l-1.6-1.7c-2.8-3-5.4-6.2-7.7-9.6
				l-0.4-0.6c-2.6-3.8-4.8-7.9-6.7-12.1l-0.7-1.5c-1.6-3.7-3-7.4-4-11.3l-2.8-10.2c-1.1-3.9-1.8-7.8-2.2-11.8l-1.9-17.3l-0.1-1.4
				c-0.2-1.8-0.3-3.5-0.3-5.3l-0.3-12.9l-0.4-31.1l1-45.4c0-1.8,0.1-3.6,0.3-5.4l1.4-14.8c0.4-4.3,1.2-8.7,2.3-12.9l3-11.3
				c1.1-4,2.4-7.9,4.1-11.7l0.9-2.1c1.6-3.7,3.6-7.3,5.8-10.7l0.7-1.1c2.7-4.2,5.9-8.2,9.3-11.8c3.2-3.3,6.6-6.3,10.3-8.9l1.1-0.8
				c3.7-2.7,7.6-5,11.7-7l2.9-1.4c4-2,8.2-3.6,12.6-4.8l10.2-2.9l2.2-0.4l3.8-0.7c2.9-0.5,5.8-0.9,8.8-1.1l26.3-1.7
				c1.7-0.1,3.5-0.2,5.2-0.2h12.6l25.2,0.3c2.9,0,5.8,0.2,8.7,0.6l19,2.4c4.1,0.5,8.2,1.4,12.2,2.5l2.8,0.8
				c4.2,1.2,8.3,2.8,12.3,4.7l3.3,1.6c3.5,1.7,6.8,3.6,10,5.8l1.7,1.2c4.3,2.9,8.3,6.3,11.9,10.1l0.3,0.3c3.8,3.9,7.2,8.3,10.1,12.9
				l0.8,1.3c1.5,2.3,2.8,4.8,4,7.3l0.9,1.9c2.4,4.9,4.2,9.9,5.5,15.2l2.3,9.2c0.8,3.4,1.5,6.8,1.8,10.3l2,18.1l0.4,3.7l0.7,15.9
				V794.9z"/>
			<path class="st4" d="M1243.4,573.4h-122.9c-32.2,0-58.5-26.3-58.5-58.5v-28.3c0-32.2,26.3-58.5,58.5-58.5h122.9
				c32.2,0,58.5,26.3,58.5,58.5v28.3C1302,547.1,1275.6,573.4,1243.4,573.4z"/>
			<path class="st8" d="M1240,565h-116c-29.1,0-52.9-23.8-52.9-52.9v-22.7c0-29.1,23.8-52.9,52.9-52.9h116
				c29.1,0,52.9,23.8,52.9,52.9v22.7C1292.9,541.2,1269.1,565,1240,565z"/>
			<path class="st9" d="M271.9,432.2c-1.3,0-2.2,0.4-2.9,1.2c-0.7,0.8-1.4,2.3-2.2,4.5c-1.4,4.5-2.9,7.8-4.5,10
				c-1.6,2.2-4,3.3-7,3.3c-3,0-5.4-1.3-7.2-3.9c-1.8-2.6-2.7-5.9-2.7-9.8c0-3.9,1-7.2,3-9.7c2-2.5,4.6-3.7,7.8-3.7l0.2,0v8
				c-1.4,0-2.6,0.5-3.5,1.4c-0.9,1-1.3,2.3-1.3,4c0,1.7,0.4,3,1.1,3.9c0.7,0.9,1.6,1.4,2.7,1.4c1,0,1.9-0.5,2.5-1.4
				c0.6-1,1.4-2.7,2.3-5.4c1.2-4,2.7-7.1,4.5-9.1c1.7-2,4.2-3.1,7.2-3.1c3.1,0,5.6,1.2,7.3,3.7c1.8,2.4,2.6,5.7,2.6,9.7
				c0,4-1,7.5-3,10.5c-2,2.9-4.9,4.4-8.7,4.3l-0.2,0v-8c2,0,3.5-0.5,4.4-1.6c0.9-1.1,1.3-2.8,1.3-5c0-1.7-0.3-3-1-3.8
				C273.9,432.6,273,432.2,271.9,432.2"/>
			<polygon class="st9" points="261.3,406.4 261.3,406.2 245.8,399.2 245.8,390.2 268.8,402.3 281.3,402.3 281.3,410.5 268.4,410.5 
				245.8,422.3 245.8,413.4 			"/>
			<path class="st9" d="M271.9,369.1c-1.3,0-2.2,0.4-2.9,1.2c-0.7,0.8-1.4,2.3-2.2,4.5c-1.4,4.5-2.9,7.8-4.5,10
				c-1.6,2.2-4,3.2-7,3.2c-3,0-5.4-1.3-7.2-3.9c-1.8-2.6-2.7-5.9-2.7-9.8c0-3.9,1-7.2,3-9.7c2-2.5,4.6-3.7,7.8-3.6l0.2,0v8
				c-1.4,0-2.6,0.5-3.5,1.4c-0.9,0.9-1.3,2.3-1.3,4c0,1.7,0.4,3,1.1,3.9c0.7,0.9,1.6,1.4,2.7,1.4c1,0,1.9-0.5,2.5-1.4
				c0.6-1,1.4-2.7,2.3-5.4c1.2-4,2.7-7.1,4.5-9.1c1.7-2,4.2-3.1,7.2-3.1c3.1,0,5.6,1.2,7.3,3.6c1.8,2.4,2.6,5.7,2.6,9.7
				c0,4-1,7.5-3,10.5c-2,2.9-4.9,4.4-8.7,4.3l-0.2,0v-8c2,0,3.5-0.5,4.4-1.6c0.9-1.1,1.3-2.8,1.3-5c0-1.7-0.3-3-1-3.8
				C273.9,369.5,273,369.1,271.9,369.1"/>
			<path class="st9" d="M281.8,593.9h-36.5v-13.2c0-4.3,1.4-7.9,4.2-10.8c2.8-2.9,6.4-4.3,10.8-4.3h6.6c4.4,0,8,1.4,10.8,4.3
				c2.8,2.9,4.2,6.5,4.2,10.8V593.9z M251.8,585.4h23.5v-4.1c0-2.3-0.8-4-2.3-5.3c-1.5-1.3-3.6-1.9-6.1-1.9h-6.6
				c-2.5,0-4.6,0.6-6.1,1.9c-1.5,1.3-2.3,3-2.3,5.3V585.4z"/>
			<rect x="245.2" y="551.3" class="st9" width="36.5" height="8.5"/>
			<path class="st9" d="M274.7,524.6v11.5l7.1,2.1v8.5l-36.5-11.8v-9.1l36.5-11.8v8.5L274.7,524.6z M268.2,534.3v-7.8l-13.1,3.8v0.1
				L268.2,534.3z"/>
			<path class="st9" d="M1197.1,171.7c2.2,0,4.2,0.7,5.8,2.2c0.2,0.2,0.5,0.2,0.7,0l1.7-1.7c0.2-0.2,0.2-0.5,0-0.7
				c-2.5-2.3-5.8-3.4-9.2-3c-5.4,0.6-9.8,4.9-10.4,10.3c-0.8,7.3,5.1,13.5,12.4,13.1c2.6-0.2,5-1.2,7-2.9c0.2-0.2,0.4-0.5,0.4-0.8
				v-8.5c0-0.3-0.2-0.5-0.5-0.5h-8c-0.3,0-0.5,0.2-0.5,0.5v2.4c0,0.3,0.2,0.5,0.5,0.5h4.7c0.3,0,0.5,0.2,0.5,0.5v3.6
				c0,0.4-0.2,0.7-0.5,0.9c-1.3,0.8-2.8,1.2-4.3,1.2c-4.8,0-8.7-4-8.4-8.9C1189.1,175.4,1192.7,171.8,1197.1,171.7"/>
			<path class="st9" d="M1206.6,147.4l-2.3-0.7c-0.2-0.1-0.5,0.1-0.6,0.3c-2.6,7.7-13.2,10.5-21.1,12.6l-1.3,0.4
				c-0.2,0-0.3-0.1-0.3-0.3c0.6-2.5,3-11.6,3.6-13.9c0.1-0.2-0.1-0.5-0.3-0.6l-2.2-0.7c-0.2-0.1-0.5,0-0.6,0.3c0,0.1,0,0.1-0.1,0.2
				c0,0.2-0.2,0.2-0.3,0.1c-0.5-0.6-1-1.2-1.7-1.6c-4.3-3-11.2-0.7-15.3,5.2c-4.1,5.9-3.9,13.1,0.4,16.2c0.4,0.2,0.8,0.5,1.4,0.7
				c0.2,0.1,0.2,0.3,0,0.5c-2.7,1.7-5.1,3.7-7.1,6c-2.6,2.9-5.1,8.2-4.5,12.8c0.3,2.5,1.5,4.7,3.3,6.1c1.5,1.1,3.3,1.6,5,1.6
				c2.9,0,5.8-1.3,8.1-3.1c5.8-4.7,6.7-10.1,7.5-15.5c0.1-0.5,1.8-9.7,1.8-9.7c0.1-0.4,0.3-0.7,0.7-0.8c0.9-0.3,1.8-0.5,2.8-0.8
				c8.6-2.3,20.3-5.4,23.4-14.9C1207,147.7,1206.9,147.5,1206.6,147.4 M1175.1,173.5c-0.8,5.1-1.5,9.5-6.3,13.4
				c-2.5,2-6.4,3.3-9.1,1.4c-1.1-0.8-1.8-2.2-2-3.8c-0.4-3.1,1.2-7.4,3.7-10.3c2.3-2.6,5.2-4.9,8.6-6.7c2-1,4-1.8,6.2-2.5
				c0.2-0.1,0.3,0.1,0.3,0.3C1176,167.6,1175.1,173.1,1175.1,173.5 M1177.5,160.6c-0.1,0.4-0.3,0.6-0.7,0.7
				c-0.9,0.3-2.7,0.9-2.8,0.9c-4.5,1.5-6.8,0.4-7.5-0.1c-2.8-2-2.6-7.3,0.4-11.6c3-4.3,8-6.3,10.8-4.3c1.7,1.2,2.4,3.7,1.8,6.5
				C1178.7,155.6,1178,158.5,1177.5,160.6"/>
			<g>
				<path class="st9" d="M1122.2,762.1c0-1.3-0.4-2.3-1.3-3c-0.9-0.7-2.4-1.5-4.6-2.3c-4.7-1.5-8.1-3-10.4-4.7
					c-2.2-1.7-3.4-4.1-3.4-7.3c0-3.1,1.3-5.6,4-7.5c2.7-1.9,6.1-2.9,10.2-2.9c4.1,0,7.4,1,10,3.2c2.6,2.1,3.9,4.8,3.8,8.1l-0.1,0.2
					h-8.3c0-1.5-0.5-2.7-1.5-3.6c-1-0.9-2.4-1.4-4.1-1.4c-1.7,0-3.1,0.4-4,1.1c-1,0.8-1.5,1.7-1.5,2.8c0,1.1,0.5,1.9,1.5,2.6
					c1,0.6,2.8,1.5,5.6,2.4c4.2,1.3,7.3,2.8,9.5,4.6c2.1,1.8,3.2,4.3,3.2,7.5c0,3.2-1.3,5.8-3.8,7.6c-2.5,1.8-5.9,2.7-10,2.7
					c-4.2,0-7.8-1.1-10.9-3.2c-3.1-2.1-4.5-5.1-4.5-9.1l0-0.2h8.3c0,2.1,0.6,3.7,1.7,4.6c1.2,0.9,2.9,1.4,5.2,1.4
					c1.8,0,3.1-0.4,4-1.1C1121.8,764.2,1122.2,763.2,1122.2,762.1"/>
				<polygon class="st9" points="1162.4,741.6 1152.7,741.6 1152.7,771.8 1144.1,771.8 1144.1,741.6 1134.5,741.6 1134.5,735 
					1162.4,735 				"/>
				<path class="st9" d="M1184.1,764.7h-11.6l-2.1,7.2h-8.6l11.9-36.9h9.2l11.9,36.9h-8.6L1184.1,764.7z M1174.3,758.1h7.8
					l-3.8-13.2h-0.2L1174.3,758.1z"/>
				<path class="st9" d="M1207.3,757.7v14.1h-8.6V735h14.2c4.3,0,7.7,1,10.2,3c2.5,2,3.8,4.7,3.8,8.1c0,1.9-0.5,3.5-1.5,4.9
					c-1,1.4-2.5,2.5-4.5,3.3c2.3,0.6,3.9,1.7,4.9,3.2c1,1.5,1.5,3.4,1.5,5.6v2.3c0,1,0.1,2.1,0.4,3.3c0.3,1.2,0.8,2.1,1.5,2.6v0.5
					h-8.8c-0.7-0.5-1.1-1.5-1.3-2.8c-0.2-1.3-0.3-2.6-0.3-3.7v-2.2c0-1.8-0.5-3.1-1.4-4c-0.9-0.9-2.3-1.4-4.1-1.4H1207.3z
					 M1207.3,751.1h5.7c1.7,0,3-0.4,3.9-1.2c0.9-0.8,1.4-1.9,1.4-3.4c0-1.5-0.5-2.7-1.4-3.6c-0.9-0.9-2.3-1.4-4-1.4h-5.6V751.1z"/>
				<polygon class="st9" points="1258.7,741.6 1249,741.6 1249,771.8 1240.4,771.8 1240.4,741.6 1230.7,741.6 1230.7,735 
					1258.7,735 				"/>
				<path class="st9" d="M1135.8,830.1c0-1.3-0.4-2.3-1.3-3c-0.9-0.7-2.4-1.5-4.6-2.3c-4.7-1.5-8.1-3-10.4-4.7
					c-2.2-1.7-3.4-4.1-3.4-7.3c0-3.1,1.3-5.6,4-7.5c2.7-1.9,6.1-2.9,10.2-2.9c4.1,0,7.4,1.1,10,3.2c2.6,2.1,3.9,4.8,3.8,8.1
					l-0.1,0.2h-8.3c0-1.5-0.5-2.7-1.5-3.6c-1-0.9-2.4-1.4-4.1-1.4c-1.7,0-3.1,0.4-4,1.1c-1,0.8-1.5,1.7-1.5,2.8
					c0,1.1,0.5,1.9,1.5,2.6c1,0.6,2.8,1.5,5.6,2.4c4.2,1.3,7.3,2.8,9.5,4.6c2.1,1.8,3.2,4.3,3.2,7.5c0,3.2-1.3,5.8-3.8,7.6
					s-5.9,2.7-10.1,2.7c-4.2,0-7.8-1.1-10.9-3.1c-3.1-2.1-4.5-5.1-4.5-9.1l0-0.1h8.3c0,2.1,0.6,3.7,1.7,4.6c1.2,0.9,2.9,1.4,5.2,1.4
					c1.8,0,3.1-0.4,4-1.1C1135.4,832.2,1135.8,831.3,1135.8,830.1"/>
				<polygon class="st9" points="1175.3,809.6 1165.5,809.6 1165.5,839.9 1157,839.9 1157,809.6 1147.3,809.6 1147.3,803 
					1175.3,803 				"/>
				<path class="st9" d="M1209,824.8c0,4.6-1.4,8.3-4.3,11.2c-2.9,2.9-6.6,4.4-11.3,4.4c-4.7,0-8.5-1.5-11.4-4.4
					c-2.9-2.9-4.4-6.7-4.4-11.2v-6.6c0-4.5,1.5-8.3,4.3-11.2c2.9-3,6.7-4.4,11.3-4.4c4.6,0,8.4,1.5,11.3,4.4c2.9,3,4.4,6.7,4.4,11.2
					V824.8z M1200.5,818.1c0-2.6-0.6-4.8-1.9-6.5c-1.2-1.7-3-2.5-5.3-2.5c-2.3,0-4.1,0.8-5.3,2.5c-1.2,1.7-1.8,3.8-1.8,6.5v6.7
					c0,2.7,0.6,4.8,1.9,6.5c1.2,1.7,3,2.5,5.3,2.5c2.2,0,4-0.8,5.2-2.5c1.2-1.7,1.8-3.9,1.8-6.5V818.1z"/>
				<path class="st9" d="M1223.1,827.2v12.6h-8.6V803h15c4.4,0,7.8,1.1,10.4,3.4c2.6,2.2,3.8,5.2,3.8,8.8c0,3.6-1.3,6.6-3.8,8.8
					c-2.6,2.2-6,3.3-10.4,3.3H1223.1z M1223.1,820.7h6.4c1.9,0,3.3-0.5,4.2-1.5c1-1,1.5-2.3,1.5-3.9c0-1.6-0.5-3-1.5-4
					c-1-1.1-2.4-1.6-4.2-1.6h-6.4V820.7z"/>
				<line class="st10" x1="1109.3" y1="787.4" x2="1248.5" y2="787.4"/>
			</g>
			<path class="st4" d="M1243.4,389.6h-122.9c-32.2,0-58.5-26.3-58.5-58.5v-28.3c0-32.2,26.3-58.5,58.5-58.5h122.9
				c32.2,0,58.5,26.3,58.5,58.5v28.3C1302,363.3,1275.6,389.6,1243.4,389.6z"/>
			<path class="st8" d="M1240,381.2h-116c-29.1,0-52.9-23.8-52.9-52.9v-22.7c0-29.1,23.8-52.9,52.9-52.9h116
				c29.1,0,52.9,23.8,52.9,52.9v22.7C1292.9,357.4,1269.1,381.2,1240,381.2z"/>
			<g>
				<polygon class="st11" points="1137.5,328.1 1134,335.9 1141.1,335.9 1137.6,328.1 				"/>
				<path class="st11" d="M1145,308.2c-0.5-0.1-0.6-0.8-0.2-1.1c5.3-2.9,8.7-9,7.6-15.7c-1-6-5.7-11-11.6-12.3
					c-9.8-2-18.4,5.3-18.4,14.8c0,5.7,3.2,10.6,7.8,13.2c0.5,0.3,0.4,1-0.2,1.1c-7.7,1.5-13.5,8.2-13.5,16.3v30.6h41.8v-30.6
					C1158.5,316.4,1152.7,309.7,1145,308.2 M1148.7,344.3h-3.1c-0.5,0-0.8-0.2-1-0.7l-1.7-3.8h-10.5l-1.7,3.8
					c-0.2,0.4-0.5,0.7-1,0.7h-3.1c-0.5,0-0.8-0.5-0.6-0.9l11-23.7c0.1-0.2,0.3-0.4,0.6-0.4h0.3c0.4,0,0.5,0.2,0.6,0.4l10.9,23.7
					C1149.5,343.8,1149.2,344.3,1148.7,344.3"/>
				<polygon class="st11" points="1175.4,345.6 1174.5,348.9 1179.6,350.3 1180.8,345.6 1195.9,289.5 1196.9,285.7 1191.8,284.4 
					1190.4,289.5 				"/>
				<path class="st11" d="M1227.6,333.7h-3.8v6.3h4.3c1.8,0,3.2-1.4,3.2-3.2C1231.2,335,1229.4,333.7,1227.6,333.7"/>
				<path class="st11" d="M1233.8,308.2c-0.5-0.1-0.6-0.8-0.2-1.1c5.3-2.9,8.7-9,7.6-15.7c-1-6-5.7-11-11.6-12.2
					c-1.1-0.2-2.2-0.4-3.3-0.4c-8.3,0-15.1,6.8-15.1,15.1c0,5.7,3.2,10.6,7.8,13.2c0.5,0.3,0.4,1-0.2,1.1
					c-7.7,1.5-13.5,8.2-13.5,16.3v30.6h41.8v-30.6C1247.3,316.4,1241.5,309.7,1233.8,308.2 M1228.4,344.1h-8.5
					c-0.4,0-0.7-0.3-0.7-0.7v-23.4c0-0.4,0.3-0.7,0.7-0.7h8.1c4.2,0,7.4,2.8,7.4,6.5c0,2.7-2.2,4.8-3.9,5.6c1.9,0.6,4.6,2.5,4.6,5.8
					C1236.1,341.3,1232.7,344.1,1228.4,344.1"/>
				<path class="st11" d="M1230.5,326.6c0-1.8-1.2-3-3-3h-3.8v6.2h3.8C1229.3,329.8,1230.5,328.4,1230.5,326.6"/>
			</g>
			<g>
				<polygon class="st11" points="1113.6,523.2 1113.6,478.2 1127.2,478.2 1135.3,508.9 1143.4,478.2 1157.1,478.2 1157.1,523.2 
					1148.6,523.2 1148.6,487.8 1139.7,523.2 1130.9,523.2 1122,487.8 1122,523.2 				"/>
				<polygon class="st11" points="1169.3,523.2 1169.3,478.2 1202.7,478.2 1202.7,485.8 1178.4,485.8 1178.4,495.8 1201,495.8 
					1201,503.4 1178.4,503.4 1178.4,515.6 1203.5,515.6 1203.5,523.2 				"/>
				<polygon class="st11" points="1214.3,523.2 1214.3,478.2 1227.9,478.2 1236.1,508.9 1244.2,478.2 1257.8,478.2 1257.8,523.2 
					1249.4,523.2 1249.4,487.8 1240.4,523.2 1231.7,523.2 1222.8,487.8 1222.8,523.2 				"/>
			</g>
		</g>
		<g>
			<line class="st10" x1="245.2" y1="484.2" x2="574.7" y2="484.2"/>
			<path class="st9" d="M1313.1,369.9l-14.8,14.8c-1.8,1.8-0.5,4.9,2,4.9h25.5c2.6,0,3.8-3.1,2-4.9L1313.1,369.9z"/>
			<path class="st9" d="M1313.1,446.3l14.8-14.8c1.8-1.8,0.5-4.9-2-4.9h-25.5c-2.6,0-3.8,3.1-2,4.9L1313.1,446.3z"/>
		</g>
		<g>
			<g class="st0">
				<g>
					<defs>
						<rect id="SVGID_3_" x="300.6" y="167.4" width="663.6" height="839.5"/>
					</defs>
					<clipPath id="SVGID_4_">
						<use xlink:href="#SVGID_3_"  style="overflow:visible;"/>
					</clipPath>
				</g>
			</g>
		</g>
		<g>
			<g class="st0">
				<g>
					<defs>
						<rect id="SVGID_5_" x="300.6" y="167.4" width="663.6" height="839.5"/>
					</defs>
					<clipPath id="SVGID_6_">
						<use xlink:href="#SVGID_5_"  style="overflow:visible;"/>
					</clipPath>
				</g>
			</g>
		</g>
		<g>
			<g class="st0">
				<g>
					<defs>
						<rect id="SVGID_7_" x="300.6" y="167.4" width="663.6" height="839.5"/>
					</defs>
					<clipPath id="SVGID_8_">
						<use xlink:href="#SVGID_7_"  style="overflow:visible;"/>
					</clipPath>
				</g>
			</g>
		</g>
		<g>
			<g class="st0">
				<g>
					<defs>
						<rect id="SVGID_9_" x="297.9" y="166.8" width="663.6" height="839.5"/>
					</defs>
					<clipPath id="SVGID_10_">
						<use xlink:href="#SVGID_9_"  style="overflow:visible;"/>
					</clipPath>
				</g>
			</g>
		</g>
		<g>
			<g class="st0">
				<g>
					<defs>
						<rect id="SVGID_11_" x="297.9" y="166.8" width="663.6" height="839.5"/>
					</defs>
					<clipPath id="SVGID_12_">
						<use xlink:href="#SVGID_11_"  style="overflow:visible;"/>
					</clipPath>
				</g>
			</g>
		</g>
		<g>
			<g class="st0">
				<g>
					<defs>
						<rect id="SVGID_13_" x="297.9" y="166.8" width="663.6" height="839.5"/>
					</defs>
					<clipPath id="SVGID_14_">
						<use xlink:href="#SVGID_13_"  style="overflow:visible;"/>
					</clipPath>
				</g>
			</g>
		</g>
		<g>
			<g class="st0">
				<g>
					<defs>
						<rect id="SVGID_15_" x="297.9" y="166.8" width="663.6" height="839.5"/>
					</defs>
					<clipPath id="SVGID_16_">
						<use xlink:href="#SVGID_15_"  style="overflow:visible;"/>
					</clipPath>
				</g>
			</g>
		</g>
		<g>
			<g class="st0">
				<g>
					<defs>
						<rect id="SVGID_17_" x="297.9" y="166.8" width="663.6" height="839.5"/>
					</defs>
					<clipPath id="SVGID_18_">
						<use xlink:href="#SVGID_17_"  style="overflow:visible;"/>
					</clipPath>
				</g>
			</g>
		</g>
		<g>
			<g class="st0">
				<g>
					<defs>
						<rect id="SVGID_19_" x="297.9" y="166.8" width="663.6" height="839.5"/>
					</defs>
					<clipPath id="SVGID_20_">
						<use xlink:href="#SVGID_19_"  style="overflow:visible;"/>
					</clipPath>
				</g>
			</g>
		</g>
		<g>
			<g class="st0">
				<g>
					<defs>
						<rect id="SVGID_21_" x="297.9" y="166.8" width="663.6" height="839.5"/>
					</defs>
					<clipPath id="SVGID_22_">
						<use xlink:href="#SVGID_21_"  style="overflow:visible;"/>
					</clipPath>
				</g>
			</g>
		</g>
		<g>
			<g class="st0">
				<g>
					<defs>
						<rect id="SVGID_23_" x="297.9" y="166.8" width="663.6" height="839.5"/>
					</defs>
					<clipPath id="SVGID_24_">
						<use xlink:href="#SVGID_23_"  style="overflow:visible;"/>
					</clipPath>
				</g>
			</g>
		</g>
		<g>
			<g class="st0">
				<g>
					<defs>
						<rect id="SVGID_25_" x="298.5" y="165.3" width="667.6" height="843.5"/>
					</defs>
					<clipPath id="SVGID_26_">
						<use xlink:href="#SVGID_25_"  style="overflow:visible;"/>
					</clipPath>
				</g>
			</g>
			<g class="st0">
				<g>
					<defs>
						<rect id="SVGID_27_" x="297.9" y="166.8" width="663.6" height="839.5"/>
					</defs>
					<clipPath id="SVGID_28_">
						<use xlink:href="#SVGID_27_"  style="overflow:visible;"/>
					</clipPath>
				</g>
			</g>
		</g>
		<g>
			<g class="st0">
				<g>
					<defs>
						<rect id="SVGID_29_" x="297.9" y="166.8" width="663.6" height="839.5"/>
					</defs>
					<clipPath id="SVGID_30_">
						<use xlink:href="#SVGID_29_"  style="overflow:visible;"/>
					</clipPath>
				</g>
			</g>
		</g>
		<g>
			<g class="st0">
				<g>
					<defs>
						<rect id="SVGID_31_" x="297.9" y="166.8" width="663.6" height="839.5"/>
					</defs>
					<clipPath id="SVGID_32_">
						<use xlink:href="#SVGID_31_"  style="overflow:visible;"/>
					</clipPath>
				</g>
			</g>
		</g>
		<g>
			<g class="st0">
				<g>
					<defs>
						<rect id="SVGID_33_" x="300.6" y="167.4" width="663.6" height="839.5"/>
					</defs>
					<clipPath id="SVGID_34_">
						<use xlink:href="#SVGID_33_"  style="overflow:visible;"/>
					</clipPath>
				</g>
			</g>
		</g>
	</g>
	<path class="st12" d="M918,166.9h-42.2v614.7c0,16.1-13.1,29.2-29.2,29.2h-546v149.4c0,25.4,20.6,46,46,46H918
		c25.4,0,46-20.6,46-46V212.9C964,187.5,943.4,166.9,918,166.9"/>
	<g>
		<path class="st9" d="M607.9,490.5v-8.3c0-2.1-1.2-3-2.7-3c-1.5,0-2.8,0.9-2.8,2.9v8.4h-2.7v-8.3c0-2.1-1.2-3-2.7-3
			c-1.5,0-2.8,0.9-2.8,3v8.3h-2.7v-13.5h2.7v1.4c0.9-1,2.2-1.5,3.6-1.5c1.7,0,3,0.7,3.8,2c1.1-1.3,2.5-2,4.2-2
			c1.4,0,2.6,0.5,3.4,1.2c1,1,1.4,2.3,1.4,3.8v8.6H607.9z"/>
		<path class="st9" d="M631.3,490.5v-8.3c0-2.1-1.2-3-2.7-3c-1.5,0-2.8,0.9-2.8,2.9v8.4h-2.7v-8.3c0-2.1-1.2-3-2.7-3s-2.8,0.9-2.8,3
			v8.3h-2.7v-13.5h2.7v1.4c0.9-1,2.2-1.5,3.6-1.5c1.7,0,3,0.7,3.8,2c1.1-1.3,2.5-2,4.2-2c1.4,0,2.6,0.5,3.4,1.2c1,1,1.4,2.3,1.4,3.8
			v8.6H631.3z"/>
		<polygon class="st9" points="649.2,490.5 649.2,482.2 641.4,482.2 641.4,490.5 638.6,490.5 638.6,471.5 641.4,471.5 641.4,479.6 
			649.2,479.6 649.2,471.5 652,471.5 652,490.5 		"/>
		<path class="st9" d="M661.2,496.1c-2.1,0-3.4-0.5-4.8-1.8l1.7-1.7c0.9,0.8,1.6,1.2,2.9,1.2c2.3,0,3.2-1.6,3.2-3.4v-1.7
			c-1,1.2-2.1,1.6-3.5,1.6c-1.4,0-2.5-0.5-3.2-1.2c-1.3-1.3-1.5-3.2-1.5-5.5c0-2.3,0.2-4.2,1.5-5.5c0.7-0.8,1.9-1.2,3.2-1.2
			c1.4,0,2.5,0.4,3.6,1.6v-1.4h2.6v13.5C667,493.7,664.8,496.1,661.2,496.1 M661.6,479.2c-2.5,0-2.8,2.1-2.8,4.2
			c0,2.1,0.3,4.2,2.8,4.2c2.5,0,2.7-2.1,2.7-4.2C664.3,481.3,664,479.2,661.6,479.2"/>
		<path class="st9" d="M594.8,217.8h56.9l15.6-19.2c-3.8-4.3-8.8-7-14.3-7h-59.4c-5.5,0-10.5,2.7-14.3,7L594.8,217.8z"/>
		<path class="st9" d="M572.4,436.5c0,6.8,2.2,13,5.7,17.7l15.5-19.1v-93l-9.5-13.4l-11.8,17.1V436.5z"/>
		<path class="st9" d="M593.7,219.1L578.1,200c-3.5,4.6-5.7,10.8-5.7,17.7v91.6l11.7,16.4l9.5-13.9V219.1z"/>
		<path class="st9" d="M674.2,436.5c0,6.8-2.2,13-5.7,17.7l-15.6-19.1v-93l9.5-13.4l11.8,17.1V436.5z"/>
		<path class="st9" d="M652.8,219.1l15.6-19.1c3.5,4.6,5.7,10.8,5.7,17.7v91.6l-11.8,16.4l-9.6-13.9V219.1z"/>
		<path class="st9" d="M651.7,436.4h-56.9l-15.6,19.1c3.8,4.3,8.8,6.9,14.3,6.9h59.4c5.5,0,10.5-2.7,14.3-7L651.7,436.4z"/>
		<polygon class="st9" points="468.1,340.1 525.7,340.1 534.8,327.1 525.9,314 467.8,314 458.8,327.1 		"/>
		<path class="st9" d="M468.4,217.8h56.9l15.6-19.2c-3.8-4.3-8.8-7-14.3-7h-59.4c-5.5,0-10.5,2.7-14.3,7L468.4,217.8z"/>
		<path class="st9" d="M446,436.5c0,6.8,2.2,13,5.7,17.7l15.5-19.1v-93l-9.5-13.4L446,345.8V436.5z"/>
		<path class="st9" d="M526.4,219.1L542,200c3.5,4.6,5.7,10.8,5.7,17.7v91.6L536,325.6l-9.6-13.9V219.1z"/>
		<path class="st9" d="M525.3,436.4h-56.9l-15.6,19.1c3.8,4.3,8.8,6.9,14.3,6.9h59.4c5.5,0,10.6-2.7,14.3-7L525.3,436.4z"/>
		<path class="st9" d="M421.4,436.5c0,6.8-2.2,13-5.7,17.7L400,435.1v-93l9.5-13.4l11.8,17.1V436.5z"/>
		<path class="st9" d="M400,219.1l15.6-19.1c3.5,4.6,5.7,10.8,5.7,17.7v91.6l-11.8,16.4l-9.6-13.9V219.1z"/>
		<polygon class="st9" points="594.7,653.5 652.3,653.5 661.5,640.5 652.6,627.5 594.4,627.5 585.5,640.6 		"/>
		<path class="st9" d="M595.1,531.2H652l15.6-19.2c-3.8-4.3-8.8-7-14.3-7h-59.4c-5.5,0-10.5,2.7-14.3,7L595.1,531.2z"/>
		<path class="st9" d="M572.7,750c0,6.8,2.2,13,5.7,17.7l15.5-19.1v-93l-9.5-13.4l-11.8,17.1V750z"/>
		<path class="st9" d="M594,532.6l-15.6-19.1c-3.5,4.6-5.7,10.8-5.7,17.7v91.6l11.7,16.4l9.5-13.9V532.6z"/>
		<path class="st9" d="M674.5,750c0,6.8-2.2,13-5.7,17.7l-15.6-19.1v-93l9.5-13.4l11.8,17.1V750z"/>
		<path class="st9" d="M652,749.8h-56.9L579.5,769c3.8,4.3,8.8,6.9,14.3,6.9h59.4c5.5,0,10.5-2.7,14.3-7L652,749.8z"/>
		<path class="st9" d="M468.7,531.2h56.9l15.6-19.2c-3.8-4.3-8.8-7-14.3-7h-59.4c-5.5,0-10.5,2.7-14.3,7L468.7,531.2z"/>
		<path class="st9" d="M548.1,750c0,6.8-2.2,13-5.8,17.7l-15.6-19.1v-93l9.5-13.4l11.8,17.1V750z"/>
		<path class="st9" d="M526.7,532.6l15.6-19.1c3.5,4.6,5.7,10.8,5.7,17.7v91.6l-11.8,16.4l-9.6-14V532.6z"/>
		<path class="st9" d="M802.3,627.5l-7.4-9.1c-1.7,2.2-2.7,5.2-2.7,8.4v43.7l5.6,7.8l4.5-6.7V627.5z"/>
		<path class="st9" d="M840.7,731.1c0,3.3-1,6.2-2.7,8.4l-7.5-9.1v-44.4l4.6-6.4l5.6,8.2V731.1z"/>
		<path class="st9" d="M830.5,627.5l7.5-9.1c1.7,2.2,2.7,5.2,2.7,8.4v43.7l-5.6,7.8l-4.6-6.7V627.5z"/>
		<polygon class="st9" points="745.4,685.2 772.8,685.2 777.2,678.9 773,672.7 745.2,672.7 741,679 		"/>
		<polygon class="st9" points="802.7,685.2 830.1,685.2 834.5,678.9 830.3,672.7 802.5,672.7 798.3,679 		"/>
		<path class="st9" d="M745.5,626.8h27.1l7.4-9.1c-1.8-2.1-4.2-3.3-6.8-3.3h-28.3c-2.6,0-5,1.3-6.8,3.3L745.5,626.8z"/>
		<path class="st9" d="M734.8,731.1c0,3.3,1,6.2,2.7,8.4l7.4-9.1v-44.4l-4.5-6.4l-5.6,8.2V731.1z"/>
		<path class="st9" d="M745,627.5l-7.4-9.1c-1.7,2.2-2.7,5.2-2.7,8.4v43.7l5.6,7.8l4.5-6.7V627.5z"/>
		<path class="st9" d="M783.4,731.1c0,3.3-1,6.2-2.7,8.4l-7.5-9.1v-44.4l4.6-6.4l5.6,8.2V731.1z"/>
		<path class="st9" d="M772.7,731.1h-27.2l-7.4,9.1c1.8,2.1,4.2,3.3,6.8,3.3h28.3c2.6,0,5-1.3,6.8-3.3L772.7,731.1z"/>
		<path class="st9" d="M847.7,448.4h-3l-0.6,1.9h-1.8l3-8.7h1.8l3,8.7h-1.8L847.7,448.4z M845.1,447.1h2.2l-1.1-3.4h0L845.1,447.1z"
			/>
		<polygon class="st9" points="853.1,441.6 855.3,448 855.4,448 857.6,441.6 859.9,441.6 859.9,450.3 858.1,450.3 858.1,447.7 
			858.3,443.9 858.3,443.9 855.9,450.3 854.8,450.3 852.4,443.9 852.4,443.9 852.6,447.7 852.6,450.3 850.8,450.3 850.8,441.6 		"/>
		<polygon class="st9" points="753.9,433 767.8,433 770,429.9 767.8,426.7 753.8,426.7 751.7,429.9 		"/>
		<path class="st9" d="M754,403.6h13.7l3.7-4.6c-0.9-1-2.1-1.7-3.4-1.7h-14.3c-1.3,0-2.5,0.6-3.4,1.7L754,403.6z"/>
		<path class="st9" d="M748.6,456.2c0,1.6,0.5,3.1,1.4,4.3l3.7-4.6v-22.4l-2.3-3.2l-2.8,4.1V456.2z"/>
		<path class="st9" d="M753.7,403.9l-3.7-4.6c-0.8,1.1-1.4,2.6-1.4,4.2v22l2.8,3.9l2.3-3.4V403.9z"/>
		<path class="st9" d="M773.1,456.2c0,1.6-0.5,3.1-1.4,4.3l-3.8-4.6v-22.4l2.3-3.2l2.8,4.1V456.2z"/>
		<path class="st9" d="M768,403.9l3.8-4.6c0.8,1.1,1.4,2.6,1.4,4.2v22l-2.8,3.9l-2.3-3.4V403.9z"/>
		<path class="st9" d="M767.7,456.2H754l-3.7,4.6c0.9,1,2.1,1.7,3.4,1.7H768c1.3,0,2.5-0.6,3.5-1.7L767.7,456.2z"/>
		<path class="st9" d="M789,403.6h13.7l3.7-4.6c-0.9-1-2.1-1.7-3.4-1.7h-14.3c-1.3,0-2.5,0.6-3.4,1.7L789,403.6z"/>
		<path class="st9" d="M783.6,456.2c0,1.6,0.5,3.1,1.4,4.3l3.7-4.6v-22.4l-2.3-3.2l-2.8,4.1V456.2z"/>
		<path class="st9" d="M788.7,403.9l-3.7-4.6c-0.8,1.1-1.4,2.6-1.4,4.2v22l2.8,3.9l2.3-3.4V403.9z"/>
		<path class="st9" d="M808.1,456.2c0,1.6-0.5,3.1-1.4,4.3l-3.8-4.6v-22.4l2.3-3.2l2.8,4.1V456.2z"/>
		<path class="st9" d="M802.9,403.9l3.8-4.6c0.8,1.1,1.4,2.6,1.4,4.2v22l-2.8,3.9l-2.3-3.4V403.9z"/>
		<path class="st9" d="M802.7,456.2H789l-3.7,4.6c0.9,1,2.1,1.7,3.4,1.7H803c1.3,0,2.5-0.6,3.4-1.7L802.7,456.2z"/>
		<path class="st9" d="M816.6,403.6h13.7l3.7-4.6c-0.9-1-2.1-1.7-3.4-1.7h-14.3c-1.3,0-2.5,0.6-3.4,1.7L816.6,403.6z"/>
		<path class="st9" d="M811.2,456.2c0,1.6,0.5,3.1,1.4,4.3l3.7-4.6v-22.4l-2.3-3.2l-2.8,4.1V456.2z"/>
		<path class="st9" d="M816.3,403.9l-3.7-4.6c-0.8,1.1-1.4,2.6-1.4,4.2v22l2.8,3.9l2.3-3.4V403.9z"/>
		<path class="st9" d="M835.7,456.2c0,1.6-0.5,3.1-1.4,4.3l-3.8-4.6v-22.4l2.3-3.2l2.8,4.1V456.2z"/>
		<path class="st9" d="M830.6,403.9l3.8-4.6c0.8,1.1,1.4,2.6,1.4,4.2v22l-2.8,3.9l-2.3-3.4V403.9z"/>
		<path class="st9" d="M830.3,456.2h-13.7l-3.7,4.6c0.9,1,2.1,1.7,3.4,1.7h14.3c1.3,0,2.5-0.6,3.5-1.7L830.3,456.2z"/>
		<path class="st9" d="M781.7,421.3c0,1.8-1.5,3.3-3.3,3.3c-1.8,0-3.3-1.5-3.3-3.3c0-1.8,1.5-3.3,3.3-3.3
			C780.2,418,781.7,419.5,781.7,421.3"/>
		<path class="st9" d="M781.7,438.3c0,1.8-1.5,3.3-3.3,3.3c-1.8,0-3.3-1.5-3.3-3.3c0-1.8,1.5-3.3,3.3-3.3
			C780.2,435,781.7,436.5,781.7,438.3"/>
		<path class="st7" d="M907.7,591.9v-23.3c0-0.5-0.5-0.7-0.9-0.4l-8.7,7.6c-0.2,0.2-0.6,0.2-0.8-0.1l-3.4-3.9l11.8-10.3
			c0.2-0.2,0.2-0.6,0-0.8l-11.8-10.3l3.4-3.9c0.2-0.2,0.5-0.2,0.8-0.1l8.7,7.6c0.3,0.3,0.9,0.1,0.9-0.4v-23.3c0-0.5,0.5-0.7,0.9-0.4
			l20.5,17.9c0.2,0.2,0.2,0.6,0,0.8l-13.8,12c-0.2,0.2-0.2,0.6,0,0.8l13.8,12c0.2,0.2,0.2,0.6,0,0.8l-20.5,17.9
			C908.2,592.6,907.7,592.4,907.7,591.9 M913.3,568.7v10.8c0,0.5,0.5,0.7,0.9,0.4l6.2-5.4c0.2-0.2,0.2-0.6,0-0.8l-6.2-5.4
			C913.9,568,913.3,568.2,913.3,568.7 M913.3,543v10.8c0,0.5,0.5,0.7,0.9,0.4l6.2-5.4c0.2-0.2,0.2-0.6,0-0.8l-6.2-5.4
			C913.9,542.3,913.3,542.6,913.3,543"/>
		<g>
			<polygon class="st7" points="912.1,241.2 909,248.1 915.3,248.1 912.1,241.2 			"/>
			<path class="st7" d="M918.7,223.7c-0.5-0.1-0.6-0.7-0.1-1c4.7-2.6,7.7-7.9,6.7-13.8c-0.8-5.3-5-9.7-10.2-10.8
				c-8.6-1.8-16.2,4.7-16.2,13c0,5,2.8,9.4,6.9,11.6c0.4,0.2,0.3,0.9-0.1,1c-6.8,1.3-11.9,7.2-11.9,14.4V265h36.8v-26.9
				C930.5,230.9,925.4,225,918.7,223.7 M921.9,255.5h-2.7c-0.5,0-0.7-0.2-0.9-0.6l-1.5-3.4h-9.3l-1.5,3.4c-0.1,0.3-0.4,0.6-0.9,0.6
				h-2.7c-0.5,0-0.7-0.4-0.5-0.8l9.7-20.9c0.1-0.2,0.2-0.3,0.5-0.3h0.3c0.3,0,0.4,0.2,0.5,0.3l9.6,20.9
				C922.6,255.1,922.4,255.5,921.9,255.5"/>
		</g>
		<path class="st9" d="M728.6,775.9v-17.5h5.7c2.2,0,3.6,0.1,4.2,0.3c1,0.3,1.9,0.8,2.5,1.7c0.7,0.9,1,2,1,3.4c0,1.1-0.2,2-0.6,2.7
			c-0.4,0.7-0.9,1.3-1.5,1.7c-0.6,0.4-1.2,0.7-1.8,0.8c-0.8,0.2-2.1,0.3-3.7,0.3h-2.3v6.6H728.6z M732.1,761.3v5h1.9
			c1.4,0,2.3-0.1,2.8-0.3c0.5-0.2,0.8-0.5,1.1-0.9c0.3-0.4,0.4-0.8,0.4-1.4c0-0.6-0.2-1.2-0.6-1.6c-0.4-0.4-0.8-0.7-1.4-0.8
			c-0.4-0.1-1.3-0.1-2.6-0.1H732.1z"/>
		<path class="st9" d="M746.1,758.1h3.5v9.5c0,1.5,0,2.5,0.1,2.9c0.2,0.7,0.5,1.3,1.1,1.7c0.6,0.4,1.3,0.6,2.3,0.6
			c1,0,1.8-0.2,2.3-0.6c0.5-0.4,0.8-0.9,0.9-1.5c0.1-0.6,0.2-1.6,0.2-3v-9.7h3.5v9.2c0,2.1-0.1,3.6-0.3,4.5
			c-0.2,0.9-0.5,1.6-1.1,2.2c-0.5,0.6-1.2,1.1-2.1,1.4c-0.9,0.4-2,0.5-3.4,0.5c-1.7,0-2.9-0.2-3.8-0.6c-0.9-0.4-1.5-0.9-2-1.5
			c-0.5-0.6-0.8-1.3-1-1.9c-0.2-1-0.3-2.5-0.3-4.4V758.1z"/>
		<polygon class="st9" points="765.2,775.9 765.2,758.5 768.7,758.5 768.7,773 777.6,773 777.6,775.9 		"/>
		<polygon class="st9" points="794.5,775.9 794.5,758.4 799.8,758.4 803,770.3 806.1,758.4 811.5,758.4 811.5,775.9 808.2,775.9 
			808.2,762.1 804.7,775.9 801.3,775.9 797.8,762.1 797.8,775.9 		"/>
		<rect x="816.1" y="758.4" class="st9" width="3.5" height="17.5"/>
		<polygon class="st9" points="824.3,775.9 824.3,758.4 827.8,758.4 834.9,770.1 834.9,758.4 838.2,758.4 838.2,775.9 834.7,775.9 
			827.6,764.5 827.6,775.9 		"/>
		<polygon class="st9" points="782.2,780.2 780.3,779.6 788.5,755.1 790.4,755.8 		"/>
		<path class="st7" d="M509.3,939.5c-0.8,0-1.5-0.7-1.5-1.5v-23.9c0-0.8,0.7-1.5,1.5-1.5c0.8,0,1.5,0.7,1.5,1.5V938
			C510.8,938.8,510.1,939.5,509.3,939.5"/>
		<path class="st7" d="M591,939.5c-0.8,0-1.5-0.7-1.5-1.5v-23.9c0-0.8,0.7-1.5,1.5-1.5s1.5,0.7,1.5,1.5V938
			C592.5,938.8,591.8,939.5,591,939.5"/>
		<path class="st7" d="M672.7,939.5c-0.8,0-1.5-0.7-1.5-1.5v-23.9c0-0.8,0.7-1.5,1.5-1.5c0.8,0,1.5,0.7,1.5,1.5V938
			C674.2,938.8,673.5,939.5,672.7,939.5"/>
		<path class="st7" d="M754.4,939.5c-0.8,0-1.5-0.7-1.5-1.5v-23.9c0-0.8,0.7-1.5,1.5-1.5c0.8,0,1.5,0.7,1.5,1.5V938
			C755.9,938.8,755.2,939.5,754.4,939.5"/>
		<path class="st7" d="M836.1,939.5c-0.8,0-1.5-0.7-1.5-1.5v-23.9c0-0.8,0.7-1.5,1.5-1.5c0.8,0,1.5,0.7,1.5,1.5V938
			C837.6,938.8,836.9,939.5,836.1,939.5"/>
		<path class="st7" d="M427,939.5c-0.8,0-1.5-0.7-1.5-1.5v-23.9c0-0.8,0.7-1.5,1.5-1.5c0.8,0,1.5,0.7,1.5,1.5V938
			C428.6,938.8,427.9,939.5,427,939.5"/>
		<path class="st7" d="M919,894.9c-4.7-7.6-12.4-12.6-21.1-14c-5-0.8-64.5-1.3-142-1.5v-11c0-0.8-0.7-1.5-1.5-1.5
			c-0.8,0-1.5,0.7-1.5,1.5v11c-75.3-0.2-166.8-0.2-242.1,0v-11c0-0.8-0.7-1.5-1.5-1.5c-0.8,0-1.5,0.7-1.5,1.5v11
			c-77.4,0.3-136.8,0.8-141.8,1.5c-8.7,1.3-16.4,6.4-21.1,13.9c-0.5,0.7-0.2,1.7,0.5,2.1c0.7,0.5,1.7,0.2,2.1-0.5
			c4.3-6.8,11.2-11.4,19-12.6c5-0.8,64.7-1.3,142.3-1.5c0.2,0.1,0.3,0.1,0.5,0.1c0.2,0,0.4,0,0.6-0.1c154-0.5,377.8,0,387.6,1.5
			c7.8,1.2,14.7,5.8,19,12.6c0.3,0.5,0.8,0.7,1.3,0.7c0.3,0,0.6-0.1,0.8-0.2C919.2,896.6,919.5,895.6,919,894.9"/>
		<path class="st7" d="M631.9,972.8c-129.3,0-258.5-0.6-266-1.7c-8.7-1.3-16.4-6.4-21.1-13.9c-0.4-0.7-0.2-1.7,0.5-2.1
			c0.7-0.4,1.6-0.2,2.1,0.5c4.3,6.8,11.2,11.4,19,12.5c14.9,2.3,516.1,2.3,531,0c7.8-1.2,14.7-5.8,19-12.6c0.4-0.7,1.4-0.9,2.1-0.5
			c0.7,0.4,0.9,1.4,0.5,2.1c-4.7,7.5-12.4,12.6-21.1,14C890.5,972.2,761.2,972.8,631.9,972.8"/>
		<path class="st7" d="M492.2,844.4v-0.1c-1.8-1-4.6-3.4-4.6-6.9c0-5,4.3-8.2,9.7-8.2c5.6,0,9.9,3.2,9.9,8.2c0,3.4-2.8,5.8-4.6,6.9
			v0.2c2,1,5.4,3.6,5.4,7.5c0,4.9-4.1,8.6-10.7,8.6c-6.4,0-10.5-3.7-10.5-8.6C486.8,848,491,845,492.2,844.4 M497.4,855.9
			c2.5,0,4.7-1.7,4.7-4.1c0-2-1.7-4.1-4.7-4.8c-3,0.7-4.7,2.7-4.7,4.8C492.8,854.2,495,855.9,497.4,855.9 M501.5,837.5
			c0-2.2-1.8-3.8-4.2-3.8c-2.2,0-4,1.7-4,3.8c0,2,1.3,3.6,4.1,4.3C500.2,841.1,501.5,839.4,501.5,837.5"/>
		<path class="st7" d="M512.6,855.2l2.2-2.2c0.3-0.3,0.7-0.4,1.1,0c0.2,0.2,2.8,2.5,5.8,2.5c3,0,5.2-2.5,5.2-5.3c0-2.8-1.9-5-5.4-5
			h-6.9c-0.9,0-1.4-0.9-1.4-1.6v-13.2c0-0.4,0.4-0.8,0.8-0.8h14.2c0.5,0,0.8,0.4,0.8,0.8v3.1c0,0.4-0.4,0.9-0.8,0.9h-10v6h3.9
			c6.4,0,10.3,4.1,10.3,10c0,5.6-4.7,10.3-10.9,10.3c-4.8,0-7.7-2.4-8.8-3.7C512.1,856.1,512.1,855.8,512.6,855.2"/>
		<path class="st7" d="M729.3,837.8l-3.9,0.8c-0.4,0.1-0.8-0.2-0.9-0.6l-0.3-2.2c0-0.4,0-0.6,0.2-0.8l6.4-5.4h3.1
			c0.5,0,0.8,0.4,0.8,0.8v28.7c0,0.4-0.4,0.8-0.8,0.8h-3.8c-0.5,0-0.8-0.4-0.8-0.8V837.8z"/>
		<path class="st7" d="M740.6,855.4l2.3-2.2c0.4-0.4,0.8-0.4,1.2,0c0.1,0.2,2.8,2.4,5.5,2.4c2.4,0,4.7-1.7,4.7-4.2
			c0-2.3-2.1-4.4-6.2-4.4h-2.5c-0.5,0-0.8-0.4-0.8-0.9v-2.8c0-0.6,0.3-0.9,0.8-0.9h2.5c3.7,0,5.5-1.8,5.5-4.1c0-2.5-2.1-4.1-4.3-4.1
			c-2.3,0-3.8,1.3-4.5,2.1c-0.3,0.4-0.8,0.4-1.2,0l-2.2-2.1c-0.4-0.3-0.3-0.8,0-1.2c0,0,3.4-3.9,8.4-3.9c5.2,0,9.5,3.2,9.5,8.2
			c0,3.4-2.6,6-4.6,7v0.1c2.1,0.9,5.4,3.3,5.4,7.3c0,5-4.1,8.7-10.3,8.7c-5.6,0-8.3-2.8-9.3-4C740.2,856.2,740.3,855.7,740.6,855.4"
			/>
		<path class="st7" d="M764.7,855.2l2.2-2.2c0.3-0.3,0.7-0.4,1.1,0c0.2,0.2,2.8,2.5,5.8,2.5c3,0,5.2-2.5,5.2-5.3c0-2.8-1.9-5-5.4-5
			h-6.9c-0.9,0-1.4-0.8-1.4-1.6v-13.2c0-0.4,0.4-0.8,0.8-0.8h14.1c0.5,0,0.8,0.4,0.8,0.8v3c0,0.4-0.4,0.9-0.8,0.9h-9.9v5.9h3.8
			c6.3,0,10.2,4.1,10.2,9.9c0,5.6-4.6,10.2-10.8,10.2c-4.8,0-7.7-2.4-8.8-3.7C764.2,856.1,764.1,855.8,764.7,855.2"/>
		<g>
			<path class="st7" d="M735.1,955.7c-14.1,3.2-28.2,3.2-42.3,0c-4.2-1-7.5-4.3-8.5-8.5c-3.2-14.1-3.2-28.2,0-42.3
				c1-4.2,4.3-7.5,8.5-8.5c14.1-3.2,28.2-3.2,42.3,0c4.2,1,7.5,4.3,8.5,8.5c3.2,14.1,3.2,28.2,0,42.3
				C742.6,951.4,739.3,954.7,735.1,955.7"/>
			<path class="st7" d="M653.1,955.7c-14.1,3.2-28.2,3.2-42.3,0c-4.2-1-7.5-4.3-8.5-8.5c-3.2-14.1-3.2-28.2,0-42.3
				c1-4.2,4.3-7.5,8.5-8.5c14.1-3.2,28.2-3.2,42.3,0c4.2,1,7.5,4.3,8.5,8.5c3.2,14.1,3.2,28.2,0,42.3
				C660.6,951.4,657.3,954.7,653.1,955.7"/>
			<path class="st7" d="M571.1,955.7c-14.1,3.2-28.2,3.2-42.3,0c-4.2-1-7.5-4.3-8.5-8.5c-3.2-14.1-3.2-28.2,0-42.3
				c1-4.2,4.3-7.5,8.5-8.5c14.1-3.2,28.2-3.2,42.3,0c4.2,1,7.5,4.3,8.5,8.5c3.2,14.1,3.2,28.2,0,42.3
				C578.6,951.4,575.4,954.7,571.1,955.7"/>
			<path class="st7" d="M489.2,955.7c-14.1,3.2-28.2,3.2-42.3,0c-4.2-1-7.5-4.3-8.5-8.5c-3.2-14.1-3.2-28.2,0-42.3
				c1-4.2,4.3-7.5,8.5-8.5c14.1-3.2,28.2-3.2,42.3,0c4.2,1,7.5,4.3,8.5,8.5c3.2,14.1,3.2,28.2,0,42.3
				C496.7,951.4,493.4,954.7,489.2,955.7"/>
		</g>
	</g>
</g>
</svg>
