<svg width="270" height="160" viewBox="0 0 270 160" fill="none" xmlns="http://www.w3.org/2000/svg">
<rect width="270" height="160" rx="15" fill="#61AD94"/>
<path d="M156.25 52.9286L135.888 75.9731C134.298 77.7611 131.531 77.8462 129.843 76.1576L118.136 64.4225C116.518 62.7907 116.518 60.1655 118.136 58.5337C119.768 56.9018 122.407 56.9018 124.025 58.5337L132.596 67.1186L150.007 47.4087C151.525 45.6776 154.164 45.5215 155.896 47.054C157.613 48.5723 157.783 51.2117 156.25 52.9286Z" fill="white"/>
<path d="M76.1616 113.478L73.8628 107.603H66.4556L64.1853 113.478H62L69.3078 94.9175H71.11L78.3752 113.478H76.1474H76.1616ZM73.1959 105.659L71.0532 99.9265C70.7694 99.2028 70.4856 98.3089 70.1876 97.2588C70.0031 98.0676 69.7335 98.9616 69.393 99.9265L67.2219 105.659H73.1959Z" fill="white"/>
<path d="M85.4986 113.733C83.4978 113.733 81.9369 113.123 80.8443 111.874C79.7375 110.639 79.1982 108.894 79.1982 106.638C79.1982 104.382 79.7517 102.523 80.8727 101.26C81.9937 99.9969 83.5829 99.3584 85.6405 99.3584C86.3074 99.3584 86.9743 99.4294 87.6413 99.5713C88.3082 99.7131 88.8332 99.8834 89.2022 100.082L88.5636 101.87C88.0953 101.686 87.5987 101.529 87.0453 101.402C86.4919 101.274 86.0094 101.217 85.5979 101.217C82.7883 101.217 81.3693 103.005 81.3693 106.595C81.3693 108.298 81.7099 109.604 82.4052 110.512C83.0863 111.42 84.108 111.874 85.456 111.874C86.6054 111.874 87.7974 111.619 89.0035 111.122V112.981C88.0812 113.463 86.9034 113.704 85.4986 113.704V113.733Z" fill="white"/>
<path d="M97.1763 113.733C95.1755 113.733 93.6146 113.123 92.522 111.874C91.4152 110.639 90.876 108.894 90.876 106.638C90.876 104.382 91.4294 102.523 92.5504 101.26C93.6714 99.9969 95.2607 99.3584 97.3182 99.3584C97.9851 99.3584 98.6521 99.4294 99.319 99.5713C99.9859 99.7131 100.511 99.8834 100.88 100.082L100.241 101.87C99.7731 101.686 99.2764 101.529 98.723 101.402C98.1696 101.274 97.6872 101.217 97.2757 101.217C94.466 101.217 93.047 103.005 93.047 106.595C93.047 108.298 93.3876 109.604 94.0829 110.512C94.7782 111.42 95.7857 111.874 97.1337 111.874C98.2831 111.874 99.4751 111.619 100.681 111.122V112.981C99.7589 113.463 98.5811 113.704 97.1763 113.704V113.733Z" fill="white"/>
<path d="M105.294 99.628V108.61C105.294 109.745 105.549 110.583 106.06 111.136C106.571 111.689 107.379 111.973 108.472 111.973C109.919 111.973 110.984 111.576 111.651 110.781C112.318 109.987 112.658 108.695 112.658 106.907V99.628H114.758V113.477H113.027L112.729 111.619H112.616C112.19 112.3 111.594 112.825 110.828 113.179C110.061 113.534 109.196 113.719 108.217 113.719C106.528 113.719 105.265 113.321 104.428 112.512C103.591 111.718 103.165 110.427 103.165 108.667V99.5996H105.294V99.628Z" fill="white"/>
<path d="M127.77 97.9678C126.663 97.9678 125.656 98.3083 124.762 98.9894C123.868 99.6706 123.159 100.678 122.619 101.998C122.08 103.317 121.811 104.751 121.811 106.283C121.811 107.688 122.094 108.738 122.676 109.419C123.258 110.1 124.18 110.441 125.443 110.441C126.706 110.441 128.097 110.114 129.714 109.462V112.754C128.04 113.406 126.351 113.733 124.663 113.733C122.52 113.733 120.86 113.108 119.668 111.846C118.476 110.583 117.88 108.795 117.88 106.496C117.88 104.197 118.32 102.253 119.2 100.394C120.079 98.5354 121.243 97.1306 122.719 96.1656C124.18 95.2007 125.869 94.7183 127.77 94.7183C128.82 94.7183 129.757 94.8176 130.58 95.0021C131.403 95.1865 132.269 95.5413 133.205 96.0379L131.715 99.2023C130.821 98.7056 130.083 98.3793 129.501 98.2232C128.92 98.0671 128.338 97.982 127.77 97.982V97.9678Z" fill="white"/>
<path d="M143.876 113.478H140.073L141.804 105.219C141.946 104.652 142.003 104.141 142.003 103.715C142.003 102.679 141.549 102.154 140.641 102.154C139.86 102.154 139.165 102.637 138.526 103.602C137.888 104.567 137.391 105.9 137.036 107.617L135.802 113.464H131.999L136.171 93.7964H139.974C139.647 95.3289 139.392 96.4925 139.222 97.3155C139.051 98.1385 138.682 99.4298 138.129 101.218H138.228C138.753 100.565 139.335 100.054 139.974 99.6568C140.612 99.2595 141.35 99.0751 142.202 99.0751C143.365 99.0751 144.259 99.4298 144.898 100.125C145.536 100.835 145.848 101.828 145.848 103.133C145.848 103.744 145.749 104.51 145.565 105.404L143.89 113.449L143.876 113.478Z" fill="white"/>
<path d="M153.242 113.733C151.468 113.733 150.092 113.25 149.127 112.3C148.148 111.349 147.665 110.001 147.665 108.27C147.665 106.539 148.02 104.935 148.715 103.502C149.41 102.069 150.347 100.976 151.539 100.21C152.731 99.4578 154.065 99.0747 155.569 99.0747C157.073 99.0747 158.222 99.4153 159.06 100.111C159.897 100.792 160.308 101.742 160.308 102.934C160.308 104.509 159.599 105.73 158.194 106.581C156.789 107.433 154.774 107.858 152.163 107.858H151.525L151.496 108.128V108.383C151.496 109.15 151.709 109.76 152.149 110.2C152.589 110.64 153.199 110.867 154.008 110.867C154.746 110.867 155.413 110.781 156.009 110.625C156.605 110.469 157.328 110.185 158.18 109.774V112.64C156.732 113.364 155.086 113.733 153.256 113.733H153.242ZM155.313 101.828C154.576 101.828 153.866 102.168 153.213 102.835C152.561 103.516 152.121 104.325 151.922 105.304H152.49C153.795 105.304 154.817 105.105 155.54 104.694C156.264 104.282 156.633 103.729 156.633 103.034C156.633 102.239 156.193 101.828 155.299 101.828H155.313Z" fill="white"/>
<path d="M166.694 113.733C165.006 113.733 163.7 113.279 162.792 112.371C161.884 111.463 161.43 110.185 161.43 108.539C161.43 106.751 161.742 105.134 162.366 103.672C162.991 102.211 163.87 101.075 165.02 100.281C166.169 99.4862 167.46 99.0889 168.908 99.0889C170.44 99.0889 171.817 99.3869 173.051 99.997L171.888 102.892C171.434 102.693 170.98 102.523 170.554 102.381C170.114 102.239 169.617 102.168 169.064 102.168C168.354 102.168 167.702 102.438 167.12 102.977C166.538 103.516 166.098 104.254 165.772 105.191C165.445 106.127 165.289 107.135 165.289 108.213C165.289 109.022 165.488 109.632 165.871 110.044C166.254 110.455 166.793 110.654 167.475 110.654C168.113 110.654 168.709 110.554 169.263 110.356C169.816 110.157 170.369 109.916 170.951 109.618V112.725C169.674 113.392 168.255 113.719 166.708 113.719L166.694 113.733Z" fill="white"/>
<path d="M183.779 99.3441H188.121L181.821 105.715L185.425 113.477H181.182L178.869 108.17L177.351 109.078L176.414 113.477H172.611L176.783 93.8101H180.586L178.713 102.579C178.642 102.92 178.529 103.417 178.344 104.055L177.989 105.347H178.046L183.779 99.3441Z" fill="white"/>
<path d="M195.23 95.002L195.329 95.2858C194.464 97.2014 193.357 99.2164 192.023 101.345H189.171C189.923 99.6137 190.746 97.4994 191.64 95.0161H195.244L195.23 95.002Z" fill="white"/>
<path d="M196.251 113.733C195.017 113.733 194.037 113.279 193.328 112.385C192.618 111.477 192.264 110.214 192.264 108.597C192.264 106.979 192.562 105.361 193.172 103.857C193.768 102.353 194.562 101.175 195.556 100.338C196.535 99.5008 197.627 99.0751 198.819 99.0751C199.515 99.0751 200.111 99.2311 200.607 99.5433C201.104 99.8555 201.586 100.395 202.026 101.147H202.126L202.154 100.792C202.211 99.8697 202.31 99.0467 202.466 98.323L203.431 93.7964H207.234L203.062 113.464H200.167L200.338 111.633H200.281C199.685 112.371 199.061 112.896 198.408 113.222C197.755 113.549 197.031 113.719 196.251 113.719V113.733ZM197.84 110.668C198.394 110.668 198.933 110.384 199.458 109.803C199.983 109.221 200.409 108.455 200.735 107.49C201.061 106.525 201.218 105.503 201.218 104.396C201.218 103.729 201.061 103.176 200.749 102.779C200.437 102.381 199.997 102.168 199.458 102.168C198.919 102.168 198.337 102.466 197.826 103.077C197.315 103.687 196.89 104.481 196.592 105.475C196.279 106.468 196.123 107.461 196.123 108.426C196.123 109.916 196.705 110.654 197.855 110.654L197.84 110.668Z" fill="white"/>
</svg>
