<svg width="63" height="59" viewBox="0 0 63 59" fill="none" xmlns="http://www.w3.org/2000/svg">
<path fill-rule="evenodd" clip-rule="evenodd" d="M30.2418 9.30157C34.1335 9.30157 37.0552 12.8972 37.0556 17.0475V40.2924C37.0552 44.7193 33.8903 48.0383 30.2418 48.0383H16.6206C12.7295 48.0377 9.81031 44.4423 9.80991 40.2924V17.0475C9.81025 12.621 12.9726 9.30222 16.6206 9.30157H30.2418ZM16.6206 14.5591C15.405 14.5598 14.4337 15.6647 14.4334 17.0475V40.2924C14.4338 41.6752 15.4051 42.7801 16.6206 42.7808H30.2418C31.4578 42.7808 32.4317 41.6756 32.4321 40.2924V17.0475C32.4317 15.6643 31.4579 14.5591 30.2418 14.5591H16.6206Z" fill="#458239"/>
<path fill-rule="evenodd" clip-rule="evenodd" d="M48.2436 29.7773C52.1349 29.7775 55.0536 33.3733 55.0542 37.5232V40.0151C55.0541 44.4422 51.892 47.7608 48.2436 47.761H46.0534C42.1619 47.7606 39.2429 44.1654 39.2427 40.0151V37.5232C39.2433 33.0968 42.4054 29.7777 46.0534 29.7773H48.2436ZM46.0534 35.3121C44.8377 35.3126 43.8666 36.4175 43.8662 37.8005V40.2924C43.8666 41.6753 44.8377 42.7803 46.0534 42.7808H48.2436C49.4594 42.7805 50.4334 41.6754 50.4338 40.2924V37.8005C50.4335 36.4174 49.4594 35.3124 48.2436 35.3121H46.0534Z" fill="#458239"/>
<path fill-rule="evenodd" clip-rule="evenodd" d="M48.2436 9.30157C52.1351 9.3018 55.0539 12.8973 55.0542 17.0475V19.5394C55.0538 23.9662 51.8919 27.2851 48.2436 27.2853H46.0534C42.1621 27.2849 39.2431 23.6894 39.2427 19.5394V17.0475C39.2431 12.6208 42.4052 9.30199 46.0534 9.30157H48.2436ZM46.0534 14.5591C44.8377 14.5596 43.8665 15.6645 43.8662 17.0475V19.5394C43.8666 20.9223 44.8377 22.0274 46.0534 22.0278H48.2436C49.4594 22.0276 50.4334 20.9224 50.4338 19.5394V17.0475C50.4335 15.6644 49.4594 14.5594 48.2436 14.5591H46.0534Z" fill="#458239"/>
<path fill-rule="evenodd" clip-rule="evenodd" d="M51.812 0C57.8922 0.000701104 62.9994 5.53976 63 12.7406V46.2594C62.9995 53.1833 58.1354 58.9993 51.812 59H11.188C5.1078 58.9993 0.000557775 53.4602 0 46.2594V12.7406C0.000554894 5.81666 4.86463 0.000706117 11.188 0H51.812ZM11.188 4.98749C7.29709 4.9882 4.37795 8.58658 4.37739 12.7406V46.2594C4.37795 50.6903 7.5402 54.0118 11.188 54.0125H51.812C55.7029 54.0118 58.6221 50.4134 58.6226 46.2594V12.7406C58.622 8.30974 55.4598 4.98819 51.812 4.98749H11.188Z" fill="#458239"/>
</svg>
