<svg width="100" height="100" viewBox="0 0 100 100" fill="none" xmlns="http://www.w3.org/2000/svg">
<g clip-path="url(#clip0_12782_84649)">
<path d="M50 1C77.062 1 99 22.938 99 50C99 77.062 77.062 99 50 99C22.938 99 1 77.062 1 50C1 22.938 22.938 1 50 1Z" stroke="#1565C0" stroke-width="2"/>
<g opacity="0.03">
<path d="M48.916 27.5366H49.7069L50.3316 25.2747H49.1629L48.916 27.5366Z" fill="#1565C0"/>
</g>
<path d="M61.7987 28.257L64.1967 25.7583C63.7886 25.2999 62.9624 24.9472 62.3781 24.9875H54.2723C53.7383 24.9523 52.9574 25.2596 52.5645 25.6575L54.8113 28.257H61.8037H61.7987Z" fill="#1565C0"/>
<path d="M53.825 43.0177L54.5202 28.5643L52.2733 25.9648C51.8905 26.3779 51.5731 27.2193 51.5781 27.8036L50.8477 43.0329L52.2532 44.6601L53.825 43.0177Z" fill="#1565C0"/>
<path d="M53.9348 46.6096H60.9222L62.4991 44.9673L61.0935 43.3401H54.1061L52.5293 44.9824L53.9348 46.6096Z" fill="#1565C0"/>
<path d="M65.0845 28.1109L64.3691 43.0127L62.7923 44.655L61.3867 43.0278L62.0819 28.5744L64.4799 26.0757C64.8729 26.5492 65.1499 27.4712 65.0845 28.1109Z" fill="#1565C0"/>
<path d="M52.9477 61.3704L53.6429 46.917L52.2373 45.2898L50.6605 46.9321L49.9451 61.8339C49.8797 62.4686 50.1567 63.3956 50.5497 63.8691L52.9477 61.3704Z" fill="#1565C0"/>
<path d="M37.2996 43.0177L37.9948 28.5643L35.748 25.9648C35.3651 26.3779 35.0477 27.2193 35.0527 27.8036L34.3223 43.0329L35.7278 44.6601L37.2996 43.0177Z" fill="#1565C0"/>
<path d="M48.5552 28.1109L47.8398 43.0127L46.263 44.655L44.8574 43.0278L45.5526 28.5744L47.9506 26.0757C48.3436 26.5492 48.6206 27.4712 48.5552 28.1109Z" fill="#1565C0"/>
<path d="M36.4184 61.3704L37.1136 46.917L35.708 45.2898L34.1312 46.9321L33.4158 61.8339C33.3504 62.4686 33.6274 63.3956 34.0204 63.8691L36.4184 61.3704Z" fill="#1565C0"/>
<path d="M45.9342 64.2972L43.6873 61.6978H36.6949L34.2969 64.1965C34.7049 64.6549 35.5311 65.0076 36.1155 64.9673H44.2213C44.7553 65.0025 45.5362 64.6952 45.9291 64.2972H45.9342Z" fill="#1565C0"/>
<path d="M44.6746 46.932L43.9844 61.3854L46.2312 63.9849C46.6141 63.5769 46.9315 62.7305 46.9264 62.1461L47.6569 46.9119L46.2514 45.2847L44.6746 46.927V46.932Z" fill="#1565C0"/>
<path d="M36.2627 20.534C36.2627 20.4081 36.2174 20.3073 36.1216 20.2267C36.031 20.1461 35.8647 20.0756 35.6279 20.0151C35.2904 19.9295 35.0335 19.8086 34.8521 19.6675C34.6708 19.5214 34.5801 19.33 34.5801 19.0982C34.5801 18.8665 34.6808 18.6549 34.8823 18.4987C35.0839 18.3426 35.3408 18.262 35.6582 18.262C35.9755 18.262 36.2526 18.3526 36.4541 18.529C36.6556 18.7053 36.7514 18.9219 36.7463 19.1688V19.1788H36.2627C36.2627 19.0227 36.2123 18.9018 36.1065 18.806C36.0007 18.7103 35.8546 18.6599 35.6582 18.6599C35.4768 18.6599 35.3357 18.7002 35.235 18.7809C35.1342 18.8615 35.0889 18.9622 35.0889 19.0882C35.0889 19.204 35.1443 19.2947 35.2501 19.3703C35.3559 19.4458 35.5322 19.5164 35.7791 19.5869C36.1015 19.6725 36.3483 19.7934 36.5146 19.9446C36.6808 20.0957 36.7665 20.2922 36.7665 20.529C36.7665 20.7809 36.6657 20.9773 36.4642 21.1285C36.2627 21.2746 36.0007 21.3501 35.6733 21.3501C35.3458 21.3501 35.0839 21.2645 34.8471 21.0982C34.6103 20.932 34.4944 20.7003 34.5045 20.4131V20.403H34.9932C34.9932 20.5844 35.0587 20.7204 35.1846 20.8111C35.3106 20.9018 35.4768 20.9471 35.6783 20.9471C35.8647 20.9471 36.0108 20.9118 36.1116 20.8363C36.2123 20.7607 36.2677 20.6599 36.2677 20.534H36.2627Z" fill="#1565C0"/>
<path d="M38.9425 19.9546H37.6276V20.9068H39.1541V21.3098H37.1289V18.3022H39.144V18.7053H37.6327V19.5567H38.9475V19.9597L38.9425 19.9546Z" fill="#1565C0"/>
<path d="M41.8389 18.7053H40.9321V21.3098H40.4283V18.7053H39.5215V18.3022H41.8389V18.7053Z" fill="#1565C0"/>
<path opacity="0.03" d="M48.3685 65.0781C49.0056 65.0781 49.5221 64.5097 49.5221 63.8086C49.5221 63.1074 49.0056 62.5391 48.3685 62.5391C47.7314 62.5391 47.2148 63.1074 47.2148 63.8086C47.2148 64.5097 47.7314 65.0781 48.3685 65.0781Z" fill="#1565C0"/>
<path d="M54.1715 68.9268L55.3252 67.7278C55.1287 67.5061 54.7307 67.3399 54.4536 67.3601H50.5594C50.3025 67.3449 49.9297 67.491 49.7383 67.6825L50.8164 68.9318H54.1766L54.1715 68.9268Z" fill="#1565C0"/>
<path d="M50.337 76.0202L50.6695 69.0731L49.5914 67.8237C49.41 68.0202 49.2539 68.4283 49.2589 68.7104L48.9062 76.0303L49.5813 76.8111L50.337 76.0202Z" fill="#1565C0"/>
<path d="M50.388 77.7481H53.7482L54.5038 76.9571L53.8288 76.1763H50.4736L49.7129 76.9672L50.388 77.7481Z" fill="#1565C0"/>
<path d="M55.7479 68.8562L55.4053 76.02L54.6497 76.8109L53.9746 76.03L54.3071 69.0829L55.4608 67.8789C55.6472 68.1056 55.7832 68.5489 55.753 68.8562H55.7479Z" fill="#1565C0"/>
<path d="M49.9139 84.8412L50.2464 77.8941L49.5713 77.1133L48.8157 77.9042L48.4731 85.0679C48.4429 85.3752 48.5738 85.8186 48.7653 86.0453L49.9189 84.8412H49.9139Z" fill="#1565C0"/>
<path d="M53.8833 77.9042L53.5508 84.8513L54.6289 86.1007C54.8102 85.9042 54.9664 85.4961 54.9614 85.214L55.314 77.8941L54.6389 77.1133L53.8833 77.9042Z" fill="#1565C0"/>
<path d="M62.4606 68.9268L63.6142 67.7278C63.4178 67.5061 63.0198 67.3399 62.7427 67.3601H58.8485C58.5916 67.3449 58.2188 67.491 58.0273 67.6825L59.1054 68.9318H62.4656L62.4606 68.9268Z" fill="#1565C0"/>
<path d="M58.6202 76.02L58.9527 69.0729L57.8746 67.8235C57.6932 68.02 57.5371 68.428 57.5421 68.7101L57.1895 76.03L57.8645 76.8109L58.6202 76.02Z" fill="#1565C0"/>
<path d="M58.677 77.7481H62.0372L62.7929 76.9571L62.1178 76.1763H58.7576L58.002 76.9672L58.677 77.7481Z" fill="#1565C0"/>
<path d="M64.0311 68.8562L63.6885 76.02L62.9329 76.8109L62.2578 76.03L62.5903 69.0829L63.744 67.8789C63.9304 68.1056 64.0664 68.5489 64.0362 68.8562H64.0311Z" fill="#1565C0"/>
<path d="M58.203 84.8412L58.5354 77.8941L57.8604 77.1133L57.1047 77.9042L56.7622 85.0679C56.7319 85.3752 56.8629 85.8186 57.0543 86.0453L58.208 84.8412H58.203Z" fill="#1565C0"/>
<path d="M42.3324 77.7483H45.6876L46.4483 76.9574L45.7733 76.1765H42.4131L41.6523 76.9674L42.3324 77.7483Z" fill="#1565C0"/>
</g>
<defs>
<clipPath id="clip0_12782_84649">
<rect width="100" height="100" fill="white"/>
</clipPath>
</defs>
</svg>
