<svg width="40" height="40" viewBox="0 0 40 40" fill="none" xmlns="http://www.w3.org/2000/svg">
<path d="M30 8C30.5523 8 31 8.44772 31 9V31C31 31.5523 30.5523 32 30 32H11C10.4477 32 10 31.5523 10 31V9C10 8.44772 10.4477 8 11 8H30ZM16.001 24C15.4487 24 15.001 24.4478 15.001 25C15.001 25.5523 15.4487 26 16.001 26H20.001C20.553 25.9997 21.001 25.5521 21.001 25C21.0009 24.4479 20.553 24.0003 20.001 24H16.001ZM16.001 19C15.4487 19 15.001 19.4478 15.001 20C15.001 20.5523 15.4487 21 16.001 21H26.001C26.553 20.9997 27.001 20.5521 27.001 20C27.0009 19.4479 26.553 19.0003 26.001 19H16.001ZM16.001 14C15.4487 14 15.001 14.4478 15.001 15C15.001 15.5523 15.4487 16 16.001 16H26.001C26.553 15.9997 27.001 15.5521 27.001 15C27.0009 14.4479 26.553 14.0003 26.001 14H16.001Z" fill="#2C2827"/>
</svg>
