<svg width="100" height="60" viewBox="0 0 100 60" fill="none" xmlns="http://www.w3.org/2000/svg">
<rect y="60" width="60" height="100" rx="3" transform="rotate(-90 0 60)" fill="#1565C0"/>
<path d="M27.3913 32.5381L26.9707 51.2708L29.5501 54.6797L29.6062 54.616L29.6343 54.5523C29.8772 54.1859 29.9146 54.0584 30.0548 53.6284L30.0829 53.5646L30.1109 53.4691C30.1997 53.2673 30.2978 52.6779 30.2791 52.4496L30.3072 52.3859L30.3072 52.2903L30.7557 32.5381L29.1296 30.4036L27.3913 32.5381Z" fill="white"/>
<path d="M27.5312 27.377L29.1574 29.5115L30.8957 27.377L31.3163 7.87962L31.3443 7.8159L31.3443 7.72032C31.3023 7.37519 31.3163 6.99289 31.2041 6.669L31.1761 6.60528L31.1761 6.50971C31.0593 6.15395 30.9471 5.78227 30.7275 5.49024L30.6995 5.39466L30.6434 5.33094L27.9518 8.67608L27.5312 27.377Z" fill="white"/>
<path d="M45.5343 27.8233L37.9922 27.8233L36.2539 29.9578L37.852 32.0923L45.4221 32.0923L47.1604 29.9578L45.5343 27.8233Z" fill="white"/>
<path d="M64.0924 32.5381L63.6719 51.2708L66.2513 54.6797L66.3074 54.616C66.6906 53.9947 66.985 53.1505 66.9803 52.3859L67.0083 52.2903L67.4569 32.5381L65.8308 30.4036L64.0924 32.5381Z" fill="white"/>
<path d="M52.0641 52.0356L52.0641 52.0993C52.0407 53.0019 52.279 53.7612 52.6809 54.5205L52.737 54.5842L55.4286 51.271L55.8491 32.5382L54.251 30.4037L52.5127 32.5382L52.0641 52.0356Z" fill="white"/>
<path d="M63.8963 27.8233L56.3262 27.8233L54.5879 29.9578L56.186 32.0923L63.7561 32.0923L65.4944 29.9578L63.8963 27.8233Z" fill="white"/>
<path d="M64.2324 27.377L65.8586 29.5115L67.5969 27.377L68.0175 7.87962L68.0175 7.72032C68.0362 7.30086 67.9801 7.06192 67.9053 6.669L67.8773 6.60528L67.8773 6.50971C67.7838 6.21236 67.6109 5.71856 67.4287 5.49024L67.4006 5.39466L67.3446 5.33094L64.653 8.67608L64.2324 27.377Z" fill="white"/>
<path d="M56.0738 3.92934L55.9897 3.92934C55.3589 3.98244 54.6953 4.232 54.2514 4.75766L54.1953 4.78952L56.7467 8.23022L64.3168 8.23022L67.0084 4.88509L66.9523 4.82138C66.4757 4.2904 65.8028 3.98244 65.1299 3.92934L56.0738 3.92934Z" fill="white"/>
<path d="M52.6543 27.377L54.2524 29.5115L55.9907 27.377L56.4113 8.64422L53.8319 5.23537L53.8038 5.29909C53.3786 5.9044 53.1216 6.76457 53.1029 7.52917L53.1029 7.62475L52.6543 27.377Z" fill="white"/>
<path d="M70.4023 52.0356L70.4023 52.0993C70.4023 52.9541 70.6126 53.8249 71.0472 54.5205L71.1033 54.5842L73.7949 51.271L74.2154 32.5382L72.5893 30.4037L70.8509 32.5382L70.4023 52.0356Z" fill="white"/>
<path d="M82.2342 27.8233L74.6641 27.8233L72.9258 29.9578L74.552 32.0923L82.122 32.0923L83.8604 29.9578L82.2342 27.8233Z" fill="white"/>
<path d="M82.5996 27.377L84.1977 29.5115L85.9361 27.377L86.3847 7.87962L86.3847 7.8159C86.4034 7.01413 86.151 6.04776 85.7398 5.39466L85.7118 5.33094L83.0202 8.67608L82.5996 27.377Z" fill="white"/>
<path d="M74.4397 3.92934L74.3556 3.92934C73.7108 3.97182 73.0566 4.23731 72.5893 4.75766L72.5332 4.78952L75.1126 8.23022L82.6827 8.23022L85.3743 4.88509L85.3182 4.82138C84.8136 4.30102 84.1453 3.96651 83.4678 3.92934L74.4397 3.92934Z" fill="white"/>
<path d="M70.9922 27.377L72.6184 29.5115L74.3567 27.377L74.7772 8.64422L72.1978 5.23537L72.0856 5.3628C71.9501 5.63891 71.7539 5.99466 71.6651 6.2867L71.637 6.35042L71.637 6.44599C71.4969 6.7805 71.5015 7.13095 71.4408 7.46546L71.4408 7.62475L70.9922 27.377Z" fill="white"/>
<path d="M8.5918 55.896L8.5918 51.3022L10.2096 51.3022C10.5211 51.3022 10.7945 51.3653 11.0299 51.4915C11.2673 51.6178 11.4496 51.7976 11.5768 52.0311C11.704 52.2624 11.7677 52.5264 11.7677 52.823C11.7677 53.2731 11.6281 53.6286 11.349 53.8894C11.0717 54.1481 10.6872 54.2775 10.1954 54.2775L9.44629 54.2775L9.44629 55.896L8.5918 55.896ZM9.44629 53.5108L10.2096 53.5108C10.4356 53.5108 10.6074 53.4519 10.7252 53.3341C10.8448 53.2163 10.9046 53.048 10.9046 52.8293C10.9046 52.6042 10.8448 52.4223 10.7252 52.2835C10.6056 52.1446 10.4403 52.0731 10.2296 52.0689L9.44629 52.0689L9.44629 53.5108Z" fill="white"/>
<path d="M4.71289 51.3022L5.56738 51.3022L5.56738 54.3342C5.56738 54.635 5.63194 54.8548 5.76107 54.9937C5.89209 55.1304 6.07248 55.1987 6.30225 55.1987C6.78266 55.1987 7.02667 54.919 7.03426 54.3595L7.03426 51.3022L7.8916 51.3022L7.8916 54.3279C7.8916 54.8306 7.74919 55.2282 7.46436 55.5205C7.18142 55.8129 6.79405 55.9591 6.30225 55.9591C5.81803 55.9591 5.43351 55.8171 5.14868 55.5332C4.86385 55.2492 4.71859 54.859 4.71289 54.3626L4.71289 51.3022Z" fill="white"/>
<path d="M9.92773 45.6075L9.92773 44.8408L13.3058 44.8408L13.3058 45.6075L12.0355 45.6075L12.0355 49.4346L11.181 49.4346L11.181 45.6075L9.92773 45.6075Z" fill="white"/>
<path d="M9.67855 44.8408L9.67855 45.6075L7.75879 45.6075L7.75879 46.7023L9.39941 46.7023L9.39941 47.4437L7.75879 47.4437L7.75879 48.6742L9.68424 48.6742L9.68424 49.4346L6.9043 49.4346L6.9043 44.8408L9.67855 44.8408Z" fill="white"/>
<path d="M3.14063 47.9894L3.99797 47.9894C3.99797 48.4963 4.2714 48.7498 4.81828 48.7498C5.02146 48.7498 5.18001 48.7046 5.29395 48.6141C5.40788 48.5216 5.46484 48.3933 5.46484 48.2292C5.46484 48.0504 5.40788 47.9137 5.29395 47.8191C5.18001 47.7223 4.97493 47.6213 4.67871 47.5162C4.38249 47.4089 4.14798 47.3037 3.97518 47.2007C3.50426 46.9188 3.2688 46.5392 3.2688 46.0617C3.2688 45.8135 3.33146 45.5926 3.45679 45.3991C3.58401 45.2035 3.76535 45.051 4.00081 44.9417C4.23817 44.8323 4.50401 44.7776 4.79834 44.7776C5.09456 44.7776 5.35851 44.8375 5.59017 44.9574C5.82183 45.0752 6.00128 45.2424 6.1285 45.4591C6.25762 45.6757 6.32218 45.9218 6.32218 46.1974L5.46769 46.1974C5.46769 45.987 5.40788 45.824 5.28825 45.7083C5.16862 45.5905 5.00057 45.5316 4.7841 45.5316C4.57522 45.5316 4.41287 45.5811 4.29704 45.6799C4.18121 45.7767 4.12329 45.905 4.12329 46.0648C4.12329 46.2142 4.1907 46.3393 4.32552 46.4403C4.46224 46.5413 4.66257 46.6359 4.92651 46.7243C5.41262 46.8862 5.76676 47.0871 5.98893 47.3269C6.2111 47.5667 6.32218 47.8653 6.32218 48.2229C6.32218 48.6204 6.18641 48.9328 5.91488 49.1599C5.64334 49.385 5.27781 49.4975 4.81828 49.4975C4.49927 49.4975 4.20874 49.4334 3.9467 49.3051C3.68465 49.1747 3.48432 48.9969 3.3457 48.7719C3.20898 48.5468 3.14063 48.286 3.14063 47.9894Z" fill="white"/>
</svg>
