<svg width="21" height="24" viewBox="0 0 21 24" fill="none" xmlns="http://www.w3.org/2000/svg">
<path d="M20 0C20.5523 0 21 0.447715 21 1V23C21 23.5523 20.5523 24 20 24H1C0.447715 24 0 23.5523 0 23V1C0 0.447715 0.447715 0 1 0H20ZM6.00098 16C5.44873 16 5.00104 16.4478 5.00098 17C5.00098 17.5523 5.44869 18 6.00098 18H10.001C10.553 17.9997 11.001 17.5521 11.001 17C11.0009 16.4479 10.553 16.0003 10.001 16H6.00098ZM6.00098 11C5.44873 11 5.00104 11.4478 5.00098 12C5.00098 12.5523 5.44869 13 6.00098 13H16.001C16.553 12.9997 17.001 12.5521 17.001 12C17.0009 11.4479 16.553 11.0003 16.001 11H6.00098ZM6.00098 6C5.44873 6 5.00104 6.44777 5.00098 7C5.00098 7.55228 5.44869 8 6.00098 8H16.001C16.553 7.99974 17.001 7.55212 17.001 7C17.0009 6.44793 16.553 6.00026 16.001 6H6.00098Z" fill="#2C2827"/>
</svg>
