<svg width="100" height="60" viewBox="0 0 100 60" fill="none" xmlns="http://www.w3.org/2000/svg">
<rect x="1" y="59" width="58" height="98" rx="2" transform="rotate(-90 1 59)" stroke="#2B8AEB" stroke-width="2"/>
<path d="M27.3932 32.5381L26.9727 51.2708L29.5521 54.6797L29.6082 54.616L29.6362 54.5523C29.8792 54.1859 29.9166 54.0584 30.0568 53.6284L30.0848 53.5646L30.1128 53.4691C30.2016 53.2673 30.2998 52.6779 30.2811 52.4496L30.3091 52.3859L30.3091 52.2903L30.7577 32.5381L29.1315 30.4036L27.3932 32.5381Z" fill="#2B8AEB"/>
<path d="M27.5312 27.377L29.1574 29.5115L30.8957 27.377L31.3163 7.87962L31.3443 7.8159L31.3443 7.72032C31.3023 7.37519 31.3163 6.99289 31.2041 6.669L31.1761 6.60528L31.1761 6.50971C31.0593 6.15395 30.9471 5.78227 30.7275 5.49024L30.6995 5.39466L30.6434 5.33094L27.9518 8.67608L27.5312 27.377Z" fill="#2B8AEB"/>
<path d="M45.5304 27.8233L37.9883 27.8233L36.25 29.9578L37.8481 32.0923L45.4182 32.0923L47.1565 29.9578L45.5304 27.8233Z" fill="#2B8AEB"/>
<path d="M64.0924 32.5381L63.6719 51.2708L66.2513 54.6797L66.3074 54.616C66.6906 53.9947 66.985 53.1505 66.9803 52.3859L67.0083 52.2903L67.4569 32.5381L65.8308 30.4036L64.0924 32.5381Z" fill="#2B8AEB"/>
<path d="M52.0641 52.0356L52.0641 52.0993C52.0407 53.0019 52.279 53.7612 52.6809 54.5205L52.737 54.5842L55.4286 51.271L55.8491 32.5382L54.251 30.4037L52.5127 32.5382L52.0641 52.0356Z" fill="#2B8AEB"/>
<path d="M63.8983 27.8233L56.3282 27.8233L54.5898 29.9578L56.188 32.0923L63.7581 32.0923L65.4964 29.9578L63.8983 27.8233Z" fill="#2B8AEB"/>
<path d="M64.2344 27.377L65.8605 29.5115L67.5989 27.377L68.0194 7.87962L68.0194 7.72032C68.0381 7.30086 67.982 7.06192 67.9073 6.669L67.8792 6.60528L67.8792 6.50971C67.7858 6.21236 67.6129 5.71856 67.4306 5.49024L67.4026 5.39466L67.3465 5.33094L64.6549 8.67608L64.2344 27.377Z" fill="#2B8AEB"/>
<path d="M56.0738 3.92934L55.9897 3.92934C55.3589 3.98244 54.6953 4.232 54.2514 4.75766L54.1953 4.78952L56.7467 8.23022L64.3168 8.23022L67.0084 4.88509L66.9523 4.82138C66.4757 4.2904 65.8028 3.98244 65.1299 3.92934L56.0738 3.92934Z" fill="#2B8AEB"/>
<path d="M52.6523 27.377L54.2505 29.5115L55.9888 27.377L56.4094 8.64422L53.8299 5.23537L53.8019 5.29909C53.3766 5.9044 53.1196 6.76457 53.1009 7.52917L53.1009 7.62475L52.6523 27.377Z" fill="#2B8AEB"/>
<path d="M70.4023 52.0356L70.4023 52.0993C70.4023 52.9541 70.6126 53.8249 71.0472 54.5205L71.1033 54.5842L73.7949 51.271L74.2154 32.5382L72.5893 30.4037L70.8509 32.5382L70.4023 52.0356Z" fill="#2B8AEB"/>
<path d="M82.2342 27.8233L74.6641 27.8233L72.9258 29.9578L74.552 32.0923L82.122 32.0923L83.8604 29.9578L82.2342 27.8233Z" fill="#2B8AEB"/>
<path d="M82.5977 27.377L84.1958 29.5115L85.9341 27.377L86.3827 7.87962L86.3827 7.8159C86.4014 7.01413 86.1491 6.04776 85.7378 5.39466L85.7098 5.33094L83.0182 8.67608L82.5977 27.377Z" fill="#2B8AEB"/>
<path d="M74.4378 3.92934L74.3537 3.92934C73.7088 3.97182 73.0546 4.23731 72.5873 4.75766L72.5312 4.78952L75.1107 8.23022L82.6808 8.23022L85.3724 4.88509L85.3163 4.82138C84.8116 4.30102 84.1434 3.96651 83.4658 3.92934L74.4378 3.92934Z" fill="#2B8AEB"/>
<path d="M70.9922 27.377L72.6184 29.5115L74.3567 27.377L74.7772 8.64422L72.1978 5.23537L72.0856 5.36281C71.9501 5.63891 71.7539 5.99466 71.6651 6.2867L71.637 6.35042L71.637 6.44599C71.4969 6.7805 71.5015 7.13095 71.4408 7.46546L71.4408 7.62475L70.9922 27.377Z" fill="#2B8AEB"/>
<path d="M11.4978 46.3651L11.4978 50.1562L10.7127 50.1562L10.7127 46.3651L9.53516 46.3651L9.53516 45.6005L12.7034 45.6005L12.7034 46.3651L11.4978 46.3651Z" fill="#2B8AEB"/>
<path d="M7.45762 48.181L7.45762 49.3916L9.25201 49.3916L9.25201 50.1562L6.64453 50.1562L6.64453 45.6005L9.25201 45.6005L9.25201 46.3651L7.45762 46.3651L7.45762 47.4483L8.99967 47.4483L8.99967 48.181L7.45762 48.181Z" fill="#2B8AEB"/>
<path d="M4.57031 54.3613L4.57031 54.7117L4.59835 54.7436L4.59835 54.8392L4.62639 54.871L4.62639 54.9666L4.65442 54.9985L4.65442 55.0303L4.68246 55.094L4.7105 55.1259L4.7105 55.1578L4.73854 55.1896L4.76657 55.2533L4.76657 55.2852L4.82265 55.3489L4.85069 55.4126L4.9348 55.5082L4.96284 55.5401L4.99087 55.5719L5.04695 55.6038L5.07498 55.6356L5.10302 55.6675L5.13106 55.6993L5.18713 55.7312L5.21517 55.7312L5.24321 55.7631L5.29928 55.7949L5.32732 55.7949L5.35536 55.8268L5.41143 55.8268L5.43947 55.8586L5.46751 55.8586L5.52358 55.8905L5.6077 55.8905L5.63573 55.9224L5.66377 55.9224C5.8133 55.9224 5.76657 55.9755 6.00022 55.9542L6.16844 55.9542C6.4348 55.9648 6.15442 55.9117 6.42078 55.9224L6.47685 55.8905L6.53293 55.8905L6.589 55.8586L6.61704 55.8586L6.67312 55.8268L6.70115 55.8268L6.72919 55.7949L6.75723 55.7949L6.8133 55.7631L6.84134 55.7631L6.86938 55.7312L6.92545 55.6993L6.95349 55.6993L7.09368 55.5401L7.14975 55.5082L7.17779 55.4763L7.20583 55.4445C7.25256 55.3755 7.27592 55.2799 7.34601 55.2215L7.34601 55.1896L7.37405 55.1259L7.40209 55.094L7.40209 55.0622L7.43013 55.0303L7.43013 54.9985L7.45816 54.9347L7.45816 54.871L7.4862 54.8392L7.4862 54.7436L7.51424 54.7117L7.51424 54.4569L7.54227 54.425L7.54227 54.3932L7.51424 54.3294L7.51424 51.3347L6.72919 51.3347L6.72919 54.5524L6.70115 54.5524L6.70115 54.7117L6.67312 54.7117L6.67312 54.7755L6.64508 54.8073L6.64508 54.871L6.589 54.9347L6.56097 54.9666L6.56097 54.9985L6.53293 55.0303L6.50489 55.0303L6.47685 55.0622L6.44882 55.094L6.42078 55.094L6.3647 55.1259L6.33667 55.1578L6.30863 55.1578L6.25256 55.1896L6.14041 55.1896L6.08433 55.2215L6.05629 55.2215L6.00022 55.1896L5.83199 55.1896L5.80396 55.1578L5.74788 55.1578L5.71985 55.1259L5.69181 55.1259L5.66377 55.094L5.63573 55.094L5.6077 55.0622L5.57966 55.0622L5.55162 55.0303L5.55162 54.9985L5.52358 54.9666C5.40676 54.8126 5.33667 54.6002 5.35536 54.3932L5.35536 51.3347L4.57031 51.3347L4.57031 54.3613Z" fill="#2B8AEB"/>
<path d="M9.81445 51.3345L9.8418 51.3667L10.0381 51.3667L10.0664 51.3979L10.1504 51.3979L10.1787 51.4302L10.2627 51.4302L10.291 51.4624C10.361 51.4731 10.4313 51.5094 10.4873 51.5571L10.5146 51.5571L10.5713 51.6216L10.5986 51.6216L10.6553 51.6851L10.6836 51.6851L10.7109 51.7173L10.7393 51.7485L10.7676 51.7808L10.8232 51.8442C10.9634 51.9929 10.7955 51.8549 10.9355 52.0034L10.9639 52.0356L10.9639 52.0669L11.0195 52.1313L11.0195 52.1626L11.0479 52.1948L11.0479 52.2583L11.0752 52.2905L11.0752 52.3218L11.1035 52.354L11.1035 52.4497L11.1318 52.4819L11.1318 52.6724L11.1602 52.7368L11.1602 52.9917L11.1318 53.0229L11.1318 53.2144L11.1035 53.2456L11.1035 53.3101L11.0752 53.3413L11.0752 53.4058L11.0479 53.437L11.0479 53.5005L11.0195 53.5327L10.9912 53.5962L10.9639 53.6284L10.9639 53.6606C10.8939 53.7402 10.9352 53.7397 10.8232 53.8511L10.7676 53.8833L10.7393 53.9155L10.7109 53.9468L10.6836 53.979L10.6553 54.0103L10.627 54.0103L10.5713 54.0747L10.543 54.0747L10.5146 54.106L10.4873 54.106L10.459 54.1382L10.4307 54.1382L10.4023 54.1704L10.3467 54.1704L10.3184 54.2017L10.2344 54.2017L10.2344 54.2339L10.0947 54.2339L10.0664 54.2651L9.89844 54.2651L9.87012 54.2974L8.97266 54.2974L8.97266 55.8901L8.1875 55.8901L8.1875 51.3345L9.81445 51.3345ZM8.97266 53.5337L9.8418 53.5337L9.86914 53.5015L9.98145 53.5015L10.0098 53.4702L10.0381 53.4702L10.0654 53.438L10.0937 53.438L10.1494 53.3745L10.1777 53.3745L10.1777 53.3423L10.2061 53.3423L10.2344 53.3101L10.2344 53.2788L10.2617 53.2466L10.2617 53.2153L10.3184 53.1509L10.3184 53.0552L10.3457 53.0239L10.3457 52.6733L10.3184 52.6733L10.3184 52.5776L10.29 52.5142L10.29 52.4819L10.2344 52.4185L10.2344 52.3862L10.2061 52.355L10.1777 52.3228L10.0937 52.2271L10.0654 52.2271L10.0381 52.1958L10.0098 52.1958L9.98145 52.1636L9.9541 52.1636L9.92578 52.1313L9.8418 52.1313L9.81348 52.1001L8.97266 52.1001L8.97266 53.5337Z" fill="#2B8AEB"/>
<path d="M5.60791 47.7027L5.66399 47.7664L5.69203 47.7664L5.7481 47.8301L5.77614 47.8619L5.80418 47.8938L5.83221 47.9257L5.86025 47.9575L5.88829 47.9894L5.91633 48.0212L5.91633 48.0531L5.94436 48.085L5.9724 48.1168L5.9724 48.1487L6.00044 48.2124L6.02848 48.2442L6.02848 48.308L6.05651 48.3398L6.05651 48.4035L6.08455 48.4354L6.08455 48.4991L6.11259 48.531L6.11259 49.0089L6.08455 49.0407L6.08455 49.1363L6.05651 49.1681L6.05651 49.2L6.02848 49.2319L6.02848 49.2956L6.00044 49.3274L6.00044 49.3593L5.9724 49.3912L5.9724 49.423L5.94436 49.4549L5.91633 49.5186L5.86025 49.5504C5.73408 49.7416 5.86025 49.5982 5.69203 49.7416L5.57988 49.8053C5.38829 49.9805 5.50044 49.8319 5.2995 49.9646L5.21539 49.9646L5.15932 49.9965L5.04717 49.9965L5.01913 50.0283L4.43034 50.0283L4.40231 49.9965L4.26212 49.9965L4.20605 49.9646L4.14997 49.9646L4.12193 49.9327L4.06586 49.9327L4.03782 49.9009L3.98175 49.9009L3.95371 49.869L3.92567 49.869L3.8696 49.8372L3.84156 49.8053L3.81352 49.8053L3.78548 49.7735L3.75745 49.7735L3.72941 49.7416L3.70137 49.7097L3.67334 49.7097L3.6453 49.6779L3.61726 49.646L3.56119 49.6142C3.51446 49.5611 3.46773 49.508 3.421 49.4549L3.36492 49.3912L3.36492 49.3593L3.33689 49.3274L3.30885 49.2637L3.28081 49.2319L3.28081 49.2L3.25277 49.1681L3.25277 49.1363L3.22474 49.1044L3.22474 49.0407L3.1967 49.0089L3.1967 48.9451L3.16866 48.9133L3.16866 48.7858L3.14062 48.754L3.14062 48.531L3.95371 48.531L3.95371 48.7858L3.98175 48.8177L3.98175 48.8814L4.00978 48.9133L4.00978 48.9451L4.20605 49.1681L4.23408 49.2L4.29016 49.2L4.3182 49.2319L4.37427 49.2319L4.37427 49.2637L4.48642 49.2637L4.48642 49.2956L4.90698 49.2956L4.93502 49.2637L5.01913 49.2637L5.04717 49.2319L5.0752 49.2L5.10324 49.2L5.13128 49.1681L5.15932 49.1681L5.18735 49.1363L5.21539 49.1044L5.21539 49.0726L5.27147 49.0089L5.27147 48.977L5.2995 48.9451L5.2995 48.8177L5.32754 48.7858L5.32754 48.754L5.2995 48.7221L5.2995 48.5947L5.27147 48.5628L5.27147 48.4991L5.24343 48.4673L5.21539 48.4673L5.21539 48.4354L5.18735 48.4035L5.15932 48.3717L5.13128 48.3717L5.10324 48.3398L5.0752 48.308L5.04717 48.308L5.01913 48.2761L4.99109 48.2761L4.99109 48.2442L4.93502 48.2442L4.93502 48.2124L4.87894 48.2124L4.85091 48.1805L4.79483 48.1805L4.79483 48.1487L4.71072 48.1487L4.71072 48.1168L4.65464 48.1168L4.62661 48.085L4.57053 48.085L4.54249 48.0531L4.48642 48.0531L4.48642 48.0212L4.40231 48.0212L4.40231 47.9894L4.34623 47.9894L4.3182 47.9575L4.26212 47.9575L4.23408 47.9257L4.20605 47.9257L4.17801 47.8938L4.12193 47.8938L4.0939 47.8619L4.06586 47.8619L4.03782 47.8301L4.00978 47.8301L3.98175 47.7982L3.95371 47.7982L3.95371 47.7664L3.89763 47.7664L3.84156 47.7027L3.81352 47.7027L3.78548 47.6708L3.75745 47.6708L3.75745 47.6389L3.72941 47.6389L3.70137 47.6071L3.67334 47.5752C3.54249 47.4159 3.66399 47.6071 3.53315 47.4478L3.53315 47.4159L3.50511 47.3841C3.33221 47.2035 3.50044 47.331 3.36492 47.1929L3.36492 47.1611L3.33689 47.0973L3.33689 47.0655L3.30885 47.0336L3.30885 46.9699L3.28081 46.9381L3.28081 46.7788L3.25277 46.7469L3.25277 46.5239L3.28081 46.4602L3.28081 46.3646L3.30885 46.3327L3.30885 46.269L3.33689 46.2372L3.33689 46.1735L3.36492 46.1416L3.39296 46.0779L3.39296 46.046L3.421 46.0142L3.44904 45.9504L3.56119 45.823L3.58922 45.7912L3.6453 45.7593L3.70137 45.6956L3.72941 45.6637L3.75745 45.6319L3.81352 45.6L3.84156 45.6L3.8696 45.5681L3.92567 45.5363L3.95371 45.5363L4.00978 45.5044L4.03782 45.5044L4.06586 45.4726L4.12193 45.4726L4.14997 45.4407L4.20605 45.4407L4.23408 45.4089L4.34623 45.4089L4.37427 45.377L4.96305 45.377L5.01913 45.4089L5.10324 45.4089L5.15932 45.4407L5.21539 45.4407L5.24343 45.4726L5.2995 45.4726L5.32754 45.5044L5.35558 45.5044L5.38361 45.5363L5.43969 45.5363L5.46773 45.5681L5.49577 45.5681L5.5238 45.6L5.55184 45.6319L5.57988 45.6319L5.63595 45.6956L5.69203 45.7274L5.72006 45.7593L5.7481 45.7912L5.77614 45.823L5.80418 45.8549L5.83221 45.8867L5.86025 45.9186L5.88829 45.9504L5.88829 45.9823L5.91633 46.0142L5.94436 46.046L5.94436 46.0779L5.9724 46.1097L5.9724 46.1416L6.00044 46.1735L6.00044 46.2053L6.02848 46.2372L6.02848 46.269L6.05651 46.3009L6.05651 46.3646L6.08455 46.3965L6.08455 46.5239L6.11259 46.5558L6.11259 46.7788L5.32754 46.7788L5.32754 46.715L5.2995 46.6832L5.2995 46.5239L5.27147 46.492L5.27147 46.4602L5.24343 46.4283L5.24343 46.3965L5.21539 46.3965L5.21539 46.3646L5.18735 46.3327L5.15932 46.3009L5.13128 46.269L5.10324 46.2372L5.0752 46.2372L5.04717 46.2053L5.01913 46.1735L4.96305 46.1735L4.93502 46.1416L4.85091 46.1416L4.82287 46.1097L4.54249 46.1097L4.51446 46.1416L4.40231 46.1416L4.37427 46.1735L4.3182 46.1735L4.23408 46.269L4.20605 46.269L4.12193 46.3646L4.0939 46.4283L4.0939 46.4602L4.06586 46.5239L4.06586 46.7469L4.0939 46.7788L4.0939 46.8425L4.12193 46.8743L4.14997 46.8743L4.14997 46.9062C4.2995 47.0867 4.23876 46.9858 4.37427 47.0973L4.40231 47.0973L4.40231 47.1292L4.45838 47.1292L4.45838 47.1611L4.51446 47.1611L4.54249 47.1929L4.59857 47.1929L4.59857 47.2248L4.65464 47.2248L4.68268 47.2566L4.73876 47.2566L4.76679 47.2885L4.82287 47.2885L4.85091 47.3204L4.90698 47.3204L4.93502 47.3522L4.99109 47.3522L5.01913 47.3841L5.0752 47.3841L5.10324 47.4159L5.13128 47.4159L5.15932 47.4478L5.21539 47.4478L5.21539 47.4796L5.27147 47.4796L5.27147 47.5115L5.32754 47.5115L5.35558 47.5434L5.38362 47.5434L5.41165 47.5752L5.43969 47.5752L5.46773 47.6071L5.49577 47.6071L5.49577 47.6389L5.5238 47.6389L5.55184 47.6708L5.57988 47.6708L5.57988 47.7027L5.60791 47.7027Z" fill="#2B8AEB"/>
</svg>
