<svg width="28" height="28" viewBox="0 0 28 28" fill="none" xmlns="http://www.w3.org/2000/svg">
<circle cx="14" cy="14" r="13" fill="#222D39"/>
<path fill-rule="evenodd" clip-rule="evenodd" d="M14 2.33333C7.55668 2.33333 2.33333 7.55668 2.33333 14C2.33333 20.4433 7.55668 25.6667 14 25.6667C20.4433 25.6667 25.6667 20.4433 25.6667 14C25.6667 7.55668 20.4433 2.33333 14 2.33333ZM0 14C0 6.26801 6.26801 0 14 0C21.732 0 28 6.26801 28 14C28 21.732 21.732 28 14 28C6.26801 28 0 21.732 0 14ZM14 7.33333C14.6443 7.33333 15.1667 7.85567 15.1667 8.5V12.8333H19.5C20.1443 12.8333 20.6667 13.3557 20.6667 14C20.6667 14.6443 20.1443 15.1667 19.5 15.1667H15.1667V19.5C15.1667 20.1443 14.6443 20.6667 14 20.6667C13.3557 20.6667 12.8333 20.1443 12.8333 19.5V15.1667H8.5C7.85567 15.1667 7.33333 14.6443 7.33333 14C7.33333 13.3557 7.85567 12.8333 8.5 12.8333H12.8333V8.5C12.8333 7.85567 13.3557 7.33333 14 7.33333Z" fill="#2B8AEB"/>
</svg>
