<svg width="32" height="32" viewBox="0 0 32 32" fill="none" xmlns="http://www.w3.org/2000/svg">
<g clip-path="url(#clip0_7104_108488)">
<rect width="32" height="32" rx="5" fill="#1565C0"/>
<path d="M3.7334 24.322C4.57073 24.0407 5.40873 23.7653 6.5514 23.3107C7.68807 22.862 9.13006 22.234 10.1714 21.7013C11.2127 21.1687 11.8467 20.732 12.5887 20.2953C13.3833 19.936 14.0747 19.3825 14.5994 18.686C14.9513 17.9319 15.0918 17.0964 15.0061 16.2687C14.9769 15.8602 14.9086 15.4554 14.8021 15.06C14.7063 14.6628 14.7063 14.2485 14.8021 13.8513C14.9221 13.4807 15.2214 13.2173 14.4021 11.8413C13.5827 10.4653 11.6487 7.96999 11.5834 7.61065C11.5114 7.25199 13.3127 9.02865 14.4014 10.2313C15.4907 11.428 15.8674 12.0627 16.2147 12.242C16.2792 12.2828 16.3541 12.3041 16.4303 12.3031C16.5066 12.3022 16.581 12.2791 16.6444 12.2366C16.7077 12.1941 16.7574 12.1342 16.7873 12.064C16.8172 11.9938 16.826 11.9164 16.8127 11.8413C16.7767 11.518 16.3994 11.1467 16.5914 10.794C16.9656 10.3816 17.4707 10.111 18.0214 10.028C18.1851 9.9786 18.3612 9.9916 18.5159 10.0645C18.6705 10.1374 18.7927 10.265 18.8587 10.4227C19.0321 10.728 19.2001 11.1647 19.0321 11.434C18.8587 11.7093 18.3621 11.8113 18.0274 12.0567C17.6921 12.296 17.5187 12.6787 17.7761 12.6727C18.0394 12.6667 18.7334 12.272 19.4334 12.0387C20.0302 11.8726 20.6356 11.7386 21.2467 11.6373C21.6474 11.542 21.7554 11.422 22.4494 11.2367C23.2386 11.0172 24.049 10.8829 24.8667 10.836C25.2914 10.872 24.8427 11.1947 24.2621 11.434C23.6821 11.6793 22.9701 11.8473 22.4487 12.0387C21.9354 12.236 21.6061 12.4633 21.0434 12.6427C20.4194 12.7798 19.8115 12.9825 19.2301 13.2473C18.7874 13.534 18.7034 13.9713 18.4287 14.456C18.1541 14.9407 17.6867 15.4667 17.6627 15.868C17.6327 16.268 18.0394 16.538 18.2254 16.8727C18.4114 17.2073 18.3807 17.6027 18.6561 17.908C19.1472 18.2874 19.6768 18.6143 20.2361 18.8833C20.9594 19.326 21.8154 19.972 22.4194 20.2773C23.0294 20.5827 23.3827 20.5347 24.0407 20.846C24.8424 21.3222 25.6762 21.7421 26.5361 22.1027C27.4274 22.3833 28.2474 22.276 28.5281 22.4913C28.8087 22.7067 28.5521 23.2447 28.0794 23.3887C27.5612 23.4693 27.0313 23.3632 26.5841 23.0893C26.2487 22.892 26.2727 22.736 25.6387 22.4913C25.0101 22.246 23.7301 21.9167 22.4554 21.4447C21.1754 20.9713 19.9067 20.3673 18.8294 20.0913C17.9743 19.8516 17.0698 19.8516 16.2147 20.0913C15.6534 20.3121 15.1128 20.5825 14.5994 20.8993C14.0907 21.1447 13.5161 21.3007 12.7927 21.7013C11.9675 22.2566 11.0897 22.7295 10.1721 23.1133C9.15473 23.4547 8.00006 23.4787 7.35406 23.718C6.70807 23.9573 6.57607 24.406 6.34873 24.5193C6.1214 24.6327 5.79207 24.412 5.3434 24.322C4.80895 24.2529 4.26784 24.2529 3.7334 24.322Z" fill="white" stroke="white" stroke-linecap="round" stroke-linejoin="round"/>
</g>
<defs>
<clipPath id="clip0_7104_108488">
<rect width="32" height="32" fill="white"/>
</clipPath>
</defs>
</svg>
