<svg width="18" height="21" viewBox="0 0 18 21" fill="none" xmlns="http://www.w3.org/2000/svg">
<path d="M17.25 3.63649H13.5V2.86726C13.5 2.25522 13.2629 1.66825 12.841 1.23548C12.419 0.802702 11.8467 0.55957 11.25 0.55957H6.75C6.15326 0.55957 5.58097 0.802702 5.15901 1.23548C4.73705 1.66825 4.5 2.25522 4.5 2.86726V3.63649H0.75C0.551088 3.63649 0.360322 3.71754 0.21967 3.8618C0.0790178 4.00605 0 4.20171 0 4.40572C0 4.60974 0.0790178 4.80539 0.21967 4.94965C0.360322 5.09391 0.551088 5.17495 0.75 5.17495H1.5V19.0211C1.5 19.4291 1.65804 19.8204 1.93934 20.109C2.22064 20.3975 2.60218 20.5596 3 20.5596H15C15.3978 20.5596 15.7794 20.3975 16.0607 20.109C16.342 19.8204 16.5 19.4291 16.5 19.0211V5.17495H17.25C17.4489 5.17495 17.6397 5.09391 17.7803 4.94965C17.921 4.80539 18 4.60974 18 4.40572C18 4.20171 17.921 4.00605 17.7803 3.8618C17.6397 3.71754 17.4489 3.63649 17.25 3.63649ZM6 2.86726C6 2.66325 6.07902 2.46759 6.21967 2.32333C6.36032 2.17908 6.55109 2.09803 6.75 2.09803H11.25C11.4489 2.09803 11.6397 2.17908 11.7803 2.32333C11.921 2.46759 12 2.66325 12 2.86726V3.63649H6V2.86726ZM15 19.0211H3V5.17495H15V19.0211ZM7.5 9.02111V15.175C7.5 15.379 7.42098 15.5746 7.28033 15.7189C7.13968 15.8631 6.94891 15.9442 6.75 15.9442C6.55109 15.9442 6.36032 15.8631 6.21967 15.7189C6.07902 15.5746 6 15.379 6 15.175V9.02111C6 8.8171 6.07902 8.62144 6.21967 8.47718C6.36032 8.33292 6.55109 8.25188 6.75 8.25188C6.94891 8.25188 7.13968 8.33292 7.28033 8.47718C7.42098 8.62144 7.5 8.8171 7.5 9.02111ZM12 9.02111V15.175C12 15.379 11.921 15.5746 11.7803 15.7189C11.6397 15.8631 11.4489 15.9442 11.25 15.9442C11.0511 15.9442 10.8603 15.8631 10.7197 15.7189C10.579 15.5746 10.5 15.379 10.5 15.175V9.02111C10.5 8.8171 10.579 8.62144 10.7197 8.47718C10.8603 8.33292 11.0511 8.25188 11.25 8.25188C11.4489 8.25188 11.6397 8.33292 11.7803 8.47718C11.921 8.62144 12 8.8171 12 9.02111Z" fill="#1565C0"/>
</svg>
