<svg width="32" height="32" viewBox="0 0 32 32" fill="none" xmlns="http://www.w3.org/2000/svg">
<path d="M27.9167 6.30769H22.5V5.23077C22.5 4.37392 22.1576 3.55216 21.5481 2.94627C20.9386 2.34038 20.112 2 19.25 2H12.75C11.888 2 11.0614 2.34038 10.4519 2.94627C9.84241 3.55216 9.5 4.37392 9.5 5.23077V6.30769H4.08333C3.79602 6.30769 3.52047 6.42115 3.3173 6.62312C3.11414 6.82508 3 7.099 3 7.38462C3 7.67023 3.11414 7.94415 3.3173 8.14612C3.52047 8.34808 3.79602 8.46154 4.08333 8.46154H5.16667V27.8462C5.16667 28.4174 5.39494 28.9652 5.80127 29.3692C6.2076 29.7731 6.7587 30 7.33333 30H24.6667C25.2413 30 25.7924 29.7731 26.1987 29.3692C26.6051 28.9652 26.8333 28.4174 26.8333 27.8462V8.46154H27.9167C28.204 8.46154 28.4795 8.34808 28.6827 8.14612C28.8859 7.94415 29 7.67023 29 7.38462C29 7.099 28.8859 6.82508 28.6827 6.62312C28.4795 6.42115 28.204 6.30769 27.9167 6.30769ZM11.6667 5.23077C11.6667 4.94515 11.7808 4.67123 11.984 4.46927C12.1871 4.26731 12.4627 4.15385 12.75 4.15385H19.25C19.5373 4.15385 19.8129 4.26731 20.016 4.46927C20.2192 4.67123 20.3333 4.94515 20.3333 5.23077V6.30769H11.6667V5.23077ZM24.6667 27.8462H7.33333V8.46154H24.6667V27.8462ZM13.8333 13.8462V22.4615C13.8333 22.7472 13.7192 23.0211 13.516 23.223C13.3129 23.425 13.0373 23.5385 12.75 23.5385C12.4627 23.5385 12.1871 23.425 11.984 23.223C11.7808 23.0211 11.6667 22.7472 11.6667 22.4615V13.8462C11.6667 13.5605 11.7808 13.2866 11.984 13.0847C12.1871 12.8827 12.4627 12.7692 12.75 12.7692C13.0373 12.7692 13.3129 12.8827 13.516 13.0847C13.7192 13.2866 13.8333 13.5605 13.8333 13.8462ZM20.3333 13.8462V22.4615C20.3333 22.7472 20.2192 23.0211 20.016 23.223C19.8129 23.425 19.5373 23.5385 19.25 23.5385C18.9627 23.5385 18.6871 23.425 18.484 23.223C18.2808 23.0211 18.1667 22.7472 18.1667 22.4615V13.8462C18.1667 13.5605 18.2808 13.2866 18.484 13.0847C18.6871 12.8827 18.9627 12.7692 19.25 12.7692C19.5373 12.7692 19.8129 12.8827 20.016 13.0847C20.2192 13.2866 20.3333 13.5605 20.3333 13.8462Z" fill="#1565C0"/>
</svg>
