<svg width="599" height="272" viewBox="0 0 599 272" fill="none" xmlns="http://www.w3.org/2000/svg">
<path d="M123.699 101.4H42.6992V182.4H555.999V101.4H123.699ZM119.199 179.3H45.7992V104.6H119.199V179.3Z" fill="#414141"/>
<path d="M172 130.6C174.7 130.6 176.6 131.6 178.2 133.4C178.4 133.6 178.4 134 178.1 134.2L176.9 135.3C176.7 135.5 176.3 135.6 176 135.3C175.1 134.3 173.5 133.5 171.9 133.5C167.8 133.5 164.1 137.7 164.1 142.4C164.1 146 166.2 149.1 169.5 149.1C171.4 149.1 173.1 148.3 173.4 148.1L173.9 144.7H171.4C171.1 144.7 170.9 144.5 171 144.2L171.2 142.5C171.2 142.2 171.5 141.9 171.8 141.9H176.8C177 141.9 177.2 142.1 177.2 142.4L176.2 149.8C176.1 150.1 176 150.2 175.9 150.3C175.9 150.3 172.9 152.3 168.9 152.3C164 152.3 160.5 148.1 160.5 142.9C160.6 135.8 165.6 130.6 172 130.6ZM183.5 131.4C183.5 131.1 183.8 130.8 184.1 130.8H191.6C194.6 130.8 196.7 133.5 196.7 136.4C196.7 139.6 194.7 142.5 191.7 143.4L194.4 151.1C194.6 151.5 194.4 151.9 193.9 151.9H191.6C191.3 151.9 191.1 151.7 191 151.5L188.8 143.7H184.8L183.7 151.4C183.7 151.7 183.4 152 183.1 152H181C180.7 152 180.5 151.7 180.6 151.4L183.5 131.4ZM189.9 141.1C191.7 141.1 193.5 139.2 193.5 136.9C193.5 135.2 192.4 133.8 190.9 133.8H186.3L185.3 141.1H189.9ZM202.1 131.4C202.1 131.1 202.4 130.8 202.7 130.8H213.6C213.9 130.8 214.1 131.1 214 131.4L213.8 133.1C213.8 133.4 213.5 133.7 213.2 133.7H204.8L203.9 139.9H210.9C211.2 139.9 211.4 140.2 211.3 140.5L211.1 142.2C211 142.5 210.8 142.8 210.5 142.8H203.5L202.6 149.3H211C211.3 149.3 211.5 149.6 211.4 149.9L211.2 151.6C211.2 151.9 210.9 152.2 210.6 152.2H199.7C199.4 152.2 199.2 151.9 199.3 151.6L202.1 131.4ZM213.2 151.2L224.4 130.9C224.5 130.7 224.6 130.6 224.9 130.6H225.2C225.4 130.6 225.6 130.8 225.6 130.9L231.1 151.2C231.2 151.6 230.9 152 230.5 152H228.7C228.3 152 228.1 151.8 228.1 151.5L227 147.3H218.7L216.4 151.5C216.3 151.7 216 152 215.6 152H213.5C213.1 152 212.9 151.6 213.2 151.2ZM226.2 144.8L224.2 136.5H224.1L219.8 144.8H226.2ZM238.1 133.7H233.8C233.5 133.7 233.3 133.4 233.4 133.1L233.6 131.4C233.6 131.1 233.9 130.8 234.2 130.8H246C246.3 130.8 246.5 131.1 246.4 131.4L246.2 133.1C246.2 133.4 245.9 133.7 245.6 133.7H241.3L238.8 151.4C238.8 151.7 238.5 152 238.2 152H236C235.7 152 235.5 151.7 235.5 151.4L238.1 133.7ZM249.6 131.4C249.6 131.1 249.9 130.8 250.2 130.8H261.1C261.4 130.8 261.6 131.1 261.5 131.4L261.3 133.1C261.3 133.4 261 133.7 260.7 133.7H252.3L251.4 139.9H258.4C258.7 139.9 258.9 140.2 258.8 140.5L258.6 142.2C258.5 142.5 258.3 142.8 258 142.8H251L250.1 149.3H258.5C258.8 149.3 259 149.6 258.9 149.9L258.7 151.6C258.7 151.9 258.4 152.2 258.1 152.2H247.2C246.9 152.2 246.7 151.9 246.8 151.6L249.6 131.4ZM266.1 131.4C266.1 131.1 266.4 130.8 266.7 130.8H274.2C277.2 130.8 279.3 133.5 279.3 136.4C279.3 139.6 277.3 142.5 274.3 143.4L277 151.1C277.2 151.5 277 151.9 276.5 151.9H274.2C273.9 151.9 273.7 151.7 273.6 151.5L271.4 143.7H267.4L266.3 151.4C266.3 151.7 266 152 265.7 152H263.6C263.3 152 263.1 151.7 263.2 151.4L266.1 131.4ZM272.5 141.1C274.3 141.1 276.1 139.2 276.1 136.9C276.1 135.2 275 133.8 273.5 133.8H268.9L267.9 141.1H272.5ZM293.3 130.6C296 130.6 297.9 131.6 299.5 133.4C299.7 133.6 299.7 134 299.4 134.2L298.2 135.3C298 135.5 297.6 135.6 297.3 135.3C296.4 134.3 294.8 133.5 293.2 133.5C289.1 133.5 285.4 137.7 285.4 142.4C285.4 146 287.5 149.1 290.8 149.1C292.7 149.1 294.4 148.3 294.7 148.1L295.2 144.7H292.7C292.4 144.7 292.2 144.5 292.3 144.2L292.5 142.5C292.5 142.2 292.8 141.9 293.1 141.9H298.1C298.3 141.9 298.5 142.1 298.5 142.4L297.5 149.8C297.4 150.1 297.3 150.2 297.2 150.3C297.2 150.3 294.2 152.3 290.2 152.3C285.3 152.3 281.8 148.1 281.8 142.9C281.9 135.8 286.9 130.6 293.3 130.6ZM313.3 130.6C318.2 130.6 321.7 135 321.7 140C321.7 146.9 316.6 152.3 310.3 152.3C305.4 152.3 301.9 148 301.9 143C301.9 136 307 130.6 313.3 130.6ZM310.7 149.3C314.7 149.3 318.5 145.3 318.5 140.4C318.5 136.7 316.2 133.6 312.9 133.6C308.9 133.6 305.1 137.7 305.1 142.6C305.1 146.2 307.4 149.3 310.7 149.3ZM335.8 130.6C340.7 130.6 344.2 135 344.2 140C344.2 146.9 339.1 152.3 332.8 152.3C327.9 152.3 324.4 148 324.4 143C324.5 136 329.5 130.6 335.8 130.6ZM333.2 149.3C337.2 149.3 341 145.3 341 140.4C341 136.7 338.7 133.6 335.4 133.6C331.4 133.6 327.6 137.7 327.6 142.6C327.6 146.2 329.9 149.3 333.2 149.3ZM349.9 131.4C349.9 131.1 350.2 130.8 350.5 130.8H356.8C361.5 130.8 365 135.1 365 140C365 146.5 360.1 151.9 353.9 151.9H347.6C347.3 151.9 347.1 151.6 347.2 151.3L349.9 131.4ZM353.8 149.1C358 149.1 361.5 145.3 361.5 140.2C361.5 136.5 359.3 133.7 355.9 133.7H352.5L350.3 149.1H353.8ZM367 148.9L367.9 147.8C368.2 147.4 368.6 147.4 368.9 147.7C369.4 148.1 370.7 149.5 372.7 149.5C374.6 149.5 376.1 148.1 376.1 146.3C376.1 144.7 374.9 143.7 372.8 142.5C370.6 141.2 368.6 139.5 368.6 136.6C368.6 133.8 370.8 130.5 375.4 130.5C378.1 130.5 379.9 131.9 380.3 132.2C380.5 132.4 380.7 132.8 380.3 133.2L379.5 134.3C379.2 134.7 378.7 134.8 378.4 134.5C378 134.2 376.6 133.3 375 133.3C373 133.3 371.6 135 371.6 136.4C371.6 137.8 372.6 138.8 374.5 139.8C376.9 141.2 379.4 142.9 379.4 146C379.4 149.6 376.7 152.2 372.4 152.2C369.2 152.2 367.2 150.3 366.8 149.8C366.8 149.7 366.6 149.4 367 148.9ZM384 148.1C385 148.1 385.8 148.9 385.8 149.9C385.8 151.2 384.7 152.3 383.4 152.3C382.4 152.3 381.7 151.5 381.7 150.5C381.7 149.1 382.8 148.1 384 148.1ZM400.5 130.6C403.2 130.6 405.1 131.6 406.7 133.4C406.9 133.6 406.9 134 406.6 134.2L405.4 135.3C405.2 135.5 404.8 135.6 404.5 135.3C403.6 134.3 402 133.6 400.4 133.6C396.3 133.6 392.6 137.9 392.6 142.7C392.6 146.3 394.7 149.2 398 149.2C400 149.2 401.4 148.3 402.7 147.2C403.1 146.9 403.3 146.9 403.5 147.2L404.7 148.6C404.9 148.8 404.8 149.2 404.6 149.4C402.5 151.4 400 152.3 397.8 152.3C392.6 152.3 389.2 148.1 389.2 142.7C389.1 135.8 394.2 130.6 400.5 130.6Z" fill="white"/>
<path class="logo" d="M94.7987 144.8C96.6987 144.8 98.1987 145.5 99.4987 146.6C99.6987 146.8 99.6987 147 99.4987 147.1L98.5987 148C98.3987 148.2 98.2987 148.2 98.0987 148C97.1987 147.2 95.9987 146.7 94.7987 146.7C92.0987 146.7 89.9987 149 89.9987 151.7C89.9987 154.4 92.0987 156.7 94.7987 156.7C96.3987 156.7 97.4987 156.1 97.6987 156V153H94.7987C94.5987 153 94.3987 152.8 94.3987 152.7V151.6C94.3987 151.4 94.5987 151.2 94.7987 151.2H99.3987C99.5987 151.2 99.6987 151.4 99.6987 151.6V157.1C99.6987 157.2 99.5987 157.4 99.4987 157.4C99.4987 157.4 97.4987 158.7 94.6987 158.7C90.8987 158.7 87.7987 155.6 87.7987 151.8C87.8987 147.9 90.9987 144.8 94.7987 144.8ZM99.1987 127.5C98.9987 127.4 98.6987 127.6 98.6987 127.8C96.7987 133.1 89.3987 135 83.9987 136.5C83.6987 136.6 83.3987 136.6 83.1987 136.7C82.9987 136.7 82.8987 136.6 82.8987 136.4C83.2987 134.8 84.3987 130.2 85.3987 126.8C85.4987 126.6 85.2987 126.4 85.0987 126.3L83.6987 125.8C83.4987 125.7 83.2987 125.8 83.1987 126.1V126.2C83.1987 126.3 82.9987 126.3 82.9987 126.2C82.6987 125.8 82.2987 125.4 81.7987 125.1C78.7987 123 73.9987 124.6 71.0987 128.7C69.6987 130.6 68.9987 132.8 68.9987 134.9C68.9987 137.1 69.7987 138.9 71.3987 140C71.6987 140.2 71.9987 140.4 72.3987 140.5C72.4987 140.5 72.4987 140.7 72.3987 140.8C70.4987 142 68.7987 143.4 67.3987 145C65.5987 147 63.8987 150.7 64.1987 154C64.3987 155.8 65.2987 157.3 66.4987 158.2C67.5987 159 68.7987 159.3 69.9987 159.3C71.9987 159.3 74.0987 158.4 75.5987 157.2C79.6987 153.9 80.2987 150.1 80.8987 146.4C80.9987 146.1 80.9987 145.8 81.0987 145.4C81.6987 141.8 82.1987 139.4 82.1987 139.4C82.1987 139.3 82.2987 139.2 82.3987 139.2C83.0987 139 83.7987 138.8 84.5987 138.6C90.5987 137 98.5987 134.8 100.899 128.4C100.999 128.2 100.799 127.9 100.599 127.8L99.1987 127.5ZM78.7987 145.2C78.6987 145.5 78.6987 145.9 78.5987 146.2C77.9987 149.8 77.4987 152.9 74.1987 155.6C72.3987 157 69.6987 157.9 67.8987 156.6C67.0987 156 66.5987 155.1 66.4987 153.9C66.1987 151.7 67.2987 148.7 69.0987 146.7C70.6987 144.9 72.6987 143.3 75.0987 142C76.4987 141.3 77.8987 140.7 79.4987 140.2C79.5987 140.2 79.6987 140.3 79.6987 140.4C79.3987 141.6 79.2987 142.2 78.7987 145.2ZM81.6987 131.8C81.1987 133.8 80.6987 135.9 80.2987 137.3C80.2987 137.4 80.1987 137.5 79.9987 137.6L77.8987 138.3C74.6987 139.3 73.1987 138.6 72.5987 138.2C71.6987 137.6 71.1987 136.4 71.1987 135C71.1987 133.4 71.7987 131.7 72.8987 130.1C74.9987 127.1 78.4987 125.7 80.3987 127.1C81.6987 127.9 82.1987 129.7 81.6987 131.8Z" fill="#414141"/>
<path d="M580.1 271.2H18.9C8.5 271.2 0 262.7 0 252.3V18.9C0 8.5 8.5 0 18.9 0H580.1C590.5 0 599 8.5 599 18.9V252.3C599 262.7 590.5 271.2 580.1 271.2ZM18.9 3.3C10.3 3.3 3.3 10.3 3.3 18.9V252.3C3.3 260.9 10.3 267.9 18.9 267.9H580.1C588.7 267.9 595.7 260.9 595.7 252.3V18.9C595.7 10.3 588.7 3.3 580.1 3.3H18.9Z" fill="#6E6F71"/>
<path opacity="0.44" d="M42.6992 42.2002H556.099V71.9002H42.6992V42.2002ZM42.7992 212.1H211.399V227.2H42.7992V212.1ZM254.899 212.1H392.099V227.2H254.899V212.1ZM433.399 212.1H556.099V227.2H433.399V212.1Z" fill="#DDDDDD"/>
<mask id="mask0_2833_2871" style="mask-type:luminance" maskUnits="userSpaceOnUse" x="405" y="57" width="170" height="170">
<path d="M489.902 226.7C536.735 226.7 574.702 188.734 574.702 141.9C574.702 95.0663 536.735 57.1001 489.902 57.1001C443.068 57.1001 405.102 95.0663 405.102 141.9C405.102 188.734 443.068 226.7 489.902 226.7Z" fill="white"/>
</mask>
<g mask="url(#mask0_2833_2871)">
<path d="M367.102 78.9001H595.002V204.8H367.102V78.9001Z" fill="#414141"/>
<path d="M407.802 125C407.902 124.6 408.202 124.3 408.602 124.3H409.302C409.702 124.3 409.902 124.5 410.002 124.8L415.602 148.3H415.702L428.102 124.8C428.202 124.5 428.502 124.3 428.902 124.3H429.602C429.902 124.3 430.302 124.6 430.302 125L431.002 156.5C431.002 157.2 430.702 157.6 430.102 157.6H426.902C426.502 157.6 426.102 157.3 426.102 156.7L426.402 136.7H426.302L415.602 157.6C415.502 157.9 415.202 158.1 414.802 158.1H414.002C413.602 158.1 413.402 157.9 413.302 157.6L408.802 136.7H408.602L403.002 156.9C402.902 157.4 402.402 157.7 402.102 157.7H398.902C398.302 157.7 398.102 157.3 398.202 156.6L407.802 125ZM435.102 156.4L447.802 125.4C447.902 125.1 448.202 124.8 448.602 124.8H451.002C451.602 124.8 451.902 125.3 451.602 126L439.002 157C438.902 157.3 438.602 157.6 438.202 157.6H435.702C435.102 157.6 434.802 157.1 435.102 156.4ZM457.602 135.6H453.302C452.902 135.6 452.602 135.2 452.702 134.7L453.202 131.6C453.202 131.4 453.502 131 453.702 130.9L460.602 125.7H465.102C465.502 125.7 465.802 126.1 465.702 126.6L461.502 156.7C461.502 157.2 461.002 157.6 460.602 157.6H455.302C454.802 157.6 454.502 157.2 454.602 156.7L457.602 135.6ZM466.802 156.7L466.902 155.8L479.402 139.9C481.402 137.3 482.002 135.9 482.002 134.6C482.002 132.7 480.502 131.8 479.102 131.8C477.202 131.8 475.702 133.2 474.902 134.1C474.502 134.5 474.002 134.5 473.702 134.1L471.002 131C470.702 130.7 470.802 130.2 471.102 129.8C471.102 129.8 474.402 125.3 480.202 125.3C485.702 125.3 489.002 128.8 489.002 133.9C489.002 136.6 487.302 140 485.102 142.9L478.602 151.7H485.302C485.702 151.7 486.002 152.1 486.002 152.6L485.402 156.8C485.402 157.3 484.902 157.7 484.502 157.7H467.402C467.002 157.6 466.702 157.2 466.802 156.7ZM490.302 152.7L493.202 149.9C493.502 149.6 494.002 149.6 494.302 149.9C494.502 150.1 496.202 151.8 498.202 151.8C500.802 151.8 502.302 149.9 502.302 147.6C502.302 145.8 500.802 144.2 498.302 144.2H496.002C495.602 144.2 495.302 143.8 495.302 143.3L495.802 139.4C495.802 138.9 496.202 138.5 496.702 138.5H499.102C502.002 138.5 503.702 136.7 503.702 134.4C503.702 132.7 502.702 131.4 501.202 131.4C499.402 131.4 498.302 132.6 497.602 133.3C497.302 133.7 496.802 133.7 496.502 133.3L493.902 130.2C493.602 129.9 493.702 129.3 494.102 129C495.102 128.1 497.902 125.2 502.802 125.2C507.302 125.2 511.102 128.3 511.102 132.7C511.102 137 507.902 140.2 505.602 141.3V141.4C507.302 142.2 509.702 144.6 509.702 148.2C509.702 153.7 505.702 158 498.402 158C493.502 158 490.802 155 490.002 153.8C489.802 153.5 490.002 153 490.302 152.7ZM512.302 150.1L513.002 145.1L530.302 125.4C530.402 125.3 530.602 125.1 531.002 125.1H534.502C534.902 125.1 535.302 125.5 535.202 126L532.602 145.2H535.902C536.302 145.2 536.602 145.6 536.602 146L536.002 150C536.002 150.5 535.502 150.9 535.102 150.9H531.802L531.002 156.7C531.002 157.2 530.502 157.6 530.102 157.6H524.902C524.502 157.6 524.102 157.2 524.202 156.7L525.002 151H513.002C512.602 151 512.302 150.5 512.302 150.1ZM525.902 145.2L527.102 136.8L519.902 145.2H525.902Z" fill="white"/>
</g>
<path class="circle" d="M489.9 232.3C440.1 232.3 399.5 191.7 399.5 141.9C399.5 92.1 440.1 51.5 489.9 51.5C539.7 51.5 580.3 92.1 580.3 141.9C580.3 191.7 539.8 232.3 489.9 232.3ZM489.9 62.6C446.2 62.6 410.7 98.1 410.7 141.8C410.7 185.5 446.2 221 489.9 221C533.6 221 569.1 185.5 569.1 141.8C569.2 98.2 533.6 62.6 489.9 62.6Z" fill="#1565C0"/>
</svg>
