<svg width="302" height="137" viewBox="0 0 302 137" fill="none" xmlns="http://www.w3.org/2000/svg">
<path d="M62.3654 51.123H21.5273V91.9611H280.32V51.123H62.3654ZM60.0966 90.3982H23.0903V52.7364H60.0966V90.3982Z" fill="#E0E1E1"/>
<path d="M86.7179 65.8449C88.0792 65.8449 89.0371 66.349 89.8438 67.2565C89.9446 67.3574 89.9446 67.559 89.7934 67.6599L89.1884 68.2145C89.0875 68.3153 88.8859 68.3657 88.7346 68.2145C88.2809 67.7103 87.4742 67.307 86.6675 67.307C84.6004 67.307 82.735 69.4245 82.735 71.7941C82.735 73.6091 83.7937 75.1721 85.4575 75.1721C86.4154 75.1721 87.2725 74.7687 87.4238 74.6679L87.6758 72.9537H86.4154C86.2642 72.9537 86.1633 72.8529 86.2137 72.7016L86.3146 71.8445C86.3146 71.6933 86.4658 71.542 86.6171 71.542H89.138C89.2388 71.542 89.3396 71.6428 89.3396 71.7941L88.8354 75.525C88.785 75.6762 88.7346 75.7267 88.6842 75.7771C88.6842 75.7771 87.1717 76.7854 85.155 76.7854C82.6845 76.7854 80.9199 74.6679 80.9199 72.0462C80.9703 68.4666 83.4912 65.8449 86.7179 65.8449ZM92.5159 66.2482C92.5159 66.0969 92.6672 65.9457 92.8184 65.9457H96.5997C98.1122 65.9457 99.171 67.307 99.171 68.7691C99.171 70.3824 98.1627 71.8445 96.6501 72.2983L98.0114 76.1804C98.1122 76.3821 98.0114 76.5837 97.7593 76.5837H96.5997C96.4485 76.5837 96.3476 76.4829 96.2972 76.3821L95.188 72.4495H93.1713L92.6167 76.3317C92.6167 76.4829 92.4655 76.6342 92.3142 76.6342H91.2555C91.1042 76.6342 91.0034 76.4829 91.0538 76.3317L92.5159 66.2482ZM95.7426 71.1387C96.6501 71.1387 97.5577 70.1807 97.5577 69.0211C97.5577 68.164 97.0031 67.4582 96.2468 67.4582H93.9276L93.4234 71.1387H95.7426ZM101.894 66.2482C101.894 66.0969 102.045 65.9457 102.196 65.9457H107.692C107.843 65.9457 107.944 66.0969 107.893 66.2482L107.792 67.1053C107.792 67.2565 107.641 67.4078 107.49 67.4078H103.255L102.801 70.5337H106.33C106.482 70.5337 106.582 70.6849 106.532 70.8362L106.431 71.6933C106.381 71.8445 106.28 71.9958 106.129 71.9958H102.599L102.146 75.2729H106.381C106.532 75.2729 106.633 75.4241 106.582 75.5754L106.482 76.4325C106.482 76.5838 106.33 76.735 106.179 76.735H100.684C100.532 76.735 100.431 76.5838 100.482 76.4325L101.894 66.2482ZM107.49 76.2308L113.137 65.9961C113.187 65.8953 113.237 65.8449 113.389 65.8449H113.54C113.641 65.8449 113.742 65.9457 113.742 65.9961L116.515 76.2308C116.565 76.4325 116.414 76.6342 116.212 76.6342H115.305C115.103 76.6342 115.002 76.5333 115.002 76.3821L114.447 74.2646H110.263L109.103 76.3821C109.053 76.4829 108.902 76.6342 108.7 76.6342H107.641C107.439 76.6342 107.339 76.4325 107.49 76.2308ZM114.044 73.0041L113.036 68.8195H112.985L110.817 73.0041H114.044ZM120.044 67.4078H117.876C117.725 67.4078 117.624 67.2565 117.674 67.1053L117.775 66.2482C117.775 66.0969 117.926 65.9457 118.078 65.9457H124.027C124.178 65.9457 124.279 66.0969 124.228 66.2482L124.128 67.1053C124.128 67.2565 123.976 67.4078 123.825 67.4078H121.657L120.397 76.3317C120.397 76.4829 120.245 76.6342 120.094 76.6342H118.985C118.834 76.6342 118.733 76.4829 118.733 76.3317L120.044 67.4078ZM125.842 66.2482C125.842 66.0969 125.993 65.9457 126.144 65.9457H131.64C131.791 65.9457 131.892 66.0969 131.841 66.2482L131.741 67.1053C131.741 67.2565 131.589 67.4078 131.438 67.4078H127.203L126.749 70.5337H130.279C130.43 70.5337 130.531 70.6849 130.48 70.8362L130.379 71.6933C130.329 71.8445 130.228 71.9958 130.077 71.9958H126.548L126.094 75.2729H130.329C130.48 75.2729 130.581 75.4241 130.531 75.5754L130.43 76.4325C130.43 76.5838 130.279 76.735 130.127 76.735H124.632C124.481 76.735 124.38 76.5838 124.43 76.4325L125.842 66.2482ZM134.161 66.2482C134.161 66.0969 134.312 65.9457 134.463 65.9457H138.244C139.757 65.9457 140.816 67.307 140.816 68.7691C140.816 70.3824 139.807 71.8445 138.295 72.2983L139.656 76.1804C139.757 76.3821 139.656 76.5837 139.404 76.5837H138.244C138.093 76.5837 137.992 76.4829 137.942 76.3821L136.833 72.4495H134.816L134.261 76.3317C134.261 76.4829 134.11 76.6342 133.959 76.6342H132.9C132.749 76.6342 132.648 76.4829 132.699 76.3317L134.161 66.2482ZM137.387 71.1387C138.295 71.1387 139.202 70.1807 139.202 69.0211C139.202 68.164 138.648 67.4582 137.892 67.4582H135.572L135.068 71.1387H137.387ZM147.874 65.8449C149.235 65.8449 150.193 66.349 151 67.2565C151.101 67.3574 151.101 67.559 150.95 67.6599L150.345 68.2145C150.244 68.3153 150.042 68.3657 149.891 68.2145C149.437 67.7103 148.63 67.307 147.824 67.307C145.757 67.307 143.891 69.4245 143.891 71.7941C143.891 73.6091 144.95 75.1721 146.614 75.1721C147.572 75.1721 148.429 74.7687 148.58 74.6679L148.832 72.9537H147.572C147.42 72.9537 147.32 72.8529 147.37 72.7016L147.471 71.8445C147.471 71.6933 147.622 71.542 147.773 71.542H150.294C150.395 71.542 150.496 71.6428 150.496 71.7941L149.992 75.525C149.941 75.6762 149.891 75.7267 149.84 75.7771C149.84 75.7771 148.328 76.7854 146.311 76.7854C143.841 76.7854 142.076 74.6679 142.076 72.0462C142.127 68.4666 144.647 65.8449 147.874 65.8449ZM157.958 65.8449C160.428 65.8449 162.193 68.0632 162.193 70.5841C162.193 74.0629 159.621 76.7854 156.445 76.7854C153.975 76.7854 152.21 74.6175 152.21 72.0966C152.21 68.5674 154.781 65.8449 157.958 65.8449ZM156.647 75.2729C158.664 75.2729 160.579 73.2562 160.579 70.7857C160.579 68.9203 159.42 67.3574 157.756 67.3574C155.739 67.3574 153.823 69.4245 153.823 71.8949C153.823 73.71 154.983 75.2729 156.647 75.2729ZM169.302 65.8449C171.772 65.8449 173.537 68.0632 173.537 70.5841C173.537 74.0629 170.965 76.7854 167.789 76.7854C165.319 76.7854 163.554 74.6175 163.554 72.0966C163.604 68.5674 166.125 65.8449 169.302 65.8449ZM167.991 75.2729C170.007 75.2729 171.923 73.2562 171.923 70.7857C171.923 68.9203 170.764 67.3574 169.1 67.3574C167.083 67.3574 165.167 69.4245 165.167 71.8949C165.167 73.71 166.327 75.2729 167.991 75.2729ZM176.41 66.2482C176.41 66.0969 176.562 65.9457 176.713 65.9457H179.889C182.259 65.9457 184.023 68.1136 184.023 70.5841C184.023 73.8612 181.553 76.5837 178.427 76.5837H175.251C175.1 76.5837 174.999 76.4325 175.049 76.2812L176.41 66.2482ZM178.377 75.1721C180.494 75.1721 182.259 73.2562 182.259 70.6849C182.259 68.8195 181.15 67.4078 179.435 67.4078H177.721L176.612 75.1721H178.377ZM185.032 75.0712L185.486 74.5166C185.637 74.315 185.838 74.315 185.99 74.4662C186.242 74.6679 186.897 75.3737 187.906 75.3737C188.864 75.3737 189.62 74.6679 189.62 73.7604C189.62 72.9537 189.015 72.4495 187.956 71.8445C186.847 71.1891 185.838 70.332 185.838 68.8699C185.838 67.4582 186.948 65.7944 189.267 65.7944C190.628 65.7944 191.536 66.5003 191.737 66.6515C191.838 66.7524 191.939 66.954 191.737 67.1557L191.334 67.7103C191.183 67.912 190.931 67.9624 190.779 67.8111C190.578 67.6599 189.872 67.2061 189.065 67.2061C188.057 67.2061 187.351 68.0632 187.351 68.7691C187.351 69.4749 187.855 69.9791 188.813 70.4833C190.023 71.1891 191.284 72.0462 191.284 73.6091C191.284 75.4242 189.922 76.735 187.754 76.735C186.141 76.735 185.133 75.7771 184.931 75.525C184.931 75.4746 184.83 75.3233 185.032 75.0712ZM193.603 74.6679C194.107 74.6679 194.51 75.0712 194.51 75.5754C194.51 76.2308 193.956 76.7854 193.3 76.7854C192.796 76.7854 192.443 76.3821 192.443 75.8779C192.443 75.1721 192.998 74.6679 193.603 74.6679ZM201.922 65.8449C203.283 65.8449 204.241 66.349 205.047 67.2565C205.148 67.3574 205.148 67.559 204.997 67.6599L204.392 68.2145C204.291 68.3153 204.09 68.3657 203.938 68.2145C203.485 67.7103 202.678 67.3574 201.871 67.3574C199.804 67.3574 197.939 69.5253 197.939 71.9454C197.939 73.7604 198.997 75.2225 200.661 75.2225C201.67 75.2225 202.375 74.7687 203.031 74.2141C203.232 74.0629 203.333 74.0629 203.434 74.2141L204.039 74.92C204.14 75.0208 204.09 75.2225 203.989 75.3233C202.93 76.3317 201.67 76.7854 200.56 76.7854C197.939 76.7854 196.224 74.6679 196.224 71.9454C196.174 68.4666 198.745 65.8449 201.922 65.8449Z" fill="#222D39"/>
<path d="M47.7948 73.0042C48.7527 73.0042 49.509 73.3572 50.1644 73.9118C50.2652 74.0126 50.2652 74.1134 50.1644 74.1638L49.7106 74.6176C49.6098 74.7184 49.5594 74.7184 49.4585 74.6176C49.0048 74.2143 48.3998 73.9622 47.7948 73.9622C46.4335 73.9622 45.3747 75.1218 45.3747 76.483C45.3747 77.8443 46.4335 79.0039 47.7948 79.0039C48.6014 79.0039 49.156 78.7014 49.2569 78.651V77.1385H47.7948C47.6939 77.1385 47.5931 77.0376 47.5931 76.9872V76.4326C47.5931 76.3318 47.6939 76.2309 47.7948 76.2309H50.114C50.2148 76.2309 50.2652 76.3318 50.2652 76.4326V79.2056C50.2652 79.256 50.2148 79.3568 50.1644 79.3568C50.1644 79.3568 49.156 80.0122 47.7443 80.0122C45.8285 80.0122 44.2656 78.4493 44.2656 76.5335C44.316 74.5672 45.8789 73.0042 47.7948 73.0042ZM50.0131 64.282C49.9123 64.2316 49.761 64.3325 49.761 64.4333C48.8031 67.1054 45.0722 68.0633 42.3497 68.8196C42.1984 68.87 42.0472 68.87 41.9464 68.9204C41.8455 68.9204 41.7951 68.87 41.7951 68.7692C41.9968 67.9625 42.5514 65.6433 43.0555 63.9291C43.106 63.8283 43.0051 63.7274 42.9043 63.677L42.1984 63.4249C42.0976 63.3745 41.9968 63.4249 41.9464 63.5762V63.6266C41.9464 63.677 41.8455 63.677 41.8455 63.6266C41.6943 63.4249 41.4926 63.2233 41.2405 63.072C39.728 62.0133 37.308 62.8199 35.8459 64.887C35.14 65.845 34.7871 66.9541 34.7871 68.0129C34.7871 69.1221 35.1904 70.0296 35.9971 70.5842C36.1484 70.685 36.2996 70.7859 36.5013 70.8363C36.5517 70.8363 36.5517 70.9371 36.5013 70.9875C35.5433 71.5926 34.6863 72.2984 33.9804 73.1051C33.0729 74.1134 32.2158 75.9789 32.3671 77.6426C32.4679 78.5501 32.9216 79.3064 33.5267 79.7602C34.0812 80.1635 34.6863 80.3148 35.2913 80.3148C36.2996 80.3148 37.3584 79.861 38.1146 79.256C40.1817 77.5922 40.4843 75.6764 40.7868 73.8109C40.8372 73.6597 40.8372 73.5084 40.8876 73.3067C41.1901 71.4917 41.4422 70.2817 41.4422 70.2817C41.4422 70.2313 41.4926 70.1809 41.543 70.1809C41.8959 70.08 42.2489 69.9792 42.6522 69.8784C45.6772 69.0717 49.7106 67.9625 50.8702 64.7358C50.9206 64.635 50.8198 64.4837 50.719 64.4333L50.0131 64.282ZM39.728 73.2059C39.6776 73.3572 39.6776 73.5588 39.6272 73.7101C39.3246 75.5251 39.0726 77.088 37.4088 78.4493C36.5013 79.1552 35.14 79.6089 34.2325 78.9535C33.8292 78.651 33.5771 78.1972 33.5267 77.5922C33.3754 76.483 33.93 74.9705 34.8375 73.9622C35.6442 73.0547 36.6525 72.248 37.8625 71.5926C38.5684 71.2396 39.2742 70.9371 40.0809 70.685C40.1313 70.685 40.1817 70.7355 40.1817 70.7859C40.0305 71.3909 39.9801 71.6934 39.728 73.2059ZM41.1901 66.45C40.938 67.4583 40.6859 68.5171 40.4843 69.2229C40.4843 69.2734 40.4338 69.3238 40.333 69.3742L39.2742 69.7271C37.6609 70.2313 36.9046 69.8784 36.6021 69.6767C36.1484 69.3742 35.8963 68.7692 35.8963 68.0633C35.8963 67.2567 36.1988 66.3996 36.7534 65.5929C37.8121 64.0804 39.5767 63.3745 40.5347 64.0804C41.1901 64.4837 41.4422 65.3912 41.1901 66.45Z" fill="#E0E1E1"/>
<path d="M292.471 136.732H9.52888C4.28548 136.732 0 132.446 0 127.203V9.52888C0 4.28548 4.28548 0 9.52888 0H292.471C297.715 0 302 4.28548 302 9.52888V127.203C302 132.446 297.715 136.732 292.471 136.732ZM9.52888 1.66377C5.19299 1.66377 1.66377 5.19299 1.66377 9.52888V127.203C1.66377 131.539 5.19299 135.068 9.52888 135.068H292.471C296.807 135.068 300.336 131.539 300.336 127.203V9.52888C300.336 5.19299 296.807 1.66377 292.471 1.66377H9.52888Z" fill="#E0E1E1"/>
<path opacity="0.44" d="M21.5273 21.2764H280.37V36.2503H21.5273V21.2764ZM21.5778 106.935H106.581V114.548H21.5778V106.935ZM128.513 106.935H197.686V114.548H128.513V106.935ZM218.508 106.935H280.37V114.548H218.508V106.935Z" fill="#565F68"/>
<mask id="mask0_24680_244144" style="mask-type:luminance" maskUnits="userSpaceOnUse" x="204" y="28" width="86" height="87">
<path d="M246.995 114.296C270.607 114.296 289.749 95.1548 289.749 71.5425C289.749 47.9302 270.607 28.7886 246.995 28.7886C223.383 28.7886 204.241 47.9302 204.241 71.5425C204.241 95.1548 223.383 114.296 246.995 114.296Z" fill="white"/>
</mask>
<g mask="url(#mask0_24680_244144)">
<path d="M185.082 39.7798H299.983V103.255H185.082V39.7798Z" fill="#E0E1E1"/>
<path d="M205.601 63.0224C205.652 62.8207 205.803 62.6694 206.005 62.6694H206.358C206.559 62.6694 206.66 62.7703 206.711 62.9215L209.534 74.7696H209.584L215.836 62.9215C215.887 62.7703 216.038 62.6694 216.24 62.6694H216.592C216.744 62.6694 216.945 62.8207 216.945 63.0224L217.298 78.9038C217.298 79.2567 217.147 79.4584 216.845 79.4584H215.231C215.03 79.4584 214.828 79.3072 214.828 79.0047L214.979 68.9212H214.929L209.534 79.4584C209.484 79.6097 209.332 79.7105 209.131 79.7105H208.727C208.526 79.7105 208.425 79.6097 208.374 79.4584L206.106 68.9212H206.005L203.181 79.1055C203.131 79.3576 202.879 79.5088 202.728 79.5088H201.114C200.812 79.5088 200.711 79.3072 200.761 78.9542L205.601 63.0224ZM219.365 78.8534L225.768 63.224C225.819 63.0728 225.97 62.9215 226.172 62.9215H227.382C227.684 62.9215 227.836 63.1736 227.684 63.5265L221.332 79.1559C221.281 79.3072 221.13 79.4584 220.928 79.4584H219.668C219.365 79.4584 219.214 79.2063 219.365 78.8534ZM230.709 68.3666H228.541C228.34 68.3666 228.188 68.1649 228.239 67.9128L228.491 66.3499C228.491 66.2491 228.642 66.0474 228.743 65.997L232.222 63.3753H234.491C234.692 63.3753 234.844 63.5769 234.793 63.829L232.676 79.0047C232.676 79.2567 232.424 79.4584 232.222 79.4584H229.55C229.298 79.4584 229.146 79.2567 229.197 79.0047L230.709 68.3666ZM235.348 79.0047L235.398 78.5509L241.7 70.5345C242.709 69.2237 243.011 68.5178 243.011 67.8624C243.011 66.9045 242.255 66.4507 241.549 66.4507C240.591 66.4507 239.835 67.1566 239.432 67.6103C239.23 67.812 238.978 67.812 238.827 67.6103L237.465 66.0474C237.314 65.8961 237.364 65.6441 237.516 65.4424C237.516 65.4424 239.179 63.1736 242.104 63.1736C244.877 63.1736 246.54 64.9382 246.54 67.5095C246.54 68.8708 245.683 70.585 244.574 72.0471L241.297 76.4838H244.675C244.877 76.4838 245.028 76.6855 245.028 76.9375L244.725 79.0551C244.725 79.3072 244.473 79.5088 244.272 79.5088H235.65C235.449 79.4584 235.297 79.2567 235.348 79.0047ZM247.196 76.988L248.658 75.5763C248.809 75.425 249.061 75.425 249.212 75.5763C249.313 75.6771 250.17 76.5342 251.179 76.5342C252.49 76.5342 253.246 75.5763 253.246 74.4167C253.246 73.5092 252.49 72.7025 251.229 72.7025H250.07C249.868 72.7025 249.717 72.5008 249.717 72.2487L249.969 70.2825C249.969 70.0304 250.17 69.8287 250.423 69.8287H251.633C253.095 69.8287 253.952 68.9212 253.952 67.7616C253.952 66.9045 253.448 66.2491 252.691 66.2491C251.784 66.2491 251.229 66.8541 250.876 67.207C250.725 67.4087 250.473 67.4087 250.322 67.207L249.011 65.6441C248.86 65.4928 248.91 65.1903 249.112 65.039C249.616 64.5853 251.028 63.1232 253.498 63.1232C255.767 63.1232 257.683 64.6861 257.683 66.9045C257.683 69.0724 256.069 70.6858 254.91 71.2404V71.2908C255.767 71.6941 256.977 72.9042 256.977 74.7192C256.977 77.4921 254.96 79.6601 251.28 79.6601C248.809 79.6601 247.448 78.1476 247.045 77.5426C246.944 77.3913 247.045 77.1392 247.196 76.988ZM258.288 75.6771L258.641 73.1562L267.363 63.224C267.413 63.1736 267.514 63.0728 267.716 63.0728H269.48C269.682 63.0728 269.884 63.2744 269.833 63.5265L268.522 73.2067H270.186C270.388 73.2067 270.539 73.4083 270.539 73.61L270.237 75.6267C270.237 75.8788 269.984 76.0804 269.783 76.0804H268.119L267.716 79.0047C267.716 79.2567 267.464 79.4584 267.262 79.4584H264.64C264.439 79.4584 264.237 79.2567 264.287 79.0047L264.691 76.1309H258.641C258.439 76.1309 258.288 75.8788 258.288 75.6771ZM265.144 73.2067L265.749 68.9716L262.119 73.2067H265.144Z" fill="#222D39"/>
</g>
<path d="M246.994 117.119C221.886 117.119 201.417 96.65 201.417 71.5421C201.417 46.4343 221.886 25.9648 246.994 25.9648C272.102 25.9648 292.572 46.4343 292.572 71.5421C292.572 96.65 272.153 117.119 246.994 117.119ZM246.994 31.5612C224.962 31.5612 207.064 49.4593 207.064 71.4917C207.064 93.5241 224.962 111.422 246.994 111.422C269.027 111.422 286.925 93.5241 286.925 71.4917C286.975 49.5098 269.027 31.5612 246.994 31.5612Z" fill="#2B8AEB"/>
</svg>
