<svg width="40" height="40" viewBox="0 0 40 40" fill="none" xmlns="http://www.w3.org/2000/svg">
<path d="M13.9997 12C15.1042 12 15.9997 12.8954 15.9997 14C15.9997 14.6877 15.6522 15.2934 15.1237 15.6533C15.2112 16.1239 15.3588 16.6131 15.6178 17.0664C16.0347 17.7958 16.802 18.5434 18.363 18.8516C18.7248 18.3368 19.3227 18.0001 19.9997 18C20.8154 18 21.5157 18.4891 21.8268 19.1895C22.6753 19.376 23.4035 19.6924 24.0231 20.1055C25.0426 20.7851 25.7099 21.6841 26.1442 22.5527C26.4203 23.1049 26.6056 23.6525 26.7311 24.1396C27.4737 24.4318 27.9997 25.1538 27.9997 26C27.9997 27.1046 27.1042 28 25.9997 28C24.8952 27.9999 23.9997 27.1045 23.9997 26C23.9997 25.3724 24.2886 24.812 24.7409 24.4453C24.648 24.1256 24.5238 23.7845 24.3551 23.4473C24.0395 22.8159 23.5817 22.2149 22.9137 21.7695C22.5594 21.5333 22.1282 21.3318 21.6012 21.1934C21.2366 21.6819 20.6562 22 19.9997 22C19.2009 21.9999 18.5135 21.5306 18.193 20.8535C15.9964 20.4763 14.648 19.3999 13.8815 18.0586C13.4485 17.3008 13.2281 16.5002 13.1159 15.792C12.4552 15.4655 11.9997 14.7868 11.9997 14C11.9997 12.8955 12.8952 12.0001 13.9997 12Z" fill="#2C2827"/>
<path fill-rule="evenodd" clip-rule="evenodd" d="M25.0163 7C27.1587 7.03581 29.2064 7.89299 30.7057 9.39258C32.2019 10.8892 33.0302 12.9048 32.9987 15V24.9824L32.9948 25.376C32.9281 27.3354 32.1117 29.2014 30.7048 30.6084C29.2052 32.1078 27.1578 32.9645 25.0153 33H14.9841C12.8415 32.9644 10.7942 32.1079 9.2946 30.6084C7.79389 29.1076 6.96434 27.0841 7.00066 24.9824V15C6.96917 12.9045 7.798 10.8883 9.2946 9.3916C10.7942 7.89214 12.8415 7.03555 14.9841 7H25.0163ZM14.7116 9.0127C13.1913 9.11099 11.7638 9.75059 10.7087 10.8057C9.58431 11.9301 8.97397 13.4333 9.00066 14.9824V25.0176C8.97397 26.5667 9.58431 28.0699 10.7087 29.1943C11.8342 30.3198 13.3836 30.9729 15.0173 31H24.9821C26.6158 30.9729 28.1651 30.3198 29.2907 29.1943C30.4151 28.0699 31.0254 26.5667 30.9987 25.0176V14.9824C31.0254 13.4334 30.4149 11.9311 29.2907 10.8066C28.2357 9.75152 26.809 9.11117 25.2887 9.0127L24.9831 9H15.0173L14.7116 9.0127Z" fill="#2C2827"/>
</svg>
