<svg width="32" height="32" viewBox="0 0 32 32" fill="none" xmlns="http://www.w3.org/2000/svg">
<path fill-rule="evenodd" clip-rule="evenodd" d="M16 4.33333C9.55668 4.33333 4.33333 9.55668 4.33333 16C4.33333 22.4433 9.55668 27.6667 16 27.6667C22.4433 27.6667 27.6667 22.4433 27.6667 16C27.6667 9.55668 22.4433 4.33333 16 4.33333ZM2 16C2 8.26801 8.26801 2 16 2C23.732 2 30 8.26801 30 16C30 23.732 23.732 30 16 30C8.26801 30 2 23.732 2 16ZM9.33333 16C9.33333 15.3557 9.85567 14.8333 10.5 14.8333L21.5 14.8333C22.1443 14.8333 22.6667 15.3557 22.6667 16C22.6667 16.6443 22.1443 17.1667 21.5 17.1667L10.5 17.1667C9.85567 17.1667 9.33333 16.6443 9.33333 16Z" fill="#1565C0"/>
</svg>
