<svg width="212" height="212" viewBox="0 0 212 212" fill="none" xmlns="http://www.w3.org/2000/svg">
<g filter="url(#filter0_d_8315_283822)">
<path d="M175 16H36.9997C25.4019 16 16 25.4019 16 36.9997V175C16 186.598 25.4019 196 36.9997 196H175C186.598 196 196 186.598 196 175V36.9997C196 25.4019 186.598 16 175 16Z" fill="#171818"/>
<path d="M175 17.5H36.9997C26.2303 17.5 17.5 26.2303 17.5 36.9997V175C17.5 185.77 26.2303 194.5 36.9997 194.5H175C185.77 194.5 194.5 185.77 194.5 175V36.9997C194.5 26.2303 185.77 17.5 175 17.5Z" fill="#171818" stroke="#040000" stroke-width="1.46" stroke-miterlimit="10"/>
<g opacity="0.4">
<path d="M118.155 71.5659L113.634 71.6922C110.387 71.7823 107.801 74.441 107.801 77.6892V124.9H188.5C191.814 124.9 194.5 122.214 194.5 118.9V36.9997C194.5 26.2298 185.77 17.5 175.001 17.5H129.988C126.675 17.5 123.988 20.1863 123.988 23.4999V65.5689C123.988 68.8172 121.402 71.4759 118.155 71.5659Z" fill="#20242D"/>
<path d="M104.199 124.9V77.6892C104.199 74.441 101.613 71.7823 98.3665 71.6922L93.8448 71.5659C90.598 71.4759 88.0119 68.8172 88.0119 65.5689V23.4999C88.0119 20.1863 85.3256 17.5 82.012 17.5H36.9997C26.2298 17.5 17.5 26.2298 17.5 36.9997V118.9C17.5 122.214 20.1863 124.9 23.4999 124.9H104.199Z" fill="#20242D"/>
<path d="M107.801 128.5V188.5C107.801 191.814 110.487 194.5 113.801 194.5H175.001C185.77 194.5 194.5 185.771 194.5 175.001V134.501C194.5 131.188 191.814 128.501 188.5 128.501H107.801V128.5Z" fill="#20242D"/>
<path d="M104.199 128.5H23.4999C20.1863 128.5 17.5 131.186 17.5 134.499V174.999C17.5 185.769 26.2298 194.498 36.9997 194.498H98.1996C101.513 194.498 104.199 191.812 104.199 188.499V128.498V128.5Z" fill="#20242D"/>
</g>
<path d="M112 132.099C114.983 132.099 117.4 129.682 117.4 126.699C117.4 123.717 114.983 121.299 112 121.299H100C97.0178 121.299 94.6001 123.717 94.6001 126.699C94.6001 129.682 97.0178 132.099 100 132.099H112Z" fill="url(#paint0_linear_8315_283822)"/>
<path d="M100 131.499C97.3531 131.499 95.1997 129.346 95.1997 126.699C95.1997 124.052 97.3531 121.898 100 121.898H112C114.647 121.898 116.801 124.052 116.801 126.699C116.801 129.346 114.647 131.499 112 131.499H100Z" fill="#D0D0D0"/>
<path d="M107.767 127.169C107.998 127.165 108.219 127.248 108.389 127.4C108.409 127.419 108.44 127.419 108.459 127.4L108.637 127.222C108.658 127.201 108.658 127.169 108.637 127.149C108.371 126.904 108.017 126.785 107.648 126.824C107.07 126.885 106.603 127.346 106.536 127.924C106.445 128.71 107.084 129.375 107.862 129.329C108.138 129.313 108.399 129.198 108.613 129.021C108.639 128.999 108.655 128.966 108.655 128.931V128.019C108.655 127.991 108.631 127.968 108.604 127.968H107.751C107.724 127.968 107.701 127.99 107.701 128.019V128.271C107.701 128.299 107.722 128.322 107.751 128.322H108.251C108.279 128.322 108.302 128.344 108.302 128.373V128.754C108.302 128.796 108.28 128.833 108.244 128.855C108.106 128.937 107.947 128.98 107.785 128.98C107.271 128.98 106.856 128.549 106.882 128.028C106.906 127.558 107.298 127.18 107.767 127.171V127.169Z" fill="#A3A2A2"/>
<path d="M108.784 124.559L108.541 124.489C108.515 124.482 108.489 124.496 108.48 124.522C108.206 125.344 107.062 125.651 106.222 125.876L106.085 125.912C106.066 125.918 106.048 125.9 106.053 125.882C106.118 125.619 106.375 124.636 106.443 124.396C106.45 124.37 106.436 124.344 106.411 124.335L106.17 124.257C106.144 124.248 106.115 124.262 106.106 124.29C106.103 124.297 106.102 124.305 106.099 124.313C106.095 124.329 106.073 124.334 106.063 124.319C106.013 124.252 105.954 124.194 105.884 124.146C105.419 123.821 104.682 124.068 104.24 124.698C103.799 125.328 103.818 126.107 104.284 126.432C104.322 126.458 104.37 126.486 104.431 126.512C104.451 126.52 104.454 126.549 104.435 126.561C104.145 126.745 103.889 126.962 103.673 127.207C103.398 127.521 103.13 128.084 103.188 128.582C103.22 128.852 103.349 129.089 103.545 129.233C103.709 129.353 103.893 129.404 104.081 129.404C104.39 129.404 104.705 129.266 104.945 129.075C105.568 128.577 105.662 127.987 105.752 127.418C105.759 127.368 105.939 126.381 105.939 126.381C105.948 126.342 105.977 126.31 106.015 126.3C106.108 126.274 106.208 126.246 106.313 126.218C107.235 125.972 108.492 125.635 108.817 124.624C108.826 124.598 108.81 124.569 108.782 124.562V124.559H108.784ZM105.404 127.358C105.316 127.907 105.241 128.38 104.724 128.794C104.454 129.011 104.034 129.15 103.754 128.944C103.638 128.858 103.558 128.71 103.539 128.537C103.5 128.208 103.668 127.744 103.94 127.437C104.188 127.154 104.497 126.911 104.86 126.718C105.071 126.605 105.293 126.526 105.525 126.451C105.544 126.445 105.563 126.461 105.559 126.48C105.51 126.728 105.412 127.312 105.405 127.358H105.404ZM105.666 125.979C105.658 126.017 105.63 126.046 105.594 126.057C105.492 126.089 105.3 126.15 105.295 126.153C104.811 126.313 104.569 126.198 104.487 126.141C104.187 125.931 104.207 125.362 104.531 124.898C104.855 124.435 105.383 124.222 105.684 124.432C105.865 124.56 105.938 124.826 105.877 125.134C105.798 125.436 105.719 125.751 105.666 125.979Z" fill="#A3A2A2"/>
<path d="M116.933 24.3389H95.0675C93.296 24.3389 91.8599 25.775 91.8599 27.5465V64.5957C91.8599 66.3672 93.296 67.8033 95.0675 67.8033H116.933C118.704 67.8033 120.14 66.3672 120.14 64.5957V27.5465C120.14 25.775 118.704 24.3389 116.933 24.3389Z" fill="black"/>
<path d="M107.976 46.5976C108.235 46.5932 108.48 46.6847 108.67 46.856C108.693 46.8764 108.727 46.8764 108.749 46.856L108.947 46.6571C108.969 46.6353 108.969 46.5976 108.947 46.5772C108.65 46.3028 108.255 46.1707 107.842 46.2128C107.196 46.281 106.674 46.7979 106.6 47.4441C106.498 48.3226 107.212 49.0661 108.082 49.0138C108.391 48.9949 108.683 48.8686 108.921 48.6696C108.952 48.645 108.968 48.6072 108.968 48.5695V47.5501C108.968 47.5196 108.943 47.4935 108.911 47.4935H107.957C107.927 47.4935 107.901 47.5182 107.901 47.5501V47.8318C107.901 47.8623 107.925 47.8884 107.957 47.8884H108.516C108.547 47.8884 108.573 47.9131 108.573 47.9451V48.3705C108.573 48.417 108.548 48.4606 108.509 48.4838C108.355 48.5753 108.178 48.6232 107.996 48.6232C107.421 48.6232 106.957 48.1396 106.987 47.5588C107.015 47.0346 107.453 46.6106 107.978 46.6005V46.5976H107.976Z" fill="white"/>
<path d="M109.113 43.6775L108.842 43.599C108.813 43.5903 108.782 43.6078 108.773 43.6368C108.467 44.5559 107.188 44.8986 106.248 45.1498L106.094 45.1905C106.073 45.1963 106.054 45.1774 106.058 45.1557C106.132 44.8609 106.42 43.7631 106.495 43.4945C106.504 43.4655 106.488 43.435 106.459 43.4263L106.19 43.3377C106.16 43.3275 106.128 43.3449 106.119 43.374C106.116 43.3827 106.115 43.39 106.112 43.4001C106.106 43.419 106.083 43.4219 106.071 43.4074C106.016 43.3333 105.949 43.268 105.872 43.2142C105.352 42.8498 104.528 43.1271 104.034 43.8314C103.54 44.5356 103.562 45.4054 104.082 45.7699C104.124 45.7989 104.178 45.8309 104.246 45.8584C104.269 45.8686 104.272 45.9006 104.25 45.9136C103.925 46.1198 103.639 46.3623 103.398 46.6367C103.092 46.9867 102.791 47.6169 102.855 48.173C102.89 48.4736 103.035 48.7393 103.254 48.8991C103.437 49.0341 103.643 49.0907 103.854 49.0907C104.199 49.0907 104.552 48.9368 104.819 48.7234C105.516 48.1658 105.621 47.508 105.723 46.872C105.731 46.8168 105.933 45.7132 105.933 45.7132C105.942 45.6697 105.975 45.6348 106.019 45.6218C106.123 45.5927 106.235 45.5622 106.351 45.5317C107.382 45.2558 108.788 44.8783 109.152 43.7486C109.163 43.7181 109.144 43.6862 109.115 43.6775H109.113ZM105.334 46.8095C105.236 47.4238 105.151 47.9538 104.573 48.4155C104.271 48.658 103.802 48.8134 103.488 48.5825C103.357 48.4867 103.27 48.3211 103.247 48.128C103.203 47.7592 103.392 47.2408 103.694 46.8967C103.971 46.5801 104.319 46.31 104.724 46.0922C104.959 45.9659 105.207 45.8773 105.469 45.7931C105.489 45.7858 105.511 45.8047 105.506 45.8265C105.451 46.1038 105.342 46.7558 105.334 46.8095ZM105.625 45.266C105.615 45.3081 105.585 45.3415 105.544 45.3531C105.431 45.3894 105.216 45.4577 105.21 45.4591C104.668 45.6377 104.398 45.5085 104.307 45.4461C103.971 45.2108 103.993 44.5748 104.356 44.0564C104.719 43.5381 105.309 43.2999 105.646 43.5352C105.849 43.6775 105.93 43.9751 105.862 44.3193C105.775 44.6561 105.686 45.009 105.627 45.2646L105.625 45.266Z" fill="white"/>
<path opacity="0.1" d="M120.355 17.4995H37.0012C26.2312 17.4995 17.5015 26.2307 17.5015 36.9992V174.998C17.5015 185.768 26.2312 194.498 37.0012 194.498H81.1205L120.355 17.498V17.4995Z" fill="url(#paint1_linear_8315_283822)"/>
</g>
<defs>
<filter id="filter0_d_8315_283822" x="0" y="0" width="212" height="212" filterUnits="userSpaceOnUse" color-interpolation-filters="sRGB">
<feFlood flood-opacity="0" result="BackgroundImageFix"/>
<feColorMatrix in="SourceAlpha" type="matrix" values="0 0 0 0 0 0 0 0 0 0 0 0 0 0 0 0 0 0 127 0" result="hardAlpha"/>
<feOffset/>
<feGaussianBlur stdDeviation="8"/>
<feComposite in2="hardAlpha" operator="out"/>
<feColorMatrix type="matrix" values="0 0 0 0 1 0 0 0 0 1 0 0 0 0 1 0 0 0 0.25 0"/>
<feBlend mode="normal" in2="BackgroundImageFix" result="effect1_dropShadow_8315_283822"/>
<feBlend mode="normal" in="SourceGraphic" in2="effect1_dropShadow_8315_283822" result="shape"/>
</filter>
<linearGradient id="paint0_linear_8315_283822" x1="94.6001" y1="126.699" x2="117.4" y2="126.699" gradientUnits="userSpaceOnUse">
<stop stop-color="#BBBBBB"/>
<stop offset="1" stop-color="#828384"/>
</linearGradient>
<linearGradient id="paint1_linear_8315_283822" x1="83.4075" y1="27.6087" x2="27.8227" y2="168.256" gradientUnits="userSpaceOnUse">
<stop stop-color="white" stop-opacity="0"/>
<stop offset="1" stop-color="white" stop-opacity="0.5"/>
</linearGradient>
</defs>
</svg>
