<svg width="28" height="28" viewBox="0 0 28 28" fill="none" xmlns="http://www.w3.org/2000/svg">
<path d="M14 0C16.7689 7.54126e-07 19.476 0.821036 21.7783 2.35938C24.0805 3.89771 25.875 6.08449 26.9346 8.64258C27.9941 11.2007 28.2716 14.0158 27.7314 16.7314C27.1912 19.4471 25.8573 21.9415 23.8994 23.8994C21.9415 25.8573 19.4471 27.1912 16.7314 27.7314C14.0158 28.2716 11.2007 27.9941 8.64258 26.9346C6.08449 25.875 3.89771 24.0805 2.35938 21.7783C0.821036 19.476 7.54138e-07 16.7689 0 14C0 10.287 1.47508 6.72609 4.10059 4.10059C6.72609 1.47508 10.287 0 14 0ZM13.999 19.4727C13.585 19.4728 13.249 19.8086 13.249 20.2227V20.4121C13.2492 20.8261 13.5851 21.1619 13.999 21.1621C14.4132 21.1621 14.7489 20.8262 14.749 20.4121V20.2227C14.749 19.8084 14.4132 19.4727 13.999 19.4727ZM13.999 6.70605C13.585 6.70625 13.249 7.04196 13.249 7.45605V15.71C13.2492 16.1239 13.5851 16.4598 13.999 16.46C14.4131 16.46 14.7488 16.124 14.749 15.71V7.45605C14.749 7.04184 14.4132 6.70605 13.999 6.70605Z" fill="#1565C0"/>
</svg>
