<svg width="24" height="24" viewBox="0 0 24 24" fill="none" xmlns="http://www.w3.org/2000/svg">
<path d="M19.943 10.7942C20.3566 10.7909 20.7695 10.8343 21.1753 10.9238C21.2392 10.9385 21.2966 10.9775 21.3378 11.0343C21.379 11.091 21.4014 11.162 21.4012 11.2352V13.2675C21.4013 13.3131 21.3926 13.3582 21.3757 13.3996C21.3588 13.4411 21.3341 13.4779 21.3032 13.5076C21.2724 13.5373 21.2362 13.5592 21.1971 13.5716C21.158 13.5841 21.117 13.5869 21.0768 13.5799C20.4522 13.47 19.821 13.4142 19.1888 13.4133C18.5881 13.4128 17.9883 13.4663 17.3951 13.5733C15.9365 13.9268 14.5222 14.4805 13.1843 15.2218C11.7157 16.0441 10.1526 16.6341 8.53955 16.9751C8.07001 17.0423 7.59712 17.0757 7.12378 17.0751C5.64463 17.0631 4.17772 16.7734 2.7839 16.218C2.72859 16.1966 2.68062 16.1564 2.64667 16.1029C2.61272 16.0495 2.59449 15.9855 2.59451 15.9199V14.2533C2.59431 14.2049 2.60401 14.1571 2.62287 14.1136C2.64173 14.0701 2.66924 14.032 2.70329 14.0023C2.73733 13.9725 2.77701 13.952 2.81925 13.9422C2.8615 13.9324 2.90519 13.9335 2.94696 13.9456C4.42113 14.3821 5.93804 14.6108 7.46265 14.6266C9.75141 14.5272 11.989 13.8383 14.0022 12.6133C15.008 12.0508 16.0568 11.5909 17.1361 11.239C18.0517 10.9607 18.9945 10.8107 19.943 10.7923M19.943 10.1257C18.9443 10.1428 17.9514 10.2999 16.9875 10.5933C15.8761 10.9545 14.7959 11.4272 13.7601 12.0057C11.824 13.1865 9.67235 13.8543 7.47029 13.958C5.86317 13.9385 4.26561 13.6778 2.7202 13.1828C2.63614 13.1554 2.54755 13.1504 2.46145 13.1681C2.37535 13.1858 2.29412 13.2258 2.22421 13.2848C2.15431 13.3439 2.09764 13.4205 2.05872 13.5084C2.0198 13.5963 1.9997 13.6932 2 13.7914V16.1675C1.99972 16.2961 2.03445 16.4217 2.09956 16.5276C2.16467 16.6335 2.25705 16.7145 2.36435 16.7599C3.88575 17.3992 5.49571 17.7329 7.12038 17.7456C7.61927 17.7462 8.11767 17.7112 8.61259 17.6408C10.2831 17.2917 11.9019 16.6827 13.4221 15.8313C14.7142 15.1141 16.0795 14.5765 17.4877 14.2304C18.0493 14.1287 18.6174 14.0781 19.1863 14.079C19.9049 14.0806 20.6219 14.1562 21.3282 14.3047C21.3626 14.3119 21.3976 14.3154 21.4327 14.3152C21.5823 14.3149 21.7257 14.2481 21.8315 14.1293C21.9372 14.0106 21.9966 13.8496 21.9966 13.6818V10.9533C21.997 10.8143 21.9565 10.6791 21.8814 10.5685C21.8064 10.458 21.7009 10.3783 21.5813 10.3419C21.0452 10.1891 20.4936 10.1155 19.9404 10.1228" fill="#1565C0"/>
<path d="M14.201 5.48764C15.243 5.31145 16.1815 5.16574 17.0291 5.04574C17.2253 5.01717 17.4181 4.9905 17.6049 4.96574C19.2432 4.74383 20.5044 4.62288 21.4683 4.56098C21.6122 4.55173 21.7475 4.48104 21.8464 4.36344C21.9453 4.24583 22.0002 4.09023 22 3.9286V2.63528C22 2.5515 21.9852 2.46856 21.9565 2.39123C21.9277 2.3139 21.8856 2.24372 21.8325 2.18475C21.7795 2.12577 21.7165 2.07917 21.6473 2.04763C21.5781 2.0161 21.504 2.00025 21.4293 2.001C15.2023 2.07814 12.9814 3.39528 8.66612 3.39528C6.65079 3.34157 4.65273 2.96408 2.73296 2.27433C2.64841 2.24476 2.55883 2.2379 2.47147 2.25432C2.38412 2.27073 2.30143 2.30995 2.23008 2.36882C2.15874 2.42769 2.10074 2.50454 2.06078 2.59318C2.02082 2.68183 2 2.77976 2.00003 2.87909V3.88289C1.99893 4.01103 2.03263 4.13651 2.09665 4.24265C2.16067 4.3488 2.25197 4.4306 2.35843 4.47717C3.86762 5.13431 8.01896 6.53715 14.201 5.4924" fill="#1565C0"/>
<path d="M2.59451 6.24003C4.92347 7.06499 7.35518 7.46657 9.79735 7.42954H9.8067C9.83994 7.43008 9.87192 7.44393 9.89685 7.46859C9.92178 7.49326 9.93802 7.52711 9.94264 7.56403C9.94725 7.60095 9.93994 7.63851 9.92202 7.66991C9.90409 7.70131 9.87675 7.72449 9.84491 7.73525C9.20881 7.93368 8.5518 8.03523 7.89154 8.03716H7.86437C6.12415 8.01761 4.41015 7.55932 2.8493 6.69622C2.7729 6.6547 2.70848 6.58989 2.66341 6.5092C2.61835 6.42852 2.59447 6.33523 2.59451 6.24003ZM2.55969 5.55432C2.41027 5.55608 2.26753 5.62407 2.16267 5.74345C2.0578 5.86283 1.99932 6.02389 2.00001 6.19146V6.57241C1.99999 6.68782 2.02807 6.80105 2.08119 6.8999C2.13432 6.99874 2.21049 7.07946 2.3015 7.13336C4.01729 8.14423 5.92209 8.68533 7.86012 8.71239H7.89324C9.91456 8.71239 11.5044 7.83906 13.344 6.82955C13.3726 6.81384 13.3957 6.78777 13.4095 6.75554C13.4233 6.72331 13.4271 6.6868 13.4201 6.65191C13.4131 6.61703 13.3959 6.58579 13.3711 6.56324C13.3464 6.54069 13.3156 6.52815 13.2837 6.52765H13.2642C12.1137 6.68196 10.9561 6.7605 9.79735 6.76288C7.40489 6.79899 5.0229 6.40215 2.74314 5.58765C2.68515 5.56557 2.62433 5.55431 2.56309 5.55432" fill="#1565C0"/>
<path d="M14.798 7.03535C14.4226 7.23345 14.0574 7.43344 13.6939 7.63249C11.8518 8.64677 10.1005 9.60676 7.89494 9.60676H7.86011C6.11476 9.59033 4.39039 9.17826 2.79069 8.39534C2.70471 8.35326 2.61073 8.33586 2.51725 8.34471C2.42377 8.35357 2.33372 8.38839 2.25525 8.44605C2.17678 8.50371 2.11235 8.58237 2.06779 8.67495C2.02323 8.76752 1.99993 8.87109 2 8.97629V11.5334C1.99985 11.668 2.03798 11.7991 2.10885 11.9077C2.17973 12.0163 2.27964 12.0967 2.39407 12.1372C4.0355 12.7209 5.74426 13.0321 7.46604 13.061C9.55236 12.9513 11.5892 12.3117 13.423 11.1906C14.5039 10.5902 15.6306 10.0997 16.7896 9.72485C18.2626 9.23693 19.8124 9.1125 21.3324 9.36009C21.4139 9.37702 21.4977 9.37362 21.5778 9.35012C21.658 9.32663 21.7325 9.28362 21.7962 9.22416C21.8598 9.1647 21.911 9.09024 21.9461 9.00609C21.9812 8.92193 21.9993 8.83014 21.9991 8.73724V6.09631C21.9991 6.0103 21.9835 5.92519 21.9532 5.84616C21.923 5.76713 21.8787 5.69583 21.8231 5.63659C21.7675 5.57735 21.7017 5.53141 21.6298 5.50156C21.5578 5.47172 21.4812 5.45859 21.4046 5.46299C20.8101 5.50298 20.0976 5.56584 19.25 5.66108C17.7081 5.83373 16.2036 6.29875 14.8005 7.0363" fill="#1565C0"/>
<path d="M17.6202 15.118C16.2789 15.4547 14.9784 15.9704 13.7466 16.6542C12.1576 17.5418 10.4646 18.1725 8.7179 18.5275C8.18272 18.604 7.64375 18.6421 7.10424 18.6418C5.62092 18.6351 4.14747 18.3707 2.73634 17.858C2.65164 17.8277 2.56177 17.8203 2.47403 17.8363C2.38629 17.8523 2.30316 17.8913 2.23141 17.9502C2.15965 18.009 2.10129 18.086 2.06108 18.1749C2.02087 18.2638 1.99994 18.3621 2 18.4618V21.3713C2.0009 21.5386 2.0608 21.6987 2.16662 21.8167C2.27244 21.9346 2.41558 22.0008 2.56478 22.0008H21.4335C21.5833 22.0008 21.7269 21.9341 21.8329 21.8153C21.9388 21.6966 21.9983 21.5355 21.9983 21.3675V15.8971C21.998 15.7526 21.9539 15.6126 21.8731 15.5001C21.7924 15.3875 21.6799 15.3092 21.5541 15.278C20.263 14.9494 18.9292 14.8951 17.6202 15.118Z" fill="#1565C0"/>
</svg>
