<svg width="50" height="51" viewBox="0 0 50 51" fill="none" xmlns="http://www.w3.org/2000/svg">
<circle cx="25" cy="25.7148" r="25" fill="#EC5F59"/>
<path d="M25.3262 28.9914C25.8131 28.9914 26.2801 28.8188 26.6244 28.5115C26.9687 28.2042 27.1621 27.7874 27.1621 27.3529V17.5214C27.1621 17.0868 26.9687 16.67 26.6244 16.3627C26.2801 16.0554 25.8131 15.8828 25.3262 15.8828C24.8393 15.8828 24.3723 16.0554 24.028 16.3627C23.6837 16.67 23.4902 17.0868 23.4902 17.5214V27.3529C23.4902 27.7874 23.6837 28.2042 24.028 28.5115C24.3723 28.8188 24.8393 28.9914 25.3262 28.9914ZM25.3262 35.5457C25.7801 35.5457 26.2238 35.4256 26.6012 35.2005C26.9786 34.9755 27.2727 34.6556 27.4464 34.2813C27.6201 33.9071 27.6656 33.4952 27.577 33.0979C27.4885 32.7006 27.2699 32.3357 26.949 32.0492C26.628 31.7628 26.2191 31.5677 25.7739 31.4886C25.3287 31.4096 24.8673 31.4502 24.448 31.6052C24.0286 31.7602 23.6702 32.0228 23.418 32.3596C23.1658 32.6964 23.0312 33.0924 23.0312 33.4975C23.0312 34.0407 23.273 34.5617 23.7034 34.9458C24.1338 35.3299 24.7175 35.5457 25.3262 35.5457Z" fill="white"/>
</svg>
