<?xml version="1.0" encoding="utf-8"?>
<!-- Generator: Adobe Illustrator 24.0.0, SVG Export Plug-In . SVG Version: 6.00 Build 0)  -->
<svg version="1.1" id="Layer_1" xmlns="http://www.w3.org/2000/svg" xmlns:xlink="http://www.w3.org/1999/xlink" x="0px" y="0px"
	 viewBox="0 0 1389.6 1490" style="enable-background:new 0 0 1389.6 1490;" xml:space="preserve">
<style type="text/css">
	.st0{fill:#404041;stroke:#231F20;stroke-width:3.6818;stroke-miterlimit:10;}
	.st1{fill:#58595B;stroke:#231F20;stroke-width:4.3105;stroke-miterlimit:10;}
	.st2{fill:url(#SVGID_1_);stroke:#231F20;stroke-width:2.0483;stroke-miterlimit:10;}
	.st3{fill:url(#SVGID_2_);stroke:#231F20;stroke-width:3.1;stroke-miterlimit:10;}
	.st4{fill:#E5E5E5;}
	.st5{fill:none;stroke:#59595C;stroke-width:4.3377;stroke-linecap:round;stroke-linejoin:round;stroke-miterlimit:10;}
	.st6{fill:#383838;}
	
		.st7{fill:none;stroke:#231F20;stroke-width:4.3377;stroke-linecap:square;stroke-linejoin:round;stroke-miterlimit:10;stroke-dasharray:8.6755,8.6755;}
	.st8{fill:none;stroke:#231F20;stroke-width:4.3377;stroke-miterlimit:10;}
	.st9{fill:#323031;}
	.st10{fill:#404041;}
	.st11{fill:#58595B;}
	.st12{font-family:'Roboto-Black';}
	.st13{font-size:27.9097px;}
	.st14{fill:#FFFFFF;}
	.st15{fill:#FCFCFC;}
	.st16{fill:none;stroke:#231F20;stroke-width:4.3377;stroke-linecap:round;stroke-linejoin:round;stroke-miterlimit:10;}
	.st17{fill:#232323;}
	.st18{fill:none;stroke:#EDEDED;stroke-width:3.6818;stroke-miterlimit:10;}
	.st19{fill:#49C1BB;}
	.st20{fill:none;stroke:#63CEC3;stroke-width:4.3377;stroke-miterlimit:10;}
	.st21{fill:#F4F4F4;}
	.st22{fill:none;stroke:#AAAAAA;stroke-width:4.3377;stroke-linecap:round;stroke-linejoin:round;stroke-miterlimit:10;}
	.st23{fill:#808184;}
	.st24{fill:none;stroke:#49C1BB;stroke-width:4.3377;stroke-linecap:round;stroke-miterlimit:10;}
	.st25{fill:#292829;}
</style>
<g>
	<g>
		<path class="st0" d="M1348.3,1409.1H41.2c-6.8,0-12.3-5.5-12.3-12.3l0-1302.5c0-6.8,5.5-12.3,12.3-12.3h1307.2
			c6.8,0,12.3,5.5,12.3,12.3v1302.5C1360.6,1403.6,1355.1,1409.1,1348.3,1409.1z"/>
		<path class="st1" d="M1358.9,1365.2H30.7c-8.3,0-15-6.8-15-15V140.9c0-8.3,6.8-15,15-15h1328.1c8.3,0,15,6.8,15,15v1209.3
			C1373.9,1358.5,1367.1,1365.2,1358.9,1365.2z"/>
		<linearGradient id="SVGID_1_" gradientUnits="userSpaceOnUse" x1="1069.1688" y1="749.5043" x2="1373.8993" y2="749.5043">
			<stop  offset="1.274671e-03" style="stop-color:#333333"/>
			<stop  offset="1" style="stop-color:#58595B"/>
		</linearGradient>
		<path class="st2" d="M1358.8,1373.1h-274.6c-8.3,0-15.1-6.8-15.1-15.1V140.9c0-8.3,6.8-15.1,15.1-15.1h274.6
			c8.3,0,15.1,6.8,15.1,15.1v1217.1C1373.9,1366.4,1367.1,1373.1,1358.8,1373.1z"/>
		
			<linearGradient id="SVGID_2_" gradientUnits="userSpaceOnUse" x1="-1789.6532" y1="749.5043" x2="-1091.6467" y2="749.5043" gradientTransform="matrix(-1 0 0 1 -1075.9116 0)">
			<stop  offset="1.274671e-03" style="stop-color:#333333"/>
			<stop  offset="1" style="stop-color:#58595B"/>
		</linearGradient>
		<path class="st3" d="M30.7,1373.1h668c8.3,0,15-6.8,15-15V140.9c0-8.3-6.8-15-15-15h-668c-8.3,0-15,6.8-15,15v1217.3
			C15.7,1366.4,22.5,1373.1,30.7,1373.1z"/>
		<path class="st4" d="M121.2,82.9c2.1-40.9,67.3-41.1,69.4,0h39.7c0.2-36.5-33.3-66.2-74.4-66.2c-40.8-0.1-75,29.9-74.4,66.3V1407
			c-0.5,36.4,33.7,66.4,74.4,66.3c41.1,0,74.7-29.7,74.4-66.2h-39.7c-2.1,41.1-67.3,40.9-69.4,0V82.9z"/>
		<path class="st5" d="M121.2,82.9c2.1-40.9,67.3-41.1,69.4,0h39.7c0.2-36.5-33.3-66.2-74.4-66.2c-40.8-0.1-75,29.9-74.4,66.3V1407
			c-0.5,36.4,33.7,66.4,74.4,66.3c41.1,0,74.7-29.7,74.4-66.2h-39.7c-2.1,41.1-67.3,40.9-69.4,0V82.9z"/>
		<line class="st7" x1="161.8" y1="1361.7" x2="161.8" y2="127.9"/>
		<line class="st7" x1="284.6" y1="1361.7" x2="284.6" y2="127.9"/>
		<rect x="303.8" y="82.1" class="st8" width="59.8" height="1326.8"/>
		<rect x="171.9" y="125.9" class="st9" width="130.2" height="1235.8"/>
		<rect x="171.9" y="125.9" class="st8" width="130.2" height="1235.8"/>
		<rect x="170.8" y="1361.7" class="st10" width="130.2" height="47.2"/>
		<rect x="170.8" y="1361.7" class="st8" width="130.2" height="47.2"/>
		<rect x="170.8" y="82.1" class="st10" width="130.2" height="47.2"/>
		<rect x="170.8" y="82.1" class="st8" width="130.2" height="47.2"/>
	</g>
	<text transform="matrix(1 0 0 1 1017.5898 1088.5642)" class="st11 st12 st13">POS</text>
	<g>
		<path class="st14" d="M840.5,418.2c-1,0-1.8,0.3-2.3,1c-0.5,0.7-1.1,1.9-1.7,3.6c-1.1,3.6-2.3,6.3-3.6,8c-1.3,1.7-3.2,2.6-5.6,2.6
			c-2.4,0-4.3-1-5.8-3.1c-1.5-2.1-2.2-4.7-2.2-7.9c0-3.2,0.8-5.7,2.4-7.7c1.6-2,3.7-3,6.3-2.9l0.1,0v6.4c-1.1,0-2,0.4-2.8,1.2
			c-0.7,0.8-1.1,1.8-1.1,3.2c0,1.3,0.3,2.4,0.9,3.1c0.6,0.8,1.3,1.1,2.2,1.1c0.8,0,1.5-0.4,2-1.1c0.5-0.8,1.1-2.2,1.9-4.3
			c1-3.2,2.1-5.7,3.6-7.3c1.4-1.6,3.3-2.4,5.8-2.4c2.5,0,4.5,1,5.9,2.9c1.4,1.9,2.1,4.5,2.1,7.7c0,3.2-0.8,6-2.4,8.4
			c-1.6,2.4-4,3.5-7,3.4l-0.1,0v-6.4c1.6,0,2.8-0.4,3.5-1.3c0.7-0.9,1.1-2.2,1.1-4c0-1.4-0.3-2.4-0.8-3.1
			C842.1,418.5,841.4,418.2,840.5,418.2"/>
		<polygon class="st14" points="832,397.5 832,397.4 819.6,391.8 819.6,384.6 838.1,394.3 848.1,394.3 848.1,400.8 837.7,400.8 
			819.6,410.3 819.6,403.2 		"/>
		<path class="st14" d="M840.5,367.6c-1,0-1.8,0.3-2.3,1c-0.5,0.7-1.1,1.9-1.7,3.6c-1.1,3.6-2.3,6.3-3.6,8c-1.3,1.7-3.2,2.6-5.6,2.6
			c-2.4,0-4.3-1-5.8-3.1c-1.5-2.1-2.2-4.7-2.2-7.9c0-3.2,0.8-5.7,2.4-7.7c1.6-2,3.7-3,6.3-2.9l0.1,0v6.4c-1.1,0-2,0.4-2.8,1.2
			c-0.7,0.8-1.1,1.8-1.1,3.2c0,1.3,0.3,2.4,0.9,3.1c0.6,0.8,1.3,1.1,2.2,1.1c0.8,0,1.5-0.4,2-1.1c0.5-0.8,1.1-2.2,1.9-4.3
			c1-3.2,2.1-5.7,3.6-7.3c1.4-1.6,3.3-2.4,5.8-2.4c2.5,0,4.5,1,5.9,2.9c1.4,1.9,2.1,4.5,2.1,7.8c0,3.2-0.8,6-2.4,8.4
			c-1.6,2.4-4,3.5-7,3.4l-0.1,0v-6.4c1.6,0,2.8-0.4,3.5-1.3c0.7-0.9,1.1-2.2,1.1-4c0-1.4-0.3-2.4-0.8-3.1
			C842.1,368,841.4,367.6,840.5,367.6"/>
		<path class="st14" d="M848.5,541.5h-28.8v-10.4c0-3.4,1.1-6.2,3.3-8.5c2.2-2.3,5.1-3.4,8.5-3.4h5.2c3.5,0,6.3,1.1,8.5,3.4
			c2.2,2.3,3.3,5.1,3.3,8.5V541.5z M824.8,534.8h18.5v-3.3c0-1.8-0.6-3.2-1.8-4.2c-1.2-1-2.8-1.5-4.8-1.5h-5.2c-2,0-3.6,0.5-4.8,1.5
			c-1.2,1-1.8,2.4-1.8,4.2V534.8z"/>
		<rect x="819.6" y="507.8" class="st14" width="28.8" height="6.7"/>
		<path class="st14" d="M842.9,486.8v9.1l5.6,1.6v6.7l-28.8-9.3v-7.2l28.8-9.3v6.7L842.9,486.8z M837.7,494.4v-6.1l-10.3,3v0.1
			L837.7,494.4z"/>
		<rect x="815.5" y="453.7" class="st14" width="206.5" height="2.8"/>
		<path class="st15" d="M540.8,1396.5c0,0-40.5-60.2-40.5-158.2V261.5c0,0-2.1-88.4,42.6-158.7h499.2c97.8,0,177,79.3,177,177V1220
			c0,97.8-79.4,177.1-177.2,177L540.8,1396.5z"/>
		<path class="st16" d="M540.8,1396.5c0,0-40.5-60.2-40.5-158.2V261.5c0,0-2.1-88.4,42.6-158.7h499.2c97.8,0,177,79.3,177,177V1220
			c0,97.8-79.4,177.1-177.2,177L540.8,1396.5z"/>
		<path class="st17" d="M681.6,1164.7L681.6,1164.7c-39.6,0-71.6-32.1-71.6-71.6V245.3c0-39.8,32.3-72.1,72.1-72.1h315.2
			c83.6,0,151.3,67.7,151.3,151.3v768.9c0,39.6-32.1,71.7-71.7,71.6L681.6,1164.7z"/>
		<path class="st16" d="M681.6,1164.7L681.6,1164.7c-39.6,0-71.6-32.1-71.6-71.6V245.3c0-39.8,32.3-72.1,72.1-72.1h315.2
			c83.6,0,151.3,67.7,151.3,151.3v768.9c0,39.6-32.1,71.7-71.7,71.6L681.6,1164.7z"/>
		<path class="st18" d="M1080.3,1324.9H678.2c-36.1,0-65.7-29.5-65.7-65.7v-0.6c0-36.1,29.5-65.7,65.7-65.7h402.1
			c36.1,0,65.7,29.5,65.7,65.7v0.6C1146,1295.4,1116.5,1324.9,1080.3,1324.9z"/>
		<rect x="967.2" y="92.9" class="st10" width="50" height="9.9"/>
		<rect x="967.2" y="92.9" class="st16" width="50" height="9.9"/>
		<path class="st19" d="M681.2,1215.5c23.3,0,42.2,18.9,42.2,42.2s-18.9,42.2-42.2,42.2c-23.3,0-42.2-18.9-42.2-42.2
			S657.9,1215.5,681.2,1215.5"/>
		<path class="st20" d="M681.2,1215.5c23.3,0,42.2,18.9,42.2,42.2s-18.9,42.2-42.2,42.2c-23.3,0-42.2-18.9-42.2-42.2
			S657.9,1215.5,681.2,1215.5z"/>
		<path class="st21" d="M922.3,1257.6L922.3,1257.6c0,23.4-18.9,42.3-42.3,42.3h-98.4c-23.4,0-42.3-18.9-42.3-42.3
			c0-23.4,18.9-42.3,42.3-42.3H880C903.4,1215.3,922.3,1234.2,922.3,1257.6"/>
		<path class="st22" d="M922.3,1257.6L922.3,1257.6c0,23.4-18.9,42.3-42.3,42.3h-98.4c-23.4,0-42.3-18.9-42.3-42.3
			c0-23.4,18.9-42.3,42.3-42.3H880C903.4,1215.3,922.3,1234.2,922.3,1257.6z"/>
		<path class="st21" d="M1120.8,1257.6L1120.8,1257.6c0,23.4-18.9,42.3-42.3,42.3h-98.4c-23.4,0-42.3-18.9-42.3-42.3
			c0-23.4,18.9-42.3,42.3-42.3h98.4C1101.9,1215.3,1120.8,1234.2,1120.8,1257.6"/>
		<path class="st22" d="M1120.8,1257.6L1120.8,1257.6c0,23.4-18.9,42.3-42.3,42.3h-98.4c-23.4,0-42.3-18.9-42.3-42.3
			c0-23.4,18.9-42.3,42.3-42.3h98.4C1101.9,1215.3,1120.8,1234.2,1120.8,1257.6z"/>
		<g>
			<polygon class="st23" points="980.5,1263.3 978.6,1267.5 982.5,1267.5 980.6,1263.3 			"/>
			<path class="st23" d="M984.6,1252.5c-0.3-0.1-0.3-0.5-0.1-0.6c2.9-1.6,4.8-4.9,4.2-8.6c-0.5-3.3-3.1-6-6.3-6.7
				c-5.3-1.1-10,2.9-10,8c0,3.1,1.7,5.8,4.3,7.2c0.3,0.1,0.2,0.5-0.1,0.6c-4.2,0.8-7.3,4.5-7.3,8.9v16.7h22.8v-16.7
				C991.9,1256.9,988.8,1253.3,984.6,1252.5 M986.6,1272.1h-1.7c-0.3,0-0.4-0.1-0.6-0.4l-0.9-2.1h-5.8l-0.9,2.1
				c-0.1,0.2-0.3,0.4-0.6,0.4h-1.7c-0.3,0-0.4-0.3-0.3-0.5l6-12.9c0.1-0.1,0.1-0.2,0.3-0.2h0.2c0.2,0,0.3,0.1,0.3,0.2l5.9,12.9
				C987,1271.9,986.9,1272.1,986.6,1272.1"/>
			<path class="st23" d="M1032.4,1266.3h-2.1v3.4h2.3c1,0,1.7-0.7,1.7-1.7C1034.3,1267,1033.4,1266.3,1032.4,1266.3"/>
			<path class="st23" d="M1034,1262.5c0-1-0.7-1.6-1.7-1.6h-2.1v3.4h2.1C1033.3,1264.2,1034,1263.5,1034,1262.5"/>
			<path class="st23" d="M1035.8,1252.5c-0.3-0.1-0.4-0.4-0.1-0.6c2.9-1.6,4.7-4.9,4.2-8.6c-0.5-3.3-3.1-6-6.3-6.7
				c-0.6-0.1-1.2-0.2-1.8-0.2c-4.5,0-8.2,3.7-8.2,8.2c0,3.1,1.7,5.8,4.3,7.2c0.3,0.1,0.2,0.5-0.1,0.6c-4.2,0.8-7.3,4.5-7.3,8.9v16.7
				h22.8v-16.7C1043.1,1256.9,1040,1253.3,1035.8,1252.5 M1032.8,1272h-4.7c-0.2,0-0.4-0.2-0.4-0.4v-12.7c0-0.2,0.2-0.4,0.4-0.4h4.4
				c2.3,0,4.1,1.5,4.1,3.6c0,1.5-1.2,2.6-2.1,3.1c1,0.3,2.5,1.4,2.5,3.1C1037,1270.5,1035.2,1272,1032.8,1272"/>
			<path class="st23" d="M998.9,1279.4c-0.2,0-0.4,0-0.5-0.1c-0.7-0.3-1-1.1-0.7-1.8l17.7-41.6c0.3-0.7,1.1-1,1.8-0.7
				c0.7,0.3,1,1.1,0.7,1.8l-17.7,41.6C1000,1279,999.5,1279.4,998.9,1279.4"/>
		</g>
		<g>
			<polygon class="st23" points="822.7,1244.6 828.8,1264.4 828.9,1264.4 835,1244.7 841.3,1244.7 841.2,1271.5 836.4,1271.5 
				836.5,1263.5 836.9,1251.7 836.8,1251.6 830.4,1271.5 827.2,1271.5 820.9,1251.7 820.8,1251.7 821.3,1263.5 821.2,1271.5 
				816.5,1271.5 816.5,1244.6 			"/>
			<polygon class="st23" points="860.3,1259.7 850.5,1259.7 850.4,1267.4 862,1267.4 861.9,1271.5 845.7,1271.5 845.7,1244.7 
				862,1244.7 862,1248.9 850.5,1248.8 850.5,1255.6 860.3,1255.6 			"/>
			<polygon class="st23" points="871.1,1244.7 877.2,1264.5 877.3,1264.5 883.4,1244.7 889.6,1244.8 889.6,1271.6 884.8,1271.6 
				884.8,1263.6 885.3,1251.7 885.2,1251.7 878.8,1271.6 875.6,1271.6 869.3,1251.8 869.2,1251.8 869.7,1263.6 869.6,1271.6 
				864.9,1271.6 864.9,1244.7 			"/>
		</g>
		<path class="st23" d="M1076.4,1244.7l-14.1,14.1c-1.7,1.7-0.5,4.7,1.9,4.7h24.3c2.4,0,3.7-2.9,1.9-4.7L1076.4,1244.7z"/>
		<path class="st23" d="M781.9,1273.5l14.1-14.1c1.7-1.7,0.5-4.7-1.9-4.7h-24.3c-2.4,0-3.7,2.9-1.9,4.7L781.9,1273.5z"/>
		<path class="st14" d="M667.4,1262.5c0-0.8-0.3-1.4-0.8-1.8c-0.6-0.4-1.6-0.9-3.1-1.4c-1.5-0.5-2.6-0.9-3.5-1.4
			c-2.3-1.3-3.5-3-3.5-5.1c0-1.1,0.3-2.1,0.9-3c0.6-0.9,1.5-1.5,2.7-2c1.2-0.5,2.5-0.7,4-0.7c1.5,0,2.8,0.3,3.9,0.8
			c1.1,0.5,2,1.3,2.7,2.3c0.6,1,1,2.1,1,3.3h-4.2c0-0.9-0.3-1.7-0.9-2.2c-0.6-0.5-1.4-0.8-2.5-0.8c-1,0-1.8,0.2-2.4,0.7
			c-0.6,0.4-0.9,1-0.9,1.7c0,0.7,0.3,1.2,1,1.7c0.7,0.5,1.7,0.9,3,1.3c2.4,0.7,4.2,1.6,5.3,2.7c1.1,1.1,1.7,2.4,1.7,4
			c0,1.8-0.7,3.2-2,4.2c-1.3,1-3.2,1.5-5.4,1.5c-1.6,0-3-0.3-4.3-0.9c-1.3-0.6-2.3-1.4-3-2.4c-0.7-1-1-2.2-1-3.5h4.3
			c0,2.3,1.4,3.4,4.1,3.4c1,0,1.8-0.2,2.4-0.6C667.1,1263.8,667.4,1263.2,667.4,1262.5"/>
		<polygon class="st14" points="686.9,1259 678.8,1259 678.8,1264.5 688.3,1264.5 688.3,1267.9 674.5,1267.9 674.5,1247.3 
			688.3,1247.3 688.3,1250.7 678.8,1250.7 678.8,1255.6 686.9,1255.6 		"/>
		<polygon class="st14" points="706.6,1250.7 700.3,1250.7 700.3,1267.9 696,1267.9 696,1250.7 689.8,1250.7 689.8,1247.3 
			706.6,1247.3 		"/>
		<path class="st11" d="M1108,296.3v794.3c0,17.5-14.2,31.6-31.6,31.6H900.2c-17.5,0-31.6-14.2-31.6-31.6V296.3
			c0-17.5,14.2-31.6,31.6-31.6h176.2C1093.8,264.7,1108,278.9,1108,296.3"/>
		<path class="st14" d="M690.6,1096.9c1.7,0,3.4,0.6,4.7,1.7c0.2,0.1,0.4,0.1,0.5,0l1.3-1.3c0.2-0.2,0.2-0.4,0-0.5
			c-2-1.8-4.7-2.7-7.4-2.4c-4.4,0.5-7.9,3.9-8.4,8.3c-0.7,5.9,4.1,10.9,10,10.5c2.1-0.1,4.1-1,5.6-2.3c0.2-0.2,0.3-0.4,0.3-0.7v-6.8
			c0-0.2-0.2-0.4-0.4-0.4h-6.4c-0.2,0-0.4,0.2-0.4,0.4v1.9c0,0.2,0.2,0.4,0.4,0.4h3.8c0.2,0,0.4,0.2,0.4,0.4v2.9
			c0,0.3-0.2,0.6-0.4,0.8c-1,0.6-2.2,0.9-3.5,0.9c-3.9,0-7-3.2-6.8-7.2C684.1,1099.8,687.1,1097,690.6,1096.9"/>
		<path class="st14" d="M674.8,1088c-0.1,0.3-0.3,0.5-0.5,0.6c-0.8,0.2-2.2,0.7-2.2,0.7c-3.6,1.2-5.5,0.3-6.1-0.1
			c-2.3-1.6-2.1-5.9,0.3-9.3c2.4-3.5,6.4-5.1,8.7-3.5c1.4,1,1.9,3,1.4,5.3C675.8,1083.9,675.2,1086.3,674.8,1088 M672.8,1098.4
			c-0.7,4.1-1.2,7.7-5.1,10.8c-2,1.6-5.2,2.7-7.3,1.1c-0.9-0.6-1.5-1.8-1.6-3.1c-0.3-2.5,1-6,3-8.3c1.9-2.1,4.2-3.9,6.9-5.4
			c1.6-0.8,3.3-1.4,5-2c0.1,0,0.3,0.1,0.3,0.2C673.6,1093.6,672.9,1098,672.8,1098.4 M698.3,1077.3l-1.8-0.5
			c-0.2-0.1-0.4,0.1-0.5,0.3c-2.1,6.2-10.7,8.5-17,10.2l-1,0.3c-0.1,0-0.3-0.1-0.2-0.2c0.5-2,2.4-9.4,3-11.2c0-0.2-0.1-0.4-0.3-0.5
			l-1.8-0.6c-0.2-0.1-0.4,0-0.5,0.2c0,0.1,0,0.1-0.1,0.2c0,0.1-0.2,0.1-0.3,0c-0.4-0.5-0.8-0.9-1.3-1.3c-3.5-2.4-9.1-0.6-12.4,4.2
			c-3.3,4.7-3.2,10.6,0.3,13c0.3,0.2,0.6,0.4,1.1,0.6c0.2,0.1,0.2,0.3,0,0.4c-2.2,1.4-4.1,3-5.7,4.9c-2.1,2.3-4.1,6.6-3.7,10.3
			c0.2,2,1.2,3.8,2.7,4.9c1.2,0.9,2.6,1.3,4,1.3c2.3,0,4.7-1,6.5-2.5c4.7-3.7,5.4-8.2,6.1-12.4c0.1-0.4,1.4-7.8,1.4-7.8
			c0.1-0.3,0.3-0.5,0.6-0.6c0.7-0.2,1.5-0.4,2.2-0.6c6.9-1.9,16.4-4.4,18.9-12C698.6,1077.6,698.5,1077.4,698.3,1077.3"/>
		<path class="st24" d="M879.7,619.2L806.4,571c-9.5-6.2-15.2-16.9-15.2-28.2V362.9c0-11.5,5.9-22.2,15.6-28.4l68.6-43.9
			L879.7,619.2z"/>
		<path class="st25" d="M1108.9,296.3v794.3c0,17.5-14.2,31.6-31.7,31.6H900.3c-17.5,0-31.7-14.2-31.7-31.6V296.3
			c0-17.5,14.2-31.6,31.7-31.6h176.8C1094.7,264.7,1108.9,278.9,1108.9,296.3"/>
		<path class="st14" d="M838.6,418.5c-1,0-1.8,0.3-2.3,1c-0.6,0.7-1.1,1.9-1.7,3.6c-1.1,3.6-2.4,6.3-3.7,8c-1.3,1.7-3.2,2.6-5.6,2.6
			c-2.4,0-4.3-1-5.8-3.1c-1.5-2.1-2.2-4.7-2.2-7.9c0-3.2,0.8-5.8,2.4-7.8c1.6-2,3.7-3,6.3-2.9l0.1,0v6.4c-1.1,0-2.1,0.4-2.8,1.2
			c-0.7,0.8-1.1,1.8-1.1,3.2c0,1.3,0.3,2.4,0.9,3.2c0.6,0.8,1.3,1.1,2.2,1.1c0.8,0,1.5-0.4,2-1.1c0.5-0.8,1.1-2.2,1.9-4.3
			c1-3.2,2.2-5.7,3.6-7.3c1.4-1.6,3.4-2.5,5.8-2.5c2.5,0,4.5,1,5.9,2.9c1.4,2,2.1,4.5,2.1,7.8c0,3.2-0.8,6.1-2.4,8.4
			c-1.6,2.4-4,3.5-7,3.5l-0.1,0v-6.5c1.6,0,2.8-0.4,3.5-1.3c0.7-0.9,1.1-2.2,1.1-4c0-1.4-0.3-2.4-0.8-3.1
			C840.2,418.8,839.5,418.5,838.6,418.5"/>
		<polygon class="st14" points="830,397.7 830,397.6 817.6,391.9 817.6,384.7 836.1,394.4 846.1,394.4 846.1,401 835.8,401 
			817.6,410.5 817.6,403.4 		"/>
		<path class="st14" d="M838.6,367.7c-1,0-1.8,0.3-2.3,1c-0.6,0.7-1.1,1.9-1.7,3.6c-1.1,3.6-2.4,6.3-3.7,8c-1.3,1.7-3.2,2.6-5.6,2.6
			c-2.4,0-4.3-1-5.8-3.1c-1.5-2.1-2.2-4.7-2.2-7.9c0-3.2,0.8-5.8,2.4-7.8c1.6-2,3.7-3,6.3-2.9l0.1,0v6.4c-1.1,0-2.1,0.4-2.8,1.2
			c-0.7,0.8-1.1,1.8-1.1,3.2c0,1.3,0.3,2.4,0.9,3.1c0.6,0.8,1.3,1.1,2.2,1.1c0.8,0,1.5-0.4,2-1.1c0.5-0.8,1.1-2.2,1.9-4.3
			c1-3.3,2.2-5.7,3.6-7.3c1.4-1.6,3.4-2.5,5.8-2.5c2.5,0,4.5,1,5.9,2.9c1.4,2,2.1,4.5,2.1,7.8c0,3.2-0.8,6-2.4,8.4
			c-1.6,2.4-4,3.5-7,3.5l-0.1,0v-6.5c1.6,0,2.8-0.4,3.5-1.3c0.7-0.9,1.1-2.2,1.1-4c0-1.4-0.3-2.4-0.8-3.1
			C840.2,368,839.5,367.7,838.6,367.7"/>
		<path class="st14" d="M846.6,542.4h-29v-10.5c0-3.4,1.1-6.3,3.3-8.6c2.2-2.3,5.1-3.4,8.6-3.4h5.2c3.5,0,6.3,1.2,8.6,3.4
			c2.2,2.3,3.3,5.2,3.3,8.6V542.4z M822.7,535.7h18.6v-3.3c0-1.8-0.6-3.2-1.8-4.2c-1.2-1-2.8-1.5-4.9-1.5h-5.3c-2,0-3.6,0.5-4.8,1.5
			c-1.2,1-1.8,2.4-1.8,4.2V535.7z"/>
		<rect x="817.6" y="508.6" class="st14" width="29" height="6.7"/>
		<path class="st14" d="M840.9,487.4v9.1l5.6,1.6v6.8l-29-9.4v-7.2l29-9.4v6.8L840.9,487.4z M835.7,495.1v-6.2l-10.4,3v0.1
			L835.7,495.1z"/>
		<rect x="813.4" y="454.2" class="st14" width="207.6" height="2.8"/>
		<polygon class="st14" points="1045.2,559.7 1078.8,559.7 1084.1,552.1 1078.9,544.5 1045,544.5 1039.8,552.2 		"/>
		<path class="st14" d="M1045.3,488.4h33.2l9.1-11.2c-2.2-2.5-5.1-4.1-8.4-4.1h-34.6c-3.2,0-6.1,1.6-8.3,4.1L1045.3,488.4z"/>
		<path class="st14" d="M1032.3,616c0,4,1.3,7.6,3.3,10.3l9.1-11.2v-54.2l-5.5-7.8l-6.9,10V616z"/>
		<path class="st14" d="M1044.7,489.2l-9.1-11.2c-2.1,2.7-3.3,6.3-3.3,10.3v53.4l6.8,9.6l5.5-8.1V489.2z"/>
		<path class="st14" d="M1091.7,616c0,4-1.3,7.6-3.4,10.3l-9.1-11.2v-54.2l5.6-7.8l6.9,10V616z"/>
		<path class="st14" d="M1078.5,615.9h-33.2l-9.1,11.2c2.2,2.5,5.1,4,8.3,4h34.6c3.2,0,6.2-1.5,8.4-4.1L1078.5,615.9z"/>
		<path class="st14" d="M971.6,488.4h33.2l9.1-11.2c-2.2-2.5-5.1-4.1-8.3-4.1h-34.6c-3.2,0-6.1,1.6-8.3,4.1L971.6,488.4z"/>
		<path class="st14" d="M1017.9,616c0,4-1.3,7.6-3.4,10.3l-9.1-11.2v-54.2l5.6-7.8l6.9,10V616z"/>
		<path class="st14" d="M1005.5,489.2l9.1-11.2c2.1,2.7,3.3,6.3,3.3,10.3v53.4l-6.9,9.6l-5.6-8.1V489.2z"/>
		<path class="st14" d="M1045.3,297.3h33.2l9.1-11.2c-2.2-2.5-5.1-4.1-8.4-4.1h-34.6c-3.2,0-6.1,1.6-8.3,4.1L1045.3,297.3z"/>
		<path class="st14" d="M1032.3,424.9c0,4,1.3,7.6,3.3,10.3l9.1-11.1v-54.2l-5.5-7.8l-6.9,10V424.9z"/>
		<path class="st14" d="M1044.7,298.1l-9.1-11.2c-2.1,2.7-3.3,6.3-3.3,10.3v53.4l6.8,9.6l5.5-8.1V298.1z"/>
		<path class="st14" d="M1091.7,424.9c0,4-1.3,7.6-3.4,10.3l-9.1-11.1v-54.2l5.6-7.8l6.9,10V424.9z"/>
		<path class="st14" d="M1079.2,298.1l9.1-11.2c2.1,2.7,3.3,6.3,3.3,10.3v53.4l-6.9,9.6l-5.6-8.1V298.1z"/>
		<path class="st14" d="M1078.5,424.8h-33.2l-9.1,11.2c2.2,2.5,5.1,4,8.3,4h34.6c3.2,0,6.2-1.5,8.4-4.1L1078.5,424.8z"/>
		<polygon class="st14" points="971.4,368.6 1005,368.6 1010.4,361 1005.2,353.4 971.3,353.4 966.1,361.1 		"/>
		<path class="st14" d="M971.6,297.3h33.2l9.1-11.2c-2.2-2.5-5.1-4.1-8.3-4.1h-34.6c-3.2,0-6.1,1.6-8.3,4.1L971.6,297.3z"/>
		<path class="st14" d="M958.6,424.9c0,4,1.3,7.6,3.3,10.3L971,424v-54.2l-5.5-7.8l-6.9,10V424.9z"/>
		<path class="st14" d="M1005.5,298.1l9.1-11.2c2.1,2.7,3.3,6.3,3.3,10.3v53.4l-6.9,9.6l-5.6-8.1V298.1z"/>
		<path class="st14" d="M1004.8,424.8h-33.2l-9.1,11.2c2.2,2.5,5.1,4,8.3,4h34.6c3.2,0,6.2-1.5,8.4-4.1L1004.8,424.8z"/>
		<path class="st14" d="M944.2,424.9c0,4-1.3,7.6-3.4,10.3l-9.1-11.1v-54.2l5.6-7.8l6.9,10V424.9z"/>
		<path class="st14" d="M931.7,298.1l9.1-11.2c2.1,2.7,3.3,6.3,3.3,10.3v53.4l-6.9,9.6l-5.6-8.1V298.1z"/>
		<path class="st14" d="M977.4,661.1l-7.6-9.4c-1.7,2.3-2.8,5.3-2.8,8.6v44.8l5.7,8l4.6-6.8V661.1z"/>
		<path class="st14" d="M1016.8,767.3c0,3.3-1.1,6.4-2.8,8.6l-7.6-9.3v-45.4l4.7-6.6l5.8,8.4V767.3z"/>
		<path class="st14" d="M1006.3,661.1l7.6-9.4c1.7,2.3,2.8,5.3,2.8,8.6v44.8l-5.8,8l-4.7-6.8V661.1z"/>
		<polygon class="st14" points="919.1,720.2 947.3,720.2 951.7,713.8 947.4,707.5 919,707.5 914.6,713.9 		"/>
		<polygon class="st14" points="977.8,720.2 1006,720.2 1010.5,713.8 1006.1,707.5 977.7,707.5 973.3,713.9 		"/>
		<path class="st14" d="M919.3,660.4h27.8l7.6-9.4c-1.8-2.1-4.3-3.4-7-3.4h-29c-2.7,0-5.1,1.3-7,3.4L919.3,660.4z"/>
		<path class="st14" d="M908.4,767.3c0,3.3,1.1,6.4,2.8,8.6l7.6-9.3v-45.4l-4.6-6.6l-5.8,8.4V767.3z"/>
		<path class="st14" d="M918.7,661.1l-7.6-9.4c-1.7,2.3-2.8,5.3-2.8,8.6v44.8l5.7,8l4.6-6.8V661.1z"/>
		<path class="st14" d="M958.1,767.3c0,3.3-1.1,6.4-2.8,8.6l-7.6-9.3v-45.4l4.7-6.6l5.8,8.4V767.3z"/>
		<path class="st14" d="M947.1,767.2h-27.8l-7.6,9.4c1.8,2.1,4.3,3.4,7,3.4h29c2.7,0,5.2-1.3,7-3.4L947.1,767.2z"/>
		<path class="st14" d="M1073.6,900.2h-4.5l-0.9,2.7h-2.6l4.4-12.7h2.6l4.4,12.7h-2.6L1073.6,900.2z M1069.8,898.2h3.2l-1.6-5h-0.1
			L1069.8,898.2z"/>
		<polygon class="st14" points="1081.6,890.2 1084.8,899.6 1084.8,899.6 1088.1,890.2 1091.4,890.2 1091.4,902.9 1088.9,902.9 
			1088.9,899.2 1089.1,893.5 1089.1,893.5 1085.7,902.9 1084,902.9 1080.6,893.6 1080.5,893.6 1080.8,899.2 1080.8,902.9 
			1078.2,902.9 1078.2,890.2 		"/>
		<path class="st14" d="M974.6,880.1c0,1.7-1.4,3.1-3.1,3.1c-1.7,0-3.1-1.4-3.1-3.1c0-1.7,1.4-3.1,3.1-3.1
			C973.3,877,974.6,878.4,974.6,880.1"/>
		<path class="st14" d="M974.6,855.7c0,1.7-1.4,3.1-3.1,3.1c-1.7,0-3.1-1.4-3.1-3.1c0-1.7,1.4-3.1,3.1-3.1
			C973.3,852.6,974.6,854,974.6,855.7"/>
		<path class="st14" d="M961.3,818.9l-5.7,5.7h-18.9l-5.7-5.7c1.4-1.2,3.2-1.9,5.1-1.9h20.1C958.1,816.9,959.9,817.7,961.3,818.9"/>
		<path class="st14" d="M961.3,916.9c-1.4,1.2-3.2,1.9-5.1,1.9h-20.1c-2,0-3.8-0.7-5.1-1.9l5.7-5.7h18.9L961.3,916.9z"/>
		<path class="st14" d="M935.9,825.3v38l-3.8,3.8l-3.1-3.1l-0.7-0.7v-38.6c0-1.9,0.7-3.7,1.9-5.1L935.9,825.3z"/>
		<polygon class="st14" points="959.4,867.9 956.3,871 955.6,871.7 936.6,871.7 935.9,871 932.8,867.9 936.6,864.1 955.6,864.1 		
			"/>
		<path class="st14" d="M935.9,872.4v38l-5.7,5.7c-1.2-1.4-1.9-3.2-1.9-5.1v-38.6l0.7-0.7l3.1-3.1L935.9,872.4z"/>
		<path class="st14" d="M963.9,824.7v38.6l-0.7,0.7l-3.1,3.1l-3.8-3.8v-38l5.7-5.7C963.2,821,963.9,822.8,963.9,824.7"/>
		<path class="st14" d="M963.9,872.4v38.6c0,2-0.7,3.8-1.9,5.1l-5.7-5.7v-38l3.8-3.8l3.1,3.1L963.9,872.4z"/>
		<path class="st14" d="M1012.2,818.9l-5.7,5.7h-18.9l-5.7-5.7c1.4-1.2,3.2-1.9,5.1-1.9h20.1C1009,816.9,1010.8,817.7,1012.2,818.9"
			/>
		<path class="st14" d="M1012.2,916.9c-1.4,1.2-3.2,1.9-5.1,1.9h-20.1c-2,0-3.8-0.7-5.1-1.9l5.7-5.7h18.9L1012.2,916.9z"/>
		<path class="st14" d="M986.8,825.3v38l-3.8,3.8l-3.1-3.1l-0.7-0.7v-38.6c0-1.9,0.7-3.7,1.9-5.1L986.8,825.3z"/>
		<path class="st14" d="M986.8,872.4v38l-5.7,5.7c-1.2-1.4-1.9-3.2-1.9-5.1v-38.6l0.7-0.7l3.1-3.1L986.8,872.4z"/>
		<path class="st14" d="M1014.8,824.7v38.6l-0.7,0.7l-3.1,3.1l-3.8-3.8v-38l5.7-5.7C1014.1,821,1014.8,822.8,1014.8,824.7"/>
		<path class="st14" d="M1014.8,872.4v38.6c0,2-0.7,3.8-1.9,5.1l-5.7-5.7v-38l3.8-3.8l3.1,3.1L1014.8,872.4z"/>
		<path class="st14" d="M1055.4,818.9l-5.7,5.7h-18.9l-5.7-5.7c1.4-1.2,3.2-1.9,5.1-1.9h20.1
			C1052.3,816.9,1054.1,817.7,1055.4,818.9"/>
		<path class="st14" d="M1055.4,916.9c-1.4,1.2-3.2,1.9-5.1,1.9h-20.1c-2,0-3.8-0.7-5.1-1.9l5.7-5.7h18.9L1055.4,916.9z"/>
		<path class="st14" d="M1030.1,825.3v38l-3.8,3.8l-3.1-3.1l-0.7-0.7v-38.6c0-1.9,0.7-3.7,1.9-5.1L1030.1,825.3z"/>
		<path class="st14" d="M1030.1,872.4v38l-5.7,5.7c-1.2-1.4-1.9-3.2-1.9-5.1v-38.6l0.7-0.7l3.1-3.1L1030.1,872.4z"/>
		<path class="st14" d="M1058.1,824.7v38.6l-0.7,0.7l-3.1,3.1l-3.8-3.8v-38l5.7-5.7C1057.3,821,1058.1,822.8,1058.1,824.7"/>
		<path class="st14" d="M1058.1,872.4v38.6c0,2-0.7,3.8-1.9,5.1l-5.7-5.7v-38l3.8-3.8l3.1,3.1L1058.1,872.4z"/>
		<polygon class="st14" points="1032.8,973.8 1030.1,979.9 1035.6,979.9 1032.9,973.8 		"/>
		<path class="st14" d="M1038.6,958.4c-0.4-0.1-0.5-0.7-0.1-0.9c4.1-2.3,6.8-7,5.9-12.2c-0.8-4.7-4.4-8.5-9-9.5
			c-7.6-1.6-14.3,4.2-14.3,11.5c0,4.4,2.5,8.3,6.1,10.2c0.4,0.2,0.3,0.8-0.1,0.9c-5.9,1.2-10.5,6.4-10.5,12.7v23.7h32.5V971
			C1049.1,964.7,1044.6,959.6,1038.6,958.4 M1041.5,986.4h-2.4c-0.4,0-0.6-0.2-0.8-0.5l-1.3-3h-8.2l-1.3,3c-0.1,0.3-0.4,0.5-0.8,0.5
			h-2.4c-0.4,0-0.6-0.4-0.5-0.7l8.5-18.4c0.1-0.2,0.2-0.3,0.5-0.3h0.3c0.3,0,0.4,0.1,0.5,0.3l8.4,18.4
			C1042.1,986.1,1041.9,986.4,1041.5,986.4"/>
		<path class="st14" d="M1075.6,1049.4v-16.9c0-0.3-0.4-0.5-0.6-0.3l-6.3,5.5c-0.2,0.1-0.4,0.1-0.5,0l-2.5-2.8l8.6-7.5
			c0.2-0.2,0.2-0.4,0-0.6l-8.6-7.5l2.5-2.8c0.1-0.2,0.4-0.2,0.5,0l6.3,5.5c0.3,0.2,0.6,0,0.6-0.3v-16.9c0-0.3,0.4-0.5,0.6-0.3
			l14.9,13c0.2,0.2,0.2,0.4,0,0.6l-10,8.7c-0.2,0.2-0.2,0.4,0,0.6l10,8.7c0.2,0.2,0.2,0.4,0,0.6l-14.9,13
			C1076,1049.9,1075.6,1049.7,1075.6,1049.4 M1079.7,1032.4v7.9c0,0.3,0.4,0.5,0.6,0.3l4.5-3.9c0.2-0.2,0.2-0.4,0-0.6l-4.5-3.9
			C1080.1,1031.9,1079.7,1032.1,1079.7,1032.4 M1079.7,1013.8v7.9c0,0.3,0.4,0.5,0.6,0.3l4.5-3.9c0.2-0.2,0.2-0.4,0-0.6l-4.5-3.9
			C1080.1,1013.3,1079.7,1013.5,1079.7,1013.8"/>
		<path class="st14" d="M1039.2,650v1.6h-4c-1,0-1.8,0.8-1.8,1.8v11.9c0,1,0.8,1.8,1.8,1.8h4v1.6c0,1.3,1,2.3,2.3,2.3h47.7
			c1.3,0,2.3-1,2.3-2.3V650c0-1.3-1-2.3-2.3-2.3h-47.7C1040.2,647.7,1039.2,648.7,1039.2,650 M1088.3,667.8h-46.2v-17h46.2V667.8z"
			/>
		<rect x="1077" y="652.1" class="st14" width="10" height="14.4"/>
		<rect x="1065.8" y="652.1" class="st14" width="10" height="14.4"/>
		<rect x="1054.6" y="652.1" class="st14" width="10" height="14.4"/>
		<rect x="1043.4" y="652.1" class="st14" width="10" height="14.4"/>
		<path class="st14" d="M1049,746.8c-1,0.8-2.4,1.2-4.2,1.2h-3.5v6.1h-3.5v-16.8h7.2c1.7,0,3,0.4,4,1.3c1,0.9,1.5,2.2,1.5,4
			C1050.5,744.6,1050,746,1049,746.8 M1046.3,740.7c-0.4-0.4-1.1-0.6-1.9-0.6h-3.2v5h3.2c0.8,0,1.4-0.2,1.9-0.6
			c0.5-0.4,0.7-1,0.7-1.9C1047,741.7,1046.8,741.1,1046.3,740.7"/>
		<path class="st14" d="M1053.3,737.2h3.6v10.3c0,1.2,0.1,2,0.4,2.5c0.4,0.9,1.3,1.4,2.8,1.4c1.4,0,2.3-0.5,2.8-1.4
			c0.3-0.5,0.4-1.4,0.4-2.5v-10.3h3.6v10.4c0,1.8-0.3,3.2-0.8,4.2c-1,1.8-3,2.7-5.9,2.7c-2.9,0-4.9-0.9-5.9-2.7
			c-0.6-1-0.8-2.4-0.8-4.2V737.2z"/>
		<polygon class="st14" points="1070.2,737.2 1073.7,737.2 1073.7,751 1082.1,751 1082.1,754.1 1070.2,754.1 		"/>
		<rect x="1084.2" y="750.7" class="st14" width="3.5" height="3.4"/>
		<path class="st14" d="M1049.1,763.2h5.1V780h-3.3v-11.4c0-0.3,0-0.8,0-1.4c0-0.6,0-1,0-1.4l-3.2,14.1h-3.4l-3.2-14.1
			c0,0.3,0,0.8,0,1.4c0,0.6,0,1.1,0,1.4V780h-3.3v-16.8h5.1l3.1,13.2L1049.1,763.2z"/>
		<rect x="1058.9" y="763.2" class="st14" width="3.5" height="16.8"/>
		<polygon class="st14" points="1067.4,763.2 1071,763.2 1077.7,774.9 1077.7,763.2 1081,763.2 1081,780 1077.5,780 1070.6,768.1 
			1070.6,780 1067.4,780 		"/>
		<rect x="1084" y="776.6" class="st14" width="3.5" height="3.4"/>
		<rect x="1037.9" y="757.6" class="st14" width="49.7" height="2.2"/>
		<path class="st14" d="M1039.5,463.2v-7.3c0-1.9-1.1-2.7-2.4-2.7c-1.3,0-2.5,0.8-2.5,2.5v7.4h-2.4v-7.3c0-1.9-1.1-2.7-2.4-2.7
			c-1.3,0-2.5,0.8-2.5,2.7v7.3h-2.4v-11.9h2.3v1.2c0.8-0.9,2-1.3,3.2-1.3c1.5,0,2.6,0.6,3.4,1.7c1-1.2,2.2-1.7,3.7-1.7
			c1.2,0,2.3,0.4,3,1.1c0.9,0.9,1.3,2,1.3,3.4v7.6H1039.5z"/>
		<path class="st14" d="M1060.2,463.2v-7.3c0-1.9-1.1-2.7-2.4-2.7c-1.3,0-2.5,0.8-2.5,2.5v7.4h-2.4v-7.3c0-1.9-1.1-2.7-2.4-2.7
			c-1.3,0-2.5,0.8-2.5,2.7v7.3h-2.4v-11.9h2.3v1.2c0.8-0.9,2-1.3,3.2-1.3c1.5,0,2.6,0.6,3.4,1.7c1-1.2,2.2-1.7,3.7-1.7
			c1.2,0,2.3,0.4,3,1.1c0.9,0.9,1.3,2,1.3,3.4v7.6H1060.2z"/>
		<polygon class="st14" points="1075.9,463.2 1075.9,455.9 1069.1,455.9 1069.1,463.2 1066.6,463.2 1066.6,446.4 1069.1,446.4 
			1069.1,453.6 1075.9,453.6 1075.9,446.4 1078.4,446.4 1078.4,463.2 		"/>
		<path class="st14" d="M1086.5,468.2c-1.8,0-3-0.4-4.2-1.6l1.5-1.5c0.8,0.7,1.4,1.1,2.6,1.1c2,0,2.8-1.4,2.8-3v-1.5
			c-0.9,1-1.9,1.4-3.1,1.4c-1.2,0-2.2-0.4-2.8-1.1c-1.2-1.1-1.3-2.8-1.3-4.8c0-2,0.2-3.7,1.3-4.8c0.7-0.7,1.7-1,2.9-1
			c1.3,0,2.2,0.3,3.1,1.4v-1.3h2.3v11.9C1091.7,466,1089.7,468.2,1086.5,468.2 M1086.8,453.3c-2.2,0-2.5,1.9-2.5,3.7
			c0,1.9,0.3,3.7,2.5,3.7c2.2,0,2.4-1.9,2.4-3.7C1089.3,455.1,1089,453.3,1086.8,453.3"/>
	</g>
</g>
</svg>
